<svg width="40" height="40" viewBox="0 0 40 40" fill="none" xmlns="http://www.w3.org/2000/svg">
<path d="M23 15C23 15.7956 22.6839 16.5587 22.1213 17.1213C21.5587 17.6839 20.7956 18 20 18C19.2044 18 18.4413 17.6839 17.8787 17.1213C17.3161 16.5587 17 15.7956 17 15C17 14.2044 17.3161 13.4413 17.8787 12.8787C18.4413 12.3161 19.2044 12 20 12C20.7956 12 21.5587 12.3161 22.1213 12.8787C22.6839 13.4413 23 14.2044 23 15ZM14 21.5V22C14 23.0609 14.4214 24.0783 15.1716 24.8284C15.9217 25.5786 16.9391 26 18 26H22C23.0609 26 24.0783 25.5786 24.8284 24.8284C25.5786 24.0783 26 23.0609 26 22V21.5C26 21.1022 25.842 20.7206 25.5607 20.4393C25.2794 20.158 24.8978 20 24.5 20H15.5C15.1022 20 14.7206 20.158 14.4393 20.4393C14.158 20.7206 14 21.1022 14 21.5ZM8 8V32C8 33.0609 8.42143 34.0783 9.17157 34.8284C9.92172 35.5786 10.9391 36 12 36H31C31.2652 36 31.5196 35.8946 31.7071 35.7071C31.8946 35.5196 32 35.2652 32 35C32 34.7348 31.8946 34.4804 31.7071 34.2929C31.5196 34.1054 31.2652 34 31 34H12C11.4696 34 10.9609 33.7893 10.5858 33.4142C10.2107 33.0391 10 32.5304 10 32H30C30.5304 32 31.0391 31.7893 31.4142 31.4142C31.7893 31.0391 32 30.5304 32 30V8C32 6.93913 31.5786 5.92172 30.8284 5.17157C30.0783 4.42143 29.0609 4 28 4H12C10.9391 4 9.92172 4.42143 9.17157 5.17157C8.42143 5.92172 8 6.93913 8 8ZM28 6C28.5304 6 29.0391 6.21071 29.4142 6.58579C29.7893 6.96086 30 7.46957 30 8V30H10V8C10 7.46957 10.2107 6.96086 10.5858 6.58579C10.9609 6.21071 11.4696 6 12 6H28Z" fill="#00B0FF"/>
</svg>
