<svg width="30" height="30" viewBox="0 0 30 30" fill="none" xmlns="http://www.w3.org/2000/svg">
<path d="M26.6667 5H3.33341C2.89139 5 2.46746 5.17559 2.1549 5.48816C1.84234 5.80072 1.66675 6.22464 1.66675 6.66667V23.3333C1.66675 23.7754 1.84234 24.1993 2.1549 24.5118C2.46746 24.8244 2.89139 25 3.33341 25H26.6667C27.1088 25 27.5327 24.8244 27.8453 24.5118C28.1578 24.1993 28.3334 23.7754 28.3334 23.3333V6.66667C28.3334 6.22464 28.1578 5.80072 27.8453 5.48816C27.5327 5.17559 27.1088 5 26.6667 5ZM25.3834 23.3333H4.71675L10.5501 17.3L9.35008 16.1417L3.33341 22.3667V7.93333L13.6917 18.2417C14.004 18.5521 14.4264 18.7263 14.8667 18.7263C15.3071 18.7263 15.7295 18.5521 16.0417 18.2417L26.6667 7.675V22.2583L20.5334 16.125L19.3584 17.3L25.3834 23.3333ZM4.42508 6.66667H25.3167L14.8667 17.0583L4.42508 6.66667Z" fill="#00B0FF"/>
</svg>
