<svg width="30" height="30" viewBox="0 0 30 30" fill="none" xmlns="http://www.w3.org/2000/svg">
<path d="M14.7917 1.66675C11.6975 1.66675 8.73001 2.89591 6.54209 5.08384C4.35416 7.27176 3.125 10.2392 3.125 13.3334C3.125 13.7084 3.125 14.0751 3.18333 14.4418C3.39808 16.692 4.26189 18.8313 5.66976 20.5998C7.07764 22.3683 8.96894 23.6897 11.1138 24.4033C13.2586 25.117 15.5645 25.1922 17.7513 24.6199C19.9381 24.0475 21.9115 22.8522 23.4317 21.1793C24.9518 19.5064 25.9532 17.4278 26.3142 15.1964C26.6752 12.965 26.3801 10.6767 25.4649 8.60987C24.5497 6.54298 23.0538 4.78648 21.159 3.55388C19.2642 2.32128 17.0521 1.66567 14.7917 1.66675ZM14.7917 3.33342C17.4266 3.33571 19.9542 4.37788 21.825 6.23342V7.06675C18.5313 5.93326 14.9509 5.94795 11.6667 7.10842C11.4043 6.85274 11.0749 6.67651 10.7167 6.60008H10.5083C10.4083 6.25008 10.3167 5.90008 10.2417 5.54175C10.1667 5.18342 10.125 4.86675 10.0833 4.52508C11.53 3.74439 13.1478 3.33493 14.7917 3.33342ZM12.2917 8.22508C15.3181 7.21164 18.598 7.24981 21.6 8.33342C21.194 10.4506 20.3073 12.4463 19.0083 14.1667C18.645 14.0129 18.2428 13.9759 17.8575 14.0611C17.4722 14.1462 17.123 14.3491 16.8583 14.6418C16.5667 14.4751 16.275 14.3084 16.025 14.1168C14.3428 12.9943 12.9379 11.504 11.9167 9.75842C12.0817 9.55376 12.2019 9.31668 12.2694 9.06257C12.3368 8.80846 12.3501 8.54299 12.3083 8.28342L12.2917 8.22508ZM8.95833 5.22508C8.95833 5.40008 9.00833 5.58342 9.04167 5.75842C9.11667 6.12508 9.21667 6.48342 9.31667 6.84175C8.99755 7.03071 8.74072 7.30894 8.57783 7.64212C8.41495 7.9753 8.35313 8.34886 8.4 8.71675C7.08458 9.57574 5.90964 10.6326 4.91667 11.8501C5.11591 10.5316 5.57686 9.26619 6.27239 8.12844C6.96792 6.99069 7.88398 6.00355 8.96667 5.22508H8.95833ZM8.95833 18.3167C8.63302 18.426 8.34229 18.6191 8.1155 18.8766C7.8887 19.1341 7.73388 19.4469 7.66667 19.7834H7.13333C5.78756 18.1783 4.98267 16.1894 4.83333 14.1001L4.925 13.9417C5.96851 12.3237 7.33272 10.9368 8.93333 9.86675C9.17331 10.1174 9.47657 10.2985 9.81104 10.3909C10.1455 10.4833 10.4987 10.4836 10.8333 10.3918C11.948 12.2754 13.4716 13.8844 15.2917 15.1001C15.6333 15.3251 15.9833 15.5334 16.3333 15.7334C16.3053 16.0521 16.3569 16.3728 16.4833 16.6667C14.9583 17.8778 13.1992 18.7601 11.3167 19.2584C11.0984 18.8505 10.7421 18.5335 10.3116 18.3641C9.88115 18.1946 9.40444 18.1838 8.96667 18.3334L8.95833 18.3167ZM14.7917 23.3167C13.0969 23.3172 11.4301 22.884 9.95 22.0584L10.1833 22.0084C10.5149 21.8996 10.8113 21.7038 11.0414 21.4414C11.2715 21.179 11.427 20.8597 11.4917 20.5168C13.6225 19.9734 15.6118 18.9787 17.325 17.6001C17.7319 17.8379 18.2125 17.9167 18.6741 17.8213C19.1357 17.7259 19.5457 17.4631 19.825 17.0834C21.0007 17.3891 22.2102 17.5459 23.425 17.5501H23.8667C23.0627 19.2789 21.7813 20.7419 20.1734 21.7665C18.5656 22.7912 16.6983 23.3348 14.7917 23.3334V23.3167ZM20.2167 15.9001C20.2159 15.5508 20.1209 15.2082 19.9417 14.9084C21.3285 13.0969 22.2936 10.9986 22.7667 8.76675C23.1833 8.96119 23.5944 9.17786 24 9.41675C24.9165 11.5825 25.0405 14.002 24.35 16.2501C22.9665 16.3571 21.5747 16.2474 20.225 15.9251L20.2167 15.9001Z" fill="#00B0FF"/>
</svg>
