<svg width="30" height="30" viewBox="0 0 30 30" fill="none" xmlns="http://www.w3.org/2000/svg">
<path d="M3.66994 5.25302L3.71008 5.22794L8.78389 2.72827L14.2602 10.03L11.7407 13.3896C11.8161 14.6566 12.3534 15.852 13.2509 16.7495C14.1484 17.6469 15.3437 18.1842 16.6107 18.2596L19.9703 15.7401L27.272 21.2163L24.7931 26.2477L24.7722 26.2902L24.7471 26.3302C24.6148 26.5434 24.4302 26.7191 24.2108 26.8407C23.9914 26.9624 23.7445 27.0258 23.4936 27.025H22.1844C19.6618 27.025 17.1639 26.5281 14.8334 25.5628C12.5028 24.5974 10.3852 23.1825 8.60146 21.3987C6.81772 19.615 5.40279 17.4974 4.43745 15.1668C3.4721 12.8363 2.97525 10.3384 2.97525 7.81579V6.50651C2.97445 6.25566 3.03787 6.00877 3.15947 5.78936C3.28107 5.56994 3.4568 5.38531 3.66994 5.25302ZM4.85025 7.81579C4.85025 17.3739 12.6263 25.15 22.1844 25.15H23.2438L24.9023 21.783L19.9699 18.0837L17.2238 20.1432H16.9113C15.0409 20.1411 13.2478 19.3972 11.9252 18.0746C10.6026 16.7521 9.85872 14.9589 9.85662 13.0885V12.776L11.9161 10.03L8.21723 5.09786L4.85025 6.75671V7.81579Z" fill="#00B0FF"/>
</svg>
