<svg width="50" height="50" viewBox="0 0 50 50" fill="none" xmlns="http://www.w3.org/2000/svg">
<path d="M39.875 26.95C39.95 26.325 40 25.675 40 25C40 24.325 39.95 23.675 39.85 23.05L44.075 19.75C44.45 19.45 44.55 18.9 44.325 18.475L40.325 11.55C40.075 11.1 39.55 10.95 39.1 11.1L34.125 13.1C33.075 12.3 31.975 11.65 30.75 11.15L30 5.85C29.925 5.35 29.5 5 29 5H21C20.5 5 20.1 5.35 20.025 5.85L19.275 11.15C18.05 11.65 16.925 12.325 15.9 13.1L10.925 11.1C10.475 10.925 9.95002 11.1 9.70002 11.55L5.70002 18.475C5.45002 18.925 5.55002 19.45 5.95002 19.75L10.175 23.05C10.075 23.675 10 24.35 10 25C10 25.65 10.05 26.325 10.15 26.95L5.92502 30.25C5.55002 30.55 5.45002 31.1 5.67502 31.525L9.67502 38.45C9.92502 38.9 10.45 39.05 10.9 38.9L15.875 36.9C16.925 37.7 18.025 38.35 19.25 38.85L20 44.15C20.1 44.65 20.5 45 21 45H29C29.5 45 29.925 44.65 29.975 44.15L30.725 38.85C31.95 38.35 33.075 37.675 34.1 36.9L39.075 38.9C39.525 39.075 40.05 38.9 40.3 38.45L44.3 31.525C44.55 31.075 44.45 30.55 44.05 30.25L39.875 26.95ZM25 32.5C20.875 32.5 17.5 29.125 17.5 25C17.5 20.875 20.875 17.5 25 17.5C29.125 17.5 32.5 20.875 32.5 25C32.5 29.125 29.125 32.5 25 32.5Z" fill="#2979FF"/>
</svg>
