<svg width="30" height="30" viewBox="0 0 30 30" fill="none" xmlns="http://www.w3.org/2000/svg">
<path d="M23.925 16.17C23.97 15.795 24 15.405 24 15C24 14.595 23.97 14.205 23.91 13.83L26.445 11.85C26.67 11.67 26.73 11.34 26.595 11.085L24.195 6.93C24.045 6.66 23.73 6.57 23.46 6.66L20.475 7.86C19.845 7.38 19.185 6.99 18.45 6.69L18 3.51C17.955 3.21 17.7 3 17.4 3H12.6C12.3 3 12.06 3.21 12.015 3.51L11.565 6.69C10.83 6.99 10.155 7.395 9.54 7.86L6.555 6.66C6.285 6.555 5.97 6.66 5.82 6.93L3.42 11.085C3.27 11.355 3.33 11.67 3.57 11.85L6.105 13.83C6.045 14.205 6 14.61 6 15C6 15.39 6.03 15.795 6.09 16.17L3.555 18.15C3.33 18.33 3.27 18.66 3.405 18.915L5.805 23.07C5.955 23.34 6.27 23.43 6.54 23.34L9.525 22.14C10.155 22.62 10.815 23.01 11.55 23.31L12 26.49C12.06 26.79 12.3 27 12.6 27H17.4C17.7 27 17.955 26.79 17.985 26.49L18.435 23.31C19.17 23.01 19.845 22.605 20.46 22.14L23.445 23.34C23.715 23.445 24.03 23.34 24.18 23.07L26.58 18.915C26.73 18.645 26.67 18.33 26.43 18.15L23.925 16.17ZM15 19.5C12.525 19.5 10.5 17.475 10.5 15C10.5 12.525 12.525 10.5 15 10.5C17.475 10.5 19.5 12.525 19.5 15C19.5 17.475 17.475 19.5 15 19.5Z" fill="#F1F1F1"/>
</svg>
