<svg width="30" height="30" viewBox="0 0 30 30" fill="none" xmlns="http://www.w3.org/2000/svg">
<path d="M22.5 5L17.5 10H21.25V18.75C21.25 20.125 20.125 21.25 18.75 21.25C17.375 21.25 16.25 20.125 16.25 18.75V10C16.25 7.2375 14.0125 5 11.25 5C8.4875 5 6.25 7.2375 6.25 10V18.75H2.5L7.5 23.75L12.5 18.75H8.75V10C8.75 8.625 9.875 7.5 11.25 7.5C12.625 7.5 13.75 8.625 13.75 10V18.75C13.75 21.5125 15.9875 23.75 18.75 23.75C21.5125 23.75 23.75 21.5125 23.75 18.75V10H27.5L22.5 5Z" fill="#F1F1F1"/>
</svg>
