<svg width="60" height="60" viewBox="0 0 60 60" fill="none" xmlns="http://www.w3.org/2000/svg">
<path d="M31.8001 27C30.6001 26.7 29.4001 26.1 28.5001 25.2C27.6001 24.9 27.3001 24 27.3001 23.4C27.3001 22.8 27.6001 21.9 28.2001 21.6C29.1001 21 30.0001 20.4 30.9001 20.7C32.7001 20.7 34.2001 21.6 35.1001 22.8L37.8001 19.2C36.9001 18.3 36.0001 17.7 35.1001 17.1C34.2001 16.5 33.0001 16.2 31.8001 16.2V12H28.2001V16.2C26.7001 16.5 25.2001 17.4 24.0001 18.6C22.8001 20.1 21.9001 21.9 22.2001 23.7C22.2001 25.5 22.8001 27.3 24.0001 28.5C25.5001 30 27.6001 30.9 29.4001 31.8C30.3001 32.1 31.5001 32.7 32.4001 33.3C33.0001 33.9 33.3001 34.8 33.3001 35.7C33.3001 36.6 33.0001 37.5 32.4001 38.4C31.5001 39.3 30.3001 39.6 29.4001 39.6C28.2001 39.6 26.7001 39.3 25.8001 38.4C24.9001 37.8 24.0001 36.9 23.4001 36L20.4001 39.3C21.3001 40.5 22.2001 41.4 23.4001 42.3C24.9001 43.2 26.7001 44.1 28.5001 44.1V48H31.8001V43.5C33.6001 43.2 35.1001 42.3 36.3001 41.1C37.8001 39.6 38.7001 37.2 38.7001 35.1C38.7001 33.3 38.1001 31.2 36.6001 30C35.1001 28.5 33.6001 27.6 31.8001 27ZM30.0001 6C16.8001 6 6.00006 16.8 6.00006 30C6.00006 43.2 16.8001 54 30.0001 54C43.2001 54 54.0001 43.2 54.0001 30C54.0001 16.8 43.2001 6 30.0001 6ZM30.0001 50.7C18.6001 50.7 9.30006 41.4 9.30006 30C9.30006 18.6 18.6001 9.3 30.0001 9.3C41.4001 9.3 50.7001 18.6 50.7001 30C50.7001 41.4 41.4001 50.7 30.0001 50.7Z" fill="#00B0FF"/>
</svg>
