<svg width="30" height="30" viewBox="0 0 30 30" fill="none" xmlns="http://www.w3.org/2000/svg">
<path d="M27.5 15V23.75C27.5001 24.7065 27.1346 25.6269 26.4784 26.3228C25.8222 27.0188 24.9249 27.4376 23.97 27.4938L23.75 27.5H20C19.6938 27.5 19.3983 27.3876 19.1695 27.1841C18.9407 26.9807 18.7946 26.7003 18.7588 26.3963L18.75 26.25V18.75C18.75 18.4438 18.8624 18.1483 19.0659 17.9195C19.2693 17.6907 19.5497 17.5446 19.8538 17.5087L20 17.5H25.625V15C25.625 12.1821 24.5056 9.47956 22.513 7.48699C20.5204 5.49442 17.8179 4.375 15 4.375C12.1821 4.375 9.47956 5.49442 7.48699 7.48699C5.49442 9.47956 4.375 12.1821 4.375 15V17.5H10C10.3315 17.5 10.6495 17.6317 10.8839 17.8661C11.1183 18.1005 11.25 18.4185 11.25 18.75V26.25C11.25 26.5815 11.1183 26.8995 10.8839 27.1339C10.6495 27.3683 10.3315 27.5 10 27.5H6.25C5.25544 27.5 4.30161 27.1049 3.59835 26.4017C2.89509 25.6984 2.5 24.7446 2.5 23.75V15C2.5 8.09625 8.09625 2.5 15 2.5C21.9037 2.5 27.5 8.09625 27.5 15V23.75V15ZM9.375 19.375H4.375V23.75C4.375 24.2473 4.57254 24.7242 4.92417 25.0758C5.27581 25.4275 5.75272 25.625 6.25 25.625H9.375V19.375ZM25.625 19.375H20.625V25.625H23.75C24.2159 25.625 24.6651 25.4516 25.0101 25.1384C25.3551 24.8253 25.5712 24.395 25.6162 23.9313L25.625 23.75V19.375Z" fill="#00B0FF"/>
</svg>
