<svg width="30" height="30" viewBox="0 0 30 30" fill="none" xmlns="http://www.w3.org/2000/svg">
<g clip-path="url(#clip0)">
<path d="M13.125 8.90625C13.125 8.13375 13.7588 7.5 14.5312 7.5H15.4688C16.2413 7.5 16.875 8.13375 16.875 8.90625V9.84375C16.875 10.6163 16.2413 11.25 15.4688 11.25H14.5312C14.1587 11.2485 13.8019 11.0999 13.5385 10.8365C13.2751 10.5731 13.1265 10.2163 13.125 9.84375V8.90625Z" fill="#00B0FF"/>
<path d="M18.75 22.5H11.25V20.625H13.125V15H11.25V13.125H16.875V20.625H18.75V22.5Z" fill="#00B0FF"/>
<path d="M15 0C11.0218 0 7.20644 1.58035 4.3934 4.3934C1.58035 7.20644 0 11.0218 0 15C0 18.9782 1.58035 22.7936 4.3934 25.6066C7.20644 28.4196 11.0218 30 15 30C18.9782 30 22.7936 28.4196 25.6066 25.6066C28.4196 22.7936 30 18.9782 30 15C30 11.0218 28.4196 7.20644 25.6066 4.3934C22.7936 1.58035 18.9782 0 15 0V0ZM15 27.1875C11.7677 27.1875 8.66774 25.9035 6.38214 23.6179C4.09654 21.3323 2.8125 18.2323 2.8125 15C2.8125 11.7677 4.09654 8.66774 6.38214 6.38214C8.66774 4.09654 11.7677 2.8125 15 2.8125C18.2323 2.8125 21.3323 4.09654 23.6179 6.38214C25.9035 8.66774 27.1875 11.7677 27.1875 15C27.1875 18.2323 25.9035 21.3323 23.6179 23.6179C21.3323 25.9035 18.2323 27.1875 15 27.1875Z" fill="#00B0FF"/>
</g>
<defs>
<clipPath id="clip0">
<rect width="30" height="30" fill="white"/>
</clipPath>
</defs>
</svg>
