<svg width="30" height="30" viewBox="0 0 30 30" fill="none" xmlns="http://www.w3.org/2000/svg">
<path d="M15.9376 15.9375H20.7582C20.9864 16.8212 21.529 17.5914 22.2845 18.1037C23.0399 18.616 23.9562 18.8351 24.8616 18.7201C25.7671 18.6051 26.5995 18.1638 27.2029 17.479C27.8062 16.7941 28.1391 15.9127 28.1391 15C28.1391 14.0873 27.8062 13.2059 27.2029 12.521C26.5995 11.8362 25.7671 11.3949 24.8616 11.2799C23.9562 11.1649 23.0399 11.384 22.2845 11.8963C21.529 12.4086 20.9864 13.1788 20.7582 14.0625H15.9376V6.5625H20.7582C20.9864 7.44624 21.529 8.21643 22.2845 8.72869C23.0399 9.24095 23.9562 9.46012 24.8616 9.34511C25.7671 9.2301 26.5995 8.78882 27.2029 8.10397C27.8062 7.41912 28.1391 6.53773 28.1391 5.625C28.1391 4.71228 27.8062 3.83088 27.2029 3.14603C26.5995 2.46118 25.7671 2.0199 24.8616 1.90489C23.9562 1.78988 23.0399 2.00905 22.2845 2.52131C21.529 3.03357 20.9864 3.80376 20.7582 4.6875H15.9376C15.4404 4.688 14.9638 4.8857 14.6123 5.23722C14.2608 5.58875 14.0631 6.06537 14.0626 6.5625V14.0625H9.24194C9.01376 13.1788 8.4711 12.4086 7.71569 11.8963C6.96027 11.384 6.04396 11.1649 5.13851 11.2799C4.23306 11.3949 3.40063 11.8362 2.79727 12.521C2.1939 13.2059 1.86102 14.0873 1.86102 15C1.86102 15.9127 2.1939 16.7941 2.79727 17.479C3.40063 18.1638 4.23306 18.6051 5.13851 18.7201C6.04396 18.8351 6.96027 18.616 7.71569 18.1037C8.4711 17.5914 9.01376 16.8212 9.24194 15.9375H14.0626V23.4375C14.0631 23.9346 14.2608 24.4113 14.6123 24.7628C14.9638 25.1143 15.4404 25.312 15.9376 25.3125H20.7582C20.9864 26.1962 21.529 26.9664 22.2845 27.4787C23.0399 27.991 23.9562 28.2101 24.8616 28.0951C25.7671 27.9801 26.5995 27.5388 27.2029 26.854C27.8062 26.1691 28.1391 25.2877 28.1391 24.375C28.1391 23.4623 27.8062 22.5809 27.2029 21.896C26.5995 21.2112 25.7671 20.7699 24.8616 20.6549C23.9562 20.5399 23.0399 20.759 22.2845 21.2713C21.529 21.7836 20.9864 22.5538 20.7582 23.4375H15.9376V15.9375ZM24.3751 13.125C24.7459 13.125 25.1084 13.235 25.4168 13.441C25.7251 13.647 25.9654 13.9399 26.1073 14.2825C26.2493 14.6251 26.2864 15.0021 26.214 15.3658C26.1417 15.7295 25.9631 16.0636 25.7009 16.3258C25.4387 16.588 25.1046 16.7666 24.7409 16.839C24.3771 16.9113 24.0002 16.8742 23.6575 16.7323C23.3149 16.5904 23.0221 16.35 22.8161 16.0417C22.61 15.7334 22.5001 15.3708 22.5001 15C22.5006 14.5029 22.6983 14.0262 23.0498 13.6747C23.4013 13.3232 23.8779 13.1255 24.3751 13.125ZM24.3751 3.75C24.7459 3.75 25.1084 3.85997 25.4168 4.06599C25.7251 4.27202 25.9654 4.56486 26.1073 4.90747C26.2493 5.25008 26.2864 5.62708 26.214 5.99079C26.1417 6.35451 25.9631 6.6886 25.7009 6.95083C25.4387 7.21305 25.1046 7.39163 24.7409 7.46397C24.3771 7.53632 24.0002 7.49919 23.6575 7.35727C23.3149 7.21536 23.0221 6.97504 22.8161 6.66669C22.61 6.35835 22.5001 5.99584 22.5001 5.625C22.5006 5.12787 22.6983 4.65125 23.0498 4.29972C23.4013 3.9482 23.8779 3.7505 24.3751 3.75ZM5.62507 16.875C5.25423 16.875 4.89172 16.765 4.58338 16.559C4.27503 16.353 4.03471 16.0601 3.8928 15.7175C3.75088 15.3749 3.71375 14.9979 3.7861 14.6342C3.85844 14.2705 4.03702 13.9364 4.29924 13.6742C4.56147 13.412 4.89556 13.2334 5.25928 13.161C5.62299 13.0887 5.99999 13.1258 6.3426 13.2677C6.68521 13.4096 6.97805 13.65 7.18407 13.9583C7.3901 14.2666 7.50007 14.6292 7.50007 15C7.49957 15.4971 7.30187 15.9738 6.95035 16.3253C6.59882 16.6768 6.1222 16.8745 5.62507 16.875ZM24.3751 22.5C24.7459 22.5 25.1084 22.61 25.4168 22.816C25.7251 23.022 25.9654 23.3149 26.1073 23.6575C26.2493 24.0001 26.2864 24.3771 26.214 24.7408C26.1417 25.1045 25.9631 25.4386 25.7009 25.7008C25.4387 25.963 25.1046 26.1416 24.7409 26.214C24.3771 26.2863 24.0002 26.2492 23.6575 26.1073C23.3149 25.9654 23.0221 25.725 22.8161 25.4167C22.61 25.1084 22.5001 24.7458 22.5001 24.375C22.5006 23.8779 22.6983 23.4012 23.0498 23.0497C23.4013 22.6982 23.8779 22.5005 24.3751 22.5Z" fill="#00B0FF"/>
</svg>
