<svg width="550" height="444" viewBox="0 0 550 444" fill="none" xmlns="http://www.w3.org/2000/svg">
<path fill-rule="evenodd" clip-rule="evenodd" d="M262.358 0.0083012C357.58 1.02258 428.865 63.3764 461.746 138.888C500.078 226.914 518.753 332.522 433.162 392.255C332.967 462.18 156.021 460.311 54.039 392.255C-38.984 330.177 72.5772 269.657 114.584 176.002C149.567 98.0049 163.645 -1.04316 262.358 0.0083012Z" fill="#00E5FF"/>
<path d="M82.5668 339.65C78.6124 354.717 64.7557 364.133 64.7557 364.133C64.7557 364.133 57.3104 349.12 61.2648 334.054C65.2192 318.987 79.0759 309.571 79.0759 309.571C79.0759 309.571 86.5213 324.584 82.5668 339.65Z" fill="#3F3D56"/>
<path d="M76.5689 336.463C65.4932 347.411 64.254 364.124 64.254 364.124C64.254 364.124 80.9721 363.087 92.0479 352.139C103.124 341.19 104.363 324.477 104.363 324.477C104.363 324.477 87.6446 325.515 76.5689 336.463Z" fill="#2979FF"/>
<path d="M90.458 359.721H47.1342C42.3821 359.721 38.5298 363.576 38.5298 368.33V376.884C38.5298 381.639 42.3821 385.493 47.1342 385.493H90.458C95.2101 385.493 99.0624 381.639 99.0624 376.884V368.33C99.0624 363.576 95.2101 359.721 90.458 359.721Z" fill="#2979FF"/>
<g opacity="0.7">
<path opacity="0.7" d="M507.002 343.258V333.972H460.593V376.922C460.593 378.111 460.827 379.288 461.282 380.387C461.737 381.485 462.403 382.483 463.244 383.324C464.084 384.165 465.082 384.832 466.18 385.287C467.278 385.742 468.454 385.976 469.643 385.976H497.952C500.352 385.976 502.654 385.022 504.351 383.324C506.048 381.626 507.002 379.323 507.002 376.922V367.403C510.198 367.397 513.261 366.122 515.519 363.859C517.776 361.596 519.044 358.528 519.044 355.331C519.044 352.133 517.776 349.066 515.519 346.802C513.261 344.539 510.198 343.264 507.002 343.258ZM507.002 362.76V347.901C508.971 347.901 510.86 348.684 512.252 350.077C513.645 351.471 514.427 353.36 514.427 355.331C514.427 357.301 513.645 359.191 512.252 360.584C510.86 361.977 508.971 362.76 507.002 362.76Z" fill="url(#paint0_linear)"/>
</g>
<path d="M505.508 344.712C503.33 344.712 501.2 345.358 499.388 346.569C497.576 347.781 496.164 349.502 495.33 351.516C494.496 353.53 494.278 355.747 494.703 357.885C495.128 360.023 496.178 361.987 497.718 363.529C499.259 365.07 501.222 366.12 503.359 366.545C505.496 366.971 507.711 366.752 509.724 365.918C511.738 365.084 513.458 363.671 514.669 361.858C515.879 360.046 516.525 357.914 516.525 355.734C516.525 352.811 515.365 350.007 513.299 347.94C511.233 345.873 508.43 344.712 505.508 344.712ZM505.508 362.518C504.168 362.518 502.857 362.12 501.742 361.374C500.627 360.629 499.758 359.57 499.245 358.33C498.732 357.091 498.597 355.727 498.859 354.411C499.121 353.095 499.766 351.887 500.714 350.938C501.663 349.989 502.871 349.343 504.186 349.082C505.501 348.82 506.864 348.954 508.103 349.468C509.342 349.981 510.401 350.85 511.146 351.966C511.891 353.081 512.288 354.393 512.288 355.734C512.288 357.533 511.574 359.259 510.302 360.531C509.031 361.803 507.307 362.518 505.508 362.518Z" fill="#2979FF"/>
<path opacity="0.1" d="M505.508 344.712C503.33 344.712 501.2 345.358 499.388 346.569C497.576 347.781 496.164 349.502 495.33 351.516C494.496 353.53 494.278 355.747 494.703 357.885C495.128 360.023 496.178 361.987 497.718 363.529C499.259 365.07 501.222 366.12 503.359 366.545C505.496 366.971 507.711 366.752 509.724 365.918C511.738 365.084 513.458 363.671 514.669 361.858C515.879 360.046 516.525 357.914 516.525 355.734C516.525 352.811 515.365 350.007 513.299 347.94C511.233 345.873 508.43 344.712 505.508 344.712ZM505.508 362.518C504.168 362.518 502.857 362.12 501.742 361.374C500.627 360.629 499.758 359.57 499.245 358.33C498.732 357.091 498.597 355.727 498.859 354.411C499.121 353.095 499.766 351.887 500.714 350.938C501.663 349.989 502.871 349.343 504.186 349.082C505.501 348.82 506.864 348.954 508.103 349.468C509.342 349.981 510.401 350.85 511.146 351.966C511.891 353.081 512.288 354.393 512.288 355.734C512.288 357.533 511.574 359.259 510.302 360.531C509.031 361.803 507.307 362.518 505.508 362.518Z" fill="black"/>
<path d="M463.136 336.233H505.508V378.192C505.508 379.657 504.927 381.062 503.892 382.097C502.856 383.133 501.452 383.715 499.988 383.715H468.656C467.192 383.715 465.788 383.133 464.752 382.097C463.717 381.062 463.136 379.657 463.136 378.192V336.233Z" fill="#2979FF"/>
<path d="M550 383.715H0V402.369H550V383.715Z" fill="#E0E0E0"/>
<g opacity="0.7">
<path opacity="0.7" d="M361.765 258.904C355.87 237.496 322.451 221.863 297.306 218.397C297.31 218.239 297.318 218.082 297.318 217.924V199.598C297.345 199.589 297.372 199.58 297.399 199.57V198.876C306.323 195.555 314.376 190.248 320.949 183.356C327.521 176.464 332.442 168.167 335.338 159.092C336.893 156.281 338.245 153.363 339.387 150.36C342.071 149.382 344.098 144.953 344.098 139.632C344.108 137.811 343.853 135.999 343.341 134.253C343.67 131.543 343.838 128.815 343.844 126.085C343.854 116.541 341.859 107.101 337.987 98.378C334.115 89.6553 328.453 81.8446 321.369 75.4529C321.579 74.3565 321.651 73.2379 321.581 72.1236C321.012 63.3281 311.623 57.3526 302.822 56.9529C305.147 54.3144 306.675 51.0699 307.23 47.5967C307.784 44.1234 307.342 40.5641 305.954 37.3325C300.343 45.5118 288.823 46.3813 278.907 46.4456C283.186 44.7878 285.111 38.8566 282.623 35C272.26 48.8976 252.058 51.4711 239.732 63.6596C237.047 66.3256 234.796 69.3967 233.063 72.7608C225.052 79.1455 218.585 87.2563 214.143 96.4889C209.7 105.721 207.397 115.838 207.404 126.085C207.41 128.79 207.575 131.493 207.898 134.179C207.37 135.948 207.106 137.785 207.117 139.632C207.117 144.978 209.163 149.42 211.866 150.37C213.012 153.384 214.371 156.312 215.932 159.132C218.819 168.154 223.707 176.406 230.231 183.271C236.755 190.137 244.746 195.437 253.606 198.776V217.924C253.606 218.071 253.614 218.217 253.617 218.363C228.377 221.77 194.691 237.526 188.848 259.106C183.803 277.741 178.418 298.208 175.738 310.224C198.706 326.371 246.902 335.853 277.106 335.853C305.803 335.853 352.708 327.295 375 312.592C372.585 299.389 367.03 278.024 361.765 258.904Z" fill="url(#paint1_linear)"/>
</g>
<path d="M277.044 330.537C304.727 330.537 349.975 322.282 371.479 308.098C369.15 295.362 363.791 274.752 358.712 256.307C352.244 232.817 311.421 216.532 287.069 216.532H263.602C239.174 216.532 198.292 232.912 191.906 256.502C187.039 274.479 181.843 294.222 179.258 305.814C201.415 321.391 247.907 330.537 277.044 330.537Z" fill="#2979FF"/>
<path d="M275.615 194.025C311.96 194.025 341.424 164.546 341.424 128.182C341.424 91.8174 311.96 62.3382 275.615 62.3382C239.27 62.3382 209.806 91.8174 209.806 128.182C209.806 164.546 239.27 194.025 275.615 194.025Z" fill="#72351C"/>
<path opacity="0.1" d="M254.375 183.024H296.543V216.775C296.543 222.37 294.321 227.736 290.367 231.692C286.413 235.648 281.051 237.87 275.459 237.87H275.459C269.867 237.87 264.504 235.648 260.55 231.692C256.596 227.736 254.375 222.37 254.375 216.775V183.024H254.375Z" fill="black"/>
<path d="M260.423 181.461H290.494C292.098 181.461 293.637 182.099 294.771 183.234C295.905 184.368 296.543 185.908 296.543 187.513V215.213C296.543 220.807 294.321 226.173 290.367 230.129C286.413 234.085 281.051 236.308 275.459 236.308H275.459C269.867 236.308 264.504 234.085 260.55 230.129C256.596 226.173 254.375 220.807 254.375 215.213V187.513C254.375 185.908 255.012 184.368 256.147 183.234C257.281 182.099 258.819 181.461 260.423 181.461Z" fill="#FDA57D"/>
<path opacity="0.1" d="M254.453 198.954C268.043 204.035 283.003 204.076 296.621 199.071V193.888H254.453V198.954Z" fill="black"/>
<path d="M275.615 201.779C308.995 201.779 336.055 174.705 336.055 141.307C336.055 107.91 308.995 80.8357 275.615 80.8357C242.235 80.8357 215.175 107.91 215.175 141.307C215.175 174.705 242.235 201.779 275.615 201.779Z" fill="#FDA57D"/>
<path opacity="0.1" d="M232.563 86.3019C232.563 86.3019 258.035 138.033 329.889 107.983L313.161 81.7374L283.507 71.0868L232.563 86.3019Z" fill="black"/>
<path d="M232.563 85.5411C232.563 85.5411 258.035 137.272 329.889 107.223L313.161 80.9766L283.507 70.3261L232.563 85.5411Z" fill="#72351C"/>
<path d="M232.337 82.0462C234.054 76.7264 237.022 71.8966 240.991 67.9624C252.882 56.2045 272.37 53.722 282.366 40.3155C284.767 44.0358 282.91 49.7575 278.782 51.3566C288.347 51.2946 299.46 50.4559 304.873 42.5655C306.212 45.683 306.639 49.1165 306.104 52.4671C305.569 55.8176 304.095 58.9474 301.852 61.4927C310.342 61.8782 319.4 67.6425 319.948 76.1273C320.314 81.7799 316.771 87.1317 312.129 90.3735C307.486 93.6152 301.869 95.1034 296.34 96.323C280.202 99.883 221.806 114.805 232.337 82.0462Z" fill="#72351C"/>
<path d="M336.053 141.837H334.451L303.276 169.604C273.242 155.53 251.192 169.604 251.192 169.604L218.497 142.978L215.2 143.392C215.647 159.263 222.315 174.322 233.764 185.316C245.213 196.311 260.524 202.359 276.392 202.154C292.26 201.95 307.411 195.51 318.574 184.225C329.736 172.939 336.015 157.714 336.053 141.837ZM275.523 180.255C263.765 180.255 254.233 177.87 254.233 174.929C254.233 171.988 263.765 169.604 275.523 169.604C287.282 169.604 296.813 171.988 296.813 174.929C296.813 177.87 287.282 180.255 275.523 180.255Z" fill="#72351C"/>
<path d="M215.151 151.797C218.256 151.797 220.773 147.075 220.773 141.25C220.773 135.425 218.256 130.702 215.151 130.702C212.046 130.702 209.529 135.425 209.529 141.25C209.529 147.075 212.046 151.797 215.151 151.797Z" fill="#FDA57D"/>
<path d="M336.047 151.797C339.152 151.797 341.67 147.075 341.67 141.25C341.67 135.425 339.152 130.702 336.047 130.702C332.942 130.702 330.425 135.425 330.425 141.25C330.425 147.075 332.942 151.797 336.047 151.797Z" fill="#FDA57D"/>
<g opacity="0.7">
<path opacity="0.7" d="M383.74 248.956H166.26C161.726 248.956 158.051 252.634 158.051 257.17V375.501C158.051 380.038 161.726 383.715 166.26 383.715H383.74C388.274 383.715 391.949 380.038 391.949 375.501V257.17C391.949 252.634 388.274 248.956 383.74 248.956Z" fill="url(#paint2_linear)"/>
</g>
<path d="M372.519 251.443H177.481C169.09 251.443 162.288 258.248 162.288 266.644V368.514C162.288 376.909 169.09 383.715 177.481 383.715H372.519C380.91 383.715 387.712 376.909 387.712 368.514V266.644C387.712 258.248 380.91 251.443 372.519 251.443Z" fill="#535461"/>
<path d="M275 325.21C279.212 325.21 282.627 321.793 282.627 317.579C282.627 313.364 279.212 309.948 275 309.948C270.788 309.948 267.373 313.364 267.373 317.579C267.373 321.793 270.788 325.21 275 325.21Z" fill="white"/>
<path d="M526.695 402.369H23.3051V410H526.695V402.369Z" fill="#E0E0E0"/>
<path opacity="0.1" d="M526.695 402.369H23.3051V404.913H526.695V402.369Z" fill="black"/>
<path opacity="0.1" d="M497.881 336.233V375.448C497.881 377.641 497.011 379.743 495.461 381.294C493.912 382.844 491.81 383.715 489.619 383.715H493.856C496.047 383.715 498.149 382.844 499.699 381.294C501.248 379.743 502.119 377.641 502.119 375.448V336.233H497.881Z" fill="black"/>
<path d="M471.497 304.626C470.783 304.748 469.976 304.941 469.626 305.576C469.07 306.585 470.077 307.721 470.997 308.414C472.695 309.694 474.484 310.951 475.639 312.737C476.793 314.523 477.156 317.016 475.894 318.728C474.246 320.963 470.316 321.444 469.935 324.195C469.691 325.961 471.217 327.469 472.764 328.355C476.58 330.542 481.501 331.126 484.265 334.549C485.409 332.196 487.967 330.836 490.517 330.255C493.067 329.674 495.716 329.717 498.301 329.323C499.136 329.196 500.076 328.941 500.449 328.184C501.172 326.716 499.112 324.956 499.823 323.483C500.364 322.362 501.954 322.449 503.114 322C505.004 321.269 505.784 318.835 505.247 316.88C504.711 314.925 503.196 313.397 501.602 312.145C497.308 308.769 492.145 306.783 486.923 305.355C484.494 304.691 481.643 303.65 479.12 303.549C476.685 303.452 473.908 304.213 471.497 304.626Z" fill="#EEEEEE"/>
<defs>
<linearGradient id="paint0_linear" x1="489.83" y1="385.976" x2="489.83" y2="333.972" gradientUnits="userSpaceOnUse">
<stop stop-color="#808080" stop-opacity="0.25"/>
<stop offset="0.53514" stop-color="#808080" stop-opacity="0.12"/>
<stop offset="1" stop-color="#808080" stop-opacity="0.1"/>
</linearGradient>
<linearGradient id="paint1_linear" x1="119863" y1="195621" x2="119863" y2="35836.5" gradientUnits="userSpaceOnUse">
<stop stop-color="#808080" stop-opacity="0.25"/>
<stop offset="0.53514" stop-color="#808080" stop-opacity="0.12"/>
<stop offset="1" stop-color="#808080" stop-opacity="0.1"/>
</linearGradient>
<linearGradient id="paint2_linear" x1="113767" y1="83206.2" x2="113767" y2="51147.9" gradientUnits="userSpaceOnUse">
<stop stop-color="#808080" stop-opacity="0.25"/>
<stop offset="0.53514" stop-color="#808080" stop-opacity="0.12"/>
<stop offset="1" stop-color="#808080" stop-opacity="0.1"/>
</linearGradient>
</defs>
</svg>
