<svg width="594" height="324" viewBox="0 0 594 324" fill="none" xmlns="http://www.w3.org/2000/svg">
<path d="M587.704 300.605C585.398 306.291 582.56 311.748 579.228 316.9C577.664 319.357 575.95 321.715 574.093 323.959H0.0775146C0.594036 323.556 3.62602 321.103 8.34186 316.9C11.7251 313.89 15.9709 309.976 20.7384 305.267L81.2386 292.772C82.0203 292.61 82.8164 292.529 83.6146 292.529L148.113 292.436H148.18L180.127 292.395H180.199L207.161 292.364H224.811H242.889L316.969 292.26H317.088H322.826H332.909H345.496H348.843L361.565 292.116H365.77L402.773 292.064H414.591H420.273L463.015 292.007H475.742L516.227 291.951L550.4 291.909C551.352 291.91 552.301 292.022 553.226 292.245L587.704 300.605Z" fill="#454B69"/>
<path opacity="0.4" d="M8.34186 316.9H579.228C577.664 319.357 575.95 321.715 574.093 323.959H0.0775146C0.583706 323.53 3.61569 321.077 8.34186 316.9Z" fill="black"/>
<path d="M378.724 156.318L377.577 156.54L325.739 166.495C310.683 169.386 295.409 172.293 280.115 171.183C269.036 170.378 258.684 167.094 248.039 164.213C242.021 162.581 235.642 161.93 233.602 155.197C230.787 145.903 235.369 132.142 236.448 122.724C237.481 113.482 238.091 104.007 236.252 94.8728C235.843 92.8202 235.305 90.7955 234.64 88.811C232.796 83.3429 229.899 77.658 231.464 72.1073C232.698 67.7029 236.464 64.5583 239.986 61.6462C246.887 55.9664 253.932 49.5999 256.67 41.0854C258.013 36.9546 258.266 32.5089 259.712 28.4092C262.455 20.6124 269.345 14.7829 277.011 11.6951C284.676 8.60742 293.105 7.95166 301.375 7.95166C308.677 7.95207 315.971 8.43677 323.208 9.40258C331.101 10.4353 339.066 12.134 346.002 16.0479C352.939 19.9618 358.786 26.3748 360.403 34.1922C362.691 45.2471 356.338 57.0197 359.747 67.7545C361.462 73.1813 365.429 77.565 368.182 82.5322C370.427 86.6873 371.812 91.2514 372.256 95.9529C372.7 100.654 372.192 105.397 370.764 109.898C367.469 120.107 359.401 130.433 363.533 140.332C366.162 146.626 372.877 149.987 377.557 154.975C377.973 155.423 378.363 155.87 378.724 156.318Z" fill="#454B69"/>
<path opacity="0.1" d="M377.577 155.016V156.54L325.739 166.495C310.683 169.386 295.409 172.293 280.115 171.183C269.035 170.378 258.684 167.094 248.039 164.213C242.021 162.581 235.642 161.93 233.602 155.197C230.787 145.903 235.369 132.142 236.448 122.724C237.481 113.482 253.385 79.7388 251.546 70.6047L346.586 74.7355C347.227 79.7802 372.345 105.102 370.78 109.94C367.485 120.148 359.416 130.475 363.549 140.373C366.183 146.667 372.898 150.029 377.577 155.016Z" fill="black"/>
<path d="M280.471 129.468C281.034 132.664 281.334 136.18 279.702 138.969C277.527 142.707 272.785 143.9 268.545 144.746L253.824 147.69C252.822 147.891 251.758 148.118 251.009 148.805C250.126 149.595 249.826 150.844 249.697 152.022C249.103 157.35 250.988 162.602 252.708 167.677C256.184 177.958 259.103 188.455 263.498 198.374C267.894 208.293 273.927 217.762 282.537 224.392C291.148 231.022 302.542 234.554 313.085 231.962C322.268 229.705 329.799 223.225 336.292 216.353C341.648 210.673 346.658 204.477 349.257 197.109C351.049 192.049 351.633 186.658 352.196 181.319C353.067 173.133 353.938 164.947 354.809 156.762C355.217 152.92 355.486 148.598 352.991 145.65C351.896 144.354 350.408 143.492 348.89 142.691C343.239 139.691 337.289 137.213 332.031 133.599C326.772 129.984 322.108 125.007 320.512 118.831C319.557 115.124 319.727 111.086 318.1 107.632C316.282 103.759 312.418 101.136 308.286 99.9847C304.154 98.8332 299.794 98.9881 295.538 99.4683C291.282 99.9485 274.877 101.177 273.116 105.974C272.171 108.556 276.091 114.096 277.021 116.637C278.551 120.802 279.706 125.097 280.471 129.468Z" fill="#EFB7B9"/>
<path opacity="0.1" d="M280.471 129.468C281.034 132.664 281.334 136.18 279.702 138.969C277.527 142.707 272.785 143.9 268.545 144.746L253.824 147.69C252.822 147.891 251.758 148.118 251.009 148.805C250.126 149.595 249.826 150.844 249.697 152.022C249.103 157.35 250.988 162.602 252.708 167.677C256.184 177.958 259.103 188.455 263.498 198.374C267.894 208.293 273.927 217.762 282.537 224.392C291.148 231.022 302.542 234.554 313.085 231.962C322.268 229.705 329.799 223.225 336.292 216.353C341.648 210.673 346.658 204.477 349.257 197.109C351.049 192.049 351.633 186.658 352.196 181.319C353.067 173.133 353.938 164.947 354.809 156.762C355.217 152.92 355.486 148.598 352.991 145.65C351.896 144.354 350.408 143.492 348.89 142.691C343.239 139.691 337.289 137.213 332.031 133.599C326.772 129.984 322.108 125.007 320.512 118.831C319.557 115.124 319.727 111.086 318.1 107.632C316.282 103.759 312.418 101.136 308.286 99.9847C304.154 98.8332 299.794 98.9881 295.538 99.4683C291.282 99.9485 274.877 101.177 273.116 105.974C272.171 108.556 276.091 114.096 277.021 116.637C278.551 120.802 279.706 125.097 280.471 129.468Z" fill="black"/>
<path d="M315.9 185.615L324.531 167.347C328.575 158.786 332.707 149.791 332.278 140.337C332.196 138.457 332.175 136.108 333.828 135.256C334.546 134.963 335.327 134.863 336.096 134.967C345.182 135.431 354.149 137.245 362.702 140.347C364.36 140.946 366.059 141.638 367.221 142.96C368.383 144.282 368.853 146.058 369.251 147.762C370.606 153.523 371.594 159.364 372.211 165.25C373.76 179.822 372.991 194.522 372.211 209.139L369.917 253.767C369.93 254.4 369.801 255.028 369.54 255.605C368.972 256.638 367.691 256.984 366.539 257.18C362.102 257.939 357.567 257.784 353.074 257.614C321.462 256.416 289.686 254.578 258.282 258.409C258.423 253.765 258.349 249.118 258.059 244.468C256.815 224.387 251.608 204.797 246.494 185.341C243.514 173.982 240.627 161.589 245.425 150.886C246.131 149.195 247.145 147.651 248.416 146.332C250.456 144.333 253.24 143.28 255.998 142.526C260.756 141.232 265.684 140.675 270.611 140.874L303.178 211.752C304.665 214.995 305.889 218.408 307.372 221.609C308.704 216.079 307.103 209.599 308.704 203.604C310.43 197.382 313.146 191.429 315.9 185.615Z" fill="white"/>
<path d="M312.496 234.384C318.322 234.75 323.983 231.766 327.991 227.547C331.999 223.329 334.644 217.979 336.881 212.573C340.096 204.867 342.651 196.902 344.52 188.765C346.069 181.846 347.17 174.684 346.1 167.672C344.623 157.991 339.143 149.192 338.208 139.444C338.048 137.74 338.151 135.747 339.52 134.719C340.367 134.084 341.483 133.996 342.536 133.934C352.278 133.356 362.98 133.464 370.527 139.645C372.825 141.524 374.69 143.874 376.937 145.81C382.288 150.457 389.85 152.822 393.285 158.992C394.483 161.14 395.056 163.572 395.893 165.885C397.866 171.359 401.281 176.171 404.674 180.906C401.384 194.785 397.603 208.675 394.313 222.554C392.386 230.697 390.444 238.871 387.417 246.667C385.434 251.779 382.939 256.994 383.548 262.467C383.791 264.621 384.509 266.681 385.134 268.757C387.325 276.042 388.352 283.627 388.176 291.233L240.792 291.594C247.853 281.474 249.924 269.061 249.206 256.746C248.86 250.845 247.527 244.907 244.557 239.8C239.878 231.797 231.644 226.582 223.53 222.115C217.848 219.017 211.748 236.449 205.607 234.451C206.598 227.439 207.053 200.372 206.64 193.314C206.505 191 206.299 188.625 207.012 186.415C207.497 184.902 208.391 183.55 208.995 182.078C211.417 176.187 209.109 168.653 213.024 163.639C215.73 160.154 220.477 159.163 224.336 157.015C228.297 154.805 231.36 151.335 234.811 148.371C241.581 142.624 249.853 138.932 258.653 137.729C261.22 141.777 262.781 146.38 263.204 151.154C263.467 154.154 263.276 157.195 263.695 160.18C264.268 164.223 265.941 168.018 267.6 171.756C274.505 187.345 281.437 202.98 290.187 217.618C292.661 221.749 295.352 225.879 298.937 229.096C302.522 232.313 307.682 234.611 312.496 234.384Z" fill="#00B0FF"/>
<path opacity="0.1" d="M312.496 234.384C318.322 234.75 323.983 231.766 327.991 227.547C331.999 223.329 334.644 217.979 336.881 212.573C340.096 204.867 342.651 196.902 344.52 188.765C346.069 181.846 347.17 174.684 346.1 167.672C344.623 157.991 339.143 149.192 338.208 139.444C338.048 137.74 338.151 135.747 339.52 134.719C340.367 134.084 341.483 133.996 342.536 133.934C352.278 133.356 362.98 133.464 370.527 139.645C372.825 141.524 374.69 143.874 376.937 145.81C382.288 150.457 389.85 152.822 393.285 158.992C394.483 161.14 395.056 163.572 395.893 165.885C397.866 171.359 401.281 176.171 404.674 180.906C401.384 194.785 397.603 208.675 394.313 222.554C392.386 230.697 390.444 238.871 387.417 246.667C385.434 251.779 382.939 256.994 383.548 262.467C383.791 264.621 384.509 266.681 385.134 268.757C387.325 276.042 388.352 283.627 388.176 291.233L240.792 291.594C247.853 281.474 249.924 269.061 249.206 256.746C248.86 250.845 247.527 244.907 244.557 239.8C239.878 231.797 231.644 226.582 223.53 222.115C217.848 219.017 211.748 236.449 205.607 234.451C206.598 227.439 207.053 200.372 206.64 193.314C206.505 191 206.299 188.625 207.012 186.415C207.497 184.902 208.391 183.55 208.995 182.078C211.417 176.187 209.109 168.653 213.024 163.639C215.73 160.154 220.477 159.163 224.336 157.015C228.297 154.805 231.36 151.335 234.811 148.371C241.581 142.624 249.853 138.932 258.653 137.729C261.22 141.777 262.781 146.38 263.204 151.154C263.467 154.154 263.276 157.195 263.695 160.18C264.268 164.223 265.941 168.018 267.6 171.756C274.505 187.345 281.437 202.98 290.187 217.618C292.661 221.749 295.352 225.879 298.937 229.096C302.522 232.313 307.682 234.611 312.496 234.384Z" fill="black"/>
<path d="M304.701 128.296C329.154 128.296 348.978 108.479 348.978 84.0348C348.978 59.5902 329.154 39.7739 304.701 39.7739C280.248 39.7739 260.425 59.5902 260.425 84.0348C260.425 108.479 280.248 128.296 304.701 128.296Z" fill="#EFB7B9"/>
<path d="M281.468 143.017C282.682 131.564 277.92 120.36 272.527 110.182C269.945 105.318 267.176 100.47 265.88 95.1258C264.583 89.7817 264.955 83.7301 268.271 79.3361C271.091 75.5978 275.564 73.5789 279.702 71.3844C291.38 65.1883 302.057 56.08 307.191 43.8995C304.288 45.4795 305.042 50.1937 307.604 52.2745C310.166 54.3554 313.658 54.7581 316.809 55.7495C328.296 59.3639 335.186 70.8164 340.713 81.515C341.617 83.2603 342.537 85.1036 342.526 87.0709C342.516 89.0382 341.617 90.7834 340.677 92.4563C337.95 97.31 334.613 101.973 333.373 107.399C331.953 113.595 333.451 120.112 335.398 126.189C337.464 132.654 340.207 139.17 345.166 143.807C350.124 148.443 357.815 150.746 363.915 147.752C357.826 137.285 351.519 125.59 353.895 113.725C355.042 108.045 358.125 102.881 359.437 97.2325C361.937 86.4564 357.774 75.3706 353.688 65.085L341.478 34.3884C339.613 29.6949 337.49 24.6863 333.213 22.0272C330.321 20.2355 326.819 19.7708 323.43 19.4455C312.521 18.4747 301.22 18.7949 291.065 22.8533C272.563 30.2422 260.962 48.4588 251.758 66.128C249 71.4205 246.277 77.0435 246.391 83.0124C246.453 86.286 247.367 89.4719 248.111 92.6629C251.138 105.654 251.303 119.115 251.458 132.452C251.577 142.686 251.045 152.331 246.567 161.651C252.703 162.87 261.603 166.159 267.677 163.753C275.595 160.624 280.471 150.984 281.468 143.017Z" fill="#454B69"/>
<g opacity="0.1">
<path opacity="0.1" d="M251.432 132.235C251.453 130.779 251.453 129.309 251.432 127.826C251.278 114.489 251.112 101.028 248.085 88.0365C247.409 85.5084 246.881 82.9429 246.505 80.3533C246.399 81.2424 246.352 82.1377 246.365 83.0331C246.427 86.3067 247.342 89.4925 248.085 92.6835C251.097 105.597 251.283 118.976 251.432 132.235Z" fill="black"/>
<path opacity="0.1" d="M359.437 97.2325C360.115 94.2155 360.341 91.1146 360.109 88.0312C360.007 89.5648 359.783 91.0878 359.437 92.5854C358.125 98.2652 355.041 103.382 353.895 109.077C353.401 111.589 353.262 114.158 353.482 116.709C353.564 115.707 353.702 114.711 353.895 113.724C355.041 108.029 358.125 102.892 359.437 97.2325Z" fill="black"/>
<path opacity="0.1" d="M342.123 84.7008C342.375 83.9675 342.511 83.1992 342.526 82.4238C342.526 80.4565 341.617 78.6132 340.713 76.8679C335.186 66.1693 328.317 54.7271 316.809 51.1024C313.658 50.111 310.171 49.7083 307.604 47.6274C306.944 47.0587 306.403 46.3639 306.015 45.5836C305.626 44.8033 305.397 43.9534 305.342 43.0836C299.743 53.3588 290.125 61.2176 279.702 66.7373C275.569 68.9317 271.091 70.9506 268.271 74.689C265.621 78.2001 264.852 82.7697 265.311 87.1896C265.572 84.353 266.595 81.6395 268.271 79.3361C271.091 75.5977 275.564 73.5788 279.702 71.3844C290.125 65.8647 299.743 58.0059 305.342 47.7307C305.397 48.6005 305.626 49.4504 306.015 50.2307C306.403 51.0109 306.944 51.7058 307.604 52.2745C310.187 54.3399 313.658 54.7581 316.809 55.7495C328.296 59.3639 335.186 70.8164 340.713 81.515C341.274 82.5347 341.745 83.6006 342.123 84.7008Z" fill="black"/>
<path opacity="0.1" d="M345.166 139.16C340.207 134.512 337.475 128.007 335.398 121.542C334.152 117.911 333.321 114.15 332.919 110.332C332.438 115.635 333.756 121.062 335.398 126.189C337.464 132.654 340.207 139.17 345.166 143.807C350.124 148.443 357.815 150.746 363.915 147.752C363.182 146.497 362.454 145.221 361.73 143.936C356.064 145.531 349.556 143.259 345.166 139.16Z" fill="black"/>
<path opacity="0.1" d="M281.468 138.37C280.471 146.337 275.595 155.977 267.656 159.127C262.145 161.311 254.299 158.801 248.313 157.412C247.797 158.862 247.208 160.283 246.546 161.672C252.682 162.891 261.582 166.18 267.656 163.774C275.595 160.624 280.471 150.984 281.468 143.017C281.674 141.023 281.712 139.016 281.582 137.017C281.551 137.466 281.504 137.92 281.468 138.37Z" fill="black"/>
</g>
<path d="M344.055 266.392C336.075 265.127 327.976 262.684 320.063 264.326C315.476 265.276 311.282 267.559 307.47 270.316C309.567 271.994 312.015 273.491 313.348 275.825C314.175 277.44 314.796 279.152 315.197 280.922C316.034 284.02 316.876 287.18 317.005 290.402C317.134 293.624 316.488 296.98 314.567 299.577C324.629 300.568 334.381 298.09 344.195 295.668C345.317 295.471 346.385 295.04 347.33 294.403C348.88 293.185 349.334 291.016 349.344 289.038C349.344 285.507 348.353 282.063 347.345 278.675C346.147 274.612 345.259 270.429 344.055 266.392Z" fill="white"/>
<path d="M397.939 179.3C401.9 179.816 404.974 183.013 407.236 186.297C413.584 195.436 416.322 206.517 419.369 217.22C423.157 230.532 427.611 243.633 432.732 256.524C433.834 259.502 435.174 262.385 436.74 265.147C438.016 267.28 439.565 269.33 440.128 271.751C441.492 277.607 436.662 283.111 431.626 286.374C428.942 288.183 426.011 289.595 422.923 290.567C419.917 291.465 416.781 291.806 413.667 292.147L384.995 295.245C371.797 296.68 358.482 298.116 345.279 296.732C344.448 293.84 346.08 291.796 345.961 288.785C345.878 286.632 344.928 284.629 344.081 282.646C342.519 279.115 341.487 275.372 341.018 271.54C340.868 270.13 340.816 268.684 340.279 267.373C339.742 266.061 338.59 264.884 337.18 264.791C344.928 264.022 350.811 262.56 358.559 261.786C361.436 261.497 364.427 261.171 366.88 259.643C369.922 257.748 371.627 254.33 372.98 251.015C376.333 242.805 378.492 233.759 376.73 225.064C375.284 217.933 371.25 211.293 371.271 204.017C371.271 199.685 372.748 195.487 374.494 191.522C376.343 187.329 378.755 183.044 382.815 180.916C386.875 178.789 393.357 178.681 397.939 179.3Z" fill="#00B0FF"/>
<path opacity="0.08" d="M397.939 179.3C401.9 179.816 404.974 183.013 407.236 186.297C413.584 195.436 416.322 206.517 419.369 217.22C423.157 230.532 427.611 243.633 432.732 256.524C433.834 259.502 435.174 262.385 436.74 265.147C438.016 267.28 439.565 269.33 440.128 271.751C441.492 277.607 436.662 283.111 431.626 286.374C428.942 288.183 426.011 289.595 422.923 290.567C419.917 291.465 416.781 291.806 413.667 292.147L384.995 295.245C371.797 296.68 358.482 298.116 345.279 296.732C344.448 293.84 346.08 291.796 345.961 288.785C345.878 286.632 344.928 284.629 344.081 282.646C342.519 279.115 341.487 275.372 341.018 271.54C340.868 270.13 340.816 268.684 340.279 267.373C339.742 266.061 338.59 264.884 337.18 264.791C344.928 264.022 350.811 262.56 358.559 261.786C361.436 261.497 364.427 261.171 366.88 259.643C369.922 257.748 371.627 254.33 372.98 251.015C376.333 242.805 378.492 233.759 376.73 225.064C375.284 217.933 371.25 211.293 371.271 204.017C371.271 199.685 372.748 195.487 374.494 191.522C376.343 187.329 378.755 183.044 382.815 180.916C386.875 178.789 393.357 178.681 397.939 179.3Z" fill="black"/>
<path d="M218.391 172.593C220.266 168.142 222.171 163.546 222.223 158.719C222.28 153.498 220.157 148.542 218.535 143.585C216.53 137.52 215.194 131.254 214.553 124.898C214.42 124.289 214.511 123.653 214.811 123.106C215.24 122.502 216.066 122.378 216.795 122.218C220.369 121.403 223.07 118.516 225.302 115.609C228.763 111.12 231.686 106.24 234.01 101.069C235.72 97.2635 238.034 92.6216 242.207 92.5854C240.527 100.475 238.445 108.273 235.968 115.95C240.332 114.835 244.48 113.213 248.845 112.098C249.699 111.828 250.594 111.709 251.489 111.747C254.103 112.021 255.704 115.558 254.186 117.7C256.319 120.199 259.867 120.871 262.656 122.585C265.446 124.299 267.45 128.544 264.97 130.697C264.485 131.115 263.87 131.409 263.519 131.946C262.321 133.795 265.255 135.917 265.012 138.106C264.816 139.898 262.517 140.734 260.776 140.259C259.036 139.784 257.677 138.483 256.128 137.528C254.578 136.573 252.553 135.979 251.05 136.97C250.647 141.829 250.213 146.781 248.111 151.206C247.342 152.822 246.355 154.335 245.735 156.013C245.142 157.843 244.775 159.738 244.64 161.657L242.765 178.794C233.819 180.586 225.797 177.906 218.391 172.593Z" fill="#EFB7B9"/>
<path d="M216.206 187.954L214.558 176.806C214.4 175.899 214.312 174.98 214.295 174.059C214.295 171.477 215.431 169.015 216.531 166.665C225.648 170.92 235.503 172.433 245.56 172.438C246.887 172.438 248.4 172.314 249.227 171.276C250.937 173.243 250.988 176.409 250.26 178.908C249.532 181.407 248.132 183.658 247.202 186.095C246.732 187.329 246.35 188.677 245.451 189.627C244.057 191.129 241.794 191.388 239.738 191.377C237.576 191.364 235.419 191.158 233.292 190.763C227.786 189.741 221.712 186.968 216.206 187.954Z" fill="white"/>
<path d="M250.208 187.5C243.132 186.694 236.102 185.558 229.119 184.092C225.694 183.374 222.239 182.574 218.747 182.713C216.474 182.806 214.031 183.26 212.032 182.135C213.979 188.759 214.098 195.74 211.769 202.241C210.39 206.114 208.287 209.723 207.275 213.709C205.168 222.048 208.06 231.141 205.426 239.33C205.147 240.4 204.6 241.381 203.835 242.18C203.029 242.919 201.929 243.301 201.185 244.101C200.09 245.278 200.023 247.049 200.018 248.655L199.971 262.88C199.94 271.937 200.059 281.541 204.842 289.214C210.297 297.992 221.779 302.541 231.774 299.871C234.431 299.192 236.921 297.974 239.088 296.293C242.559 293.536 244.769 289.55 246.934 285.667C249.516 281.02 252.099 276.269 252.93 271.039C253.519 267.337 253.189 263.557 252.765 259.834C250.43 239.18 245.363 218.702 246.453 197.971C246.616 194.181 247.926 190.53 250.208 187.5Z" fill="#00B0FF"/>
<path d="M279.784 273.212C276.195 273.419 272.579 273.626 269.005 273.212C266.422 272.903 263.901 272.268 261.339 271.834C254.343 270.704 247.184 271.101 240.356 272.998C233.527 274.895 227.19 278.246 221.779 282.822C219.796 284.515 217.791 287.112 218.886 289.482C220.064 292.033 223.664 291.961 226.438 291.486C223.444 292.915 220.8 294.983 218.69 297.543C217.915 298.487 217.182 299.608 217.332 300.832C217.647 303.388 221.118 303.852 223.685 303.63C222.848 304.529 223.411 306.119 224.475 306.728C225.539 307.338 226.862 307.214 228.065 306.992C230.726 306.505 233.297 305.615 235.689 304.353C235.203 305.618 236.045 307.1 237.238 307.73C238.432 308.36 239.883 308.313 241.221 308.097C247.533 307.064 252.801 302.675 258.958 300.95C268.803 298.198 279.103 302.587 289.335 302.897C292.537 302.995 295.822 302.67 298.741 301.348C302.32 299.722 305.208 296.67 308.989 295.586C313.188 294.388 318.007 295.766 321.85 293.696C324.644 292.193 322.124 280.612 321.411 278.381C320.104 274.302 318.792 271.596 314.438 271.183C303.42 270.104 290.884 272.572 279.784 273.212Z" fill="#EFB7B9"/>
<path d="M307.268 270.052C307.268 270.052 323.947 284.164 314.324 299.561L332.919 293.143V279.672C332.919 279.032 325.858 269.412 325.858 269.412L317.516 268.126L307.268 270.052Z" fill="white"/>
<path d="M132.638 269.18H138.893C142.317 269.18 145.602 270.54 148.024 272.961C150.445 275.381 151.806 278.665 151.806 282.088V301.25H119.725V282.088C119.725 280.393 120.059 278.715 120.708 277.148C121.356 275.582 122.308 274.159 123.507 272.961C124.706 271.762 126.129 270.811 127.696 270.162C129.263 269.514 130.942 269.18 132.638 269.18Z" fill="#3F3D56"/>
<path opacity="0.1" d="M132.638 269.18H138.893C142.317 269.18 145.602 270.54 148.024 272.961C150.445 275.381 151.806 278.665 151.806 282.088V301.25H119.725V282.088C119.725 280.393 120.059 278.715 120.708 277.148C121.356 275.582 122.308 274.159 123.507 272.961C124.706 271.762 126.129 270.811 127.696 270.162C129.263 269.514 130.942 269.18 132.638 269.18Z" fill="black"/>
<path d="M134.482 276.233C135.899 276.233 137.049 275.084 137.049 273.667C137.049 272.25 135.899 271.101 134.482 271.101C133.064 271.101 131.915 272.25 131.915 273.667C131.915 275.084 133.064 276.233 134.482 276.233Z" fill="#3F3D56"/>
<path d="M134.482 273.027C135.899 273.027 137.049 271.878 137.049 270.46C137.049 269.043 135.899 267.894 134.482 267.894C133.064 267.894 131.915 269.043 131.915 270.46C131.915 271.878 133.064 273.027 134.482 273.027Z" fill="#3F3D56"/>
<path d="M134.482 269.82C135.899 269.82 137.049 268.671 137.049 267.254C137.049 265.837 135.899 264.688 134.482 264.688C133.064 264.688 131.915 265.837 131.915 267.254C131.915 268.671 133.064 269.82 134.482 269.82Z" fill="#3F3D56"/>
<path d="M134.482 266.614C135.899 266.614 137.049 265.465 137.049 264.047C137.049 262.63 135.899 261.481 134.482 261.481C133.064 261.481 131.915 262.63 131.915 264.047C131.915 265.465 133.064 266.614 134.482 266.614Z" fill="#3F3D56"/>
<path d="M134.482 263.407C135.899 263.407 137.049 262.258 137.049 260.841C137.049 259.424 135.899 258.275 134.482 258.275C133.064 258.275 131.915 259.424 131.915 260.841C131.915 262.258 133.064 263.407 134.482 263.407Z" fill="#3F3D56"/>
<path d="M134.482 260.201C135.899 260.201 137.049 259.052 137.049 257.634C137.049 256.217 135.899 255.068 134.482 255.068C133.064 255.068 131.915 256.217 131.915 257.634C131.915 259.052 133.064 260.201 134.482 260.201Z" fill="#3F3D56"/>
<path d="M134.482 256.989C135.899 256.989 137.049 255.84 137.049 254.423C137.049 253.006 135.899 251.857 134.482 251.857C133.064 251.857 131.915 253.006 131.915 254.423C131.915 255.84 133.064 256.989 134.482 256.989Z" fill="#3F3D56"/>
<path d="M138.335 258.275C139.753 258.275 140.902 257.126 140.902 255.709C140.902 254.291 139.753 253.142 138.335 253.142C136.917 253.142 135.768 254.291 135.768 255.709C135.768 257.126 136.917 258.275 138.335 258.275Z" fill="#3F3D56"/>
<path d="M140.902 256.989C142.32 256.989 143.469 255.84 143.469 254.423C143.469 253.006 142.32 251.857 140.902 251.857C139.484 251.857 138.335 253.006 138.335 254.423C138.335 255.84 139.484 256.989 140.902 256.989Z" fill="#3F3D56"/>
<path d="M143.469 255.709C144.887 255.709 146.036 254.56 146.036 253.142C146.036 251.725 144.887 250.576 143.469 250.576C142.051 250.576 140.902 251.725 140.902 253.142C140.902 254.56 142.051 255.709 143.469 255.709Z" fill="#3F3D56"/>
<path d="M134.482 253.782C135.899 253.782 137.049 252.634 137.049 251.216C137.049 249.799 135.899 248.65 134.482 248.65C133.064 248.65 131.915 249.799 131.915 251.216C131.915 252.634 133.064 253.782 134.482 253.782Z" fill="#3F3D56"/>
<path d="M134.482 250.576C135.899 250.576 137.049 249.427 137.049 248.01C137.049 246.593 135.899 245.444 134.482 245.444C133.064 245.444 131.915 246.593 131.915 248.01C131.915 249.427 133.064 250.576 134.482 250.576Z" fill="#3F3D56"/>
<path d="M134.482 247.37C135.899 247.37 137.049 246.221 137.049 244.803C137.049 243.386 135.899 242.237 134.482 242.237C133.064 242.237 131.915 243.386 131.915 244.803C131.915 246.221 133.064 247.37 134.482 247.37Z" fill="#3F3D56"/>
<path d="M134.482 244.163C135.899 244.163 137.049 243.014 137.049 241.597C137.049 240.18 135.899 239.031 134.482 239.031C133.064 239.031 131.915 240.18 131.915 241.597C131.915 243.014 133.064 244.163 134.482 244.163Z" fill="#3F3D56"/>
<path d="M145.143 233.32C144.502 233.413 143.862 233.48 143.221 233.521C143.817 233.002 144.369 232.435 144.874 231.828C144.518 230.749 143.996 229.733 143.325 228.817C142.688 229.175 141.985 229.396 141.258 229.468C140.623 229.561 139.983 229.628 139.342 229.674C140.184 228.988 140.969 227.955 141.796 227.093C139.944 225.415 137.572 224.424 135.077 224.287C132.581 224.149 130.115 224.873 128.09 226.337C126.065 227.801 124.605 229.916 123.954 232.328C123.303 234.74 123.501 237.303 124.515 239.586C125.529 241.869 127.298 243.735 129.524 244.87C131.75 246.005 134.298 246.341 136.743 245.822C139.187 245.302 141.379 243.959 142.95 242.017C144.522 240.074 145.378 237.651 145.375 235.153C145.375 234.524 145.32 233.897 145.21 233.279L145.143 233.32Z" fill="#00B0FF"/>
<path d="M153.701 246.068C153.047 246.471 152.308 246.717 151.542 246.786C150.907 246.879 150.267 246.951 149.626 246.993C150.307 246.382 150.942 245.723 151.527 245.02C149.979 244.617 148.336 244.805 146.92 245.548C145.504 246.291 144.416 247.535 143.868 249.038C143.321 250.54 143.354 252.192 143.96 253.672C144.567 255.151 145.704 256.351 147.149 257.038C148.593 257.724 150.242 257.846 151.773 257.382C153.303 256.917 154.605 255.899 155.425 254.526C156.244 253.152 156.521 251.523 156.202 249.956C155.884 248.389 154.992 246.997 153.701 246.053V246.068Z" fill="#00B0FF"/>
<path d="M130.634 258.275C132.051 258.275 133.201 257.126 133.201 255.709C133.201 254.291 132.051 253.142 130.634 253.142C129.216 253.142 128.066 254.291 128.066 255.709C128.066 257.126 129.216 258.275 130.634 258.275Z" fill="#3F3D56"/>
<path d="M128.066 256.989C129.484 256.989 130.633 255.84 130.633 254.423C130.633 253.006 129.484 251.857 128.066 251.857C126.649 251.857 125.499 253.006 125.499 254.423C125.499 255.84 126.649 256.989 128.066 256.989Z" fill="#3F3D56"/>
<path d="M125.499 255.709C126.917 255.709 128.066 254.56 128.066 253.142C128.066 251.725 126.917 250.576 125.499 250.576C124.081 250.576 122.932 251.725 122.932 253.142C122.932 254.56 124.081 255.709 125.499 255.709Z" fill="#3F3D56"/>
<path d="M115.267 246.068C115.922 246.471 116.661 246.717 117.426 246.786C118.061 246.879 118.702 246.951 119.342 246.993C118.66 246.384 118.025 245.724 117.442 245.02C118.989 244.617 120.632 244.805 122.048 245.548C123.465 246.291 124.553 247.535 125.1 249.038C125.648 250.54 125.615 252.192 125.008 253.672C124.401 255.151 123.265 256.351 121.82 257.038C120.375 257.724 118.726 257.846 117.196 257.382C115.665 256.917 114.363 255.899 113.544 254.526C112.725 253.152 112.447 251.523 112.766 249.956C113.085 248.389 113.976 246.997 115.267 246.053V246.068Z" fill="#00B0FF"/>
<path d="M132.638 271.08H138.893C142.317 271.08 145.602 272.44 148.024 274.861C150.445 277.282 151.806 280.565 151.806 283.989V300.961C151.806 301.541 151.575 302.098 151.164 302.509C150.754 302.919 150.197 303.15 149.616 303.15H121.899C121.318 303.15 120.761 302.919 120.351 302.509C119.94 302.098 119.709 301.541 119.709 300.961V283.989C119.709 282.292 120.044 280.612 120.694 279.045C121.343 277.478 122.296 276.054 123.497 274.855C124.697 273.656 126.123 272.706 127.691 272.058C129.26 271.41 130.941 271.078 132.638 271.08Z" fill="#3F3D56"/>
<g opacity="0.1">
<path opacity="0.1" d="M145.318 234.022C145.058 234.3 144.782 234.562 144.492 234.807C144.786 234.807 145.075 234.76 145.37 234.729C145.359 234.492 145.344 234.254 145.318 234.022Z" fill="black"/>
<path opacity="0.1" d="M140.639 230.955C141.284 230.914 141.92 230.847 142.56 230.754C143.135 230.681 143.696 230.528 144.228 230.299C143.967 229.783 143.667 229.288 143.33 228.817C143.008 229.013 142.66 229.161 142.297 229.256C141.79 229.866 141.236 230.434 140.639 230.955Z" fill="black"/>
<path opacity="0.1" d="M124.859 236.464C124.855 234.507 125.379 232.584 126.377 230.9C127.374 229.215 128.807 227.83 130.526 226.892C132.244 225.953 134.184 225.495 136.141 225.566C138.098 225.637 140 226.234 141.646 227.294L141.811 227.119C140.737 226.163 139.484 225.43 138.125 224.96C136.766 224.491 135.327 224.295 133.892 224.384C132.457 224.473 131.054 224.845 129.763 225.479C128.472 226.112 127.32 226.995 126.372 228.075C125.424 229.156 124.699 230.414 124.239 231.776C123.78 233.138 123.594 234.578 123.694 236.011C123.793 237.445 124.176 238.846 124.819 240.131C125.462 241.417 126.353 242.562 127.441 243.502C125.771 241.538 124.855 239.043 124.859 236.464Z" fill="black"/>
</g>
<g opacity="0.1">
<path opacity="0.1" d="M149.626 248.273C150.266 248.232 150.907 248.165 151.542 248.072C152.308 248.001 153.047 247.753 153.701 247.349C154.427 247.883 155.031 248.563 155.476 249.346C155.921 250.129 156.196 250.997 156.284 251.893C156.309 251.668 156.321 251.442 156.32 251.216C156.325 250.213 156.094 249.224 155.645 248.327C155.196 247.43 154.543 246.651 153.738 246.053C153.083 246.455 152.344 246.701 151.578 246.771L151.062 246.838C150.621 247.353 150.141 247.833 149.626 248.273Z" fill="black"/>
<path opacity="0.1" d="M149.884 246.084C150.098 246.086 150.312 246.102 150.525 246.13C150.86 245.774 151.191 245.392 151.527 245.02C150.577 244.767 149.582 244.735 148.618 244.928C147.654 245.12 146.748 245.532 145.969 246.131C145.19 246.73 144.559 247.5 144.126 248.382C143.692 249.264 143.467 250.234 143.469 251.216C143.469 251.433 143.469 251.645 143.5 251.857C143.659 250.274 144.4 248.808 145.58 247.741C146.759 246.674 148.293 246.084 149.884 246.084Z" fill="black"/>
</g>
<g opacity="0.1">
<path opacity="0.1" d="M119.342 248.273C118.702 248.232 118.061 248.165 117.426 248.072C116.66 248.001 115.921 247.753 115.267 247.349C114.542 247.883 113.937 248.563 113.492 249.346C113.047 250.129 112.772 250.997 112.684 251.893C112.659 251.668 112.647 251.442 112.648 251.216C112.643 250.213 112.875 249.224 113.323 248.327C113.772 247.43 114.425 246.651 115.231 246.053C115.886 246.455 116.624 246.701 117.39 246.771L117.906 246.838C118.344 247.355 118.825 247.835 119.342 248.273Z" fill="black"/>
<path opacity="0.1" d="M119.084 246.084C118.868 246.087 118.653 246.102 118.439 246.13C118.108 245.774 117.777 245.392 117.442 245.02C118.391 244.767 119.386 244.735 120.35 244.928C121.314 245.12 122.221 245.532 123 246.131C123.779 246.73 124.409 247.5 124.843 248.382C125.276 249.264 125.501 250.234 125.499 251.216C125.499 251.433 125.499 251.645 125.468 251.857C125.31 250.274 124.568 248.808 123.389 247.741C122.209 246.674 120.675 246.084 119.084 246.084Z" fill="black"/>
</g>
<path d="M101.677 309.356H51.2131C50.6446 309.356 50.0994 309.131 49.6974 308.729C49.2954 308.327 49.0696 307.782 49.0696 307.214V283.338C49.0695 282.976 49.1609 282.621 49.3354 282.304C49.5099 281.987 49.7617 281.72 50.0675 281.526C50.3732 281.333 50.7229 281.22 51.084 281.198C51.4451 281.177 51.8058 281.247 52.1326 281.402C66.6313 288.279 82.2509 290.639 100.686 281.51C101.012 281.349 101.375 281.274 101.739 281.291C102.103 281.308 102.456 281.418 102.766 281.61C103.076 281.801 103.332 282.068 103.51 282.386C103.688 282.704 103.783 283.062 103.785 283.426V307.177C103.79 307.459 103.739 307.739 103.635 308C103.532 308.262 103.378 308.501 103.183 308.703C102.987 308.906 102.753 309.068 102.495 309.18C102.237 309.292 101.959 309.352 101.677 309.356Z" fill="#00B0FF"/>
<path opacity="0.1" d="M101.677 309.356H51.2131C50.6446 309.356 50.0994 309.131 49.6974 308.729C49.2954 308.327 49.0696 307.782 49.0696 307.214V283.338C49.0695 282.976 49.1609 282.621 49.3354 282.304C49.5099 281.987 49.7617 281.72 50.0675 281.526C50.3732 281.333 50.7229 281.22 51.084 281.198C51.4451 281.177 51.8058 281.247 52.1326 281.402C66.6313 288.279 82.2509 290.639 100.686 281.51C101.012 281.349 101.375 281.274 101.739 281.291C102.103 281.308 102.456 281.418 102.766 281.61C103.076 281.801 103.332 282.068 103.51 282.386C103.688 282.704 103.783 283.062 103.785 283.426V307.177C103.79 307.459 103.739 307.739 103.635 308C103.532 308.262 103.378 308.501 103.183 308.703C102.987 308.906 102.753 309.068 102.495 309.18C102.237 309.292 101.959 309.352 101.677 309.356Z" fill="black"/>
<path d="M76.094 291.207C77.7429 291.207 79.0795 289.457 79.0795 287.298C79.0795 285.14 77.7429 283.39 76.094 283.39C74.4452 283.39 73.1085 285.14 73.1085 287.298C73.1085 289.457 74.4452 291.207 76.094 291.207Z" fill="#3F3D56"/>
<path d="M76.094 286.431C77.7429 286.431 79.0795 284.681 79.0795 282.522C79.0795 280.363 77.7429 278.614 76.094 278.614C74.4452 278.614 73.1085 280.363 73.1085 282.522C73.1085 284.681 74.4452 286.431 76.094 286.431Z" fill="#3F3D56"/>
<path d="M76.094 281.65C77.7429 281.65 79.0795 279.9 79.0795 277.741C79.0795 275.582 77.7429 273.832 76.094 273.832C74.4452 273.832 73.1085 275.582 73.1085 277.741C73.1085 279.9 74.4452 281.65 76.094 281.65Z" fill="#3F3D56"/>
<path d="M76.094 276.873C77.7429 276.873 79.0795 275.123 79.0795 272.965C79.0795 270.806 77.7429 269.056 76.094 269.056C74.4452 269.056 73.1085 270.806 73.1085 272.965C73.1085 275.123 74.4452 276.873 76.094 276.873Z" fill="#3F3D56"/>
<path d="M76.094 272.092C77.7429 272.092 79.0795 270.342 79.0795 268.183C79.0795 266.025 77.7429 264.275 76.094 264.275C74.4452 264.275 73.1085 266.025 73.1085 268.183C73.1085 270.342 74.4452 272.092 76.094 272.092Z" fill="#3F3D56"/>
<path d="M76.094 267.311C77.7429 267.311 79.0795 265.561 79.0795 263.402C79.0795 261.243 77.7429 259.493 76.094 259.493C74.4452 259.493 73.1085 261.243 73.1085 263.402C73.1085 265.561 74.4452 267.311 76.094 267.311Z" fill="#3F3D56"/>
<path d="M76.094 262.534C77.7429 262.534 79.0795 260.784 79.0795 258.626C79.0795 256.467 77.7429 254.717 76.094 254.717C74.4452 254.717 73.1085 256.467 73.1085 258.626C73.1085 260.784 74.4452 262.534 76.094 262.534Z" fill="#3F3D56"/>
<path d="M87.2921 225.921C87.6975 225.4 88.0684 224.853 88.4027 224.284L80.5515 222.993L89.0431 223.055C89.8624 221.281 90.3094 219.357 90.3564 217.403C90.4035 215.45 90.0497 213.507 89.3169 211.695L77.9276 217.602L88.4336 209.857C87.4499 208.157 86.1264 206.677 84.5455 205.51C82.9646 204.343 81.1602 203.514 79.2448 203.074C77.3294 202.635 75.344 202.594 73.4123 202.955C71.4806 203.316 69.6439 204.071 68.0168 205.173C66.3897 206.275 65.007 207.699 63.9548 209.359C62.9026 211.018 62.2034 212.876 61.9009 214.817C61.5984 216.758 61.6991 218.741 62.1965 220.641C62.694 222.542 63.5777 224.32 64.7925 225.864C64.1542 226.67 63.6068 227.545 63.1602 228.471L73.346 233.821L62.4991 230.155C61.7388 232.408 61.5518 234.815 61.9549 237.159C62.358 239.503 63.3385 241.709 64.8079 243.58C63.1474 245.69 62.1144 248.225 61.8271 250.895C61.5398 253.564 62.0098 256.261 63.1833 258.676C64.3568 261.091 66.1865 263.128 68.4632 264.553C70.74 265.977 73.3718 266.733 76.0578 266.733C78.7438 266.733 81.3756 265.977 83.6523 264.553C85.929 263.128 87.7587 261.091 88.9323 258.676C90.1058 256.261 90.5758 253.564 90.2885 250.895C90.0012 248.225 88.9682 245.69 87.3076 243.58C89.2916 241.058 90.3701 237.943 90.3701 234.735C90.3701 231.526 89.2916 228.411 87.3076 225.89L87.2921 225.921Z" fill="#00B0FF"/>
<path opacity="0.1" d="M61.7191 234.766C61.7144 237.975 62.7937 241.091 64.7821 243.611C63.1215 245.721 62.0885 248.256 61.8012 250.926C61.5139 253.595 61.9839 256.292 63.1574 258.707C64.331 261.123 66.1607 263.159 68.4374 264.584C70.7141 266.008 73.3459 266.764 76.0319 266.764C78.718 266.764 81.3498 266.008 83.6265 264.584C85.9032 263.159 87.7329 261.123 88.9064 258.707C90.08 256.292 90.55 253.595 90.2627 250.926C89.9753 248.256 88.9424 245.721 87.2818 243.611C89.1981 241.179 61.7191 233.16 61.7191 234.766Z" fill="black"/>
<path d="M101.677 310.621H51.2131C50.6446 310.621 50.0994 310.396 49.6974 309.994C49.2954 309.592 49.0696 309.047 49.0696 308.479V283.338C49.0695 282.976 49.1609 282.621 49.3354 282.304C49.5099 281.987 49.7617 281.72 50.0675 281.526C50.3732 281.333 50.7229 281.22 51.084 281.198C51.4451 281.177 51.8058 281.247 52.1326 281.402C66.6313 288.279 78.1291 296.298 100.686 281.51C102.023 280.632 103.785 281.83 103.785 283.426V308.468C103.788 309.032 103.568 309.574 103.173 309.978C102.779 310.381 102.241 310.612 101.677 310.621Z" fill="#00B0FF"/>
<path d="M476.145 303.512L401.694 313.358L397.97 313.849L361.57 294.414V289.865L475.319 277.462L476.145 303.512Z" fill="#9C9CA1"/>
<path d="M382.665 296.479L463.32 286.973L462.494 301.859L399.669 306.465L382.665 296.479Z" fill="#939498"/>
<path opacity="0.4" d="M401.694 308.468V313.353L397.97 313.869L361.565 294.414V289.865L396.312 308.453C396.312 308.453 400.867 308.882 401.694 308.468Z" fill="black"/>
<path d="M415.986 230.94L399.271 308.417C399.103 309.192 399.123 309.997 399.332 310.763C399.54 311.529 399.929 312.234 400.467 312.818C401.005 313.402 401.676 313.847 402.422 314.118C403.169 314.388 403.97 314.474 404.757 314.37L510.504 300.377C511.425 300.256 512.294 299.878 513.01 299.286C513.726 298.694 514.261 297.913 514.554 297.031L537.369 228.255C537.621 227.491 537.683 226.678 537.551 225.886C537.419 225.093 537.096 224.344 536.61 223.704C536.124 223.064 535.49 222.551 534.762 222.211C534.034 221.87 533.234 221.711 532.431 221.749L420.593 227.057C419.505 227.108 418.465 227.516 417.632 228.218C416.799 228.92 416.221 229.876 415.986 230.94Z" fill="#3F3D56"/>
<path d="M474.092 259.522C474.352 257.055 473.276 254.92 471.69 254.753C470.104 254.586 468.609 256.452 468.349 258.919C468.09 261.386 469.165 263.522 470.751 263.688C472.337 263.855 473.833 261.99 474.092 259.522Z" fill="white"/>
</svg>
