<svg width="1023" height="145" viewBox="0 0 1023 145" fill="none" xmlns="http://www.w3.org/2000/svg">
<g clip-path="url(#clip0_621_73)">
<mask id="mask0_621_73" style="mask-type:luminance" maskUnits="userSpaceOnUse" x="0" y="0" width="1023" height="145">
<path d="M1023 0H0V145H1023V0Z" fill="white"/>
</mask>
<g mask="url(#mask0_621_73)">
<path fill-rule="evenodd" clip-rule="evenodd" d="M1084.1 54.0345L1053.98 60.906C1023.87 67.4655 963.634 80.8962 903.417 78.7094C843.185 76.5227 782.958 58.4075 722.728 42.7905C662.504 27.1735 602.276 13.4306 542.048 18.1157C481.82 22.4885 421.592 44.9769 361.365 49.6619C301.137 54.0345 240.91 40.6041 180.683 29.3599C120.456 18.1157 60.2276 9.05787 30.1138 4.68509L0 0V121.5H30.1138C60.2276 121.5 120.456 121.5 180.683 121.5C240.91 121.5 301.137 121.5 361.365 121.5C421.592 121.5 481.82 121.5 542.048 121.5C602.276 121.5 662.504 121.5 722.728 121.5C782.958 121.5 843.185 121.5 903.417 121.5C963.634 121.5 1023.87 121.5 1053.98 121.5H1084.1V54.0345Z" fill="#0091EA"/>
<path fill-rule="evenodd" clip-rule="evenodd" d="M1023 72.2597L994.581 79.6685C966.169 86.7404 909.331 101.221 852.5 98.8638C795.667 96.5065 738.833 76.9743 682 60.136C625.167 43.2982 568.333 28.4807 511.5 33.5321C454.667 38.2468 397.833 62.4935 341 67.545C284.167 72.2597 227.333 57.779 170.5 45.6555C113.667 33.5321 56.8333 23.7661 28.4167 19.0514L0 14V145H28.4167C56.8333 145 113.667 145 170.5 145C227.333 145 284.167 145 341 145C397.833 145 454.667 145 511.5 145C568.333 145 625.167 145 682 145C738.833 145 795.667 145 852.5 145C909.331 145 966.169 145 994.581 145H1023V72.2597Z" fill="url(#paint0_linear_621_73)"/>
</g>
</g>
<defs>
<linearGradient id="paint0_linear_621_73" x1="511.5" y1="14" x2="511.5" y2="145" gradientUnits="userSpaceOnUse">
<stop stop-color="#00E5FF"/>
<stop offset="0.5" stop-color="#00B0FF"/>
<stop offset="1" stop-color="#2979FF"/>
</linearGradient>
<clipPath id="clip0_621_73">
<rect width="1023" height="145" fill="white"/>
</clipPath>
</defs>
</svg>
