<svg width="860" height="300" viewBox="0 0 860 300" fill="none" xmlns="http://www.w3.org/2000/svg">
<g clip-path="url(#clip0_621_57)">
<mask id="mask0_621_57" style="mask-type:luminance" maskUnits="userSpaceOnUse" x="0" y="0" width="860" height="300">
<path d="M860 0H0V300H860V0Z" fill="white"/>
</mask>
<g mask="url(#mask0_621_57)">
<path fill-rule="evenodd" clip-rule="evenodd" d="M0 28.4119L35.8333 36.0425C71.6667 44.2184 143.333 59.4795 215 51.8489C286.667 44.2184 358.333 20.7812 430 8.79009C501.667 -2.65592 573.333 -3.20097 645 8.79009C716.667 20.2361 788.331 36.0425 824.165 44.2184L860 51.8489V169.58H824.165C788.331 169.58 716.667 169.58 645 169.58C573.333 169.58 501.667 169.58 430 169.58C358.333 169.58 286.667 169.58 215 169.58C143.333 169.58 71.6667 169.58 35.8333 169.58H0V28.4119Z" fill="#DCF4FF"/>
<path fill-rule="evenodd" clip-rule="evenodd" d="M860 222.361L824.165 213.214C783.854 203.414 715.472 194.267 645 194.267C565.569 194.267 501.667 198.84 430 213.214C358.333 226.934 294.431 252.788 215 245.882C141.848 239.52 71.6667 216.307 35.8334 206.506L0 194.267V53.1429H35.8334C71.6667 53.1429 143.333 53.1429 215 53.1429C286.667 53.1429 358.333 53.1429 430 53.1429C501.667 53.1429 573.333 53.1429 645 53.1429C716.667 53.1429 788.331 53.1429 824.165 53.1429H860V222.361Z" fill="#DCF4FF"/>
</g>
</g>
<defs>
<clipPath id="clip0_621_57">
<rect width="860" height="300" fill="white"/>
</clipPath>
</defs>
</svg>
