<svg width="51" height="51" viewBox="0 0 51 51" fill="none" xmlns="http://www.w3.org/2000/svg">
<path d="M25.0547 0C11.2406 0 0 11.2375 0 25.0531C0 38.8688 11.2406 50.1063 25.0547 50.1063C38.8687 50.1063 50.1094 38.8688 50.1094 25.0531C50.1094 11.2375 38.8687 0 25.0547 0ZM25.0547 48.4375C12.1609 48.4375 1.67187 37.9469 1.67187 25.0531C1.67187 12.1594 12.1609 1.66875 25.0547 1.66875C37.9484 1.66875 48.4375 12.1594 48.4375 25.0531C48.4375 37.9469 37.9484 48.4375 25.0547 48.4375Z" fill="#00B0FF"/>
<path d="M24.5 19.2109C23.2561 19.2109 22.0402 19.5798 21.006 20.2708C19.9718 20.9619 19.1657 21.9441 18.6897 23.0933C18.2137 24.2425 18.0891 25.507 18.3318 26.7269C18.5744 27.9469 19.1734 29.0675 20.053 29.947C20.9325 30.8266 22.0531 31.4256 23.2731 31.6682C24.493 31.9109 25.7575 31.7863 26.9067 31.3103C28.0559 30.8343 29.0381 30.0282 29.7292 28.994C30.4202 27.9598 30.7891 26.7439 30.7891 25.5C30.7872 23.8326 30.124 22.2341 28.945 21.055C27.7659 19.876 26.1674 19.2128 24.5 19.2109ZM24.5 30.1484C23.5806 30.1484 22.6819 29.8758 21.9175 29.365C21.153 28.8543 20.5572 28.1283 20.2054 27.2789C19.8536 26.4295 19.7615 25.4948 19.9409 24.5931C20.1202 23.6914 20.563 22.8632 21.2131 22.2131C21.8632 21.563 22.6914 21.1202 23.5931 20.9409C24.4948 20.7615 25.4295 20.8536 26.2789 21.2054C27.1283 21.5572 27.8543 22.153 28.365 22.9175C28.8758 23.6819 29.1484 24.5806 29.1484 25.5C29.147 26.7324 28.6568 27.9139 27.7854 28.7854C26.9139 29.6568 25.7324 30.147 24.5 30.1484ZM30.5156 12.1016H18.4844C16.527 12.1038 14.6505 12.8824 13.2664 14.2664C11.8824 15.6505 11.1038 17.527 11.1016 19.4844V31.5156C11.1038 33.473 11.8824 35.3495 13.2664 36.7336C14.6505 38.1176 16.527 38.8962 18.4844 38.8984H30.5156C32.473 38.8962 34.3495 38.1176 35.7336 36.7336C37.1176 35.3495 37.8962 33.473 37.8984 31.5156V19.4844C37.8962 17.527 37.1176 15.6505 35.7336 14.2664C34.3495 12.8824 32.473 12.1038 30.5156 12.1016ZM36.2578 31.5156C36.2561 33.038 35.6506 34.4976 34.5741 35.5741C33.4976 36.6506 32.038 37.2561 30.5156 37.2578H18.4844C16.962 37.2561 15.5024 36.6506 14.4259 35.5741C13.3494 34.4976 12.7439 33.038 12.7422 31.5156V19.4844C12.7439 17.962 13.3494 16.5024 14.4259 15.4259C15.5024 14.3494 16.962 13.7439 18.4844 13.7422H30.5156C32.038 13.7439 33.4976 14.3494 34.5741 15.4259C35.6506 16.5024 36.2561 17.962 36.2578 19.4844V31.5156ZM32.9766 18.3906C32.9766 18.661 32.8964 18.9254 32.7462 19.1502C32.5959 19.375 32.3824 19.5503 32.1326 19.6537C31.8828 19.7572 31.6079 19.7843 31.3427 19.7315C31.0774 19.6788 30.8338 19.5486 30.6426 19.3574C30.4514 19.1662 30.3212 18.9226 30.2685 18.6574C30.2157 18.3921 30.2428 18.1172 30.3463 17.8674C30.4497 17.6176 30.625 17.4041 30.8498 17.2538C31.0746 17.1036 31.339 17.0234 31.6094 17.0234C31.9718 17.0239 32.3193 17.1681 32.5756 17.4244C32.8319 17.6807 32.9761 18.0282 32.9766 18.3906Z" fill="#00B0FF"/>
</svg>
