<svg width="50" height="50" viewBox="0 0 50 50" fill="none" xmlns="http://www.w3.org/2000/svg">
<path d="M11.1607 8.92847H38.8393C40.3216 8.92837 41.7479 9.49553 42.8254 10.5136C43.9029 11.5317 44.55 12.9235 44.6339 14.4035L44.6428 14.732V35.2678C44.6429 36.7501 44.0758 38.1764 43.0577 39.2539C42.0396 40.3314 40.6478 40.9785 39.1678 41.0624L38.8393 41.0713H11.1607C9.6783 41.0714 8.25207 40.5043 7.17456 39.4862C6.09706 38.4681 5.44997 37.0763 5.36605 35.5963L5.35712 35.2678V14.732C5.35702 13.2497 5.92418 11.8234 6.94224 10.7459C7.96031 9.66841 9.35211 9.02132 10.8321 8.9374L11.1607 8.92847H38.8393H11.1607ZM41.9643 19.4731L25.6178 27.9731C25.4595 28.0554 25.2863 28.1052 25.1084 28.1196C24.9306 28.134 24.7516 28.1128 24.5821 28.057L24.3821 27.9731L8.03569 19.4731V35.2678C8.03572 36.052 8.33064 36.8076 8.8619 37.3845C9.39317 37.9614 10.1219 38.3175 10.9035 38.382L11.1607 38.3928H38.8393C39.6238 38.3927 40.3796 38.0975 40.9566 37.5659C41.5336 37.0342 41.8894 36.305 41.9535 35.5231L41.9643 35.2678V19.4731ZM38.8393 11.607H11.1607C10.3764 11.6071 9.62083 11.902 9.04392 12.4333C8.467 12.9645 8.11094 13.6933 8.0464 14.4749L8.03569 14.732V16.4535L25 25.2749L41.9643 16.4535V14.732C41.9642 13.9475 41.669 13.1917 41.1374 12.6147C40.6058 12.0377 39.8765 11.6819 39.0946 11.6178L38.8393 11.607Z" fill="#00B0FF"/>
</svg>
