<svg width="50" height="50" viewBox="0 0 50 50" fill="none" xmlns="http://www.w3.org/2000/svg">
<g clip-path="url(#clip0)">
<path d="M25 -0.0532227C11.1859 -0.0532227 -0.0546875 11.1843 -0.0546875 24.9999C-0.0546875 38.8155 11.1859 50.053 25 50.053C38.8141 50.053 50.0547 38.8155 50.0547 24.9999C50.0547 11.1843 38.8141 -0.0532227 25 -0.0532227ZM25 48.3843C12.1062 48.3843 1.61719 37.8937 1.61719 24.9999C1.61719 12.1062 12.1062 1.61553 25 1.61553C37.8937 1.61553 48.3828 12.1062 48.3828 24.9999C48.3828 37.8937 37.8937 48.3843 25 48.3843Z" fill="#00B0FF"/>
<path d="M38.7406 17.2593C38.9139 16.9385 39.0567 16.6021 39.1672 16.2546C39.2183 16.0934 39.2193 15.9205 39.1702 15.7587C39.121 15.5969 39.0239 15.4538 38.8917 15.3484C38.7595 15.2429 38.5984 15.1801 38.4297 15.1681C38.261 15.156 38.0927 15.1955 37.9469 15.2812C37.1462 15.7568 36.2795 16.1112 35.375 16.3327C34.277 15.3417 32.851 14.7924 31.3719 14.7905C30.5683 14.7911 29.7731 14.954 29.034 15.2694C28.2949 15.5847 27.6271 16.0461 27.0706 16.6258C26.5142 17.2055 26.0804 17.8915 25.7955 18.6429C25.5106 19.3943 25.3803 20.1954 25.4125 20.9983C21.8985 20.556 18.6896 18.7778 16.4516 16.0327C16.3658 15.9287 16.2562 15.847 16.1321 15.7944C16.008 15.7418 15.873 15.7199 15.7387 15.7307C15.6043 15.7414 15.4745 15.7844 15.3604 15.856C15.2462 15.9277 15.151 16.0258 15.0828 16.1421C14.5704 17.0217 14.2918 18.0179 14.2738 19.0357C14.2557 20.0535 14.4987 21.059 14.9797 21.9562C14.8617 21.9761 14.7484 22.0174 14.6453 22.078C14.519 22.1586 14.415 22.2697 14.3429 22.401C14.2708 22.5324 14.2329 22.6798 14.2328 22.8296C14.2328 24.603 15.0219 26.2312 16.2938 27.3374L16.2391 27.3921C16.143 27.5007 16.077 27.6325 16.0474 27.7744C16.0178 27.9163 16.0257 28.0635 16.0703 28.2015C16.3355 29.0288 16.7784 29.7883 17.3678 30.4266C17.9573 31.0649 18.6791 31.5667 19.4828 31.8968C17.8322 32.702 15.9849 33.016 14.1609 32.8015C13.9734 32.7824 13.7849 32.826 13.6249 32.9255C13.4648 33.025 13.3423 33.1749 13.2766 33.3515C13.2134 33.5294 13.2122 33.7234 13.2732 33.9021C13.3342 34.0808 13.4537 34.2337 13.6125 34.3358C16.0922 35.9273 18.977 36.7729 21.9234 36.7718C31.5797 36.7718 37.3516 28.928 37.3516 21.3452L37.35 21.089C38.2858 20.3584 39.0987 19.4827 39.7578 18.4952C39.8576 18.3459 39.9067 18.1685 39.8978 17.9891C39.8889 17.8098 39.8225 17.638 39.7083 17.4994C39.5942 17.3607 39.4385 17.2625 39.2642 17.2193C39.0899 17.176 38.9063 17.19 38.7406 17.2593ZM36.0141 20.0015C35.9007 20.083 35.8095 20.1916 35.7489 20.3175C35.6883 20.4433 35.6602 20.5823 35.6672 20.7218C35.6766 20.928 35.6813 21.1374 35.6813 21.3437C35.6813 28.1062 30.5359 35.1015 21.925 35.1015C20.3892 35.1022 18.8643 34.8444 17.4141 34.339C19.1509 34.0061 20.7826 33.2613 22.1719 32.1671C22.3071 32.0605 22.4061 31.9147 22.4554 31.7496C22.5046 31.5846 22.5016 31.4084 22.4469 31.2451C22.3922 31.0818 22.2884 30.9394 22.1497 30.8373C22.0109 30.7352 21.8441 30.6785 21.6719 30.6749C20.9982 30.662 20.3369 30.491 19.7414 30.1756C19.146 29.8603 18.6329 29.4094 18.2438 28.8593C18.6391 28.8327 19.0266 28.7671 19.4031 28.6655C19.5854 28.6168 19.7457 28.5077 19.858 28.356C19.9702 28.2044 20.0278 28.0192 20.0213 27.8307C20.0148 27.6421 19.9445 27.4613 19.822 27.3178C19.6996 27.1743 19.5321 27.0766 19.3469 27.0405C18.586 26.8857 17.8815 26.527 17.3087 26.0027C16.736 25.4784 16.3166 24.8083 16.0953 24.064C16.5109 24.1687 16.9375 24.2296 17.3641 24.2437C17.7313 24.2421 18.0719 24.0171 18.1859 23.664C18.3 23.3108 18.1656 22.9218 17.8547 22.7155C17.1195 22.2257 16.5534 21.5209 16.2338 20.6973C15.9141 19.8737 15.8565 18.9715 16.0688 18.114C18.7829 20.8988 22.4477 22.5572 26.3313 22.7577C26.6063 22.7593 26.8469 22.6608 27.0141 22.4593C27.1813 22.2577 27.2453 21.9905 27.1859 21.7343C26.9722 20.814 27.0678 19.8489 27.4579 18.9884C27.848 18.1278 28.5108 17.4199 29.3438 16.974C30.1768 16.5282 31.1335 16.3693 32.0659 16.522C32.9982 16.6747 33.8543 17.1304 34.5016 17.8187C34.5986 17.9222 34.7203 17.9993 34.8554 18.0427C34.9904 18.0862 35.1343 18.0946 35.2734 18.0671C35.5313 18.0155 35.7859 17.9562 36.0375 17.8874C35.9241 17.9723 35.8062 18.0511 35.6844 18.1233C35.5224 18.2226 35.399 18.3741 35.3346 18.5528C35.2702 18.7316 35.2686 18.927 35.3301 19.1068C35.3916 19.2865 35.5125 19.44 35.6729 19.5419C35.8333 19.6437 36.0236 19.6879 36.2125 19.6671L36.4969 19.6312C36.3403 19.7601 36.1792 19.8837 36.0141 20.0015Z" fill="#00B0FF"/>
</g>
<defs>
<clipPath id="clip0">
<rect width="50" height="50" fill="white"/>
</clipPath>
</defs>
</svg>
