<svg width="50" height="48" viewBox="0 0 50 48" fill="none" xmlns="http://www.w3.org/2000/svg">
<path fill-rule="evenodd" clip-rule="evenodd" d="M23.2216 0.0643093C33.54 -0.426559 45.0479 1.71011 48.9113 12.8426C53.242 25.3216 43.9027 38.431 33.5 45.5C24.5819 51.5602 20.8139 43.3408 12.5796 36.2281C5.75508 30.3333 -3.17829 22.6017 1.12821 14.3626C5.49744 6.00362 14.9669 0.457004 23.2216 0.0643093Z" fill="url(#paint0_linear)"/>
<path d="M19.9468 21.1108C19.9468 22.3315 19.6685 23.3105 19.1118 24.0479C18.5601 24.7803 17.813 25.1465 16.8706 25.1465C16.0698 25.1465 15.4229 24.8682 14.9297 24.3115V28.0469H12.813V17.0752H14.7759L14.8491 17.8516C15.3618 17.2363 16.0308 16.9287 16.856 16.9287C17.8325 16.9287 18.5918 17.29 19.1338 18.0127C19.6758 18.7354 19.9468 19.7314 19.9468 21.001V21.1108ZM17.8301 20.957C17.8301 20.2197 17.6982 19.6509 17.4346 19.2505C17.1758 18.8501 16.7974 18.6499 16.2993 18.6499C15.6353 18.6499 15.1787 18.9038 14.9297 19.4116V22.6562C15.1885 23.1787 15.6499 23.4399 16.314 23.4399C17.3247 23.4399 17.8301 22.6123 17.8301 20.957ZM23.499 25H21.375V13.75H23.499V25ZM29.9956 24.1943C29.4731 24.8291 28.7505 25.1465 27.8276 25.1465C26.978 25.1465 26.3286 24.9023 25.8794 24.4141C25.4351 23.9258 25.208 23.2104 25.1982 22.2681V17.0752H27.3149V22.1948C27.3149 23.02 27.6909 23.4326 28.4429 23.4326C29.1606 23.4326 29.6538 23.1836 29.9224 22.6855V17.0752H32.0464V25H30.0542L29.9956 24.1943ZM33.3354 20.979C33.3354 19.7632 33.6235 18.7842 34.1997 18.042C34.7808 17.2998 35.562 16.9287 36.5435 16.9287C37.4126 16.9287 38.0889 17.2266 38.5723 17.8223L38.6602 17.0752H40.5791V24.7363C40.5791 25.4297 40.4204 26.0327 40.103 26.5454C39.7905 27.0581 39.3486 27.4487 38.7773 27.7173C38.2061 27.9858 37.5371 28.1201 36.7705 28.1201C36.1895 28.1201 35.623 28.0029 35.0713 27.7686C34.5195 27.5391 34.1021 27.2412 33.8188 26.875L34.7563 25.5859C35.2837 26.1768 35.9233 26.4722 36.6753 26.4722C37.2368 26.4722 37.6738 26.3208 37.9863 26.0181C38.2988 25.7202 38.4551 25.2954 38.4551 24.7437V24.3188C37.9668 24.8706 37.3247 25.1465 36.5288 25.1465C35.5767 25.1465 34.8052 24.7754 34.2144 24.0332C33.6284 23.2861 33.3354 22.2974 33.3354 21.0669V20.979ZM35.4521 21.1328C35.4521 21.8506 35.5962 22.4146 35.8843 22.8247C36.1724 23.23 36.5679 23.4326 37.0708 23.4326C37.7153 23.4326 38.1768 23.1909 38.4551 22.7075V19.375C38.1719 18.8916 37.7153 18.6499 37.0854 18.6499C36.5776 18.6499 36.1772 18.8574 35.8843 19.2725C35.5962 19.6875 35.4521 20.3076 35.4521 21.1328Z" fill="#F1F1F1"/>
<defs>
<linearGradient id="paint0_linear" x1="25" y1="0" x2="25" y2="50" gradientUnits="userSpaceOnUse">
<stop stop-color="#00E5FF"/>
<stop offset="0.515625" stop-color="#00B0FF"/>
<stop offset="0.96875" stop-color="#0091EA"/>
</linearGradient>
</defs>
</svg>
