<svg width="251" height="133" viewBox="0 0 251 133" fill="none" xmlns="http://www.w3.org/2000/svg">
<path fill-rule="evenodd" clip-rule="evenodd" d="M0 92.4556C0 87.6486 3.42017 83.5217 8.14357 82.6294L10.4583 82.192C20.9167 80.2162 41.8333 76.1233 62.75 82.192C83.6667 88.2608 104.583 104.491 125.5 108.584C146.417 112.677 167.333 104.491 188.25 100.539C209.167 96.4465 230.083 96.4465 240.542 96.4465H241C246.523 96.4465 251 100.924 251 106.447V123C251 128.523 246.523 133 241 133H240.542C230.083 133 209.167 133 188.25 133C167.333 133 146.417 133 125.5 133C104.583 133 83.6667 133 62.75 133C41.8333 133 20.9167 133 10.4583 133H10C4.47715 133 0 128.523 0 123V92.4556Z" fill="#1F4F9E"/>
<path fill-rule="evenodd" clip-rule="evenodd" d="M0 100.855C0 95.933 3.58224 91.7426 8.44476 90.9771L10.4583 90.66C20.9167 89.0135 41.8333 85.6028 62.75 90.66C83.6667 95.7173 104.583 109.243 125.5 112.653C146.417 116.064 167.333 109.243 188.25 105.949C209.167 102.539 230.083 102.539 240.542 102.539H241C246.523 102.539 251 107.016 251 112.539V123C251 128.523 246.523 133 241 133H240.542C230.083 133 209.167 133 188.25 133C167.333 133 146.417 133 125.5 133C104.583 133 83.6667 133 62.75 133C41.8333 133 20.9167 133 10.4583 133H10C4.47715 133 0 128.523 0 123V100.855Z" fill="#2979FF"/>
<g clip-path="url(#clip0)">
<path d="M219.127 118.737L219.394 118.732C219.29 115.736 218.974 112.752 218.446 109.802C217.292 103.486 215.373 99.3383 212.741 97.4735L212.588 97.694C218.734 102.05 219.124 118.571 219.127 118.737Z" fill="#00B0FF"/>
<path d="M215.79 118.673L216.057 118.667C216.051 118.369 215.885 111.337 213.142 109.393L212.989 109.614C215.621 111.479 215.789 118.601 215.79 118.673Z" fill="#00B0FF"/>
<path d="M211.07 97.7184C211.807 97.7184 212.404 97.1153 212.404 96.3712C212.404 95.6272 211.807 95.024 211.07 95.024C210.332 95.024 209.735 95.6272 209.735 96.3712C209.735 97.1153 210.332 97.7184 211.07 97.7184Z" fill="#00B0FF"/>
<path d="M211.73 109.304C212.468 109.304 213.065 108.701 213.065 107.957C213.065 107.213 212.468 106.61 211.73 106.61C210.993 106.61 210.396 107.213 210.396 107.957C210.396 108.701 210.993 109.304 211.73 109.304Z" fill="#00B0FF"/>
<path d="M216.412 98.526C216.278 99.5652 216.417 100.622 216.815 101.59C217.51 100.806 217.965 99.836 218.126 98.7969C218.288 97.7579 218.148 96.694 217.724 95.7333C217.052 96.5323 216.6 97.4953 216.412 98.526Z" fill="#00B0FF"/>
<path d="M212.05 102.454C213.04 102.768 214.095 102.814 215.109 102.587C214.465 101.76 213.598 101.138 212.613 100.797C211.627 100.456 210.565 100.409 209.554 100.664C210.216 101.471 211.077 102.088 212.05 102.454Z" fill="#00B0FF"/>
<path d="M212 112.714C212.695 112.934 213.434 112.966 214.144 112.807C213.693 112.228 213.086 111.792 212.395 111.553C211.704 111.314 210.96 111.281 210.251 111.459C210.715 112.025 211.318 112.458 212 112.714Z" fill="#00B0FF"/>
<path d="M105.458 118.737L105.071 118.73C105.221 114.381 105.68 110.049 106.446 105.768C108.122 96.6007 110.908 90.5802 114.727 87.8736L114.949 88.1936C106.028 94.5162 105.463 118.496 105.458 118.737Z" fill="#00B0FF"/>
<path d="M110.301 118.644L109.914 118.636C109.922 118.203 110.164 107.996 114.145 105.175L114.368 105.495C110.548 108.202 110.303 118.539 110.301 118.644Z" fill="#00B0FF"/>
<path d="M117.153 88.2291C118.223 88.2291 119.09 87.3536 119.09 86.2737C119.09 85.1938 118.223 84.3183 117.153 84.3183C116.083 84.3183 115.216 85.1938 115.216 86.2737C115.216 87.3536 116.083 88.2291 117.153 88.2291Z" fill="#00B0FF"/>
<path d="M116.194 105.046C117.264 105.046 118.131 104.17 118.131 103.09C118.131 102.01 117.264 101.135 116.194 101.135C115.124 101.135 114.257 102.01 114.257 103.09C114.257 104.17 115.124 105.046 116.194 105.046Z" fill="#00B0FF"/>
<path d="M109.398 89.4013C109.593 90.9097 109.391 92.4431 108.814 93.848C107.805 92.7104 107.144 91.3027 106.91 89.7945C106.676 88.2864 106.88 86.7421 107.495 85.3478C108.47 86.5075 109.127 87.9053 109.398 89.4013Z" fill="#00B0FF"/>
<path d="M115.731 95.1021C114.293 95.5579 112.762 95.6246 111.291 95.2956C112.225 94.0951 113.483 93.1929 114.914 92.6976C116.344 92.2024 117.886 92.1351 119.353 92.5041C118.392 93.6754 117.143 94.5712 115.731 95.1021Z" fill="#00B0FF"/>
<path d="M115.802 109.995C114.795 110.314 113.721 110.361 112.69 110.13C113.345 109.289 114.227 108.656 115.23 108.309C116.232 107.962 117.313 107.915 118.341 108.174C117.668 108.994 116.792 109.622 115.802 109.995Z" fill="#00B0FF"/>
<path d="M75.5281 35.4655L74.596 29.7095L71.9641 29.0453C71.9641 29.0453 69.8752 28.3959 69.387 32.6428C68.8988 36.8898 69.2773 44.8191 69.2773 44.8191L63.4988 63.2896C63.0551 63.5024 62.6816 63.8398 62.4229 64.2614C62.1643 64.683 62.0315 65.1709 62.0404 65.6667C62.0493 66.1625 62.1997 66.6451 62.4733 67.0569C62.747 67.4687 63.1325 67.7922 63.5836 67.9886C64.0347 68.185 64.5323 68.246 65.0168 68.1643C65.5014 68.0826 65.9523 67.8617 66.3157 67.5281C66.6791 67.1944 66.9396 66.762 67.0658 66.2828C67.1921 65.8036 67.1789 65.2978 67.0277 64.826L74.5412 47.4758L75.5281 35.4655Z" fill="#FFB7B7"/>
<path d="M91.5327 30.9359L90.1509 25.2726L92.3131 23.6187C92.3131 23.6187 93.9816 22.1936 96.0826 25.906C98.1837 29.6184 100.92 37.061 100.92 37.061L113.419 51.758C113.91 51.7779 114.385 51.9401 114.787 52.2253C115.189 52.5106 115.5 52.9066 115.685 53.3662C115.87 53.8257 115.919 54.3292 115.828 54.8164C115.736 55.3036 115.507 55.7538 115.169 56.1132C114.831 56.4726 114.397 56.7259 113.919 56.8429C113.442 56.9598 112.941 56.9353 112.477 56.7725C112.013 56.6096 111.605 56.3152 111.303 55.9245C111 55.5338 110.816 55.0634 110.771 54.5696L97.1122 41.5905L91.5327 30.9359Z" fill="#FFB7B7"/>
<path d="M102.334 115.721L105.468 115.721L106.96 103.518L102.333 103.518L102.334 115.721Z" fill="#FFB7B7"/>
<path d="M101.535 114.688L107.707 114.688H107.708C108.751 114.688 109.751 115.106 110.489 115.851C111.227 116.595 111.641 117.605 111.641 118.658V118.787L101.535 118.788L101.535 114.688Z" fill="#2F2E41"/>
<path d="M62.9623 115.721L66.0966 115.721L67.5878 103.518L62.9617 103.518L62.9623 115.721Z" fill="#FFB7B7"/>
<path d="M62.1628 114.688L68.3355 114.688H68.3357C69.379 114.688 70.3795 115.106 71.1172 115.851C71.8549 116.595 72.2694 117.605 72.2695 118.658V118.787L62.163 118.788L62.1628 114.688Z" fill="#2F2E41"/>
<path d="M82.1857 20.0899C86.8677 20.0899 90.6631 16.2588 90.6631 11.533C90.6631 6.80709 86.8677 2.97601 82.1857 2.97601C77.5038 2.97601 73.7084 6.80709 73.7084 11.533C73.7084 16.2588 77.5038 20.0899 82.1857 20.0899Z" fill="#2F2E41"/>
<path d="M75.5687 6.91922C76.9386 5.53645 77.2162 3.57478 76.1888 2.5377C75.1614 1.50062 73.2179 1.78086 71.848 3.16363C70.4781 4.5464 70.2005 6.50807 71.2279 7.54515C72.2554 8.58223 74.1988 8.30199 75.5687 6.91922Z" fill="#2F2E41"/>
<path d="M91.0214 4.20183C91.5922 2.85308 90.6106 1.13697 88.829 0.368782C87.0474 -0.399402 85.1404 0.0712411 84.5696 1.41999C83.9988 2.76874 84.9804 4.48486 86.762 5.25304C88.5436 6.02123 90.4506 5.55058 91.0214 4.20183Z" fill="#2F2E41"/>
<path d="M88.7676 17.059C90.6735 13.5397 89.3921 9.12719 85.9056 7.20337C82.419 5.27955 78.0475 6.57294 76.1416 10.0922C74.2357 13.6115 75.517 18.024 79.0036 19.9479C82.4902 21.8717 86.8616 20.5783 88.7676 17.059Z" fill="#FFB7B7"/>
<path d="M74.8947 9.00777C76.5388 10.1516 78.4902 10.7603 80.4869 10.7522C79.7747 11.2507 78.9638 11.5875 78.1102 11.7392C80.765 12.314 83.5088 12.3296 86.1699 11.7849C86.7614 11.6892 87.3321 11.4913 87.8571 11.2C88.1187 11.0525 88.3466 10.8512 88.526 10.6089C88.7055 10.3667 88.8324 10.0891 88.8985 9.79413C89.0754 8.77448 88.2882 7.84809 87.4702 7.22377C86.2178 6.28246 84.7737 5.63392 83.2425 5.32507C81.7113 5.01622 80.1312 5.05478 78.6165 5.43796C77.6275 5.696 76.6368 6.132 75.9944 6.93371C75.352 7.73542 75.1617 8.97138 75.7737 9.79693L74.8947 9.00777Z" fill="#2F2E41"/>
<path d="M78.8489 23.0194L71.7278 28.8896L77.9498 43.8644L78.0685 46.2604C78.0685 46.2604 71.6094 52.2716 67.613 69.0636C63.6165 85.8556 55.5448 108.168 55.5448 108.168L71.6926 112.156L82.9199 74.1703L97.232 103.971L99.268 112.785L111.75 109.287L106.933 85.6335L95.1174 48.9167L96.0877 38.7733C96.0877 38.7733 98.2498 33.7103 94.4937 28.35L93.3155 23.3133L87.2168 22.264L78.8489 23.0194Z" fill="#2F2E41"/>
<path d="M198.594 76.3116H149.155C148.76 76.3111 148.381 76.1526 148.102 75.8708C147.823 75.589 147.666 75.207 147.666 74.8084V57.9736C147.666 57.5751 147.823 57.193 148.102 56.9112C148.381 56.6294 148.76 56.4709 149.155 56.4705H198.594C198.989 56.4709 199.367 56.6294 199.646 56.9112C199.926 57.193 200.083 57.5751 200.083 57.9736V74.8084C200.083 75.207 199.926 75.589 199.646 75.8708C199.367 76.1526 198.989 76.3111 198.594 76.3116Z" fill="#CBCBCB"/>
<path d="M168.513 60.9799H155.409V62.483H168.513V60.9799Z" fill="white"/>
<path d="M185.787 62.7836C186.281 62.7836 186.681 62.3798 186.681 61.8817C186.681 61.3836 186.281 60.9799 185.787 60.9799C185.294 60.9799 184.894 61.3836 184.894 61.8817C184.894 62.3798 185.294 62.7836 185.787 62.7836Z" fill="#00B0FF"/>
<path d="M188.766 62.7836C189.259 62.7836 189.659 62.3798 189.659 61.8817C189.659 61.3836 189.259 60.9799 188.766 60.9799C188.272 60.9799 187.872 61.3836 187.872 61.8817C187.872 62.3798 188.272 62.7836 188.766 62.7836Z" fill="#00B0FF"/>
<path d="M191.744 62.7836C192.237 62.7836 192.637 62.3798 192.637 61.8817C192.637 61.3836 192.237 60.9799 191.744 60.9799C191.25 60.9799 190.85 61.3836 190.85 61.8817C190.85 62.3798 191.25 62.7836 191.744 62.7836Z" fill="#00B0FF"/>
<path d="M198.594 97.6557H149.155C148.76 97.6553 148.381 97.4968 148.102 97.215C147.823 96.9332 147.666 96.5511 147.666 96.1526V79.3178C147.666 78.9192 147.823 78.5372 148.102 78.2554C148.381 77.9736 148.76 77.8151 149.155 77.8146H198.594C198.989 77.8151 199.367 77.9736 199.646 78.2554C199.926 78.5372 200.083 78.9192 200.083 79.3178V96.1526C200.083 96.5511 199.926 96.9332 199.646 97.215C199.367 97.4968 198.989 97.6553 198.594 97.6557Z" fill="#CBCBCB"/>
<path d="M168.513 82.324H155.409V83.8271H168.513V82.324Z" fill="white"/>
<path d="M185.787 84.1277C186.281 84.1277 186.681 83.7239 186.681 83.2258C186.681 82.7278 186.281 82.324 185.787 82.324C185.294 82.324 184.894 82.7278 184.894 83.2258C184.894 83.7239 185.294 84.1277 185.787 84.1277Z" fill="#00B0FF"/>
<path d="M188.766 84.1277C189.259 84.1277 189.659 83.7239 189.659 83.2258C189.659 82.7278 189.259 82.324 188.766 82.324C188.272 82.324 187.872 82.7278 187.872 83.2258C187.872 83.7239 188.272 84.1277 188.766 84.1277Z" fill="#00B0FF"/>
<path d="M191.744 84.1277C192.237 84.1277 192.637 83.7239 192.637 83.2258C192.637 82.7278 192.237 82.324 191.744 82.324C191.25 82.324 190.85 82.7278 190.85 83.2258C190.85 83.7239 191.25 84.1277 191.744 84.1277Z" fill="#00B0FF"/>
<path d="M198.594 119H149.155C148.76 119 148.381 118.841 148.102 118.559C147.823 118.277 147.666 117.895 147.666 117.497V100.662C147.666 100.263 147.823 99.8814 148.102 99.5996C148.381 99.3178 148.76 99.1593 149.155 99.1589H198.594C198.989 99.1593 199.367 99.3178 199.646 99.5996C199.926 99.8814 200.083 100.263 200.083 100.662V117.497C200.083 117.895 199.926 118.277 199.646 118.559C199.367 118.841 198.989 119 198.594 119Z" fill="#CBCBCB"/>
<path d="M168.513 103.668H155.409V105.171H168.513V103.668Z" fill="white"/>
<path d="M185.787 105.472C186.281 105.472 186.681 105.068 186.681 104.57C186.681 104.072 186.281 103.668 185.787 103.668C185.294 103.668 184.894 104.072 184.894 104.57C184.894 105.068 185.294 105.472 185.787 105.472Z" fill="#00B0FF"/>
<path d="M188.766 105.472C189.259 105.472 189.659 105.068 189.659 104.57C189.659 104.072 189.259 103.668 188.766 103.668C188.272 103.668 187.872 104.072 187.872 104.57C187.872 105.068 188.272 105.472 188.766 105.472Z" fill="#00B0FF"/>
<path d="M191.744 105.472C192.237 105.472 192.637 105.068 192.637 104.57C192.637 104.072 192.237 103.668 191.744 103.668C191.25 103.668 190.85 104.072 190.85 104.57C190.85 105.068 191.25 105.472 191.744 105.472Z" fill="#00B0FF"/>
<path d="M139.267 82.7006C138.325 82.6974 137.388 82.575 136.476 82.3362L136.297 82.2861L136.13 82.2018C130.105 79.1527 125.022 75.1253 121.023 70.2313C117.712 66.1564 115.13 61.5297 113.395 56.5594C111.319 50.6086 110.321 44.3297 110.447 38.0222C110.449 37.8898 110.451 37.7875 110.451 37.7171C110.451 34.651 112.138 31.9607 114.747 30.8632C116.744 30.0233 134.877 22.5055 136.187 21.9623C138.655 20.7144 141.287 21.7559 141.708 21.9381C142.653 22.328 159.416 29.2485 163.038 30.9896C166.771 32.7841 167.768 36.0077 167.768 37.6296C167.768 44.9723 166.508 51.8346 164.023 58.026C162.016 63.0374 159.172 67.664 155.615 71.7041C148.751 79.501 141.885 82.265 141.819 82.2894C140.998 82.5744 140.135 82.7135 139.267 82.7006ZM137.652 78.6636C138.248 78.7983 139.618 79.0004 140.511 78.6715C141.646 78.2538 147.393 75.2459 152.763 69.146C160.182 60.7181 163.947 50.1236 163.952 37.6567C163.939 37.4041 163.761 35.6027 161.398 34.4667C157.846 32.7593 140.422 25.568 140.247 25.4955L140.198 25.4749C139.833 25.3204 138.671 24.9951 137.87 25.4188L137.71 25.4943C137.516 25.5748 118.267 33.5547 116.214 34.4181C114.778 35.022 114.267 36.5183 114.267 37.7171C114.267 37.8047 114.264 37.9322 114.261 38.0969C114.097 46.6272 116.053 67.6178 137.652 78.6636Z" fill="#3F3D56"/>
<path d="M136.985 23.7131C136.985 23.7131 117.562 31.7654 115.481 32.6407C113.4 33.5159 112.359 35.6165 112.359 37.7171C112.359 39.8177 110.798 67.2277 136.985 80.4804C136.985 80.4804 139.362 81.1442 141.165 80.4804C142.968 79.8167 165.86 68.6135 165.86 37.6296C165.86 37.6296 165.86 34.4787 162.218 32.7282C158.576 30.9777 140.968 23.7131 140.968 23.7131C140.968 23.7131 138.806 22.7503 136.985 23.7131Z" fill="#00B0FF"/>
<path opacity="0.2" d="M139.066 30.0149V72.9711C139.066 72.9711 158.663 63.4495 158.489 38.4173L139.066 30.0149Z" fill="black"/>
</g>
<defs>
<clipPath id="clip0">
<rect width="180" height="119" fill="white" transform="translate(44)"/>
</clipPath>
</defs>
</svg>
