<svg width="251" height="136" viewBox="0 0 251 136" fill="none" xmlns="http://www.w3.org/2000/svg">
<path fill-rule="evenodd" clip-rule="evenodd" d="M0 95.4556C0 90.6486 3.42017 86.5217 8.14357 85.6294L10.4583 85.192C20.9167 83.2162 41.8333 79.1233 62.75 85.192C83.6667 91.2608 104.583 107.491 125.5 111.584C146.417 115.677 167.333 107.491 188.25 103.539C209.167 99.4465 230.083 99.4465 240.542 99.4465H241C246.523 99.4465 251 103.924 251 109.447V126C251 131.523 246.523 136 241 136H240.542C230.083 136 209.167 136 188.25 136C167.333 136 146.417 136 125.5 136C104.583 136 83.6667 136 62.75 136C41.8333 136 20.9167 136 10.4583 136H10C4.47715 136 0 131.523 0 126V95.4556Z" fill="#1F4F9E"/>
<path fill-rule="evenodd" clip-rule="evenodd" d="M0 103.855C0 98.933 3.58224 94.7426 8.44476 93.9771L10.4583 93.66C20.9167 92.0135 41.8333 88.6028 62.75 93.66C83.6667 98.7173 104.583 112.243 125.5 115.653C146.417 119.064 167.333 112.243 188.25 108.949C209.167 105.539 230.083 105.539 240.542 105.539H241C246.523 105.539 251 110.016 251 115.539V126C251 131.523 246.523 136 241 136H240.542C230.083 136 209.167 136 188.25 136C167.333 136 146.417 136 125.5 136C104.583 136 83.6667 136 62.75 136C41.8333 136 20.9167 136 10.4583 136H10C4.47715 136 0 131.523 0 126V103.855Z" fill="#2979FF"/>
<g clip-path="url(#clip0)">
<path d="M42.591 115.611C43.4379 115.909 44.3472 115.984 45.2313 115.828C46.1154 115.672 46.9445 115.291 47.6387 114.721C49.4067 113.236 49.9611 110.79 50.412 108.525L51.746 101.824L48.9531 103.748C46.9445 105.133 44.8907 106.561 43.5001 108.566C42.1095 110.57 41.5028 113.307 42.6198 115.476" fill="#00B0FF"/>
<path d="M43.0223 124.19C42.6707 121.627 42.309 119.031 42.5562 116.44C42.7753 114.14 43.4766 111.893 44.9046 110.05C45.6625 109.074 46.5847 108.238 47.6299 107.579C47.9023 107.406 48.1532 107.839 47.8819 108.01C46.0735 109.154 44.6747 110.843 43.8873 112.833C43.0176 115.047 42.878 117.46 43.0278 119.811C43.1183 121.233 43.3107 122.646 43.5039 124.057C43.5192 124.121 43.5097 124.188 43.4773 124.245C43.4449 124.302 43.3921 124.345 43.3295 124.364C43.2657 124.382 43.1976 124.373 43.1401 124.34C43.0826 124.308 43.0404 124.254 43.0224 124.19L43.0223 124.19Z" fill="#F2F2F2"/>
<path d="M45.5525 120.078C45.9157 120.63 46.4149 121.08 47.0022 121.383C47.5894 121.687 48.2448 121.834 48.9053 121.81C50.603 121.729 52.0178 120.544 53.2912 119.418L57.0587 116.089L54.5653 115.97C52.7723 115.884 50.9329 115.803 49.225 116.357C47.5172 116.911 45.9421 118.243 45.6299 120.012" fill="#00B0FF"/>
<path d="M42.0286 125.664C43.721 122.667 45.6838 119.336 49.1914 118.272C50.1666 117.977 51.1892 117.871 52.204 117.96C52.5239 117.988 52.444 118.481 52.1248 118.454C50.4236 118.312 48.7257 118.762 47.317 119.727C45.9613 120.65 44.9057 121.934 44.0124 123.296C43.4652 124.13 42.975 124.999 42.4848 125.867C42.3282 126.145 41.8701 125.944 42.0286 125.664Z" fill="#F2F2F2"/>
<path d="M212.153 119.179C211.661 119.62 211.064 119.927 210.418 120.07C209.773 120.214 209.102 120.188 208.469 119.996C206.849 119.484 205.784 117.976 204.84 116.562L202.048 112.38L204.489 112.902C206.244 113.278 208.043 113.67 209.553 114.643C211.062 115.615 212.245 117.305 212.095 119.096" fill="#00B0FF"/>
<path d="M214.134 125.481C213.263 122.151 212.216 118.429 209.096 116.502C208.229 115.968 207.267 115.604 206.263 115.431C205.947 115.376 205.898 115.873 206.214 115.928C207.895 116.227 209.421 117.095 210.537 118.389C211.612 119.628 212.304 121.139 212.82 122.684C213.137 123.63 213.388 124.596 213.641 125.561C213.721 125.869 214.215 125.793 214.134 125.481Z" fill="#F2F2F2"/>
<path d="M179.838 76.7144H122.777C122.321 76.7138 121.885 76.5324 121.562 76.21C121.24 75.8875 121.059 75.4503 121.058 74.9943V55.7301C121.059 55.2741 121.24 54.8369 121.562 54.5144C121.885 54.192 122.321 54.0106 122.777 54.0101H179.838C180.293 54.0106 180.73 54.192 181.052 54.5144C181.374 54.8369 181.556 55.2741 181.556 55.7301V74.9943C181.556 75.4503 181.374 75.8875 181.052 76.21C180.73 76.5324 180.293 76.7138 179.838 76.7144Z" fill="#C5C5C5"/>
<path d="M145.12 59.1702H129.996V60.8902H145.12V59.1702Z" fill="#00B0FF"/>
<path d="M165.057 61.2342C165.626 61.2342 166.088 60.7721 166.088 60.2022C166.088 59.6322 165.626 59.1702 165.057 59.1702C164.487 59.1702 164.026 59.6322 164.026 60.2022C164.026 60.7721 164.487 61.2342 165.057 61.2342Z" fill="#00B0FF"/>
<path d="M168.494 61.2342C169.064 61.2342 169.525 60.7721 169.525 60.2022C169.525 59.6322 169.064 59.1702 168.494 59.1702C167.925 59.1702 167.463 59.6322 167.463 60.2022C167.463 60.7721 167.925 61.2342 168.494 61.2342Z" fill="#00B0FF"/>
<path d="M171.932 61.2342C172.501 61.2342 172.963 60.7721 172.963 60.2022C172.963 59.6322 172.501 59.1702 171.932 59.1702C171.362 59.1702 170.9 59.6322 170.9 60.2022C170.9 60.7721 171.362 61.2342 171.932 61.2342Z" fill="#00B0FF"/>
<path d="M179.838 101.139H122.777C122.321 101.138 121.885 100.957 121.562 100.634C121.24 100.312 121.059 99.8746 121.058 99.4186V80.1544C121.059 79.6984 121.24 79.2612 121.562 78.9388C121.885 78.6163 122.321 78.4349 122.777 78.4344H179.838C180.293 78.4349 180.73 78.6163 181.052 78.9387C181.374 79.2612 181.556 79.6984 181.556 80.1544V99.4186C181.556 99.8747 181.374 100.312 181.052 100.634C180.73 100.957 180.293 101.138 179.838 101.139Z" fill="#C5C5C5"/>
<path d="M145.12 83.5945H129.996V85.3145H145.12V83.5945Z" fill="#00B0FF"/>
<path d="M165.057 85.6585C165.626 85.6585 166.088 85.1965 166.088 84.6265C166.088 84.0565 165.626 83.5945 165.057 83.5945C164.487 83.5945 164.026 84.0565 164.026 84.6265C164.026 85.1965 164.487 85.6585 165.057 85.6585Z" fill="#00B0FF"/>
<path d="M168.494 85.6585C169.064 85.6585 169.525 85.1965 169.525 84.6265C169.525 84.0565 169.064 83.5945 168.494 83.5945C167.925 83.5945 167.463 84.0565 167.463 84.6265C167.463 85.1965 167.925 85.6585 168.494 85.6585Z" fill="#00B0FF"/>
<path d="M171.932 85.6585C172.501 85.6585 172.963 85.1965 172.963 84.6265C172.963 84.0565 172.501 83.5945 171.932 83.5945C171.362 83.5945 170.9 84.0565 170.9 84.6265C170.9 85.1965 171.362 85.6585 171.932 85.6585Z" fill="#00B0FF"/>
<path d="M179.838 125.563H122.777C122.321 125.562 121.885 125.381 121.562 125.059C121.24 124.736 121.059 124.299 121.058 123.843V104.579C121.059 104.123 121.24 103.686 121.562 103.363C121.885 103.041 122.321 102.859 122.777 102.859H179.838C180.293 102.859 180.73 103.041 181.052 103.363C181.374 103.686 181.556 104.123 181.556 104.579V123.843C181.556 124.299 181.374 124.736 181.052 125.059C180.73 125.381 180.293 125.562 179.838 125.563Z" fill="#C5C5C5"/>
<path d="M145.12 108.019H129.996V109.739H145.12V108.019Z" fill="#00B0FF"/>
<path d="M165.057 110.083C165.626 110.083 166.088 109.621 166.088 109.051C166.088 108.481 165.626 108.019 165.057 108.019C164.487 108.019 164.026 108.481 164.026 109.051C164.026 109.621 164.487 110.083 165.057 110.083Z" fill="#00B0FF"/>
<path d="M168.494 110.083C169.064 110.083 169.525 109.621 169.525 109.051C169.525 108.481 169.064 108.019 168.494 108.019C167.925 108.019 167.463 108.481 167.463 109.051C167.463 109.621 167.925 110.083 168.494 110.083Z" fill="#00B0FF"/>
<path d="M171.932 110.083C172.501 110.083 172.963 109.621 172.963 109.051C172.963 108.481 172.501 108.019 171.932 108.019C171.362 108.019 170.9 108.481 170.9 109.051C170.9 109.621 171.362 110.083 171.932 110.083Z" fill="#00B0FF"/>
<path d="M158.326 35.1987L158.263 35.1521L158.262 35.1509C158.18 35.0905 158.088 35.0466 157.99 35.0219C157.891 34.9972 157.789 34.9921 157.689 35.0069C157.588 35.0217 157.492 35.0562 157.405 35.1083C157.318 35.1604 157.242 35.2291 157.182 35.3106L144.338 52.6167H142.925V52.2844C142.925 52.2025 142.893 52.1239 142.835 52.0659C142.777 52.0079 142.698 51.9754 142.616 51.9754H141.773C141.691 51.9754 141.613 52.0079 141.555 52.0659C141.497 52.1239 141.464 52.2025 141.464 52.2844V52.6167H140.976V52.2844C140.976 52.2025 140.944 52.1239 140.886 52.0659C140.828 52.0079 140.75 51.9754 140.668 51.9754H139.825C139.743 51.9754 139.664 52.0079 139.606 52.0659C139.548 52.1239 139.516 52.2025 139.516 52.2844V52.6167H139.029V52.2844C139.029 52.2025 138.997 52.1239 138.939 52.0659C138.881 52.0079 138.803 51.9754 138.721 51.9754H137.878C137.796 51.9754 137.717 52.0079 137.659 52.0659C137.601 52.1239 137.569 52.2025 137.569 52.2844V52.6167H137.081V52.2844C137.081 52.2025 137.048 52.1239 136.99 52.0659C136.932 52.0079 136.854 51.9754 136.772 51.9754H135.929C135.847 51.9754 135.768 52.0079 135.711 52.0659C135.653 52.1239 135.62 52.2025 135.62 52.2844V52.6167H135.134V52.2844C135.134 52.2025 135.101 52.1239 135.043 52.0659C134.985 52.0079 134.907 51.9754 134.825 51.9754H133.982C133.941 51.9754 133.901 51.9834 133.864 51.9989C133.826 52.0144 133.792 52.0372 133.764 52.0659C133.735 52.0946 133.712 52.1286 133.697 52.1661C133.681 52.2036 133.673 52.2438 133.673 52.2844V52.6167H133.185V52.2844C133.185 52.2025 133.153 52.1239 133.095 52.0659C133.037 52.0079 132.958 51.9754 132.876 51.9754H132.033C131.951 51.9754 131.873 52.0079 131.815 52.0659C131.757 52.1239 131.724 52.2025 131.724 52.2844V52.6167H131.237V52.2844C131.237 52.2025 131.204 52.1239 131.146 52.0659C131.088 52.0079 131.01 51.9754 130.928 51.9754H130.085C130.003 51.9754 129.924 52.0079 129.866 52.0659C129.808 52.1239 129.776 52.2025 129.776 52.2844V52.6167H129.29V52.2844C129.29 52.2025 129.257 52.1239 129.199 52.0659C129.141 52.0079 129.063 51.9754 128.981 51.9754H128.138C128.056 51.9754 127.977 52.0079 127.919 52.0659C127.861 52.1239 127.829 52.2025 127.829 52.2844V52.6167H127.341V52.2844C127.341 52.2025 127.308 52.1239 127.25 52.0659C127.193 52.0079 127.114 51.9754 127.032 51.9754H126.189C126.107 51.9754 126.029 52.0079 125.971 52.0659C125.913 52.1239 125.88 52.2025 125.88 52.2844V52.6167H125.394V52.2844C125.394 52.2025 125.361 52.1239 125.303 52.0659C125.245 52.0079 125.167 51.9754 125.085 51.9754H124.242C124.16 51.9754 124.082 52.0079 124.024 52.0659C123.966 52.1239 123.933 52.2025 123.933 52.2844V52.6167H123.322C123.22 52.6167 123.12 52.6366 123.026 52.6755C122.933 52.7143 122.848 52.7712 122.776 52.8429C122.704 52.9147 122.647 52.9999 122.608 53.0936C122.57 53.1873 122.55 53.2878 122.55 53.3893V54.1264C122.55 54.2278 122.57 54.3283 122.608 54.422C122.647 54.5158 122.704 54.601 122.776 54.6727C122.848 54.7445 122.933 54.8014 123.026 54.8402C123.12 54.879 123.22 54.899 123.322 54.899H144.21C144.474 54.899 144.731 54.8077 144.936 54.6406C145.141 54.4734 145.283 54.2406 145.336 53.9814L145.344 53.9873L158.485 36.2812L158.486 36.2797C158.608 36.1152 158.66 35.9089 158.63 35.7062C158.6 35.5034 158.491 35.3209 158.326 35.1987Z" fill="#3F3D56"/>
<path d="M77.1564 119L79.751 120.329L86.1069 110.946L82.2778 108.985L77.1564 119Z" fill="#FFB7B7"/>
<path d="M76.9281 117.814L82.0377 120.431L82.038 120.431C82.9015 120.873 83.5541 121.641 83.8523 122.565C84.1504 123.489 84.0696 124.493 83.6277 125.357L83.5735 125.463L75.2075 121.179L76.9281 117.814Z" fill="#2F2E41"/>
<path d="M107.122 122.636H110.037L111.424 111.385H107.122L107.122 122.636Z" fill="#FFB7B7"/>
<path d="M106.379 121.683L112.119 121.683H112.119C113.089 121.683 114.02 122.069 114.706 122.755C115.392 123.442 115.777 124.373 115.777 125.344V125.463L106.379 125.463L106.379 121.683Z" fill="#2F2E41"/>
<path d="M93.4891 30.8663C93.4891 30.8663 91.5374 29.3699 91.5374 33.0252L91.2292 45.1046L94.6704 56.5158L96.6735 52.8149L95.8518 44.7962L93.4891 30.8663Z" fill="#2F2E41"/>
<path d="M114.367 63.9056C114.367 63.9056 116.63 74.9361 113.764 83.9886L112.179 118.794L106.37 118.341L104.333 92.5201L102.372 79.6851L98.2981 91.3876L84.8695 116.152L78.6833 111.32C78.6833 111.32 85.5386 92.6 90.6031 88.6696L93.1431 59.7178L114.367 63.9056Z" fill="#2F2E41"/>
<path d="M113.293 12.6692C115.048 9.45696 113.868 5.42937 110.658 3.67338C107.449 1.91739 103.424 3.09796 101.67 6.31024C99.915 9.52252 101.095 13.5501 104.304 15.3061C107.514 17.0621 111.539 15.8815 113.293 12.6692Z" fill="#FFB7B7"/>
<path d="M107.013 10.8957C107.807 10.9991 108.406 10.1861 108.683 9.43456C108.961 8.68303 109.173 7.80808 109.863 7.40212C110.806 6.84749 112.013 7.51456 113.092 7.33157C114.31 7.12492 115.101 5.8331 115.163 4.59834C115.226 3.36359 114.735 2.17601 114.253 1.03758L114.085 2.45239C114.107 1.97288 114.006 1.49561 113.792 1.06623C113.577 0.636857 113.256 0.269741 112.86 0L113.076 2.07602C113.03 1.7896 112.928 1.51512 112.776 1.26833C112.623 1.02154 112.424 0.807295 112.188 0.637895C111.953 0.468496 111.686 0.347274 111.404 0.281189C111.122 0.215105 110.829 0.205457 110.543 0.2528L110.578 1.48977C109.171 1.32236 107.752 1.15472 106.341 1.28226C104.93 1.4098 103.509 1.85655 102.44 2.78648C100.84 4.17751 100.256 6.468 100.452 8.57967C100.648 10.6913 101.519 12.6751 102.427 14.5914C102.655 15.0736 102.971 15.6177 103.501 15.6791C103.977 15.7343 104.412 15.3361 104.56 14.8802C104.674 14.4123 104.67 13.9233 104.547 13.4576C104.413 12.7458 104.245 12.0183 104.371 11.3051C104.496 10.5918 105.009 9.88704 105.728 9.79963C106.446 9.71223 107.181 10.534 106.836 11.1705L107.013 10.8957Z" fill="#2F2E41"/>
<path d="M114.777 66.8554L92.6675 65.4278L94.3317 58.5281L114.539 63.0488L114.777 66.8554Z" fill="#00B0FF"/>
<path d="M101.142 18.5299L102.529 16.6031C102.529 16.6031 104.079 17.1303 108.23 19.1981L108.523 21.0034L115.729 65.3569L102.632 64.7915L99.0649 64.7155L97.8977 62.0971L96.4584 64.66L92.9755 64.5859L89.4315 62.5298L92.9241 51.8382L94.0541 42.0719L92.3078 32.871C92.3078 32.871 90.1103 24.422 98.5739 19.8664L101.142 18.5299Z" fill="#2F2E41"/>
<path d="M130.662 52.1057C130.342 52.1873 130.007 52.1975 129.682 52.1356C129.357 52.0737 129.049 51.9412 128.781 51.7474C128.512 51.5537 128.29 51.3034 128.128 51.0142C127.967 50.7251 127.871 50.404 127.847 50.0737L120.077 47.9908L123.203 45.2131L130.102 47.6169C130.66 47.6135 131.199 47.8148 131.617 48.1826C132.036 48.5503 132.306 49.0591 132.375 49.6124C132.444 50.1657 132.307 50.7251 131.992 51.1846C131.676 51.6442 131.203 51.9719 130.662 52.1057V52.1057Z" fill="#FFB7B7"/>
<path d="M127.182 50.9298C127.019 51.0189 126.839 51.0725 126.653 51.0872C126.468 51.1019 126.281 51.0774 126.106 51.0153L113.323 46.16C110.205 45.0538 107.594 42.8515 105.977 39.963L100.646 30.4467C100.272 30.0285 99.9835 29.5406 99.7978 29.0109C99.6121 28.4811 99.5326 27.9199 99.5639 27.3594C99.5952 26.7988 99.7366 26.25 99.9801 25.7442C100.224 25.2385 100.564 24.7857 100.983 24.4119C101.401 24.038 101.889 23.7505 102.419 23.5656C102.949 23.3807 103.51 23.3022 104.07 23.3345C104.63 23.3669 105.178 23.5094 105.683 23.754C106.188 23.9985 106.64 24.3404 107.012 24.7599L116.239 39.3948L127.85 46.2075C128.077 46.3569 128.254 46.5727 128.355 46.8256C128.456 47.0786 128.477 47.3564 128.415 47.6217L127.837 50.0704C127.775 50.3329 127.635 50.5704 127.435 50.751C127.358 50.8203 127.273 50.8804 127.182 50.9298Z" fill="#2F2E41"/>
</g>
<defs>
<clipPath id="clip0">
<rect width="204" height="126" fill="white" transform="translate(22)"/>
</clipPath>
</defs>
</svg>
