<svg width="30" height="30" viewBox="0 0 30 30" fill="none" xmlns="http://www.w3.org/2000/svg">
<g clip-path="url(#clip0)">
<path d="M14.0765 18.0625H18.8972C19.1254 18.9463 19.668 19.7164 20.4234 20.2287C21.1788 20.741 22.0952 20.9601 23.0006 20.8451C23.9061 20.7301 24.7385 20.2888 25.3418 19.604C25.9452 18.9191 26.2781 18.0377 26.2781 17.125C26.2781 16.2123 25.9452 15.3309 25.3418 14.646C24.7385 13.9612 23.9061 13.5199 23.0006 13.4049C22.0952 13.2899 21.1788 13.5091 20.4234 14.0213C19.668 14.5336 19.1254 15.3038 18.8972 16.1875H14.0765V8.68751H18.8972C19.1254 9.57125 19.668 10.3414 20.4234 10.8537C21.1788 11.366 22.0952 11.5851 23.0006 11.4701C23.9061 11.3551 24.7385 10.9138 25.3418 10.229C25.9452 9.54413 26.2781 8.66273 26.2781 7.75001C26.2781 6.83728 25.9452 5.95589 25.3418 5.27104C24.7385 4.58619 23.9061 4.14491 23.0006 4.0299C22.0952 3.91489 21.1788 4.13406 20.4234 4.64632C19.668 5.15858 19.1254 5.92877 18.8972 6.81251H14.0765C13.5794 6.81301 13.1028 7.01071 12.7513 7.36223C12.3997 7.71376 12.202 8.19038 12.2015 8.68751V16.1875H7.38092C7.15274 15.3038 6.61008 14.5336 5.85466 14.0213C5.09925 13.5091 4.18293 13.2899 3.27748 13.4049C2.37203 13.5199 1.53961 13.9612 0.936245 14.646C0.33288 15.3309 0 16.2123 0 17.125C0 18.0377 0.33288 18.9191 0.936245 19.604C1.53961 20.2888 2.37203 20.7301 3.27748 20.8451C4.18293 20.9601 5.09925 20.741 5.85466 20.2287C6.61008 19.7164 7.15274 18.9463 7.38092 18.0625H12.2015V25.5625C12.202 26.0596 12.3997 26.5363 12.7513 26.8878C13.1028 27.2393 13.5794 27.437 14.0765 27.4375H18.8972C19.1254 28.3213 19.668 29.0914 20.4234 29.6037C21.1788 30.116 22.0952 30.3351 23.0006 30.2201C23.9061 30.1051 24.7385 29.6638 25.3418 28.979C25.9452 28.2941 26.2781 27.4127 26.2781 26.5C26.2781 25.5873 25.9452 24.7059 25.3418 24.021C24.7385 23.3362 23.9061 22.8949 23.0006 22.7799C22.0952 22.6649 21.1788 22.8841 20.4234 23.3963C19.668 23.9086 19.1254 24.6788 18.8972 25.5625H14.0765V18.0625ZM22.514 15.25C22.8849 15.25 23.2474 15.36 23.5557 15.566C23.8641 15.772 24.1044 16.0649 24.2463 16.4075C24.3882 16.7501 24.4254 17.1271 24.353 17.4908C24.2807 17.8545 24.1021 18.1886 23.8399 18.4508C23.5776 18.7131 23.2436 18.8916 22.8798 18.964C22.5161 19.0363 22.1391 18.9992 21.7965 18.8573C21.4539 18.7154 21.1611 18.475 20.955 18.1667C20.749 17.8584 20.639 17.4958 20.639 17.125C20.6395 16.6279 20.8372 16.1513 21.1888 15.7997C21.5403 15.4482 22.0169 15.2505 22.514 15.25ZM22.514 5.87501C22.8849 5.87501 23.2474 5.98498 23.5557 6.191C23.8641 6.39703 24.1044 6.68987 24.2463 7.03248C24.3882 7.37509 24.4254 7.75209 24.353 8.1158C24.2807 8.47952 24.1021 8.81361 23.8399 9.07583C23.5776 9.33806 23.2436 9.51663 22.8798 9.58898C22.5161 9.66133 22.1391 9.6242 21.7965 9.48228C21.4539 9.34037 21.1611 9.10005 20.955 8.7917C20.749 8.48336 20.639 8.12085 20.639 7.75001C20.6395 7.25288 20.8372 6.77626 21.1888 6.42473C21.5403 6.07321 22.0169 5.87551 22.514 5.87501V5.87501ZM3.76405 19C3.39321 19 3.03069 18.89 2.72235 18.684C2.41401 18.478 2.17369 18.1852 2.03177 17.8425C1.88986 17.4999 1.85273 17.1229 1.92507 16.7592C1.99742 16.3955 2.176 16.0614 2.43822 15.7992C2.70044 15.537 3.03454 15.3584 3.39825 15.286C3.76197 15.2137 4.13897 15.2508 4.48158 15.3927C4.82419 15.5346 5.11702 15.775 5.32305 16.0833C5.52908 16.3917 5.63905 16.7542 5.63905 17.125C5.63855 17.6221 5.44085 18.0988 5.08932 18.4503C4.7378 18.8018 4.26118 18.9995 3.76405 19V19ZM22.514 24.625C22.8849 24.625 23.2474 24.735 23.5557 24.941C23.8641 25.147 24.1044 25.4399 24.2463 25.7825C24.3882 26.1251 24.4254 26.5021 24.353 26.8658C24.2807 27.2295 24.1021 27.5636 23.8399 27.8258C23.5776 28.0881 23.2436 28.2666 22.8798 28.339C22.5161 28.4113 22.1391 28.3742 21.7965 28.2323C21.4539 28.0904 21.1611 27.85 20.955 27.5417C20.749 27.2334 20.639 26.8708 20.639 26.5C20.6395 26.0029 20.8372 25.5263 21.1888 25.1747C21.5403 24.8232 22.0169 24.6255 22.514 24.625Z" fill="#00B0FF"/>
</g>
<defs>
<clipPath id="clip0">
<rect width="30" height="30" fill="white"/>
</clipPath>
</defs>
</svg>
