<svg width="561" height="515" viewBox="0 0 561 515" fill="none" xmlns="http://www.w3.org/2000/svg">
<path opacity="0.1" d="M314.271 80.5491C283.522 79.4824 254.236 69.5543 226.287 58.7009C198.337 47.8475 170.606 35.8053 140.595 30.022C121.29 26.3206 99.2168 25.7937 83.6622 36.1459C68.6985 46.1125 63.8561 63.3147 61.2615 79.2767C59.3349 91.2868 58.1532 103.927 63.5157 115.166C67.2342 122.973 73.8426 129.534 78.4088 137.014C94.3103 163.026 83.0714 195.104 65.8406 220.506C57.7614 232.42 48.385 243.787 42.149 256.491C35.913 269.195 33.023 283.705 38.4819 296.647C43.8894 309.499 56.7788 319.099 70.7407 325.878C99.1013 339.636 132.516 343.575 165.102 345.799C237.237 350.734 309.75 348.6 382.077 346.441C408.838 345.645 435.722 344.841 462.053 340.703C476.676 338.402 491.775 334.753 502.391 325.923C515.878 314.736 519.204 295.799 510.175 281.771C495.025 258.245 453.152 252.398 442.561 227.15C436.736 213.251 442.722 197.771 451.187 184.887C469.355 157.255 499.803 132.978 501.408 101.35C502.513 79.6494 487.87 57.9105 465.238 47.6354C441.515 36.872 408.614 38.2279 391.113 56.047C373.092 74.438 341.418 81.4937 314.271 80.5491Z" fill="#00B0FF"/>
<path opacity="0.1" d="M253.196 515C361.011 515 448.412 503.17 448.412 488.577C448.412 473.983 361.011 462.153 253.196 462.153C145.381 462.153 57.9798 473.983 57.9798 488.577C57.9798 503.17 145.381 515 253.196 515Z" fill="#00B0FF"/>
<path d="M301.375 134.688C301.375 134.688 295.332 122.755 296.148 119.207C296.963 115.66 291.896 108.084 291.896 108.084L292.224 95.5151C292.224 95.5151 291.524 96.8003 287.876 97.9248C287.568 97.52 287.234 97.1216 286.887 96.7424C285.566 95.366 284.097 94.1397 282.507 93.0861L276.085 79.2189L269.874 69.7021C269.874 69.7021 260.081 49.7817 249.966 45.3864L248.373 42.2698C248.425 42.2388 248.464 42.1893 248.482 42.131C248.5 42.0728 248.495 42.01 248.469 41.9549L246.851 38.7869C246.822 38.7321 246.774 38.69 246.716 38.6686C246.658 38.6473 246.594 38.6482 246.536 38.6713L244.988 35.6382C244.397 31.7076 242.854 27.9815 240.493 24.7848C240.332 24.5599 240.159 24.3543 239.992 24.1422L242.509 24.0523C244.719 23.9687 247.185 23.7759 248.668 22.1245C249.2 21.5089 249.592 20.7855 249.818 20.0039C250.009 19.3914 250.134 18.7602 250.19 18.1211C250.19 18.0247 250.19 17.9283 250.19 17.8384C250.19 17.6199 250.19 17.4057 250.19 17.1958C250.19 17.0223 250.19 16.8552 250.19 16.6817C250.19 16.5082 250.19 16.4054 250.19 16.2705C250.19 16.1355 250.12 15.8271 250.081 15.6279C250.081 15.5443 250.081 15.4608 250.03 15.3773C249.976 15.1255 249.91 14.8767 249.831 14.6318C249.812 14.5838 249.797 14.5344 249.786 14.484C249.696 14.227 249.6 13.97 249.49 13.7194C249.473 13.6863 249.458 13.6519 249.445 13.6165C249.33 13.3659 249.201 13.1218 249.066 12.884L249.028 12.8069C248.981 12.7071 248.927 12.6106 248.867 12.5177C247.127 9.78027 244.07 8.18021 241.161 6.73437C238.446 5.30621 235.659 4.01931 232.812 2.87881C222.224 -1.09397 210.53 -0.928769 200.059 3.34148C199.024 3.73331 198.044 4.25591 197.143 4.89656C195.886 5.961 194.812 7.22438 193.964 8.63645L188.987 15.9941C188.291 16.8892 187.747 17.892 187.375 18.9629C186.443 22.4586 189.366 25.9608 189.038 29.5657C188.871 31.3586 187.908 33.0036 187.721 34.7964C187.484 37.1098 188.556 39.3396 189.603 41.428L196.725 55.565C196.346 57.4221 195.929 59.3242 195.473 61.162C192.191 64.5549 191.087 66.4056 190.785 67.408L190.689 67.4594C190.039 67.8794 189.479 68.4257 189.044 69.0659L182.275 75.6461C182.275 75.6461 170.51 78.7048 168.063 82.5797C168.063 82.5797 149.599 81.77 149.76 107.57C149.76 107.57 148.944 117.248 148.475 118.539C148.006 119.831 148.475 132.888 148.475 132.888L148.257 159.337C148.257 159.337 147.55 173.365 148.257 178.365C148.963 183.364 149.779 202.391 149.779 202.391C149.779 202.391 154.191 220.936 152.56 227.549C150.993 233.878 152.56 247.72 155.129 247.778C155.617 248.786 156.176 249.281 156.786 248.998C157.051 248.883 157.324 248.785 157.601 248.703V264.504C157.601 264.504 154.422 286.642 157.987 290.851C155.623 294.218 152.849 299.963 152.142 301.473L127.16 300.13L123.981 301.023L121.065 301.839L119.299 342.496L120.006 342.547L119.954 343.787L121.624 343.909L119.299 384.856L153.883 387.702C152.361 391.114 150.595 394.771 149.907 395.124C148.623 395.767 145.823 393.839 145.168 394.636C144.513 395.433 142.554 396.409 140.268 395.921C137.981 395.433 136.511 398.016 136.511 398.016C136.511 398.016 136.845 398.311 137.346 398.858C133.634 398.408 128.939 400.4 126.389 401.685C125.246 402.263 124.533 402.694 124.533 402.694H117.79L121.496 426.348L124.109 428.134L124.752 446.769C124.752 446.769 135.207 479.021 139.998 478.809C140.309 478.798 140.614 478.72 140.892 478.58C141.17 478.441 141.415 478.242 141.61 477.999C144.179 475.031 142.4 464.833 142.4 464.833V447.855C142.4 447.855 146.317 446.133 145.881 444.842C145.444 443.55 152.2 429.419 152.804 428.134C152.821 428.124 152.835 428.108 152.844 428.09C152.853 428.072 152.857 428.052 152.855 428.031C152.855 426.579 155.797 424.966 155.63 424.324C155.463 423.681 162.823 419.646 163.336 416.098C163.85 412.551 168.725 414.486 168.725 414.486L174.928 407.353C175.115 416.047 175.468 422.132 176.078 423.675C179.019 431.097 180.163 442.708 180.163 442.708C180.163 442.708 178.364 451.576 180.163 454.481C181.267 456.254 183.836 458.156 185.621 459.731C183.765 465.36 184.029 477.325 184.029 477.325V484.2L197.753 488.056C197.753 488.056 198.183 484.618 198.838 484.618C199.493 484.618 208.208 491.282 208.208 491.282C208.208 491.282 241.758 491.712 250.248 491.282C253.459 491.121 254.333 489.74 253.838 488.069C253.023 485.286 248.444 481.682 244.372 481.405C237.834 480.975 229.556 474.099 229.556 474.099C229.556 474.099 230.198 472.589 226.724 470.443C224.322 468.965 217.675 462.982 213.564 459.48C213.757 459.216 213.956 458.953 214.142 458.67C214.142 458.67 208.587 450.959 209.737 447.541C210.886 444.122 209.242 439.187 209.242 439.187C209.242 439.187 206.14 429.67 206.14 424.831C206.14 421.766 205.678 404.333 205.344 391.969L208.208 392.207L208.266 390.973L209.551 391.089L221.695 392.207L221.323 379.22C227.173 376.65 232.041 374.266 234.058 372.743C240.917 367.602 246.799 367.261 246.799 367.261C246.799 367.261 260.684 359.846 262.81 356.781C264.936 353.715 264.737 331.462 264.737 331.462L263.594 283.769V283.731C263.594 283.731 262.617 260.674 260.652 255.675C259.933 253.824 258.154 247.655 256.208 240.613C257.326 240.497 258.456 240.545 259.56 240.754C259.631 242.476 259.676 243.659 259.676 244.063C259.676 246.801 263.594 249.127 263.594 249.127L260.819 187.438V145.47C269.374 148.195 290.06 149.043 290.06 149.043C304.965 148.259 301.375 134.688 301.375 134.688ZM220.687 81.6865H220.642C220.945 80.0692 221.342 78.4707 221.83 76.8991L220.687 81.6865ZM164.544 293.273C169.611 294.109 175.461 293.864 175.905 292.881C175.95 292.785 176.007 292.611 176.084 292.386C176.245 292.669 176.399 292.958 176.56 293.254L176.065 302.559V302.771L159.367 301.871C160.536 296.891 162.745 294.462 164.544 293.273ZM220.205 340.221L219.775 325.152C220.52 322.376 221.188 319.857 221.759 317.698C222.016 319.491 222.234 321.142 222.401 322.665C223.981 336.963 221.65 339.752 220.205 340.221ZM267.729 114.298C266.773 114.664 263.131 112.37 259.676 109.993C259.676 109.556 259.708 109.125 259.727 108.708C260.215 98.8694 244.205 92.7455 239.305 91.6145C238.116 91.3074 236.962 90.8767 235.862 90.3293C233.252 89.0355 230.713 87.6004 228.258 86.0304L228.323 85.844C228.323 85.844 222.003 81.8407 221.868 76.8477C223.309 72.3063 225.126 67.8934 227.302 63.6553C227.424 63.4047 227.558 63.1412 227.687 62.8906C230.673 61.9612 233.461 60.4838 235.907 58.5338C236.89 71.3857 255.476 82.4447 255.476 82.4447L257.46 85.6577L257.929 86.4159C256.927 87.0071 256.446 87.4827 256.786 87.759C258.199 88.8899 261.615 95.2902 263.028 97.9955C263.414 98.728 263.671 99.1843 263.671 99.1843C263.671 99.1843 266.708 107.454 268.449 114.375C268.217 114.279 267.963 114.252 267.717 114.298H267.729Z" fill="url(#paint0_linear)"/>
<path d="M274.909 80.9668L274.691 81.256L273.946 82.252L259.657 92.3536L256.625 87.3671L254.699 84.1541C254.699 84.1541 226.216 67.0611 238.463 50.585C250.711 34.1089 268.808 71.4693 268.808 71.4693L274.909 80.9668Z" fill="#A0616A"/>
<path d="M246.171 40.7162C246.11 40.5958 245.963 40.5473 245.843 40.6079C245.722 40.6686 245.674 40.8154 245.735 40.9359L247.323 44.0925C247.384 44.2129 247.531 44.2614 247.651 44.2007C247.772 44.1401 247.82 43.9932 247.759 43.8728L246.171 40.7162Z" fill="#3A3768"/>
<path d="M229.864 45.1295L229.858 45.1324C229.792 45.166 229.765 45.2471 229.798 45.3136L230.272 46.2549C230.306 46.3214 230.387 46.3482 230.453 46.3147L230.459 46.3118C230.525 46.2783 230.552 46.1972 230.519 46.1306L230.045 45.1894C230.011 45.1228 229.93 45.096 229.864 45.1295Z" fill="#3A3768"/>
<path d="M231.161 47.3584C231.123 47.2823 231.03 47.2517 230.954 47.29C230.878 47.3283 230.847 47.421 230.885 47.4971L231.784 49.282C231.822 49.3581 231.915 49.3887 231.991 49.3504C232.067 49.3121 232.098 49.2193 232.059 49.1433L231.161 47.3584Z" fill="#3A3768"/>
<path d="M232.546 50.1365C232.509 50.0636 232.42 50.0342 232.348 50.071C232.275 50.1077 232.245 50.1965 232.282 50.2695L233.195 52.0831C233.232 52.156 233.32 52.1853 233.393 52.1486C233.466 52.1119 233.495 52.023 233.459 51.9501L232.546 50.1365Z" fill="#3A3768"/>
<path d="M241.187 34.5182L229.187 40.5647C228.478 40.9223 228.192 41.7877 228.549 42.4977L242.166 69.5525C242.524 70.2625 243.389 70.5482 244.098 70.1906L256.098 64.1441C256.807 63.7866 257.093 62.9211 256.736 62.2111L243.119 35.1564C242.761 34.4464 241.896 34.1607 241.187 34.5182Z" fill="#3A3768"/>
<path d="M239.651 36.2358C239.583 36.2699 239.521 36.3173 239.471 36.3754C239.421 36.4334 239.383 36.5009 239.359 36.5739C239.335 36.6469 239.326 36.7239 239.332 36.8004C239.338 36.877 239.359 36.9516 239.395 37.0198L239.446 37.129C239.481 37.1977 239.503 37.2727 239.509 37.3498C239.515 37.4268 239.506 37.5043 239.482 37.5778C239.458 37.6513 239.42 37.7193 239.37 37.778C239.319 37.8366 239.258 37.8847 239.189 37.9194L233.011 41.0295C232.943 41.0648 232.868 41.0862 232.792 41.0923C232.715 41.0985 232.638 41.0893 232.565 41.0654C232.492 41.0415 232.425 41.0033 232.367 40.953C232.309 40.9027 232.261 40.8413 232.227 40.7725L232.17 40.6633C232.135 40.5945 232.088 40.5331 232.03 40.4827C231.972 40.4322 231.905 40.3936 231.832 40.3692C231.76 40.3447 231.683 40.3348 231.606 40.3401C231.53 40.3453 231.455 40.3656 231.386 40.3998L230.185 41.0103C230.053 41.0751 229.936 41.1655 229.84 41.2762C229.743 41.3869 229.67 41.5157 229.624 41.6551C229.578 41.7945 229.56 41.9417 229.572 42.088C229.583 42.2344 229.623 42.377 229.691 42.5075L242.818 68.5775C242.952 68.8416 243.186 69.0417 243.467 69.1343C243.749 69.227 244.055 69.2047 244.32 69.0723L255.097 63.6424C255.361 63.5076 255.561 63.274 255.653 62.9924C255.746 62.7108 255.724 62.404 255.591 62.1387L242.458 36.0559C242.392 35.9245 242.301 35.8075 242.189 35.7116C242.078 35.6156 241.949 35.5425 241.809 35.4966C241.67 35.4506 241.522 35.4327 241.376 35.4437C241.229 35.4548 241.086 35.4947 240.955 35.5611L239.651 36.2358Z" fill="#00B0FF"/>
<path d="M236.061 38.2102L234.438 39.0281C234.324 39.0856 234.278 39.2247 234.335 39.3388C234.393 39.4529 234.532 39.4988 234.646 39.4414L236.269 38.6234C236.383 38.566 236.429 38.4269 236.372 38.3128C236.314 38.1987 236.175 38.1527 236.061 38.2102Z" fill="#E6E8EC"/>
<path d="M236.903 38.2857C237.048 38.2857 237.166 38.1678 237.166 38.0223C237.166 37.8767 237.048 37.7588 236.903 37.7588C236.757 37.7588 236.639 37.8767 236.639 38.0223C236.639 38.1678 236.757 38.2857 236.903 38.2857Z" fill="#E6E8EC"/>
<path d="M248.899 136.23L244.886 244.006C244.886 244.006 258.372 239.507 260.459 242.881C262.547 246.255 258.212 188.903 258.212 188.903L248.899 136.23Z" fill="#5F5570"/>
<path opacity="0.15" d="M248.899 136.23L244.886 244.006C244.886 244.006 258.372 239.507 260.459 242.881C262.547 246.255 258.212 188.903 258.212 188.903L248.899 136.23Z" fill="black"/>
<path d="M249.542 491.475C241.193 491.905 208.228 491.475 208.228 491.475C208.228 491.475 199.66 484.837 199.018 484.837C198.376 484.837 197.952 488.262 197.952 488.262L184.465 484.406V477.556C184.465 477.556 184.035 458.053 188.1 457.205C192.166 456.357 210.154 457.205 210.154 457.205C210.796 456.993 222.999 468.56 226.422 470.7C229.845 472.839 229.203 474.343 229.203 474.343C229.203 474.343 237.339 481.193 243.762 481.624C247.763 481.894 252.265 485.479 253.067 488.262C253.556 489.939 252.689 491.314 249.542 491.475Z" fill="#2979FF"/>
<path opacity="0.1" d="M249.542 491.475C241.193 491.905 208.228 491.475 208.228 491.475C208.228 491.475 199.66 484.837 199.018 484.837C198.376 484.837 197.952 488.262 197.952 488.262L184.465 484.406V477.691L197.091 482.266L207.155 488.262H253.067C253.556 489.939 252.689 491.314 249.542 491.475Z" fill="black"/>
<g opacity="0.1">
<path d="M212.055 481.412C212.055 481.412 222.331 471.561 229.202 474.343L212.055 481.412Z" fill="black"/>
<path d="M212.055 481.412C212.055 481.412 222.331 471.561 229.202 474.343" stroke="black" stroke-miterlimit="10"/>
</g>
<path d="M146.998 445.208C147.428 446.493 143.575 448.209 143.575 448.209V465.128C143.575 465.128 145.322 475.288 142.798 478.25C142.609 478.49 142.369 478.687 142.096 478.825C141.824 478.964 141.524 479.042 141.218 479.053C136.511 479.265 126.235 447.136 126.235 447.136L125.593 428.571L123.024 426.791L119.383 403.227H126.023C126.023 403.227 126.723 402.797 127.847 402.218C131.058 400.58 137.782 397.72 141.437 400.445L153.851 428.43C153.851 428.43 146.574 443.923 146.998 445.208Z" fill="#2979FF"/>
<path opacity="0.1" d="M142.798 478.25C142.609 478.491 142.369 478.687 142.096 478.825C141.824 478.964 141.524 479.042 141.218 479.053C136.511 479.265 126.235 447.136 126.235 447.136L125.593 428.571L123.024 426.791L119.383 403.227H126.023C126.023 403.227 126.723 402.797 127.847 402.219L129.446 426.361L130.3 447.136C130.3 447.136 138.367 469.755 142.798 478.25Z" fill="black"/>
<path d="M261.904 357.443C259.817 360.495 246.17 367.885 246.17 367.885C246.17 367.885 240.39 368.206 233.647 373.347C230.159 376.007 218.041 381.283 207.155 385.762C196.989 389.945 187.888 393.428 187.888 393.428L177.407 405.637L169.424 414.935C169.424 414.935 164.608 413.008 164.126 416.542C163.644 420.076 156.419 424.092 156.58 424.735C156.741 425.377 153.851 426.984 153.851 428.43C153.851 429.876 143.093 417.988 143.254 410.758C143.414 403.529 137.795 398.549 137.795 398.549C137.795 398.549 139.24 395.979 141.488 396.461C143.736 396.943 145.662 395.979 146.304 395.176C146.947 394.372 149.676 396.3 150.961 395.658C152.245 395.015 157.383 382.324 157.383 382.324L177.401 368.887L217.219 342.181L219.055 340.947C219.055 340.947 224.354 343.376 222.202 323.475C221.785 319.619 221.085 314.935 220.019 309.229C213.436 274.047 237.038 270.031 237.038 270.031L257.749 276.938L262.726 284.65V284.688L263.85 332.201C263.85 332.201 263.992 354.39 261.904 357.443Z" fill="#433A59"/>
<path opacity="0.1" d="M206.995 379.933C206.995 379.933 207.059 382.214 207.155 385.761C196.989 389.945 187.888 393.428 187.888 393.428L177.407 405.637C177.234 395.516 177.273 382.369 177.407 368.893L217.225 342.187C212.299 360.456 206.995 379.933 206.995 379.933Z" fill="black"/>
<path opacity="0.1" d="M262.707 284.669V284.707L231.559 285.311C231.559 285.311 226.101 306.678 225.298 311.176C225.099 312.281 223.891 317.004 222.183 323.494C221.766 319.639 221.066 314.954 220 309.248C213.417 274.066 237.018 270.05 237.018 270.05L257.73 276.958L262.707 284.669Z" fill="black"/>
<path d="M180.663 226.354L176.65 303.465C176.65 303.465 173.76 416.722 176.65 424.112C179.54 431.501 180.663 443.068 180.663 443.068C180.663 443.068 178.897 451.904 180.663 454.795C182.43 457.687 188.049 460.9 187.888 462.507C187.728 464.113 205.068 472.788 214.059 458.972C214.059 458.972 208.6 451.261 209.724 447.888C210.848 444.514 209.242 439.534 209.242 439.534C209.242 439.534 206.192 430.056 206.192 425.217C206.192 420.378 205.068 379.914 205.068 379.914C205.068 379.914 222.568 315.655 223.371 311.157C224.174 306.658 229.633 285.292 229.633 285.292L262.707 284.65C262.707 284.65 261.744 261.677 259.817 256.697C257.891 251.717 248.418 215.25 248.418 215.25L180.663 226.354Z" fill="#433A59"/>
<path d="M125.464 301.948L122.594 302.771L122.478 305.611L208.549 306.723V305.605L125.464 301.948Z" fill="#7B728F"/>
<path d="M226.987 65.4609C214.464 90.8755 222.241 96.1898 223.48 96.8452C220.828 95.6114 186.353 79.4052 190.888 75.2926C193.835 72.613 196.359 60.9564 197.843 52.6026C198.723 47.6161 199.236 43.8055 199.236 43.8055L235.413 50.4435C231.906 56.0984 229.119 61.0785 226.987 65.4609Z" fill="#A0616A"/>
<path opacity="0.1" d="M274.717 81.2559L273.972 82.2519L259.657 92.3535L256.625 87.367C261.037 84.7966 274.267 80.2985 274.267 80.2985L274.717 81.2559Z" fill="black"/>
<path d="M287.914 104.421C286.63 108.92 264.955 104.421 264.955 104.421L262.707 100.887C262.707 100.887 262.482 100.437 262.104 99.7048C260.716 97.0123 257.358 90.6378 255.97 89.5068C254.204 88.061 274.916 80.9924 274.916 80.9924L281.261 94.8082C282.825 95.8603 284.268 97.0823 285.564 98.4517C287.169 100.193 288.499 102.372 287.914 104.421Z" fill="#E5E8EF"/>
<path d="M251.95 106.491C251.95 106.491 264.794 116.631 266.721 115.898C268.648 115.166 299.796 136.211 299.796 136.211C299.796 136.211 303.328 149.705 288.717 150.508C288.717 150.508 257.73 149.223 256.446 144.725C255.161 140.227 251.95 106.491 251.95 106.491Z" fill="#5F5570"/>
<path opacity="0.1" d="M216.949 86.1075L202.981 100.566L222.568 225.229L230.275 220.731C230.275 220.731 250.184 229.566 251.789 221.373C253.395 213.18 252.952 180.89 252.952 180.89L250.344 122.555C250.344 122.555 241.193 102.153 241.193 101.51C241.193 100.868 227.995 90.9077 227.995 90.9077L221.766 86.0883L216.949 86.1075Z" fill="black"/>
<path d="M216.949 84.1798L202.981 98.6382L222.568 223.301L230.275 218.803C230.275 218.803 250.184 227.639 251.789 219.446C253.395 211.253 252.952 178.962 252.952 178.962L250.344 120.628C250.344 120.628 241.193 100.225 241.193 99.5828C241.193 98.9402 227.995 88.98 227.995 88.98L221.766 84.1605L216.949 84.1798Z" fill="#E5E8EF"/>
<path opacity="0.1" d="M217.752 86.2681L213.898 94.1399L217.752 98.2075C217.752 98.2075 231.559 126.109 228.83 142.656L231.72 197.115L241.032 206.272L248.418 197.739L244.886 148.259C244.886 148.259 235.413 107.454 225.458 94.7632L222.568 83.5178L217.752 86.2681Z" fill="black"/>
<path d="M217.752 84.983L213.898 92.8547L217.752 96.9223C217.752 96.9223 231.559 124.824 228.83 141.371L231.72 195.83L241.032 204.987L248.418 196.454L244.886 146.974C244.886 146.974 235.413 106.169 225.458 93.478L222.568 82.2327L217.752 84.983Z" fill="#2979FF"/>
<path opacity="0.1" d="M235.413 50.4436C231.906 56.0984 229.145 61.0785 226.987 65.461C224.714 66.1316 222.356 66.4714 219.987 66.4698C212.049 66.4698 207.476 60.9757 202.981 55.1409C201.953 53.8172 198.575 54.1256 197.843 52.5705C198.723 47.584 199.236 43.7734 199.236 43.7734L235.413 50.4436Z" fill="black"/>
<path d="M244.603 41.1902C244.603 47.0562 242.51 52.7295 238.702 57.1892C234.893 61.6489 229.619 64.6022 223.828 65.5177C218.038 66.4331 212.11 65.2506 207.113 62.183C202.116 59.1153 198.378 54.3639 196.57 48.7837C194.762 43.2035 195.004 37.161 197.252 31.7435C199.5 26.326 203.607 21.8891 208.834 19.2314C214.06 16.5736 220.063 15.8695 225.762 17.2457C231.461 18.6218 236.482 21.9879 239.921 26.7383C242.965 30.9416 244.603 35.9996 244.603 41.1902Z" fill="#A0616A"/>
<path opacity="0.1" d="M212.132 96.0677L191.902 71.6492C191.902 71.6492 190.033 70.8973 196.346 64.285C196.346 64.285 219.531 82.3676 220.969 85.4392C222.408 88.5108 212.132 96.0677 212.132 96.0677Z" fill="black"/>
<path d="M211.49 94.7825L191.26 70.364C191.26 70.364 189.391 69.6122 195.704 62.9999C195.704 62.9999 218.888 81.0825 220.327 84.154C221.766 87.2256 211.49 94.7825 211.49 94.7825Z" fill="#E5E8EF"/>
<path d="M262.707 250.194C262.707 250.194 258.854 247.88 258.854 245.149C258.854 242.418 256.927 203.863 256.927 203.863C256.927 203.863 254.101 180.851 251.147 162.563C249.413 151.787 247.634 142.643 246.376 140.831L246.324 140.754C242.952 136.416 243.595 115.211 222.562 84.2054C222.845 84.3982 230.095 89.4876 235.406 92.0451C236.487 92.5887 237.622 93.0193 238.791 93.3303C243.608 94.4548 259.342 100.559 258.86 110.359C258.379 120.159 259.984 142.649 259.984 142.649V188.743L262.707 250.194Z" fill="#5F5570"/>
<path d="M262.707 100.887C262.707 100.887 269.451 119.522 268.487 124.181C267.524 128.84 284.061 147.154 284.061 147.154L299.796 136.23C299.796 136.23 293.855 124.342 294.658 120.808C295.461 117.273 290.483 109.723 290.483 109.723L290.804 97.2051C290.804 97.2051 287.914 102.635 262.707 100.887Z" fill="#5F5570"/>
<path opacity="0.1" d="M239.921 26.7383L227.719 27.201C226.527 27.1932 225.34 27.3423 224.187 27.6444C219.826 28.9874 217.816 33.6269 217.655 37.7974C217.495 41.9678 215.086 46.6394 210.418 47.0057C209.953 47.0847 209.476 46.9786 209.088 46.7101C208.792 46.3949 208.595 45.9993 208.523 45.5727C207.853 43.1426 206.818 40.8286 205.453 38.7098C203.526 39.0568 202.101 40.8882 201.6 42.8032C201.099 44.7181 201.234 46.7358 201.24 48.7214C201.246 51.2432 201.003 53.7594 200.514 56.2334C198.524 53.6473 197.066 50.6912 196.227 47.5366C195.388 44.3821 195.184 41.0922 195.627 37.8581C196.07 34.624 197.151 31.5103 198.808 28.6979C200.464 25.8855 202.662 23.4306 205.275 21.4759C207.888 19.5212 210.863 18.1057 214.028 17.3116C217.192 16.5176 220.483 16.3608 223.708 16.8505C226.934 17.3401 230.03 18.4664 232.816 20.1639C235.603 21.8614 238.025 24.0961 239.94 26.7383H239.921Z" fill="black"/>
<path d="M223.551 27.0018C224.704 26.6997 225.891 26.5506 227.083 26.5584L241.899 26.0058C244.07 25.9223 246.491 25.7295 247.949 24.1166C248.472 23.5007 248.858 22.7798 249.079 22.0025C249.461 20.7604 249.573 19.4512 249.408 18.1623C249.243 16.8735 248.805 15.6348 248.122 14.5291C246.408 11.7981 243.402 10.2109 240.538 8.74575C237.872 7.32071 235.135 6.03382 232.337 4.89019C221.944 0.941043 210.437 1.10651 200.161 5.35286C199.146 5.74277 198.184 6.25874 197.297 6.88866C196.058 7.95048 195.004 9.2098 194.176 10.6157L189.301 17.967C188.629 18.8646 188.11 19.8679 187.766 20.9358C186.848 24.425 189.693 27.9143 189.398 31.5064C189.231 33.2928 188.287 34.9314 188.113 36.7178C187.882 39.0248 188.935 41.216 189.969 43.3173L198.536 60.6095C199.92 56.5772 200.621 52.3421 200.611 48.0789C200.611 46.0933 200.444 44.0755 200.97 42.1606C201.497 40.2457 202.897 38.4143 204.824 38.0673C206.192 40.185 207.23 42.4993 207.9 44.9302C207.971 45.3572 208.168 45.7533 208.465 46.0676C208.852 46.3367 209.33 46.4428 209.795 46.3632C214.489 45.9969 216.859 41.3702 217.032 37.1548C217.206 32.9394 219.19 28.3449 223.551 27.0018Z" fill="#212121"/>
<path d="M122.594 302.771L128.592 301.055L219.036 305.984L209.082 307.269L122.594 302.771Z" fill="#7B728F"/>
<path opacity="0.1" d="M122.594 302.771L128.592 301.055L219.036 305.984L209.082 307.269L122.594 302.771Z" fill="black"/>
<path d="M221.496 392.734L209.563 391.622L205.376 391.236V324.831L206.481 309.415L206.725 305.984H219.036L221.496 392.734Z" fill="#7B728F"/>
<path opacity="0.1" d="M218.233 390.375L208.716 389.322L205.376 388.955V325.994L206.256 311.381L206.449 308.124H216.268L218.233 390.375Z" fill="black"/>
<path d="M152.964 302.771C152.964 302.771 158.905 289.732 161.397 289.328C163.889 288.923 168.461 289.328 168.461 289.328L168.057 293.106C168.057 293.106 161.955 293.588 160.029 303.786L152.964 302.771Z" fill="#7B728F"/>
<path opacity="0.1" d="M152.964 302.771C152.964 302.771 158.905 289.732 161.397 289.328C163.889 288.923 168.461 289.328 168.461 289.328L168.057 293.106C168.057 293.106 161.955 293.588 160.029 303.786L152.964 302.771Z" fill="black"/>
<path d="M176.007 287.965C176.007 287.965 191.979 295.914 189.892 305.232L181.222 304.75C181.222 304.75 177.048 290.857 173.76 290.131C170.471 289.405 176.007 287.965 176.007 287.965Z" fill="#7B728F"/>
<path d="M235.413 162.094V162.563L235.092 216.072C235.092 216.072 226.903 261.054 224.656 262.821C222.408 264.588 173.117 259.768 173.117 259.768L150.8 109.241C150.64 83.5371 168.782 84.3404 168.782 84.3404C171.191 80.4848 182.751 77.4325 182.751 77.4325L189.173 71.1672L189.378 70.878C189.805 70.2414 190.355 69.6973 190.997 69.278C192.32 68.5133 193.161 69.5222 193.643 70.5182C193.86 70.9858 194.027 71.4747 194.144 71.9769C220.16 91.0683 235.413 162.094 235.413 162.094Z" fill="#5F5570"/>
<path opacity="0.1" d="M234.771 162.737V163.206C226.698 148.426 195.595 92.4306 187.086 89.6417L190.361 87.3926C190.361 87.3926 192.545 86.1075 188.531 84.8223C188.531 84.8223 182.269 85.6255 182.108 78.075L188.736 71.5206L190.355 69.9205L193 71.1607C193.217 71.6284 193.385 72.1172 193.501 72.6194C219.518 91.7109 234.771 162.737 234.771 162.737Z" fill="black"/>
<path d="M235.413 162.094V162.563C227.34 147.784 196.237 91.788 187.728 88.9991L191.003 86.7501C191.003 86.7501 193.187 85.4649 189.173 84.1797C189.173 84.1797 182.911 84.9829 182.751 77.4325L189.378 70.878L190.997 69.278L193.643 70.5182C193.86 70.9858 194.027 71.4746 194.144 71.9768C220.16 91.0683 235.413 162.094 235.413 162.094Z" fill="#433A59"/>
<path opacity="0.1" d="M247.024 141.448L246.973 141.37C243.601 137.033 244.243 115.827 223.211 84.8223C223.493 85.015 230.744 90.1044 236.055 92.6619L234.571 97.5585L237.783 99.2742L247.024 141.448Z" fill="black"/>
<path d="M246.382 140.805L246.331 140.728C242.959 136.39 243.601 115.185 222.568 84.1797C222.851 84.3725 230.102 89.4618 235.413 92.0193L233.929 96.9159L237.14 98.6316L246.382 140.805Z" fill="#433A59"/>
<path opacity="0.1" d="M221.644 79.2317L220.327 84.7965C220.327 84.7965 221.29 90.3678 227.064 90.8498L227.995 88.1959C227.995 88.1959 221.766 84.1989 221.644 79.2317Z" fill="black"/>
<path d="M221.644 78.5891L220.327 84.154C220.327 84.154 221.29 89.7253 227.064 90.2072L227.995 87.5533C227.995 87.5533 221.766 83.5564 221.644 78.5891Z" fill="#E5E8EF"/>
<path opacity="0.1" d="M213.34 306.883L209.563 391.622L205.376 391.237V324.831L206.481 309.415L213.34 306.883Z" fill="black"/>
<path d="M123.454 339.611L120.885 385.447L208.228 392.734L212.055 306.883L123.454 339.611Z" fill="#7B728F"/>
<path opacity="0.1" d="M121.528 344.539L123.236 304.056L212.697 308.169L208.44 350.965L121.528 344.539Z" fill="black"/>
<path d="M120.885 343.254L122.594 302.771L212.055 306.883L207.797 349.68L120.885 343.254Z" fill="#7B728F"/>
<path d="M169.264 343.305H158.507V355.836H169.264V343.305Z" fill="#C3BBC8"/>
<path d="M160.112 261.214L158.507 265.552C158.507 265.552 155.135 289.328 159.309 292.219C163.484 295.111 175.847 295.272 176.489 293.826C177.131 292.38 181.627 275.994 181.627 275.994C181.627 275.994 185.641 288.042 187.728 287.079C189.815 286.115 182.911 263.213 182.911 263.213L160.112 261.214Z" fill="#A0616A"/>
<path opacity="0.1" d="M158.507 243.222V266.194C158.507 266.194 175.526 269.407 182.911 263.855C182.911 263.855 176.007 241.615 178.576 235.992C181.145 230.37 158.507 243.222 158.507 243.222Z" fill="black"/>
<path d="M158.507 242.579V265.552C158.507 265.552 175.526 268.765 182.911 263.213C182.911 263.213 176.007 240.972 178.576 235.35C181.145 229.727 158.507 242.579 158.507 242.579Z" fill="#E5E8EF"/>
<path opacity="0.1" d="M156.58 108.116L152.085 110.526C152.085 110.526 151.282 120.165 150.8 121.45C150.318 122.735 150.8 135.748 150.8 135.748L150.582 162.094C150.582 162.094 149.888 176.071 150.582 181.051C151.275 186.031 152.052 204.987 152.052 204.987C152.052 204.987 156.394 223.462 154.788 230.048C153.183 236.635 154.949 251.415 157.678 250.129C160.408 248.844 185.615 243.864 186.899 242.9C188.184 241.936 187.542 232.94 186.899 231.816C186.257 230.691 182.404 215.429 182.725 211.895C183.046 208.361 181.601 177.356 181.601 177.356C181.601 177.356 184.009 144.262 184.973 136.551C185.936 128.84 183.046 106.189 180.477 105.867C177.908 105.546 170.388 88.0353 156.58 108.116Z" fill="black"/>
<path d="M155.296 106.831L150.8 109.241C150.8 109.241 149.997 118.88 149.516 120.165C149.034 121.45 149.516 134.463 149.516 134.463L149.297 160.809C149.297 160.809 148.604 174.785 149.297 179.766C149.991 184.746 150.768 203.702 150.768 203.702C150.768 203.702 155.109 222.177 153.504 228.763C151.898 235.35 153.664 250.129 156.394 248.844C159.123 247.559 184.33 242.579 185.615 241.615C186.899 240.651 186.257 231.655 185.615 230.53C184.973 229.406 181.119 214.144 181.44 210.61C181.762 207.076 180.317 176.071 180.317 176.071C180.317 176.071 182.725 142.977 183.688 135.266C184.652 127.555 181.762 104.903 179.193 104.582C176.624 104.261 169.103 86.7501 155.296 106.831Z" fill="#5F5570"/>
<g opacity="0.1">
<path opacity="0.1" d="M203.854 35.6576C201.927 36.0046 200.502 37.836 200.001 39.7509C199.5 41.6658 199.635 43.6836 199.641 45.6692C199.653 49.9321 198.954 54.1672 197.573 58.1998L188.999 40.9076C188.832 40.567 188.659 40.2136 188.492 39.8602C188.889 41.0502 189.381 42.2063 189.963 43.3173L198.536 60.6095C199.918 56.5769 200.617 52.3418 200.604 48.0789C200.604 46.0933 200.444 44.0756 200.964 42.1606C201.484 40.2457 202.891 38.4143 204.817 38.0673C205.439 39.042 205.995 40.0575 206.481 41.1068C205.828 39.1909 204.946 37.3612 203.854 35.6576Z" fill="black"/>
<path opacity="0.1" d="M248.277 14.8054C248.653 16.3863 248.6 18.0394 248.122 19.5927C247.899 20.3705 247.511 21.0913 246.986 21.7069C245.528 23.3198 243.132 23.5126 240.936 23.5961L226.126 24.1487C224.932 24.1409 223.743 24.2899 222.588 24.5921C218.233 25.9351 216.217 30.5747 216.056 34.7451C215.896 38.9155 213.487 43.5872 208.818 43.9534C208.354 44.0324 207.877 43.9263 207.489 43.6579C207.637 44.0755 207.778 44.4997 207.9 44.943C207.966 45.3703 208.161 45.7672 208.459 46.0804C208.846 46.3489 209.323 46.455 209.788 46.376C214.489 46.0097 216.853 41.3831 217.026 37.1677C217.199 32.9523 219.203 28.3577 223.557 27.0147C224.712 26.7125 225.902 26.5634 227.096 26.5713L241.906 26.0187C244.076 25.9351 246.498 25.7424 247.955 24.1294C248.481 23.5139 248.868 22.7931 249.092 22.0153C249.456 20.8216 249.572 19.5659 249.431 18.3258C249.291 17.0856 248.898 15.8875 248.277 14.8054Z" fill="black"/>
</g>
<path opacity="0.1" d="M224.161 278.365C224.161 278.365 229.723 275.473 231.868 275.634C234.013 275.795 253.273 300.303 253.273 300.303L224.161 278.365Z" fill="black"/>
<path opacity="0.1" d="M167.113 112.499C167.113 112.499 156.946 116.843 157.216 119.844C157.486 122.845 167.113 112.499 167.113 112.499Z" fill="black"/>
<path opacity="0.1" d="M162.161 126.7C162.161 126.7 151.494 140.349 153.851 140.805C156.208 141.261 162.161 126.7 162.161 126.7Z" fill="black"/>
<path opacity="0.1" d="M197.843 147.154C197.843 147.154 198.819 177.677 190.997 181.533L197.843 147.154Z" fill="black"/>
<path opacity="0.1" d="M157.19 228.654C157.19 228.654 164.717 224.374 166.445 225.229C168.172 226.084 157.19 228.654 157.19 228.654Z" fill="black"/>
<path opacity="0.1" d="M158.507 234.572C158.507 234.572 163.259 234.913 165.513 233.93C167.768 232.946 158.507 234.572 158.507 234.572Z" fill="black"/>
<path opacity="0.1" d="M271.955 122.176C271.955 122.176 277.851 139.121 281.248 139.121L271.955 122.176Z" fill="black"/>
<path opacity="0.1" d="M188.12 446.712C188.12 446.712 199.179 443.711 200.81 446.712C202.441 449.713 188.12 446.712 188.12 446.712Z" fill="black"/>
<path opacity="0.1" d="M152.964 402.219C152.964 402.219 150.209 406.44 153.851 407.726C157.492 409.011 152.964 402.219 152.964 402.219Z" fill="black"/>
<path opacity="0.1" d="M226.422 343.305C226.422 343.305 234.771 350.747 238.714 350.965C242.657 351.184 226.422 343.305 226.422 343.305Z" fill="black"/>
<path d="M555.265 38.4463C555.265 38.4463 501.196 35.1627 507.567 73.0757C507.567 73.0757 506.283 79.7779 512.371 82.8238C512.371 82.8238 512.467 80.0093 517.92 80.9667C519.859 81.2887 521.829 81.3836 523.79 81.2495C526.437 81.0694 528.954 80.0344 530.963 78.3C530.963 78.3 546.165 72.0218 552.073 47.1599C552.073 47.1599 556.447 41.7364 556.273 40.342L547.147 44.2425C547.147 44.2425 550.269 50.8291 547.79 56.304C547.79 56.304 547.494 44.4803 545.741 44.7373C545.381 44.7952 540.995 47.0185 540.995 47.0185C540.995 47.0185 546.364 58.4952 542.311 66.8297C542.311 66.8297 543.853 52.6926 539.325 47.8475L532.903 51.6002C532.903 51.6002 539.177 63.4496 534.926 73.1207C534.926 73.1207 536.018 58.2896 531.554 52.5127L525.736 57.0558C525.736 57.0558 531.625 68.7382 528.035 76.7577C528.035 76.7577 527.566 59.4913 524.47 58.1868C524.47 58.1868 519.384 62.685 518.607 64.5228C518.607 64.5228 522.64 73.005 520.135 77.4775C520.135 77.4775 518.601 65.975 517.342 65.9108C517.342 65.9108 512.268 73.5319 511.742 78.7626C511.742 78.7626 511.96 70.9873 516.115 65.1846C516.115 65.1846 511.209 66.0264 508.344 69.2137C508.344 69.2137 509.134 63.8223 517.335 63.3532C517.335 63.3532 521.523 57.5699 522.647 57.2165C522.647 57.2165 514.458 56.5353 509.494 58.733C509.494 58.733 513.867 53.6501 524.149 55.9634L529.929 51.2725C529.929 51.2725 519.146 49.7945 514.58 51.4267C514.58 51.4267 519.84 46.9286 531.477 50.2058L537.732 46.4595C537.732 46.4595 528.542 44.4803 523.07 45.1743C523.07 45.1743 528.85 42.0577 539.563 45.4377L544.058 43.4264C544.058 43.4264 537.328 42.1027 535.356 41.8971C533.385 41.6914 533.275 41.1388 533.275 41.1388C537.541 40.4275 541.921 40.9147 545.927 42.5461C545.927 42.5461 555.432 39.0182 555.265 38.4463Z" fill="#00B0FF"/>
<path d="M447.943 31.1786C447.943 31.1786 423.539 29.7071 426.39 46.8386C426.39 46.8386 425.819 49.8652 428.561 51.2404C428.561 51.2404 428.606 49.9552 431.066 50.3986C431.943 50.5494 432.836 50.5926 433.724 50.5271C434.911 50.4383 436.037 49.9696 436.936 49.1905C436.936 49.1905 443.801 46.3502 446.473 35.1177C446.473 35.1177 448.451 32.6694 448.399 32.0397L444.263 33.8004C444.263 33.8004 445.67 36.7756 444.565 39.2496C444.565 39.2496 444.43 33.9096 443.634 34.0317C443.473 34.0317 441.495 35.0663 441.495 35.0663C441.495 35.0663 443.917 40.252 442.086 44.0176C442.086 44.0176 442.786 37.6302 440.738 35.439L437.841 37.1354C437.841 37.1354 440.673 42.4882 438.753 46.8579C438.753 46.8579 439.248 40.1556 437.231 37.5467L434.604 39.603C434.604 39.603 437.263 44.8787 435.638 48.5029C435.638 48.5029 435.426 40.7018 434.033 40.1106C434.033 40.1106 431.734 42.1412 431.38 42.9766C431.38 42.9766 433.204 46.8322 432.074 48.8306C432.074 48.8306 431.38 43.6321 430.79 43.6064C430.79 43.6064 428.497 47.0507 428.259 49.3897C428.37 47.2081 429.052 45.0941 430.237 43.2594C428.914 43.5087 427.692 44.141 426.724 45.0779C426.724 45.0779 427.084 42.6425 430.802 42.4304C430.802 42.4304 432.697 39.8151 433.204 39.6608C433.204 39.6608 429.505 39.346 427.257 40.342C427.257 40.342 429.235 38.0479 433.879 39.0568L436.448 36.9362C436.448 36.9362 431.573 36.2936 429.512 37.0069C429.512 37.0069 431.888 34.9763 437.141 36.4543L439.973 34.7643C439.973 34.7643 435.818 33.8711 433.346 34.1924C433.346 34.1924 435.953 32.7851 440.802 34.308L442.818 33.402C442.818 33.402 439.781 32.8044 438.888 32.708C437.995 32.6116 437.95 32.3674 437.95 32.3674C439.878 32.0506 441.856 32.2729 443.666 33.01C443.666 33.01 448.02 31.4485 447.943 31.1786Z" fill="#00B0FF"/>
<path opacity="0.1" d="M543.705 467.442C553.257 467.442 561 466.133 561 464.518C561 462.903 553.257 461.594 543.705 461.594C534.153 461.594 526.41 462.903 526.41 464.518C526.41 466.133 534.153 467.442 543.705 467.442Z" fill="#00B0FF"/>
<path opacity="0.1" d="M17.295 423.919C26.8468 423.919 34.5901 422.61 34.5901 420.995C34.5901 419.38 26.8468 418.071 17.295 418.071C7.74325 418.071 0 419.38 0 420.995C0 422.61 7.74325 423.919 17.295 423.919Z" fill="#00B0FF"/>
<path opacity="0.1" d="M531.67 410.81C541.221 410.81 548.965 409.501 548.965 407.886C548.965 406.271 541.221 404.962 531.67 404.962C522.118 404.962 514.375 406.271 514.375 407.886C514.375 409.501 522.118 410.81 531.67 410.81Z" fill="#00B0FF"/>
<path opacity="0.1" d="M84.1888 439.605C93.7406 439.605 101.484 438.296 101.484 436.681C101.484 435.066 93.7406 433.757 84.1888 433.757C74.637 433.757 66.8938 435.066 66.8938 436.681C66.8938 438.296 74.637 439.605 84.1888 439.605Z" fill="#00B0FF"/>
<path opacity="0.1" d="M454.577 442.117C464.129 442.117 471.872 440.808 471.872 439.193C471.872 437.579 464.129 436.27 454.577 436.27C445.026 436.27 437.282 437.579 437.282 439.193C437.282 440.808 445.026 442.117 454.577 442.117Z" fill="#00B0FF"/>
<path d="M505.852 500.22C520.114 500.22 531.676 498.264 531.676 495.851C531.676 493.437 520.114 491.481 505.852 491.481C491.59 491.481 480.029 493.437 480.029 495.851C480.029 498.264 491.59 500.22 505.852 500.22Z" fill="#00B0FF"/>
<path d="M516.526 488.705C517.703 487.745 518.561 486.45 518.986 484.991C519.307 483.513 518.678 481.778 517.265 481.206C515.685 480.602 513.996 481.694 512.718 482.8C511.44 483.905 509.969 485.171 508.293 484.939C509.156 484.157 509.801 483.165 510.167 482.059C510.533 480.953 510.606 479.772 510.38 478.629C510.305 478.156 510.103 477.712 509.796 477.344C508.922 476.406 507.33 476.811 506.283 477.55C502.943 479.902 502.012 484.438 501.993 488.525C501.659 487.047 501.941 485.511 501.928 484.027C501.916 482.543 501.511 480.814 500.233 480.03C499.444 479.606 498.559 479.396 497.664 479.42C496.161 479.368 494.491 479.516 493.47 480.615C492.186 481.977 492.526 484.271 493.631 485.756C494.736 487.24 496.425 488.197 497.979 489.238C499.224 489.978 500.284 490.991 501.081 492.201C501.178 492.367 501.256 492.544 501.312 492.728H510.727C512.832 491.654 514.783 490.301 516.526 488.705Z" fill="#00B0FF"/>
<path d="M85.0815 364.813C85.0815 364.813 88.6138 369.427 83.4567 376.38C78.2997 383.333 74.0482 389.232 75.7501 393.576C75.7501 393.576 83.5338 380.634 89.8789 380.454C96.2241 380.274 92.0496 372.614 85.0815 364.813Z" fill="#00B0FF"/>
<path opacity="0.1" d="M85.0815 364.813C85.3905 365.257 85.6329 365.744 85.8008 366.259C91.979 373.52 95.2736 380.3 89.333 380.473C83.8035 380.627 77.1694 390.523 75.5767 393.023C75.629 393.217 75.6912 393.407 75.7629 393.595C75.7629 393.595 83.5466 380.653 89.8918 380.473C96.2369 380.293 92.0496 372.614 85.0815 364.813Z" fill="black"/>
<path d="M91.6387 370.712C91.6387 372.338 91.4588 373.655 91.2341 373.655C91.0093 373.655 90.8295 372.37 90.8295 370.712C90.8295 369.054 91.0542 369.851 91.279 369.851C91.5038 369.851 91.6387 369.086 91.6387 370.712Z" fill="#FFD037"/>
<path d="M93.8929 372.653C92.4671 373.43 91.2212 373.899 91.1185 373.707C91.0157 373.514 92.0754 372.717 93.5011 371.939C94.9268 371.162 94.3681 371.727 94.4709 371.939C94.5736 372.151 95.3186 371.882 93.8929 372.653Z" fill="#FFD037"/>
<path d="M66.4507 364.813C66.4507 364.813 62.9185 369.427 68.0755 376.38C73.2325 383.333 77.484 389.232 75.7822 393.576C75.7822 393.576 68.0048 380.634 61.6533 380.454C55.3017 380.274 59.4826 372.614 66.4507 364.813Z" fill="#00B0FF"/>
<path opacity="0.1" d="M66.4507 364.813C66.1409 365.258 65.8965 365.745 65.7249 366.259C59.5468 373.52 56.2586 380.3 62.1927 380.473C67.7287 380.627 74.3628 390.523 75.9556 393.023C75.9039 393.218 75.8395 393.409 75.7629 393.595C75.7629 393.595 67.9856 380.653 61.634 380.473C55.2824 380.293 59.4826 372.614 66.4507 364.813Z" fill="black"/>
<path d="M59.8871 370.712C59.8871 372.338 60.0734 373.655 60.2982 373.655C60.523 373.655 60.7028 372.37 60.7028 370.712C60.7028 369.054 60.478 369.851 60.2532 369.851C60.0284 369.851 59.8871 369.086 59.8871 370.712Z" fill="#FFD037"/>
<path d="M57.6458 372.653C59.0715 373.43 60.311 373.899 60.4202 373.707C60.5294 373.514 59.4569 372.717 58.0311 371.939C56.6054 371.162 57.1705 371.727 57.0614 371.939C56.9522 372.151 56.2136 371.882 57.6458 372.653Z" fill="#FFD037"/>
<path d="M61.011 393.01C61.011 393.01 70.8756 392.708 73.8555 390.587C76.8354 388.467 89.0312 385.942 89.7633 389.341C90.4955 392.74 104.592 406.235 93.4561 406.325C82.32 406.415 67.5746 404.59 64.6075 402.778C61.6404 400.965 61.011 393.01 61.011 393.01Z" fill="#A8A8A8"/>
<path opacity="0.2" d="M93.6488 405.142C82.5126 405.232 67.7672 403.407 64.8002 401.595C62.546 400.22 61.6404 395.278 61.3386 392.997H61.011C61.011 392.997 61.6533 400.959 64.6011 402.765C67.5489 404.57 82.3136 406.402 93.4497 406.312C96.6608 406.312 97.7718 405.142 97.714 403.446C97.2645 404.48 96.0378 405.123 93.6488 405.142Z" fill="black"/>
<defs>
<linearGradient id="paint0_linear" x1="209.775" y1="491.475" x2="209.775" y2="-3.54193e-06" gradientUnits="userSpaceOnUse">
<stop stop-color="#808080" stop-opacity="0.25"/>
<stop offset="0.54" stop-color="#808080" stop-opacity="0.12"/>
<stop offset="1" stop-color="#808080" stop-opacity="0.1"/>
</linearGradient>
</defs>
</svg>
