<svg width="501" height="504" viewBox="0 0 501 504" fill="none" xmlns="http://www.w3.org/2000/svg">
<path fill-rule="evenodd" clip-rule="evenodd" d="M269.193 0.000710063C338.027 -0.256143 380.743 69.2219 419.905 125.902C454.631 176.161 476.446 231.524 471.233 292.415C464.71 368.602 457.056 460.603 388.384 494.058C319.599 527.567 247.273 468.344 178.364 435.09C109.504 401.858 15.8704 382.589 1.59666 307.397C-12.5161 233.053 70.2232 184.068 119.884 127.021C165.031 75.1592 200.483 0.257102 269.193 0.000710063Z" fill="#00E5FF"/>
<g clip-path="url(#clip0)">
<path d="M378.25 294.901V411.199L397.743 442.902L399.226 445.313H476.139L477.693 294.901H378.25Z" fill="#E6E6E6"/>
<path opacity="0.1" d="M378.25 294.901V411.199L397.743 442.902L398.939 294.901H378.25Z" fill="black"/>
<path d="M192.572 291.799V408.098L173.079 439.801L171.595 442.212H94.6827L93.1287 291.799H192.572Z" fill="#E6E6E6"/>
<path opacity="0.1" d="M192.571 291.799V408.098L173.079 439.801L171.883 291.799H192.571Z" fill="black"/>
<path d="M501 289.473V296.451H83.0288V286.372L121.874 266.213H466.817L501 289.473Z" fill="#E6E6E6"/>
<path opacity="0.1" d="M501 289.473V296.451H83.0288V286.372L501 289.473Z" fill="black"/>
<path d="M142.85 324.363H124.204L116.435 318.935H151.396L142.85 324.363Z" fill="#3F3D56"/>
<path d="M142.85 346.847H124.204L116.435 341.42H151.396L142.85 346.847Z" fill="#3F3D56"/>
<path d="M142.85 378.636H124.204L116.435 373.208H151.396L142.85 378.636Z" fill="#3F3D56"/>
<path d="M142.85 410.424H124.204L116.435 404.996H151.396L142.85 410.424Z" fill="#3F3D56"/>
<path d="M427.971 327.464H446.617L454.386 322.036H419.426L427.971 327.464Z" fill="#3F3D56"/>
<path d="M427.971 349.948H446.617L454.386 344.521H419.426L427.971 349.948Z" fill="#3F3D56"/>
<path d="M427.971 381.737H446.617L454.386 376.31H419.426L427.971 381.737Z" fill="#3F3D56"/>
<path d="M427.971 413.525H446.617L454.386 408.098H419.426L427.971 413.525Z" fill="#3F3D56"/>
<path d="M440.669 131.726H283.699C282.919 131.725 282.147 131.879 281.427 132.176C280.707 132.474 280.052 132.91 279.501 133.461C278.95 134.011 278.512 134.664 278.214 135.383C277.916 136.101 277.762 136.872 277.762 137.65V243.175C277.762 243.953 277.916 244.723 278.214 245.442C278.512 246.161 278.95 246.814 279.501 247.364C280.052 247.914 280.707 248.351 281.427 248.648C282.147 248.946 282.919 249.099 283.699 249.099H343.286L341.054 263.323C341.054 263.323 328.296 270.087 337.266 270.286C346.237 270.485 388.497 270.286 388.497 270.286C388.497 270.286 396.67 270.286 383.713 263.124L381.613 249.099H440.669C441.448 249.099 442.22 248.946 442.941 248.648C443.661 248.351 444.315 247.914 444.867 247.364C445.418 246.814 445.855 246.161 446.153 245.442C446.452 244.723 446.605 243.953 446.605 243.175V137.65C446.605 136.872 446.452 136.101 446.153 135.383C445.855 134.664 445.418 134.011 444.867 133.461C444.315 132.91 443.661 132.474 442.941 132.176C442.22 131.879 441.448 131.725 440.669 131.726Z" fill="#3F3D56"/>
<path d="M440.924 137.992H283.444V225.923H440.924V137.992Z" fill="#F2F2F2"/>
<path d="M362.184 136.202C362.734 136.202 363.181 135.756 363.181 135.207C363.181 134.658 362.734 134.212 362.184 134.212C361.633 134.212 361.187 134.658 361.187 135.207C361.187 135.756 361.633 136.202 362.184 136.202Z" fill="#F2F2F2"/>
<path d="M362.184 244.822C364.276 244.822 365.971 243.13 365.971 241.042C365.971 238.955 364.276 237.262 362.184 237.262C360.092 237.262 358.396 238.955 358.396 241.042C358.396 243.13 360.092 244.822 362.184 244.822Z" fill="#F2F2F2"/>
<path d="M356.282 281.029V283.018H249.036V281.427L249.184 281.029L251.827 273.867H354.089L356.282 281.029Z" fill="#3F3D56"/>
<path d="M397.554 279.081C397.358 279.915 396.621 280.794 394.954 281.625C388.974 284.61 376.814 280.83 376.814 280.83C376.814 280.83 367.445 279.238 367.445 275.061C367.708 274.881 367.982 274.718 368.266 274.573C370.781 273.246 379.117 269.97 393.899 274.712C394.988 275.053 395.96 275.689 396.708 276.549C397.04 276.875 397.289 277.274 397.436 277.714C397.583 278.154 397.623 278.622 397.554 279.081Z" fill="#3F3D56"/>
<path opacity="0.1" d="M397.554 279.081C390.234 281.88 383.709 282.089 377.013 277.448C374.481 275.58 371.415 274.572 368.266 274.573C370.781 273.246 379.117 269.97 393.899 274.712C394.988 275.053 395.96 275.689 396.708 276.549C397.04 276.875 397.289 277.274 397.436 277.714C397.583 278.154 397.623 278.622 397.554 279.081Z" fill="black"/>
<path d="M388.376 277.448C389.807 277.448 390.967 277.092 390.967 276.652C390.967 276.213 389.807 275.856 388.376 275.856C386.945 275.856 385.784 276.213 385.784 276.652C385.784 277.092 386.945 277.448 388.376 277.448Z" fill="#F2F2F2"/>
<path opacity="0.1" d="M356.282 281.029V283.018H249.036V281.427L249.184 281.029H356.282Z" fill="black"/>
<path d="M112.63 56.0001C111.542 55.9109 110.452 56.1539 109.505 56.6968C108.575 57.3323 107.989 58.4455 107.391 59.4815C105.104 63.4895 102.008 66.9799 98.2985 69.7315C95.5968 71.7067 92.1619 74.1696 92.6242 77.8114C92.868 79.0141 93.3132 80.1671 93.9411 81.2222C96.4335 86.2432 103.235 90.1235 102.566 95.8529C105.042 91.7158 101.73 89.6701 104.206 85.533C105.385 83.5628 107.434 81.3388 109.214 82.5761C109.811 82.9904 110.202 83.7334 110.823 84.0969C112.304 84.9643 113.88 83.3061 115.191 82.1315C119.712 78.0813 126.141 79.1424 131.767 80.4043C134.423 81.0001 137.34 81.7817 138.91 84.315C140.974 87.6458 136.949 91.243 135.932 95.0088C135.848 95.3297 135.845 95.6658 135.92 95.9885C135.996 96.3113 136.148 96.6109 136.365 96.8619C136.582 97.1129 136.857 97.3077 137.165 97.4297C137.474 97.5517 137.808 97.5972 138.138 97.5625C139.826 97.3963 141.826 97.2601 141.926 96.5208C144.05 96.5963 146.652 96.3562 147.562 94.1492C147.84 93.276 147.987 92.3665 147.998 91.4503C148.332 87.743 149.909 84.3608 150.953 80.8323C151.998 77.3038 152.452 73.1687 150.689 70.0403C150.06 68.9994 149.282 68.0558 148.38 67.2393C138.377 57.5789 125.226 55.9858 112.63 56.0001Z" fill="#2F2E41"/>
<path d="M104.741 103.09C104.741 103.09 106.917 121.181 98.9401 122.629C90.9636 124.076 106.191 148.681 106.191 148.681L142.448 153.023L133.747 124.076C133.747 124.076 127.946 121.905 131.571 107.432C135.197 92.9582 104.741 103.09 104.741 103.09Z" fill="#FFB8B8"/>
<path d="M82.6245 413.905L85.5253 453.707H100.753L96.4024 413.905H82.6245Z" fill="#FFB8B8"/>
<path d="M194.296 338.644L196.471 371.932L213.15 364.696L206.623 337.196L194.296 338.644Z" fill="#FFB8B8"/>
<path d="M71.7473 261.935C71.7473 261.935 72.4724 303.908 76.8233 317.657C81.1742 331.407 80.449 332.131 79.7239 334.302C78.9987 336.473 78.2736 335.025 78.2736 338.644C78.2736 342.262 76.8233 399.432 78.2736 404.498C79.7238 409.563 73.9228 418.247 78.2736 418.971C82.6244 419.695 102.928 418.971 103.653 414.629C104.379 410.287 97.8523 408.84 100.753 405.945C103.653 403.05 108.004 343.709 108.004 343.709L118.156 302.46L137.01 280.75H176.892L189.22 328.512C189.22 328.512 184.144 342.262 187.769 342.262C191.395 342.262 213.149 346.604 213.149 330.683C213.149 314.763 205.898 267.724 204.447 266.277C202.997 264.83 205.173 259.764 202.997 257.593C200.822 255.422 175.442 240.225 166.015 237.33C156.588 234.435 143.364 230.99 143.364 230.99L71.7473 261.935Z" fill="#2F2E41"/>
<path d="M213.149 358.907C213.149 358.907 202.272 355.288 197.196 366.143C192.12 376.998 194.296 379.893 194.296 379.893C194.296 379.893 210.974 385.682 213.874 382.788C215.136 381.528 219.144 381.091 223.268 380.998C229.551 380.858 231.222 371.988 225.289 369.922C225.112 369.86 224.933 369.807 224.751 369.762C218.95 368.314 213.149 358.907 213.149 358.907Z" fill="#2F2E41"/>
<path d="M121.057 115.03C133.071 115.03 142.811 105.31 142.811 93.3201C142.811 81.3299 133.071 71.61 121.057 71.61C109.042 71.61 99.3027 81.3299 99.3027 93.3201C99.3027 105.31 109.042 115.03 121.057 115.03Z" fill="#FFB8B8"/>
<path d="M92.7764 131.674C92.7764 131.674 128.308 138.911 137.01 127.332C145.711 115.754 149.337 159.898 149.337 159.898L153.688 206.212L147.162 231.541C147.162 231.541 113.08 259.04 102.203 261.211C91.3261 263.382 74.6479 264.83 74.6479 264.83C74.6479 264.83 79.7239 184.502 79.7239 183.055C79.7239 181.608 92.7764 131.674 92.7764 131.674Z" fill="#00B0FF"/>
<path d="M103.582 118.102C103.582 118.102 95.6768 113.583 93.5014 117.925C91.326 122.267 71.0221 133.122 68.8467 133.122C66.6713 133.122 73.1976 193.186 70.297 200.423C67.3965 207.66 53.6188 260.488 61.5954 264.83C69.5719 269.172 63.7708 260.488 71.7473 271.343C79.7238 282.198 118.881 282.198 121.057 277.856C123.232 273.514 103.653 240.948 107.279 210.554C110.905 180.16 116.706 138.188 111.63 132.398C106.554 126.609 103.582 118.102 103.582 118.102Z" fill="#2F2E41"/>
<path d="M129.759 122.99L130.769 119.522C130.769 119.522 160.939 129.504 162.39 136.017C163.84 142.53 163.115 188.121 158.039 191.739C152.963 195.357 145.712 201.147 150.788 209.831C155.863 218.515 161.665 227.922 166.015 228.646C170.366 229.37 178.343 234.435 176.167 239.501C173.992 244.567 147.887 235.159 147.887 235.159C147.887 235.159 130.484 222.133 131.209 201.87C131.934 181.608 129.759 122.99 129.759 122.99Z" fill="#2F2E41"/>
<path d="M155.138 208.383L137.735 240.948C137.735 240.948 112.355 267.001 126.858 269.895C141.361 272.79 149.337 246.014 149.337 246.014L168.191 219.238L155.138 208.383Z" fill="#FFB8B8"/>
<path d="M113.69 61.6805C112.813 61.6157 111.935 61.7857 111.146 62.173C110.433 62.6929 109.845 63.3653 109.425 64.1411C107.491 67.0446 104.97 69.5123 102.023 71.3858C99.824 72.7819 97.0279 74.5226 97.4042 77.0966C97.6084 77.9596 97.972 78.7771 98.4762 79.5073C100.512 83.092 101.323 87.241 100.785 91.3264L106.832 82.5542C107.792 81.1617 109.46 79.5898 110.909 80.4643C111.395 80.7571 111.713 81.2823 112.219 81.5392C113.424 82.1522 114.707 80.9802 115.774 80.1501C119.454 77.2874 124.688 78.0374 129.268 78.9293C131.43 79.3504 133.805 79.9028 135.083 81.6933C137.207 84.6688 134.989 88.9682 136.228 92.4056C136.575 92.1632 136.87 91.8537 137.095 91.4955C137.32 91.1373 137.47 90.7376 137.538 90.3203C139.267 90.3736 141.385 90.204 142.126 88.644C142.351 88.0327 142.471 87.3877 142.481 86.7365C142.753 84.1162 144.036 81.7257 144.887 79.2318C145.737 76.7379 146.106 73.8152 144.672 71.604C144.147 70.8548 143.513 70.1876 142.792 69.6243C134.649 62.7964 123.943 61.6704 113.69 61.6805Z" fill="#2F2E41"/>
<path d="M155.138 133.122L161.894 134.912C161.894 134.912 177.618 175.095 173.992 202.594C170.366 230.093 168.191 224.304 168.191 224.304C168.191 224.304 162.39 211.278 149.337 214.173L155.138 133.122Z" fill="#2F2E41"/>
<path d="M83.6292 448.447C81.8805 450.818 82.2311 454.208 80.6822 456.714C79.3395 458.886 76.8091 460.025 75.1297 461.95C74.5938 462.589 74.1161 463.275 73.7022 463.999C72.1443 466.604 70.878 469.941 72.4123 472.559C73.6466 474.666 76.241 475.489 78.6203 476.05C81.6277 476.759 84.7523 477.326 87.7944 476.784C90.8364 476.243 93.8095 474.384 94.8941 471.496C95.1073 470.77 95.3607 470.056 95.6532 469.358C97.3021 466.119 102.474 466.084 104.161 462.864C105.342 460.611 104.257 457.887 103.172 455.587L99.8574 448.56C98.7576 446.229 94.2991 447.569 91.9748 447.011C88.9434 446.282 85.8099 445.479 83.6292 448.447Z" fill="#2F2E41"/>
<path d="M59.4202 222.857L89.8759 269.895C89.8759 269.895 108.73 293.776 114.531 282.921C120.332 272.066 94.2268 253.975 94.2268 253.975L74.648 217.791L59.4202 222.857Z" fill="#FFB8B8"/>
<path d="M74.6479 134.569L68.8468 133.122C68.8468 133.122 57.2446 136.74 54.3441 151.937C51.4436 167.134 53.619 227.922 57.2446 228.646C60.8703 229.37 75.1519 218.062 77.4379 220.459C79.7239 222.857 72.4725 210.554 74.6479 204.041C76.8233 197.528 74.6479 134.569 74.6479 134.569Z" fill="#2F2E41"/>
<path d="M347.279 166.871H328.537V171.374H347.279V166.871Z" fill="#00B0FF"/>
<path d="M412.181 166.871H405.587V171.374H412.181V166.871Z" fill="#00B0FF"/>
<path d="M425.37 166.871H418.776V171.374H425.37V166.871Z" fill="#00B0FF"/>
<path d="M398.645 166.871H353.873V171.374H398.645V166.871Z" fill="#00B0FF"/>
<path d="M323.678 195.967H304.936V200.469H323.678V195.967Z" fill="#00B0FF"/>
<path d="M388.58 195.967H381.986V200.469H388.58V195.967Z" fill="#00B0FF"/>
<path d="M401.769 195.967H395.175V200.469H401.769V195.967Z" fill="#00B0FF"/>
<path d="M375.044 195.967H330.272V200.469H375.044V195.967Z" fill="#00B0FF"/>
<path d="M401.075 176.916H382.333V181.419H401.075V176.916Z" fill="#00B0FF"/>
<path d="M426.411 176.916H407.669V181.419H426.411V176.916Z" fill="#00B0FF"/>
<path d="M311.53 176.916H304.936V181.419H311.53V176.916Z" fill="#00B0FF"/>
<path d="M324.719 176.916H318.124V181.419H324.719V176.916Z" fill="#00B0FF"/>
<path d="M376.086 176.916H331.313V181.419H376.086V176.916Z" fill="#00B0FF"/>
<path d="M362.203 186.615H343.461V191.117H362.203V186.615Z" fill="#00B0FF"/>
<path d="M336.866 186.615H318.124V191.117H336.866V186.615Z" fill="#00B0FF"/>
<path d="M311.53 186.615H304.936V191.117H311.53V186.615Z" fill="#00B0FF"/>
<path d="M426.411 186.615H419.817V191.117H426.411V186.615Z" fill="#00B0FF"/>
<path d="M413.222 186.615H368.45V191.117H413.222V186.615Z" fill="#00B0FF"/>
</g>
<defs>
<clipPath id="clip0">
<rect width="448" height="421" fill="white" transform="translate(53 56)"/>
</clipPath>
</defs>
</svg>
