<svg width="556" height="508" viewBox="0 0 556 508" fill="none" xmlns="http://www.w3.org/2000/svg">
<g clip-path="url(#clip0)">
<path d="M519.041 301.588C530.161 273.568 534.699 243.37 532.304 213.321C529.91 183.272 520.647 154.173 505.23 128.265L190.391 171.838L492.108 108.988C473.751 85.1004 450.141 65.756 423.106 52.4519C396.07 39.1477 366.334 32.2407 336.2 32.2654C227.551 32.2654 139.474 120.302 139.474 228.901C139.476 237.877 140.087 246.842 141.305 255.734L519.041 301.588Z" fill="#F2F2F2"/>
<path d="M152.623 299.698C181.058 373.312 252.522 425.537 336.2 425.537C414.719 425.537 482.485 379.552 514.036 313.06L152.623 299.698Z" fill="#F2F2F2"/>
<path d="M509.174 368.088C509.174 445.362 395.189 508 254.587 508C179.052 508 111.201 489.925 64.5803 461.208C34.161 442.478 12.7757 419.213 4.19683 393.504C1.42812 385.315 0.0106512 376.731 0 368.088C0 290.821 210.975 -57.7172 254.587 228.183C298.199 514.084 509.174 290.822 509.174 368.088Z" fill="#00B0FF"/>
<path opacity="0.1" d="M381.109 418.828C381.109 447.359 290.962 470.493 179.754 470.493C136.922 470.493 97.2137 467.061 64.5803 461.208C34.161 442.478 12.7757 419.213 4.19684 393.504C38.7204 377.781 104.404 367.163 179.754 367.163C290.962 367.163 381.109 390.296 381.109 418.828Z" fill="black"/>
<path d="M235.765 124.544C219.808 97.5925 188.237 96.3365 188.237 96.3365C188.237 96.3365 157.473 92.4043 137.738 133.451C119.343 171.71 93.9562 208.65 133.651 217.606L140.82 195.3L145.261 219.267C150.912 219.673 156.582 219.77 162.244 219.557C204.754 218.185 245.238 219.958 243.934 204.711C242.201 184.442 251.12 150.476 235.765 124.544Z" fill="#2F2E41"/>
<path d="M131.384 360.567C130.792 363.509 130.354 366.499 129.348 369.326C128.35 372.133 126.808 374.728 125.895 377.564C122.985 386.602 127.019 396.68 133.463 403.657C139.051 409.683 146.264 413.964 154.232 415.984C160.046 417.445 166.09 417.655 172.081 417.859C188.67 418.421 205.685 418.924 221.404 413.595C226.37 411.87 231.167 409.692 235.734 407.088C237.176 406.401 238.446 405.402 239.452 404.162C240.651 402.456 240.805 400.243 240.794 398.158C240.759 391.129 239.333 384.136 239.672 377.115C239.859 373.226 240.587 369.34 240.229 365.463C239.416 356.67 232.431 348.8 223.793 346.946C219.334 345.989 214.709 346.511 210.169 346.947C198.385 348.079 186.551 348.608 174.713 348.532C162.617 348.455 150.596 346.609 138.561 346.416C135.002 346.359 135.074 347.456 133.94 350.899C132.897 354.068 132.043 357.296 131.384 360.567Z" fill="#2F2E41"/>
<path d="M165.71 186.999C165.129 190.041 164.501 193.195 162.672 195.695C160.568 198.571 157.136 200.214 154.873 202.967C151.465 207.111 151.27 212.941 151.256 218.305C151.243 223.246 151.343 228.516 154.1 232.617C155.889 235.279 158.611 237.145 161.272 238.937C171.61 245.901 182.781 252.99 195.245 253.219C200.41 253.314 205.947 251.981 209.345 248.093C210.812 246.267 211.966 244.209 212.759 242.005C215.946 234.153 217.878 225.848 218.484 217.395C218.768 213.419 218.741 209.326 217.394 205.573C215.88 201.353 212.818 197.881 210.795 193.88C208.403 189.123 207.528 183.747 208.288 178.477C208.389 178.106 208.358 177.711 208.2 177.361C208.034 177.173 207.826 177.026 207.593 176.932C207.361 176.838 207.11 176.799 206.859 176.818L182.145 175.039C179.843 174.925 177.551 174.663 175.283 174.255C173.95 173.984 170.431 172.092 169.161 172.595C166.81 173.526 166.192 184.476 165.71 186.999Z" fill="#FFD2D2"/>
<path opacity="0.1" d="M165.71 187.77C165.129 190.812 164.501 193.966 162.672 196.466C160.568 199.342 157.136 200.986 154.873 203.738C151.465 207.882 151.27 213.712 151.256 219.076C151.243 224.017 151.343 229.287 154.1 233.388C155.889 236.05 158.611 237.916 161.272 239.708C171.61 246.672 182.781 253.761 195.245 253.99C200.41 254.086 205.947 252.753 209.345 248.864C210.812 247.038 211.966 244.981 212.759 242.776C215.946 234.924 217.878 226.619 218.484 218.166C218.768 214.19 218.741 210.097 217.394 206.344C215.88 202.125 212.818 198.652 210.795 194.652C208.403 189.894 207.528 184.518 208.288 179.248C208.389 178.877 208.358 178.483 208.2 178.132C208.034 177.944 207.826 177.797 207.593 177.703C207.361 177.609 207.11 177.57 206.859 177.589L182.145 175.81C179.843 175.696 177.551 175.434 175.283 175.026C173.95 174.755 170.431 172.864 169.161 173.367C166.81 174.298 166.192 185.248 165.71 187.77Z" fill="black"/>
<path d="M189.346 190.312C209.371 190.312 225.605 174.085 225.605 154.069C225.605 134.053 209.371 117.826 189.346 117.826C169.32 117.826 153.086 134.053 153.086 154.069C153.086 174.085 169.32 190.312 189.346 190.312Z" fill="#FFD2D2"/>
<path d="M170.796 235.244C172.686 237.218 174.688 239.173 177.165 240.331C179.628 241.482 182.403 241.768 185.121 241.845C191.657 242.029 198.743 240.831 203.29 236.135C209.151 230.08 208.958 220.315 213.552 213.251C213.922 212.611 214.427 212.059 215.032 211.633C215.803 211.214 216.674 211.014 217.55 211.055C223.352 211 228.407 214.762 232.968 218.346C235.011 219.952 237.106 221.616 238.395 223.872C239.297 225.631 239.914 227.522 240.225 229.474C242.489 240.519 243.222 251.812 243.949 263.062C244.351 269.277 244.753 275.497 244.723 281.724C244.625 302.24 239.854 322.413 235.11 342.374C234.499 344.946 233.662 347.82 231.322 349.052C230.279 349.521 229.159 349.794 228.017 349.859C214.428 351.454 200.812 353.051 187.132 353.261C181.793 353.344 176.457 353.214 171.123 352.874C170.205 352.862 169.294 352.703 168.426 352.404C167.248 351.838 166.235 350.979 165.486 349.908C158.086 340.588 157.65 327.702 157.697 315.804C157.813 286.713 158.852 257.646 160.817 228.602C160.979 226.205 161.014 223.293 159.286 221.407C162.398 226.387 166.726 230.991 170.796 235.244Z" fill="#D0CDE1"/>
<path d="M163.116 193.396C161.891 195.612 152.862 201.114 151.119 202.951C141.38 213.211 123.605 212.826 114.698 223.816C111.564 227.683 109.936 232.541 108.739 237.371C107.045 244.203 106.141 251.653 108.978 258.094C111.708 264.292 117.455 268.577 121.356 274.113C125.64 280.192 127.566 287.573 129.412 294.776C130.775 300.095 132.15 305.545 131.619 311.01C131.015 317.223 128.007 322.912 126.231 328.896C124.455 334.881 124.149 342.008 128.255 346.711C131.272 350.167 136.004 351.536 140.527 352.307C146.3 353.291 152.167 353.571 158.017 353.829C163.187 354.057 168.887 354.102 172.861 350.789C175.997 348.175 177.36 343.933 177.537 339.855C177.713 335.777 176.864 331.735 176.333 327.688C175.782 323.493 175.57 319.261 175.393 315.034C174.597 296.065 174.489 277.084 175.067 258.092C175.188 254.139 175.334 250.139 174.49 246.276C173.382 241.195 170.635 236.654 168.342 231.986C163.792 222.72 161.641 213.719 162.344 203.421C163.038 193.255 167.473 185.511 163.116 193.396Z" fill="#575A89"/>
<path d="M214.033 194.167C215.898 196.083 222.237 196.715 224.609 197.949C226.789 199.083 229.201 199.675 231.562 200.355C240.218 202.851 248.45 206.628 255.987 211.56C257.553 212.476 258.937 213.671 260.071 215.087C261.399 216.932 261.881 219.236 262.331 221.464C263.493 227.217 264.66 233.039 264.399 238.902C264.122 245.125 262.247 251.152 260.386 257.098L253.434 279.313C248.245 295.896 243.023 312.641 241.563 329.954C240.755 339.55 241.114 349.207 242.632 358.716C242.785 359.672 242.913 360.768 242.282 361.502C241.824 361.955 241.221 362.232 240.579 362.285C237.224 362.81 233.977 361.099 230.937 359.586C221.645 354.964 211.729 351.721 201.501 349.959C205.498 344.186 208.581 337.832 210.643 331.121C211.815 326.859 212.737 322.533 213.406 318.165L216.64 299.469C217.826 292.613 219.014 285.74 219.414 278.794C219.658 276.191 219.507 273.565 218.964 271.006C218.345 268.538 217.113 266.276 216.01 263.983C210.68 252.901 208.18 240.255 210.277 228.14C211.194 222.838 212.978 217.529 212.234 212.199C211.519 207.076 212.262 203.093 210.947 198.023C205.547 177.202 210.524 190.562 214.033 194.167Z" fill="#575A89"/>
<path d="M114.606 241.337C112.176 246.377 108.114 250.67 106.731 256.091C106.193 258.625 105.963 261.214 106.045 263.803C106.012 267.704 105.991 271.685 107.189 275.398C107.961 277.789 109.216 279.994 110.121 282.337C111.382 285.612 111.943 289.113 111.77 292.618C111.526 297.472 109.876 302.185 109.747 307.044C109.544 314.685 113.08 321.868 116.53 328.69C117.399 326.541 118.726 324.607 120.421 323.023C122.115 321.44 124.135 320.247 126.339 319.525C128.543 318.804 130.878 318.573 133.181 318.848C135.484 319.123 137.699 319.897 139.671 321.117C140.581 320.277 140.678 318.898 140.714 317.66C140.969 308.795 141.215 299.929 141.452 291.064C141.826 277.353 142.181 263.458 139.026 250.11C137.601 244.083 135.384 238.079 131.32 233.404C129.18 230.943 121.916 224.459 118.403 227.217C116.823 228.457 117.193 231.832 116.942 233.542C116.565 236.244 115.777 238.872 114.606 241.337Z" fill="#575A89"/>
<path d="M265.11 226.813C266.259 230.39 266.328 234.212 266.35 237.969C266.397 245.633 266.295 253.295 266.046 260.957C265.918 264.879 265.741 268.855 264.552 272.595C263.767 275.061 262.556 277.374 261.746 279.832C259.317 287.199 260.644 295.188 260.852 302.942C260.999 305.451 260.785 307.969 260.216 310.417C258.934 315.224 255.49 319.108 253.086 323.463C250.803 327.599 249.425 332.236 246.698 336.095C243.972 339.953 239.251 343.011 234.676 341.826C231.209 340.929 228.746 337.862 227.042 334.713C223.324 327.791 222.052 319.817 223.433 312.082C225.143 302.672 230.674 294.324 232.668 284.969C235.407 272.124 231.244 258.868 231.368 245.734C231.312 243.675 231.591 241.621 232.195 239.652C233.241 236.652 235.488 234.257 237.564 231.851C240.158 228.844 242.567 225.683 244.779 222.386C246.265 220.171 248.283 214.473 250.918 214C256.8 212.942 263.65 222.271 265.11 226.813Z" fill="#575A89"/>
<path d="M84.0859 354.854C80.8333 354.037 77.482 353.681 74.1302 353.796C70.6086 353.991 67.1687 354.932 64.0394 356.559C60.9101 358.185 58.163 360.458 55.9808 363.228C53.7986 365.998 52.2313 369.2 51.3831 372.622C50.5349 376.044 50.4252 379.607 51.0614 383.074C51.7539 386.849 53.3095 390.407 55.0064 393.849C57.6466 399.205 60.8133 404.548 65.7011 407.98C68.5603 409.988 71.8695 411.24 75.1394 412.471L100.883 422.165C104.67 423.591 108.457 425.017 112.282 426.339C131.496 432.977 151.529 436.958 171.822 438.17C178.004 438.538 184.279 438.641 190.309 437.234C191.74 436.9 193.266 436.403 194.095 435.19C194.586 434.335 194.875 433.38 194.941 432.397L196.525 421.312C196.748 419.751 196.963 418.109 196.39 416.639C195.665 414.777 193.846 413.605 192.111 412.609C175.187 402.893 155.426 397.533 141.181 384.198C137.827 381.058 135.021 376.082 130.946 373.95C126.325 371.532 120.884 370.152 116.108 367.923C105.667 363.052 95.4018 357.454 84.0859 354.854Z" fill="#2F2E41"/>
<path opacity="0.1" d="M109.787 369.798C118.886 372.648 157.302 392.392 163.887 399.285C163.004 399.603 133.058 382.828 132.159 382.559C123.991 380.109 115.778 377.642 108.021 374.056C106.461 373.335 97.8836 369.944 98.272 367.976C98.7103 365.756 108.171 369.292 109.787 369.798Z" fill="black"/>
<path d="M223.304 443.919C223.82 443.957 224.333 443.806 224.746 443.495C224.928 443.262 225.061 442.996 225.138 442.711C225.216 442.426 225.236 442.129 225.197 441.836C225.183 436.802 225.169 431.769 225.155 426.735C220.81 424.666 215.951 424.003 211.181 423.365L188.925 420.392C189.436 420.46 185.445 429.973 186.057 431.243C187.135 433.482 195.378 435.466 197.705 436.523C205.792 440.197 214.196 444.236 223.304 443.919Z" fill="#FFD2D2"/>
<path d="M153.476 426.682C149.274 427.351 144.584 427.943 141.862 431.212C138.411 435.359 139.88 441.54 141.527 446.676C141.771 447.715 142.262 448.68 142.958 449.49C144.082 450.598 145.803 450.76 147.378 450.86C151.211 451.102 155.289 451.292 158.637 449.414C160.223 448.524 161.534 447.223 163.011 446.164C165.48 444.522 168.194 443.281 171.052 442.489C176.306 440.837 181.715 439.723 187.194 439.164C189.342 438.945 191.533 438.805 193.553 438.044C195.573 437.283 197.444 435.775 198.031 433.698C198.807 430.954 197.211 428.156 195.681 425.749C193.774 422.751 191.754 419.594 188.912 417.387C184.765 414.167 182.713 416.639 178.536 418.7C170.63 422.6 162.182 425.291 153.476 426.682Z" fill="#FFD2D2"/>
<path d="M142.494 430.466L115.812 422.583C112.567 421.624 109.267 420.657 105.883 420.66C102.499 420.662 98.9589 421.771 96.7644 424.346C94.6954 426.773 94.1032 430.09 93.5874 433.237L92.484 439.969C91.9233 443.389 91.3616 446.876 91.8662 450.306C92.3709 453.735 94.1225 457.161 97.1669 458.822C100.859 460.835 105.385 459.852 109.505 459.01C117.829 457.309 126.295 456.402 134.79 456.299C137.984 456.261 141.334 456.301 144.156 454.806C147.511 453.029 149.518 449.272 149.863 445.492C150.388 439.742 148.47 432.231 142.494 430.466Z" fill="#2F2E41"/>
<path d="M233.792 423.597C237.251 422.991 240.304 421.026 243.618 419.866C248.283 418.233 253.339 418.233 258.282 418.251C260.096 418.258 262.029 418.299 263.539 419.304C265.716 420.753 266.274 423.652 266.644 426.24C267.389 431.445 268.133 436.65 268.878 441.855C269.298 444.792 269.716 447.807 269.06 450.701C268.405 453.595 266.432 456.384 263.559 457.131C260.07 458.038 256.65 455.81 253.355 454.346C245.121 450.689 235.55 451.624 226.965 448.89C225.372 448.382 223.665 447.607 223.015 446.067C222.721 445.199 222.617 444.279 222.708 443.368C222.855 438.349 221.796 431.495 223.308 426.699C224.667 422.385 229.931 423.597 233.792 423.597Z" fill="#2F2E41"/>
<path d="M290.257 348.569C295.589 347.233 301.115 346.856 306.579 347.455C310.943 347.935 315.439 349.149 318.624 352.168C322.502 355.842 323.748 361.524 323.852 366.864C324.022 377.499 320.493 387.864 313.868 396.187C312.25 398.293 310.326 400.144 308.159 401.68C305.823 403.141 303.332 404.341 300.733 405.257L243.082 427.986C227.915 433.965 212.695 439.962 196.875 443.904C196.443 444.113 195.973 444.233 195.493 444.257C195.014 444.282 194.534 444.21 194.082 444.047C193.631 443.883 193.217 443.631 192.864 443.305C192.512 442.979 192.228 442.585 192.03 442.148C186.979 434.936 182.741 427.188 179.394 419.045C179.236 418.852 179.126 418.623 179.075 418.378C179.024 418.133 179.032 417.88 179.1 417.639C179.167 417.398 179.292 417.177 179.463 416.995C179.634 416.812 179.847 416.674 180.083 416.591L220.859 393.172C223.78 391.495 226.734 389.793 229.159 387.457C230.921 385.749 232.364 383.741 233.42 381.527C234.265 379.762 234.344 375.598 235.424 374.294C236.481 373.017 240.097 372.915 241.767 372.413C244.122 371.691 246.429 370.82 248.673 369.803C257.794 365.725 265.917 359.798 274.661 355.023C279.565 352.22 284.806 350.051 290.257 348.569Z" fill="#2F2E41"/>
<path opacity="0.1" d="M267.14 366.058C260.135 371.317 251.064 376.152 244.12 381.549C241.751 383.392 202.248 405.59 201.689 408.539C208.167 409.63 249.43 380.776 255.334 377.897C261.238 375.018 266.472 370.957 271.657 366.927C272.979 365.9 278.58 362.813 274.786 361.665C272.649 361.019 268.718 365.007 267.14 366.058Z" fill="black"/>
<path d="M218.936 194.677H157.44C154.942 194.677 152.546 195.669 150.779 197.434C149.013 199.2 148.02 201.595 148.02 204.093V207.541H147.352V215.252H148.02V220.65H147.352V225.276H148.02V282.174C148.02 284.671 149.013 287.066 150.779 288.832C152.546 290.598 154.942 291.59 157.44 291.59H218.936C221.435 291.59 223.831 290.598 225.598 288.832C227.364 287.066 228.357 284.671 228.357 282.174V204.093C228.357 201.595 227.364 199.2 225.598 197.434C223.831 195.669 221.435 194.677 218.936 194.677Z" fill="#3F3D56"/>
<path d="M228.71 121.945L197.52 105.615L154.447 112.296L145.536 151.637L167.719 150.784L173.916 136.33V150.546L184.152 150.152L190.094 127.142L193.806 151.637L230.195 150.895L228.71 121.945Z" fill="#2F2E41"/>
<path d="M122.766 343.474C124.307 345.773 126.113 348.022 128.588 349.263C131.681 350.813 135.499 350.536 138.597 348.995C141.667 347.349 144.181 344.83 145.819 341.757C149.209 335.774 149.911 328.614 149.488 321.751C149.065 314.888 147.599 308.131 146.95 301.285C146.478 296.309 146.44 291.304 146.402 286.305C146.394 285.255 146.411 284.123 147.032 283.276C147.783 282.251 149.157 281.969 150.376 281.607C157.217 279.575 161.758 273.166 165.014 266.817C167.188 262.579 169.078 257.945 168.659 253.2C168.24 248.455 164.827 243.675 160.087 243.191C156.178 242.792 152.569 245.273 149.75 248.008C142.637 254.951 138.067 264.082 136.771 273.934C136.153 278.758 136.33 283.714 135.017 288.398C132.214 298.398 123.443 304.529 119.073 313.528C114.257 323.443 116.915 334.7 122.766 343.474Z" fill="#FFD2D2"/>
<path d="M251.829 305.267C250.832 307.587 249.379 309.683 247.558 311.432C245.737 313.181 243.584 314.548 241.225 315.451C238.294 316.628 235.061 316.826 232.008 316.016C230.494 315.596 229.097 314.833 227.926 313.786C226.754 312.739 225.841 311.436 225.255 309.978C224.788 308.511 224.532 306.984 224.494 305.444C224.056 298.7 224.225 291.751 226.676 285.452C227.621 283.023 228.896 280.719 229.642 278.221C230.493 275.372 230.629 272.366 230.759 269.396L231.564 250.995C231.697 249.66 231.605 248.311 231.291 247.006C230.487 244.343 227.998 242.613 225.713 241.025C220.197 237.191 214.745 232.716 212.072 226.554C211.254 224.669 210.714 222.573 211.13 220.56C211.883 216.906 215.573 214.541 219.219 213.744C221.605 213.222 224.071 213.189 226.47 213.646C228.869 214.103 231.151 215.04 233.178 216.402C235.205 217.764 236.935 219.521 238.264 221.569C239.593 223.617 240.493 225.913 240.911 228.318C241.272 230.394 241.267 232.515 241.478 234.612C241.926 239.061 243.339 243.349 244.223 247.731C246.4 258.527 245.272 269.686 247.425 280.48C249.225 289.504 256.012 295.393 251.829 305.267Z" fill="#FFD2D2"/>
<path d="M189.012 236.072C193.272 236.072 196.726 232.62 196.726 228.361C196.726 224.102 193.272 220.65 189.012 220.65C184.751 220.65 181.297 224.102 181.297 228.361C181.297 232.62 184.751 236.072 189.012 236.072Z" fill="#D0CDE1"/>
<path d="M514.67 236.617C506.495 236.617 498.504 239.04 491.708 243.579C484.911 248.118 479.614 254.57 476.485 262.119C473.357 269.668 472.539 277.974 474.133 285.987C475.728 294.001 479.665 301.362 485.445 307.14C491.225 312.917 498.589 316.852 506.606 318.446C514.624 320.04 522.934 319.222 530.486 316.095C538.038 312.968 544.493 307.673 549.035 300.879C553.576 294.086 556 286.099 556 277.928C556 272.503 554.931 267.131 552.854 262.119C550.777 257.107 547.733 252.553 543.895 248.717C540.057 244.88 535.501 241.837 530.486 239.761C525.472 237.685 520.097 236.617 514.67 236.617ZM535.096 267.45C535.117 267.897 535.128 268.354 535.128 268.811C535.128 282.748 524.526 298.818 505.118 298.818C499.392 298.83 493.786 297.174 488.986 294.052C489.821 294.153 490.66 294.203 491.501 294.205C496.249 294.213 500.862 292.623 504.595 289.689C502.395 289.648 500.262 288.92 498.495 287.607C496.729 286.294 495.418 284.462 494.744 282.367C495.397 282.498 496.06 282.564 496.726 282.563C497.663 282.563 498.596 282.438 499.501 282.193C497.115 281.711 494.968 280.418 493.427 278.534C491.885 276.65 491.043 274.291 491.043 271.857V271.726C492.509 272.549 494.153 273.001 495.833 273.043C493.597 271.553 492.014 269.268 491.405 266.652C490.796 264.036 491.208 261.287 492.556 258.964C495.2 262.224 498.501 264.891 502.244 266.79C505.988 268.689 510.09 269.778 514.283 269.986C514.098 269.198 514.007 268.39 514.011 267.581C514.009 265.467 514.643 263.401 515.831 261.652C517.02 259.903 518.707 258.552 520.674 257.775C522.641 256.998 524.797 256.831 526.86 257.295C528.924 257.76 530.8 258.834 532.244 260.378C534.606 259.917 536.87 259.052 538.938 257.822C538.152 260.264 536.503 262.336 534.301 263.653C536.39 263.4 538.429 262.839 540.353 261.989C538.939 264.107 537.159 265.956 535.096 267.45Z" fill="#3F3D56"/>
<path d="M501.38 129.05C505.436 129.05 508.724 125.764 508.724 121.71C508.724 117.655 505.436 114.369 501.38 114.369C497.324 114.369 494.036 117.655 494.036 121.71C494.036 125.764 497.324 129.05 501.38 129.05Z" fill="#3F3D56"/>
<path d="M510.56 103.358H492.2C489.767 103.365 487.436 104.334 485.716 106.053C483.996 107.773 483.027 110.102 483.02 112.534V130.886C483.027 133.317 483.996 135.647 485.716 137.366C487.436 139.086 489.767 140.055 492.2 140.062H510.56C512.993 140.055 515.324 139.086 517.044 137.366C518.764 135.647 519.733 133.317 519.74 130.886V112.534C519.733 110.102 518.764 107.773 517.044 106.053C515.324 104.334 512.993 103.365 510.56 103.358H510.56ZM501.38 132.721C499.201 132.721 497.071 132.075 495.26 130.865C493.448 129.655 492.036 127.936 491.202 125.924C490.369 123.912 490.15 121.698 490.575 119.562C491.001 117.426 492.05 115.464 493.59 113.924C495.131 112.384 497.094 111.335 499.231 110.91C501.368 110.485 503.583 110.703 505.596 111.537C507.609 112.37 509.329 113.782 510.54 115.592C511.75 117.403 512.396 119.532 512.396 121.71C512.396 124.63 511.235 127.43 509.169 129.495C507.103 131.56 504.301 132.72 501.38 132.721ZM513.314 112.534C512.77 112.534 512.237 112.372 511.784 112.07C511.331 111.767 510.978 111.338 510.77 110.835C510.561 110.331 510.507 109.778 510.613 109.244C510.719 108.71 510.982 108.22 511.367 107.835C511.752 107.45 512.243 107.187 512.777 107.081C513.311 106.975 513.865 107.029 514.368 107.238C514.871 107.446 515.302 107.799 515.604 108.252C515.907 108.704 516.068 109.237 516.068 109.781C516.069 110.143 515.999 110.501 515.86 110.836C515.722 111.17 515.52 111.474 515.264 111.73C515.008 111.985 514.704 112.188 514.369 112.326C514.035 112.464 513.676 112.535 513.314 112.534V112.534Z" fill="#3F3D56"/>
<path d="M500.909 78.5444C492.291 78.5444 483.867 81.0987 476.702 85.8841C469.537 90.6695 463.952 97.4713 460.654 105.429C457.357 113.387 456.494 122.144 458.175 130.592C459.856 139.04 464.006 146.8 470.099 152.891C476.193 158.981 483.956 163.129 492.408 164.809C500.86 166.49 509.621 165.627 517.583 162.331C525.544 159.035 532.349 153.453 537.137 146.291C541.924 139.129 544.48 130.709 544.48 122.095C544.48 116.376 543.353 110.713 541.163 105.429C538.973 100.145 535.764 95.3443 531.718 91.3002C527.672 87.2561 522.869 84.0482 517.583 81.8596C512.296 79.6709 506.63 78.5444 500.909 78.5444ZM523.412 130.886C523.402 134.29 522.045 137.551 519.637 139.958C517.229 142.365 513.966 143.722 510.56 143.732H492.2C488.794 143.722 485.531 142.366 483.123 139.959C480.715 137.552 479.358 134.29 479.348 130.886V112.534C479.358 109.13 480.715 105.868 483.123 103.461C485.531 101.054 488.794 99.6974 492.2 99.6875H510.56C513.966 99.6975 517.229 101.054 519.637 103.461C522.045 105.868 523.403 109.13 523.412 112.534L523.412 130.886Z" fill="#3F3D56"/>
<path d="M324.169 0C315.69 0 307.401 2.51321 300.351 7.22182C293.301 11.9304 287.806 18.623 284.561 26.4531C281.316 34.2832 280.467 42.8993 282.122 51.2117C283.776 59.5241 287.859 67.1596 293.855 73.1525C299.85 79.1454 307.489 83.2267 315.806 84.8801C324.122 86.5336 332.742 85.685 340.576 82.4416C348.409 79.1983 355.105 73.7058 359.816 66.6589C364.526 59.612 367.041 51.327 367.041 42.8517C367.041 37.2244 365.932 31.6521 363.777 26.4531C361.623 21.2541 358.465 16.5301 354.484 12.551C350.503 8.57183 345.777 5.4154 340.576 3.2619C335.374 1.10839 329.799 0 324.169 0ZM337.687 25.9292H332.199C328.452 25.9292 327.737 27.7007 327.737 30.3113V35.859H336.661L335.495 44.5611H327.737V68.1812H317.787V44.5611H310.651V35.859H317.787V29.4256C317.787 21.718 323.136 17.5223 330.023 17.5223C333.319 17.5223 336.863 17.7709 337.687 17.8797L337.687 25.9292Z" fill="#3F3D56"/>
</g>
<defs>
<clipPath id="clip0">
<rect width="556" height="508" fill="white"/>
</clipPath>
</defs>
</svg>
