<svg width="60" height="60" viewBox="0 0 60 60" fill="none" xmlns="http://www.w3.org/2000/svg">
<path d="M36.5052 35.1296L40.7052 27.8697C40.9752 27.4197 40.8552 26.8497 40.4652 26.5197L36.0252 23.0398C36.1152 22.3798 36.1752 21.6898 36.1752 20.9998C36.1752 20.3098 36.1152 19.6198 36.0252 18.9298L40.4652 15.4498C40.8552 15.1198 40.9752 14.5498 40.7052 14.0998L36.5052 6.83993C36.2352 6.38993 35.6952 6.20993 35.2152 6.38993L29.9953 8.48991C28.9153 7.64992 27.7453 6.95993 26.4553 6.41993L25.6753 0.869991C25.625 0.627359 25.4936 0.409064 25.3028 0.250964C25.112 0.0928646 24.8731 0.00436394 24.6254 0H16.2254C15.7154 0 15.2655 0.389996 15.1755 0.89999L14.3955 6.44993C13.1355 6.98993 11.9355 7.67992 10.8555 8.51991L5.63556 6.41993C5.15556 6.23993 4.61557 6.41993 4.34557 6.86993L0.145614 14.1298C-0.124383 14.5798 -0.00438402 15.1498 0.385612 15.4798L4.82556 18.9598C4.73556 19.6198 4.67557 20.3098 4.67557 20.9998C4.67557 21.6898 4.73556 22.3798 4.82556 23.0698L0.385612 26.5497C-0.00438402 26.8797 -0.124383 27.4497 0.145614 27.8997L4.34557 35.1596C4.61557 35.6096 5.15556 35.7896 5.63556 35.6096L10.8555 33.5096C11.9355 34.3496 13.1055 35.0396 14.3955 35.5796L15.1755 41.1296C15.2655 41.6096 15.7154 41.9995 16.2254 41.9995H24.6254C25.1353 41.9995 25.5853 41.6096 25.6753 41.0996L26.4553 35.5496C27.7153 35.0096 28.9153 34.3196 29.9953 33.4796L35.2152 35.5796C35.6952 35.7596 36.2352 35.5796 36.5052 35.1296ZM20.4254 26.9997C17.1254 26.9997 14.4255 24.2997 14.4255 20.9998C14.4255 17.6998 17.1254 14.9998 20.4254 14.9998C23.7254 14.9998 26.4253 17.6998 26.4253 20.9998C26.4253 24.2997 23.7254 26.9997 20.4254 26.9997ZM59.755 50.0095L56.875 47.7895C56.935 47.3695 56.995 46.9195 56.995 46.4695C56.995 46.0195 56.965 45.5695 56.875 45.1495L59.725 42.9295C59.965 42.7195 60.055 42.3595 59.875 42.0596L57.175 37.4096C57.025 37.1096 56.665 37.0196 56.335 37.1096L53.0051 38.4596C52.3151 37.9196 51.5651 37.4696 50.7251 37.1396L50.2151 33.5996C50.2032 33.4393 50.1322 33.2891 50.0157 33.1782C49.8993 33.0673 49.7458 33.0037 49.5851 32.9996H44.2151C43.8851 32.9996 43.5852 33.2396 43.5552 33.5696L43.0452 37.1096C42.2352 37.4696 41.4552 37.8896 40.7652 38.4296L37.4352 37.0796C37.2823 37.0221 37.114 37.0207 36.9602 37.0756C36.8064 37.1306 36.6771 37.2383 36.5952 37.3796L33.8953 42.0295C33.7453 42.3295 33.7753 42.6895 34.0453 42.8995L36.8952 45.1195C36.7715 45.9952 36.7715 46.8838 36.8952 47.7595L34.0453 49.9795C33.8053 50.1895 33.7153 50.5495 33.8953 50.8495L36.5952 55.4994C36.7452 55.7994 37.1052 55.8894 37.4352 55.7994L40.7652 54.4494C41.4552 54.9894 42.2052 55.4394 43.0452 55.7694L43.5552 59.3094C43.6152 59.6394 43.8851 59.8794 44.2151 59.8794H49.5851C49.9151 59.8794 50.2151 59.6394 50.2451 59.3094L50.7551 55.7694C51.5651 55.4094 52.3451 54.9894 53.0051 54.4494L56.365 55.7994C56.665 55.9194 57.025 55.7994 57.205 55.4994L59.905 50.8495C60.085 50.5795 59.995 50.2195 59.755 50.0095ZM46.8851 50.4895C45.8106 50.4891 44.7803 50.0618 44.0207 49.3018C43.2612 48.5417 42.8348 47.511 42.8352 46.4365C42.8356 45.362 43.2628 44.3316 44.0229 43.5721C44.7829 42.8126 45.8136 42.3861 46.8881 42.3865C47.9626 42.3869 48.993 42.8142 49.7525 43.5742C50.512 44.3343 50.9385 45.365 50.9381 46.4395C50.9377 47.514 50.5104 48.5444 49.7504 49.3039C48.9903 50.0634 47.9596 50.4899 46.8851 50.4895Z" fill="#2979FF"/>
</svg>
