<svg width="1440" height="746" viewBox="0 0 1440 746" fill="none" xmlns="http://www.w3.org/2000/svg">
<path fill-rule="evenodd" clip-rule="evenodd" d="M1491 556.086H1454.57C1417.06 556.086 1344.2 556.086 1270.27 592.476C1197.4 627.611 1123.47 700.391 1050.6 709.175C976.667 717.959 902.731 664.001 829.867 618.827C755.932 573.653 683.068 537.263 609.133 582.437C536.269 627.611 462.333 754.349 388.398 745.565C315.534 736.781 241.599 592.476 168.735 547.302C94.7994 502.128 21.9355 556.086 -15.568 582.437L-51.9999 610.044V339H-15.568C21.9355 339 94.7994 339 168.735 339C241.599 339 315.534 339 388.398 339C462.333 339 536.269 339 609.133 339C683.068 339 755.932 339 829.867 339C902.731 339 976.667 339 1050.6 339C1123.47 339 1197.4 339 1270.27 339C1344.2 339 1417.06 339 1454.57 339H1491V556.086Z" fill="#F1F1F1"/>
<path fill-rule="evenodd" clip-rule="evenodd" d="M1445 510.086H1411C1376 510.086 1308 510.086 1239 546.476C1171 581.611 1102 654.391 1034 663.175C965 671.959 896 618.001 828 572.827C759 527.653 691 491.263 622 536.437C554 581.611 485 708.349 416 699.565C348 690.781 279 546.476 211 501.302C142 456.128 74 510.086 39 536.437L5 564.044V293H39C74 293 142 293 211 293C279 293 348 293 416 293C485 293 554 293 622 293C691 293 759 293 828 293C896 293 965 293 1034 293C1102 293 1171 293 1239 293C1308 293 1376 293 1411 293H1445V510.086Z" fill="#DCF4FF"/>
<path fill-rule="evenodd" clip-rule="evenodd" d="M-27 175.916H8.84167C45.7375 175.916 117.421 175.916 190.158 142.208C261.842 109.662 334.579 42.2468 406.263 34.1104C479 25.9741 551.737 75.9546 623.421 117.799C696.158 159.643 767.842 193.351 840.579 151.507C912.263 109.662 985 -7.73372 1057.74 0.402643C1129.42 8.53901 1202.16 142.208 1273.84 184.052C1346.58 225.896 1418.26 175.916 1455.16 151.507L1491 125.935V377H1455.16C1418.26 377 1346.58 377 1273.84 377C1202.16 377 1129.42 377 1057.74 377C985 377 912.263 377 840.579 377C767.842 377 696.158 377 623.421 377C551.737 377 479 377 406.263 377C334.579 377 261.842 377 190.158 377C117.421 377 45.7375 377 8.84167 377H-27V175.916Z" fill="#F1F1F1"/>
<path fill-rule="evenodd" clip-rule="evenodd" d="M5 224.449H39C74 224.449 142 224.449 211 190.831C279 158.371 348 91.1347 416 83.02C485 74.9052 554 124.753 622 166.486C691 208.219 759 241.838 828 200.105C896 158.371 965 41.2868 1034 49.4016C1102 57.5164 1171 190.831 1239 232.564C1308 274.297 1376 224.449 1411 200.105L1445 174.601V425H1411C1376 425 1308 425 1239 425C1171 425 1102 425 1034 425C965 425 896 425 828 425C759 425 691 425 622 425C554 425 485 425 416 425C348 425 279 425 211 425C142 425 74 425 39 425H5V224.449Z" fill="#DCF4FF"/>
</svg>
