<svg width="50" height="50" viewBox="0 0 50 50" fill="none" xmlns="http://www.w3.org/2000/svg">
<path d="M33.7135 1.9231C30.2558 1.9231 27.2385 3.70579 25.9019 7.09233C28.7077 9.40771 30.65 12.9904 30.65 17.8481C30.65 23.0346 28.2038 27.775 25.6615 30.8289C29.7115 32.3616 36.05 35.4327 37.8615 40.1443C44.2423 39.7904 49.9385 38.5058 49.9385 34.8558V33.6539C49.9385 30.3077 44.1038 27.0327 38.9423 25.3C38.7077 25.2231 37.2308 24.8654 38.1615 21.9943C40.5846 19.4635 42.2481 15.3673 42.2481 11.3596C42.2481 5.18463 38.4096 1.9231 33.7115 1.9231H33.7135ZM17.25 7.8731C12.25 7.8731 7.93461 11.2866 7.93461 17.8481C7.93461 22.1366 9.97308 26.5135 12.5615 29.2058C13.5712 31.8962 11.7385 33.8116 11.3596 33.9558C6.12692 35.8712 0 39.3308 0 42.7885V44.1116C0 48.8212 8.98269 49.8808 17.3077 49.8808C25.6423 49.8808 34.5558 48.8212 34.5558 44.1116V42.7885C34.5558 39.2269 28.3865 35.7981 22.8962 33.9539C22.6462 33.8712 21.0673 32.1981 22.0558 29.1462H21.9962C24.5731 26.4539 26.8038 22.1193 26.8038 17.8481C26.8038 11.2866 22.2442 7.8731 17.2462 7.8731H17.25Z" fill="#00B0FF"/>
</svg>
