<svg width="60" height="60" viewBox="0 0 60 60" fill="none" xmlns="http://www.w3.org/2000/svg">
<path d="M30 55C39.6475 55 47.5 47.1475 47.5 37.5C47.5 27.8525 39.6475 20 30 20C20.35 20 12.5 27.8525 12.5 37.5C12.5 47.1475 20.35 55 30 55ZM30 25C36.8925 25 42.5 30.6075 42.5 37.5C42.5 44.3925 36.8925 50 30 50C23.1075 50 17.5 44.3925 17.5 37.5C17.5 30.6075 23.1075 25 30 25ZM27.5 5H17.5V18.795C20.4917 16.7931 23.9219 15.5419 27.5 15.1475V5ZM42.5 5H32.5V15.1475C36.0781 15.5419 39.5083 16.7931 42.5 18.795V5Z" fill="#00B0FF"/>
<path d="M25.0475 39.5275L23.8775 46.3425L30 43.125L36.1225 46.3425L34.9525 39.5275L39.9075 34.6975L33.0625 33.7025L30 27.5L26.9375 33.7025L20.0925 34.6975L25.0475 39.5275Z" fill="#00B0FF"/>
</svg>
