<svg width="1440" height="516" viewBox="0 0 1440 516" fill="none" xmlns="http://www.w3.org/2000/svg">
<path fill-rule="evenodd" clip-rule="evenodd" d="M1440 397.934L1378.58 319.576C1317.17 242.755 1194.33 87.5762 1071.5 66.0662C948.667 43.0199 825.833 153.642 703 221.245C580.167 287.311 457.333 308.821 334.5 264.265C211.667 221.245 88.8334 110.623 27.4167 55.3113L-34 0V464H27.4167C88.8334 464 211.667 464 334.5 464C457.333 464 580.167 464 703 464C825.833 464 948.667 464 1071.5 464C1194.33 464 1317.17 464 1378.58 464H1440V397.934Z" fill="#F1F1F1"/>
<path fill-rule="evenodd" clip-rule="evenodd" d="M1440 448.652L1380 368.775C1320 290.464 1200 132.275 1080 110.348C960 86.8543 840 199.623 720 268.536C600 335.884 480 357.811 360 312.391C240 268.536 120 155.768 60 99.3841L0 43V516H60C120 516 240 516 360 516C480 516 600 516 720 516C840 516 960 516 1080 516C1200 516 1320 516 1380 516H1440V448.652Z" fill="#DCF4FF"/>
</svg>
