<svg width="902" height="330" viewBox="0 0 902 330" fill="none" xmlns="http://www.w3.org/2000/svg">
<g clip-path="url(#clip0_621_35)">
<mask id="mask0_621_35" style="mask-type:luminance" maskUnits="userSpaceOnUse" x="0" y="0" width="902" height="184">
<path d="M902 0H0V183.224H902V0Z" fill="white"/>
</mask>
<g mask="url(#mask0_621_35)">
<path fill-rule="evenodd" clip-rule="evenodd" d="M902 159.31L864.417 130.946C826.833 103.139 751.667 46.9689 676.5 39.1829C601.333 30.8407 526.167 70.883 451 95.3533C375.833 119.267 300.667 127.053 225.5 110.925C150.333 95.3533 75.1667 55.311 37.5833 35.2898L0 15.2687V183.224H37.5833C75.1667 183.224 150.333 183.224 225.5 183.224C300.667 183.224 375.833 183.224 451 183.224C526.167 183.224 601.333 183.224 676.5 183.224C751.667 183.224 826.833 183.224 864.417 183.224H902V159.31Z" fill="#DCF4FF"/>
</g>
<mask id="mask1_621_35" style="mask-type:luminance" maskUnits="userSpaceOnUse" x="0" y="162" width="902" height="184">
<path d="M0 345.224H902V162H0V345.224Z" fill="white"/>
</mask>
<g mask="url(#mask1_621_35)">
<path fill-rule="evenodd" clip-rule="evenodd" d="M-6.10352e-05 185.914L37.5833 214.278C75.1666 242.085 150.333 298.255 225.5 306.041C300.667 314.383 375.833 274.341 451 249.871C526.167 225.957 601.333 218.171 676.5 234.299C751.667 249.871 826.833 289.913 864.417 309.934L902 329.955V162H864.417C826.833 162 751.667 162 676.5 162C601.333 162 526.167 162 451 162C375.833 162 300.667 162 225.5 162C150.333 162 75.1666 162 37.5833 162H-6.10352e-05V185.914Z" fill="#DCF4FF"/>
</g>
</g>
<defs>
<clipPath id="clip0_621_35">
<rect width="902" height="330" fill="white"/>
</clipPath>
</defs>
</svg>
