<svg width="1440" height="566" viewBox="0 0 1440 566" fill="none" xmlns="http://www.w3.org/2000/svg">
<path fill-rule="evenodd" clip-rule="evenodd" d="M0 0L40 58.8902C80 117.78 160 235.561 240 248.647C320 260.098 400 165.22 480 130.867C560 94.8786 640 117.78 720 176.671C800 235.561 880 330.439 960 341.89C1040 353.341 1120 283 1200 271.549C1280 260.098 1360 307.538 1400 330.439L1440 353.341V566H1400C1360 566 1280 566 1200 566C1120 566 1040 566 960 566C880 566 800 566 720 566C640 566 560 566 480 566C400 566 320 566 240 566C160 566 80 566 40 566H0V0Z" fill="#F1F1F1"/>
<path fill-rule="evenodd" clip-rule="evenodd" d="M0 56L40 109.064C80 162.127 160 268.254 240 280.046C320 290.364 400 204.873 480 173.919C560 141.491 640 162.127 720 215.191C800 268.254 880 353.746 960 364.064C1040 374.382 1120 311 1200 300.682C1280 290.364 1360 333.11 1400 353.746L1440 374.382V566H1400C1360 566 1280 566 1200 566C1120 566 1040 566 960 566C880 566 800 566 720 566C640 566 560 566 480 566C400 566 320 566 240 566C160 566 80 566 40 566H0V56Z" fill="#DCF4FF"/>
</svg>
