<svg width="50" height="50" viewBox="0 0 50 50" fill="none" xmlns="http://www.w3.org/2000/svg">
<path d="M11.8867 3.12502C11.8219 3.12442 11.758 3.13996 11.7007 3.17022C11.6434 3.20049 11.5945 3.24454 11.5585 3.29841C11.5224 3.35227 11.5003 3.41425 11.4942 3.47877C11.4881 3.54329 11.4982 3.60831 11.5234 3.66799L11.748 4.19826L15.7226 13.4658C15.7497 13.5289 15.7928 13.5837 15.8477 13.6248C15.9026 13.6658 15.9674 13.6917 16.0355 13.6999C16.1036 13.708 16.1726 13.698 16.2356 13.671C16.2987 13.644 16.3535 13.6008 16.3945 13.5459L23.7305 3.75002C23.774 3.69198 23.8005 3.62297 23.807 3.55072C23.8135 3.47847 23.7998 3.40583 23.7673 3.34095C23.7349 3.27606 23.685 3.22149 23.6233 3.18336C23.5616 3.14522 23.4905 3.12502 23.418 3.12502H11.8867Z" fill="#00B0FF"/>
<path d="M41.0088 5.66989L36.9775 15.081C36.9522 15.1404 36.942 15.2052 36.9478 15.2696C36.9536 15.3339 36.9753 15.3958 37.0109 15.4497C37.0465 15.5036 37.0949 15.5478 37.1518 15.5784C37.2087 15.609 37.2723 15.625 37.3369 15.625H47.2002C47.2698 15.625 47.3382 15.6064 47.3983 15.5711C47.4583 15.5358 47.5078 15.4851 47.5417 15.4243C47.5756 15.3634 47.5926 15.2946 47.5909 15.225C47.5892 15.1554 47.569 15.0875 47.5322 15.0283L41.6992 5.61813C41.6615 5.55755 41.608 5.50845 41.5444 5.47615C41.4807 5.44385 41.4095 5.4296 41.3383 5.43493C41.2672 5.44026 41.1989 5.46498 41.1408 5.5064C41.0827 5.54783 41.037 5.60437 41.0088 5.66989Z" fill="#00B0FF"/>
<path d="M8.30076 5.62204L2.46971 15.0283C2.43297 15.0875 2.41272 15.1554 2.41105 15.225C2.40939 15.2946 2.42637 15.3634 2.46023 15.4243C2.4941 15.4851 2.54362 15.5358 2.60366 15.5711C2.66371 15.6064 2.7321 15.625 2.80174 15.625H12.665C12.7297 15.6249 12.7933 15.6088 12.8502 15.5781C12.907 15.5474 12.9554 15.503 12.9909 15.449C13.0264 15.395 13.048 15.333 13.0537 15.2686C13.0594 15.2042 13.049 15.1394 13.0234 15.08L8.98436 5.6738C8.95547 5.6099 8.90992 5.55496 8.85248 5.51474C8.79504 5.47452 8.72783 5.4505 8.65791 5.44521C8.58799 5.43991 8.51793 5.45354 8.45509 5.48465C8.39225 5.51577 8.33894 5.56322 8.30076 5.62204Z" fill="#00B0FF"/>
<path d="M38.4053 3.125H26.1543C26.119 3.12478 26.0843 3.13444 26.0541 3.15291C26.024 3.17138 25.9996 3.19791 25.9837 3.22951C25.9679 3.26111 25.9612 3.29651 25.9644 3.33171C25.9676 3.36692 25.9806 3.40052 26.002 3.42871L33.8067 13.8252C33.8266 13.8519 33.8532 13.8729 33.8838 13.886C33.9144 13.8992 33.948 13.904 33.981 13.9C34.0141 13.8961 34.0456 13.8835 34.0722 13.8635C34.0989 13.8435 34.1198 13.8168 34.1328 13.7861L38.2422 4.19922L38.5742 3.38477C38.5859 3.35681 38.5907 3.32644 38.5881 3.29625C38.5855 3.26605 38.5756 3.23694 38.5593 3.2114C38.5429 3.18587 38.5207 3.16467 38.4944 3.14962C38.4681 3.13457 38.4385 3.12613 38.4082 3.125H38.4053Z" fill="#00B0FF"/>
<path d="M23.3398 43.75L14.6064 18.9951C14.5808 18.9232 14.5335 18.8611 14.4711 18.8172C14.4086 18.7733 14.3341 18.7498 14.2578 18.75H2.50976C2.4417 18.7498 2.37496 18.7687 2.31714 18.8046C2.25932 18.8405 2.21274 18.8919 2.18271 18.953C2.15269 19.0141 2.14042 19.0823 2.1473 19.1501C2.15419 19.2178 2.17996 19.2822 2.22167 19.3359L23.3154 46.6611C23.3868 46.7536 23.4887 46.8178 23.6029 46.8423C23.7172 46.8668 23.8364 46.85 23.9394 46.7949C24.0431 46.7404 24.1237 46.6504 24.1665 46.5414C24.2094 46.4324 24.2116 46.3117 24.1728 46.2012L23.3398 43.75Z" fill="#00B0FF"/>
<path d="M47.4902 18.75H35.7422C35.6663 18.75 35.5922 18.7736 35.5303 18.8175C35.4684 18.8614 35.4216 18.9235 35.3965 18.9951L25.8067 46.1592C25.7664 46.2732 25.768 46.3979 25.8114 46.5108C25.8547 46.6237 25.9368 46.7175 26.043 46.7754C26.1492 46.8329 26.2724 46.8509 26.3907 46.826C26.5089 46.8011 26.6144 46.7351 26.6885 46.6396L47.7783 19.3359C47.82 19.2822 47.8458 19.2178 47.8527 19.15C47.8596 19.0823 47.8473 19.0141 47.8173 18.953C47.7873 18.8919 47.7407 18.8405 47.6829 18.8046C47.625 18.7687 47.5583 18.7498 47.4902 18.75Z" fill="#00B0FF"/>
<path d="M25.3125 7.70801L30.7812 15C30.8248 15.058 30.8513 15.127 30.8578 15.1993C30.8643 15.2715 30.8506 15.3442 30.8181 15.4091C30.7857 15.474 30.7358 15.5285 30.6741 15.5667C30.6124 15.6048 30.5413 15.625 30.4687 15.625H19.5313C19.4587 15.625 19.3876 15.6048 19.3259 15.5667C19.2642 15.5285 19.2143 15.474 19.1819 15.4091C19.1494 15.3442 19.1357 15.2715 19.1422 15.1993C19.1487 15.127 19.1752 15.058 19.2188 15L24.6875 7.70801C24.7239 7.65949 24.7711 7.62012 24.8253 7.593C24.8795 7.56588 24.9394 7.55176 25 7.55176C25.0606 7.55176 25.1205 7.56588 25.1747 7.593C25.2289 7.62012 25.2761 7.65949 25.3125 7.70801ZM24.6289 38.0117L18.0176 19.2705C17.9968 19.2116 17.9905 19.1486 17.9991 19.0868C18.0077 19.0249 18.031 18.966 18.0671 18.9151C18.1031 18.8641 18.1509 18.8225 18.2063 18.7938C18.2618 18.765 18.3233 18.75 18.3857 18.75H31.6143C31.6767 18.75 31.7382 18.765 31.7937 18.7938C31.8491 18.8225 31.8969 18.8641 31.9329 18.9151C31.969 18.966 31.9923 19.0249 32.0009 19.0868C32.0095 19.1486 32.0032 19.2116 31.9824 19.2705L25.3682 38.0117C25.3412 38.0878 25.2913 38.1536 25.2254 38.2002C25.1595 38.2468 25.0807 38.2718 25 38.2718C24.9193 38.2718 24.8405 38.2468 24.7746 38.2002C24.7087 38.1536 24.6588 38.0878 24.6318 38.0117H24.6289Z" fill="#00B0FF"/>
</svg>
