<svg width="158" height="141" viewBox="0 0 158 141" fill="none" xmlns="http://www.w3.org/2000/svg">
<g clip-path="url(#clip0)">
<path d="M156.614 53.9212C156.557 53.9213 156.502 53.904 156.456 53.8719L79.7955 0.796959C79.5622 0.636194 79.285 0.550278 79.0011 0.55076C78.7172 0.551241 78.4403 0.638095 78.2076 0.79965L2.09957 53.8713C2.03937 53.9133 1.96487 53.9298 1.89244 53.9172C1.82002 53.9045 1.75561 53.8638 1.71339 53.804C1.67116 53.7441 1.65458 53.67 1.66729 53.598C1.68 53.526 1.72096 53.462 1.78116 53.42L77.8892 0.348357C78.2151 0.122215 78.6028 0.000651884 79.0002 2.61445e-06C79.3976 -0.000646655 79.7857 0.119648 80.1123 0.344725L156.772 53.4195C156.821 53.453 156.857 53.5011 156.876 53.5566C156.895 53.6122 156.896 53.6723 156.878 53.7283C156.861 53.7842 156.826 53.8331 156.778 53.8679C156.73 53.9026 156.673 53.9213 156.614 53.9212L156.614 53.9212Z" fill="#757575"/>
<path d="M6.44861 55.8026L79.0765 2.29248L152.255 59.6101L82.8186 100.532L45.1203 91.9891L6.44861 55.8026Z" fill="#E6E6E6"/>
<path d="M48.3024 125.807H12.4225C12.2021 125.807 11.9839 125.764 11.7803 125.681C11.5767 125.597 11.3916 125.474 11.2358 125.32C11.0799 125.165 10.9562 124.981 10.8718 124.779C10.7875 124.576 10.744 124.36 10.744 124.141C10.744 123.922 10.7875 123.705 10.8718 123.502C10.9562 123.3 11.0799 123.116 11.2358 122.961C11.3916 122.807 11.5767 122.684 11.7803 122.6C11.9839 122.517 12.2021 122.474 12.4225 122.474H48.3024C48.5227 122.474 48.7409 122.517 48.9446 122.6C49.1482 122.684 49.3332 122.807 49.4891 122.961C49.645 123.116 49.7687 123.3 49.8531 123.502C49.9374 123.705 49.9809 123.922 49.9809 124.141C49.9809 124.36 49.9374 124.576 49.8531 124.779C49.7687 124.981 49.645 125.165 49.4891 125.32C49.3332 125.474 49.1482 125.597 48.9446 125.681C48.7409 125.764 48.5227 125.807 48.3024 125.807Z" fill="#00B0FF"/>
<path d="M25.2954 118.642H12.4225C12.2021 118.643 11.9839 118.6 11.7803 118.516C11.5767 118.433 11.3916 118.31 11.2358 118.155C11.0799 118 10.9562 117.817 10.8718 117.614C10.7875 117.412 10.744 117.195 10.744 116.976C10.744 116.757 10.7875 116.54 10.8718 116.338C10.9562 116.135 11.0799 115.952 11.2358 115.797C11.3916 115.642 11.5767 115.519 11.7803 115.436C11.9839 115.352 12.2021 115.309 12.4225 115.31H25.2954C25.5157 115.309 25.7339 115.352 25.9375 115.436C26.1412 115.519 26.3262 115.642 26.4821 115.797C26.638 115.952 26.7617 116.135 26.846 116.338C26.9304 116.54 26.9738 116.757 26.9738 116.976C26.9738 117.195 26.9304 117.412 26.846 117.614C26.7617 117.817 26.638 118 26.4821 118.155C26.3262 118.31 26.1412 118.433 25.9375 118.516C25.7339 118.6 25.5157 118.643 25.2954 118.642Z" fill="#00B0FF"/>
<path d="M80.0977 85.6071C79.825 85.6074 79.5549 85.5548 79.3024 85.4523L34.5106 66.9759V9.14185C34.5112 8.63044 34.7158 8.14015 35.0796 7.77853C35.4433 7.41691 35.9365 7.21349 36.4509 7.21289H122.381C122.895 7.21349 123.388 7.41691 123.752 7.77853C124.116 8.14015 124.32 8.63044 124.321 9.14185V67.0163L124.237 67.0521L80.9171 85.4432C80.6577 85.5516 80.3791 85.6073 80.0977 85.6071Z" fill="white"/>
<path d="M80.0977 85.7447C79.8069 85.745 79.5189 85.6889 79.2497 85.5797L34.372 67.0678V9.14169C34.3726 8.59375 34.5919 8.06843 34.9816 7.68097C35.3714 7.29352 35.8998 7.07557 36.451 7.07495H122.381C122.932 7.07557 123.46 7.29352 123.85 7.68097C124.24 8.06843 124.459 8.59375 124.46 9.14169V67.1071L80.9715 85.5697C80.6949 85.6854 80.3978 85.7449 80.0977 85.7447ZM34.9264 66.6997L79.4611 85.0701C79.8764 85.2377 80.3417 85.2349 80.755 85.0625L123.905 66.7433V9.14169C123.905 8.73987 123.744 8.35465 123.458 8.07052C123.172 7.78639 122.785 7.62656 122.381 7.62608H36.451C36.0468 7.62656 35.6593 7.78639 35.3735 8.07052C35.0877 8.35465 34.9269 8.73987 34.9264 9.14169L34.9264 66.6997Z" fill="#757575"/>
<path d="M156.06 53.3701H156.004L124.182 66.8784L80.6438 85.3605C80.4737 85.4317 80.2911 85.4688 80.1066 85.4697C79.922 85.4707 79.739 85.4354 79.5682 85.3661L34.6491 66.8398L2.04565 53.3922L1.99584 53.3701H1.94035C1.42591 53.3707 0.932707 53.5741 0.568944 53.9357C0.205182 54.2973 0.00057081 54.7877 0 55.2991V139.071C0.000571542 139.582 0.205182 140.073 0.568944 140.434C0.932707 140.796 1.42591 140.999 1.94035 141H156.06C156.574 140.999 157.067 140.796 157.431 140.434C157.795 140.073 157.999 139.582 158 139.071V55.2991C157.999 54.7877 157.795 54.2973 157.431 53.9357C157.067 53.5741 156.574 53.3707 156.06 53.3701ZM157.446 139.071C157.445 139.436 157.299 139.787 157.04 140.045C156.78 140.304 156.427 140.449 156.06 140.449H1.94035C1.57282 140.449 1.22038 140.304 0.96049 140.045C0.700603 139.787 0.554533 139.436 0.554386 139.071V55.2991C0.554889 54.9428 0.693914 54.6004 0.942395 54.3437C1.19088 54.0869 1.52958 53.9355 1.8877 53.9212L34.6491 67.435L79.3549 85.8758C79.8388 86.0716 80.3811 86.0686 80.8628 85.8676L124.182 67.4763L156.115 53.9212C156.473 53.9366 156.81 54.0884 157.058 54.345C157.306 54.6016 157.445 54.9433 157.446 55.2991V139.071Z" fill="#757575"/>
<path d="M79.65 69.2075C77.9964 69.2105 76.3867 68.679 75.0636 67.6929L74.9816 67.6317L57.7094 54.4851C56.9095 53.8759 56.2381 53.1159 55.7337 52.2487C55.2292 51.3814 54.9015 50.4239 54.7692 49.4308C54.637 48.4376 54.7028 47.4283 54.963 46.4605C55.2231 45.4926 55.6724 44.5852 56.2853 43.79C56.8982 42.9948 57.6626 42.3274 58.535 41.8259C59.4073 41.3243 60.3705 40.9985 61.3695 40.8671C62.3685 40.7356 63.3838 40.8011 64.3574 41.0597C65.3309 41.3183 66.2437 41.765 67.0436 42.3743L78.2312 50.9024L104.669 16.6257C105.282 15.8307 106.047 15.1635 106.92 14.6623C107.792 14.1611 108.756 13.8356 109.755 13.7045C110.754 13.5734 111.769 13.6392 112.742 13.8982C113.716 14.1572 114.628 14.6042 115.428 15.2138L115.264 15.4357L115.432 15.217C117.045 16.4495 118.101 18.2678 118.367 20.2729C118.633 22.2781 118.089 24.3063 116.853 25.9127L85.755 66.2303C85.0358 67.1594 84.1109 67.9112 83.0522 68.4275C81.9934 68.9438 80.8293 69.2107 79.65 69.2075Z" fill="#00B0FF"/>
</g>
<defs>
<clipPath id="clip0">
<rect width="158" height="141" fill="white"/>
</clipPath>
</defs>
</svg>
