<svg width="40" height="40" viewBox="0 0 40 40" fill="none" xmlns="http://www.w3.org/2000/svg">
<path fill-rule="evenodd" clip-rule="evenodd" d="M18.75 2.5C14.4402 2.5 10.307 4.21205 7.25951 7.25951C4.21205 10.307 2.5 14.4402 2.5 18.75C2.5 23.0598 4.21205 27.193 7.25951 30.2405C10.307 33.288 14.4402 35 18.75 35C23.0598 35 27.193 33.288 30.2405 30.2405C33.288 27.193 35 23.0598 35 18.75C35 14.4402 33.288 10.307 30.2405 7.25951C27.193 4.21205 23.0598 2.5 18.75 2.5ZM18.75 32.5C15.1033 32.5 11.6059 31.0513 9.02728 28.4727C6.44866 25.8941 5 22.3967 5 18.75C5 15.1033 6.44866 11.6059 9.02728 9.02728C11.6059 6.44866 15.1033 5 18.75 5C22.3967 5 25.8941 6.44866 28.4727 9.02728C31.0513 11.6059 32.5 15.1033 32.5 18.75C32.5 22.3967 31.0513 25.8941 28.4727 28.4727C25.8941 31.0513 22.3967 32.5 18.75 32.5ZM22.625 11.45C22.1931 11.0003 21.6742 10.643 21.1 10.4C20.3775 10.1107 19.6028 9.97452 18.825 10C18.07 9.98629 17.3206 10.1311 16.625 10.425C16.0275 10.675 15.5 11.06 15.075 11.55C14.661 12.0003 14.3383 12.5267 14.125 13.1C13.9266 13.6823 13.8007 14.2869 13.75 14.9H16.825C16.8392 14.5032 16.9655 14.1186 17.1894 13.7907C17.4133 13.4628 17.7256 13.2051 18.09 13.0475C18.3315 12.9523 18.5908 12.9106 18.85 12.925C19.0736 12.8895 19.3014 12.8895 19.525 12.925C19.7304 13.0027 19.9176 13.1218 20.075 13.275C20.2487 13.4253 20.3855 13.6135 20.475 13.825C20.5774 14.0616 20.6285 14.3172 20.625 14.575C20.625 15.0075 20.5325 15.4325 20.35 15.825C20.1684 16.2322 19.942 16.6179 19.675 16.975L18.8 18.025C18.5 18.35 18.2 18.7 17.925 19.05C17.6584 19.3984 17.4319 19.7758 17.25 20.175C17.0766 20.5685 16.9912 20.9951 17 21.425V23.075H20V21.85C20.0085 21.4833 20.1027 21.1237 20.275 20.8C20.4805 20.4401 20.7146 20.0973 20.975 19.775L21.875 18.675C22.2026 18.2965 22.5034 17.8955 22.775 17.475C23.0623 17.0462 23.2973 16.5846 23.475 16.1C23.6573 15.5863 23.7503 15.0451 23.75 14.5C23.7545 13.9321 23.6701 13.3669 23.5 12.825C23.3112 12.3088 23.0127 11.8397 22.625 11.45ZM17 24.575H19.925V27.5H17V24.575Z" fill="#00B0FF"/>
</svg>
