<svg width="40" height="40" viewBox="0 0 40 40" fill="none" xmlns="http://www.w3.org/2000/svg">
<g clip-path="url(#clip0)">
<path fill-rule="evenodd" clip-rule="evenodd" d="M1.30333 7.54168H35.1567L36.46 8.84334V23.175C35.6534 22.5693 34.7792 22.0592 33.855 21.655V10.1467H2.605V33.5833H15.6267C15.6263 36.4008 16.5398 39.1425 18.23 41.3967H7.81333V38.7917H15.6267V36.1867H1.30333L0 34.8867V8.84168L1.30333 7.54001V7.54168ZM28.6467 23.1667C27.2787 23.1667 25.9242 23.4361 24.6604 23.9596C23.3966 24.4831 22.2482 25.2504 21.281 26.2176C20.3137 27.1849 19.5464 28.3332 19.0229 29.5971C18.4994 30.8609 18.23 32.2154 18.23 33.5833C18.23 34.9513 18.4994 36.3058 19.0229 37.5696C19.5464 38.8334 20.3137 39.9818 21.281 40.949C22.2482 41.9163 23.3966 42.6836 24.6604 43.2071C25.9242 43.7306 27.2787 44 28.6467 44C31.4093 44 34.0589 42.9025 36.0124 40.949C37.9659 38.9955 39.0633 36.346 39.0633 33.5833C39.0633 30.8207 37.9659 28.1712 36.0124 26.2176C34.0589 24.2641 31.4093 23.1667 28.6467 23.1667ZM28.6467 41.3967C26.5742 41.3967 24.5867 40.5734 23.1212 39.108C21.6558 37.6425 20.8325 35.655 20.8325 33.5825C20.8325 31.5101 21.6558 29.5225 23.1212 28.0571C24.5867 26.5916 26.5742 25.7683 28.6467 25.7683C30.7191 25.7683 32.7067 26.5916 34.1721 28.0571C35.6376 29.5225 36.4608 31.5101 36.4608 33.5825C36.4608 35.655 35.6376 37.6425 34.1721 39.108C32.7067 40.5734 30.7191 41.3967 28.6467 41.3967ZM32.985 36.1767L29.3967 32.5883L32.985 29L34.0633 30.0767L31.5533 32.5883L34.0633 35.0983L32.985 36.1767ZM24.0633 32.7433L26.5733 35.255L24.0633 37.765L25.1417 38.8433L28.73 35.255L25.1417 31.6667L24.0633 32.7433Z" fill="#00B0FF"/>
</g>
<defs>
<clipPath id="clip0">
<rect width="40" height="40" fill="white"/>
</clipPath>
</defs>
</svg>
