<svg width="1440" height="230" viewBox="0 0 1440 230" fill="none" xmlns="http://www.w3.org/2000/svg">
<path fill-rule="evenodd" clip-rule="evenodd" d="M0 0L40 23.9307C80 47.8611 160 95.7228 240 101.04C320 105.693 400 67.1389 480 53.1792C560 38.5549 640 47.8611 720 71.7923C800 95.7228 880 134.277 960 138.931C1040 143.584 1120 115 1200 110.347C1280 105.693 1360 124.971 1400 134.277L1440 143.584V230H1400C1360 230 1280 230 1200 230C1120 230 1040 230 960 230C880 230 800 230 720 230C640 230 560 230 480 230C400 230 320 230 240 230C160 230 80 230 40 230H0V0Z" fill="#DCF4FF"/>
</svg>
