<svg width="30" height="30" viewBox="0 0 30 30" fill="none" xmlns="http://www.w3.org/2000/svg">
<path d="M3.75 6.25V23.75C3.75 25.125 4.8625 26.25 6.25 26.25H23.75C25.125 26.25 26.25 25.125 26.25 23.75V6.25C26.25 4.875 25.125 3.75 23.75 3.75H6.25C4.8625 3.75 3.75 4.875 3.75 6.25ZM18.75 11.25C18.75 13.325 17.075 15 15 15C12.925 15 11.25 13.325 11.25 11.25C11.25 9.175 12.925 7.5 15 7.5C17.075 7.5 18.75 9.175 18.75 11.25ZM7.5 21.25C7.5 18.75 12.5 17.375 15 17.375C17.5 17.375 22.5 18.75 22.5 21.25V22.5H7.5V21.25Z" fill="#F1F1F1"/>
</svg>
