<svg width="860" height="300" viewBox="0 0 860 300" fill="none" xmlns="http://www.w3.org/2000/svg">
<g clip-path="url(#clip0_625_2)">
<mask id="mask0_625_2" style="mask-type:luminance" maskUnits="userSpaceOnUse" x="0" y="0" width="860" height="300">
<path d="M860 300H0V0H860V300Z" fill="white"/>
</mask>
<g mask="url(#mask0_625_2)">
<mask id="mask1_625_2" style="mask-type:luminance" maskUnits="userSpaceOnUse" x="0" y="0" width="860" height="300">
<path d="M860 300H0V0H860V300Z" fill="white"/>
</mask>
<g mask="url(#mask1_625_2)">
<path fill-rule="evenodd" clip-rule="evenodd" d="M0 271.588L35.8333 263.958C71.6667 255.782 143.333 240.521 215 248.151C286.667 255.782 358.333 279.219 430 291.21C501.667 302.656 573.333 303.201 645 291.21C716.667 279.764 788.331 263.958 824.165 255.782L860 248.151V130.42H824.165C788.331 130.42 716.667 130.42 645 130.42C573.333 130.42 501.667 130.42 430 130.42C358.333 130.42 286.667 130.42 215 130.42C143.333 130.42 71.6667 130.42 35.8333 130.42H0V271.588Z" fill="#F8F8F8"/>
<path fill-rule="evenodd" clip-rule="evenodd" d="M860 77.639L824.165 86.786C783.854 96.586 715.472 105.733 645 105.733C565.569 105.733 501.667 101.16 430 86.786C358.333 73.066 294.431 47.212 215 54.118C141.848 60.48 71.6667 83.693 35.8334 93.494L0 105.733V246.857H35.8334C71.6667 246.857 143.333 246.857 215 246.857C286.667 246.857 358.333 246.857 430 246.857C501.667 246.857 573.333 246.857 645 246.857C716.667 246.857 788.331 246.857 824.165 246.857H860V77.639Z" fill="#F8F8F8"/>
</g>
</g>
</g>
<defs>
<clipPath id="clip0_625_2">
<rect width="860" height="300" fill="white" transform="matrix(1 0 0 -1 0 300)"/>
</clipPath>
</defs>
</svg>
