<svg width="30" height="30" viewBox="0 0 30 30" fill="none" xmlns="http://www.w3.org/2000/svg">
<path fill-rule="evenodd" clip-rule="evenodd" d="M29.577 5.32199L27.9047 4.92736L23.385 9.42271L20.825 6.81472L25.2332 2.18854L24.8473 0.489921C23.9157 0.178185 22.9414 0.0132156 21.9592 0.000922952C20.8878 -0.0155588 19.8244 0.188862 18.8354 0.601447C17.8804 1.03385 17.0172 1.64541 16.2925 2.40302C15.4859 3.16742 14.847 4.09136 14.4165 5.1161C13.5877 7.15548 13.5877 9.43797 14.4165 11.4774C9.9467 15.8762 5.53461 20.3333 1.18137 24.8476C0.731117 25.4374 0.516713 26.173 0.572458 26.913C0.616394 27.7088 0.97418 28.4547 1.56729 28.9869C1.83315 29.2764 2.15047 29.5167 2.50424 29.6904C2.86872 29.8512 3.26108 29.9435 3.65773 29.9628C4.33525 29.9499 4.98489 29.6925 5.48874 29.24C8.80771 26.1151 15.1669 19.696 18.7796 15.9341C19.7595 16.3502 20.8122 16.5647 21.8756 16.5625C22.9461 16.5617 24.0055 16.3462 24.9914 15.9288C25.9772 15.5115 26.8694 14.9007 27.6152 14.1325C29.1472 12.5696 30.0029 10.4663 29.9972 8.27742C30.022 7.27578 29.88 6.277 29.577 5.32199ZM4.1916 27.7194C4.10907 27.7927 4.0096 27.8443 3.90215 27.8695C3.79645 27.8878 3.68839 27.8878 3.58269 27.8695C3.47186 27.8526 3.3663 27.8108 3.27395 27.7473C3.17484 27.6892 3.09104 27.6083 3.02953 27.5113C2.72936 27.2046 2.44849 26.6213 2.72936 26.2931C5.66669 23.1683 11.715 17.0601 15.4971 13.3261C15.7115 13.6092 15.9474 13.8795 16.2004 14.1325C16.4534 14.3963 16.7256 14.6408 17.0151 14.8639C13.3574 18.6172 7.3905 24.6524 4.1916 27.7194ZM28.029 8.27742C28.0333 9.91814 27.3944 11.4945 26.2452 12.6698C25.0984 13.7951 23.556 14.4255 21.9496 14.4255C20.3431 14.4255 18.8008 13.7951 17.654 12.6698C16.8135 11.7924 16.2394 10.6943 15.9983 9.50324C15.7573 8.31218 15.8593 7.07714 16.2925 5.94182C16.5809 5.16914 17.0282 4.46561 17.6054 3.87672C18.1827 3.28783 18.8771 2.82669 19.6437 2.52312C20.3716 2.21837 21.153 2.06232 21.9421 2.06415H22.4867L18.591 6.08122V7.57395L22.6539 11.6189H24.069L28.029 7.72409V8.27742ZM4.84981 12.1916H8.13234L9.64388 13.7293L11.0975 12.2838L9.67176 10.8297V10.7374L9.79397 7.20077L9.32228 6.26353L3.19033 2.22715L1.9232 2.3687L0.141507 4.18958L0 5.47427L3.94074 11.7326L4.84981 12.1916ZM2.8237 4.4019L7.785 7.67047L7.70139 10.079H5.3944L2.1955 5.01315L2.8237 4.4019ZM18.0571 19.3292L19.5022 17.8858L26.1616 24.7168C26.7225 25.3065 27.0353 26.0893 27.0353 26.9033C27.0353 27.7173 26.7225 28.5002 26.1616 29.0899C25.7398 29.523 25.1974 29.8191 24.6051 29.9396C24.0127 30.0601 23.3978 29.9994 22.8404 29.7654C22.4847 29.6076 22.1657 29.3776 21.9035 29.0899L15.1669 22.2203L16.6227 20.7662L23.3379 27.6164C23.4282 27.7161 23.5405 27.7932 23.6659 27.8416C23.9127 27.9419 24.1888 27.9419 24.4356 27.8416C24.561 27.7931 24.6733 27.716 24.7636 27.6164C24.8575 27.5234 24.9306 27.4116 24.978 27.2883C25.0272 27.1624 25.0534 27.0288 25.0552 26.8937C25.0531 26.7588 25.0277 26.6253 24.9802 26.499C24.9327 26.3757 24.8596 26.2639 24.7658 26.1709L18.0571 19.3292Z" fill="#00B0FF"/>
</svg>
