<svg width="251" height="125" viewBox="0 0 251 125" fill="none" xmlns="http://www.w3.org/2000/svg">
<path fill-rule="evenodd" clip-rule="evenodd" d="M0 84.4556C0 79.6486 3.42017 75.5217 8.14357 74.6294L10.4583 74.192C20.9167 72.2162 41.8333 68.1233 62.75 74.192C83.6667 80.2608 104.583 96.4911 125.5 100.584C146.417 104.677 167.333 96.4911 188.25 92.5394C209.167 88.4465 230.083 88.4465 240.542 88.4465H241C246.523 88.4465 251 92.9237 251 98.4465V115C251 120.523 246.523 125 241 125H240.542C230.083 125 209.167 125 188.25 125C167.333 125 146.417 125 125.5 125C104.583 125 83.6667 125 62.75 125C41.8333 125 20.9167 125 10.4583 125H10C4.47715 125 0 120.523 0 115V84.4556Z" fill="#1F4F9E"/>
<path fill-rule="evenodd" clip-rule="evenodd" d="M0 92.8554C0 87.933 3.58224 83.7426 8.44476 82.9771L10.4583 82.66C20.9167 81.0135 41.8333 77.6028 62.75 82.66C83.6667 87.7173 104.583 101.243 125.5 104.653C146.417 108.064 167.333 101.243 188.25 97.9495C209.167 94.5388 230.083 94.5388 240.542 94.5388H241C246.523 94.5388 251 99.0159 251 104.539V115C251 120.523 246.523 125 241 125H240.542C230.083 125 209.167 125 188.25 125C167.333 125 146.417 125 125.5 125C104.583 125 83.6667 125 62.75 125C41.8333 125 20.9167 125 10.4583 125H10C4.47715 125 0 120.523 0 115V92.8554Z" fill="#2979FF"/>
<g clip-path="url(#clip0)">
<path opacity="0.1" d="M213.282 86.1922C213.054 86.6839 212.826 87.1691 212.599 87.6477C212.245 88.3912 211.895 89.1203 211.55 89.8349C211.396 90.1516 211.243 90.4624 211.093 90.7731C209.4 94.229 207.819 97.2856 206.477 99.7993C205.258 102.077 203.45 103.985 201.239 105.325C199.029 106.664 196.499 107.384 193.915 107.411L164.06 107.736H163.745L161.186 107.763L158.997 107.787L152.284 107.86H152.012L148.594 107.897H148.49L127.425 108.125L108.623 108.322L106.436 108.345L92.8519 108.493H92.8361L84.0264 108.587H83.9319L56.0754 108.888L47.7421 108.979C45.9638 108.999 44.1929 108.745 42.4917 108.227C39.5313 107.334 36.8707 105.651 34.7962 103.359C31.2172 99.4197 28.6088 94.823 26.8567 89.8349C26.6034 89.115 26.3671 88.386 26.1479 87.6477C20.0825 67.1624 27.4768 40.7331 40.7849 23.0467C41.3427 22.3071 41.9097 21.5859 42.4858 20.8831L42.4996 20.8674C46.5924 15.8478 51.1814 11.6544 56.0695 8.67254C64.7316 3.3796 74.3288 1.88869 83.7685 6.33193C91.7553 10.0926 99.2126 11.8609 106.442 12.3408C107.172 12.388 107.902 12.4234 108.629 12.4451C125.211 12.9663 140.751 6.99674 159.001 3.14357C159.727 2.99015 160.456 2.8387 161.19 2.69512C174.209 0.10667 188.651 -1.25836 205.825 1.61135C207.609 1.90259 209.37 2.32331 211.093 2.87017C211.851 3.11407 212.58 3.37632 213.282 3.65693C221.48 6.98887 225.951 13.1453 227.85 20.8595C228.03 21.5754 228.186 22.3039 228.317 23.0447C231.685 41.6005 221.82 67.9216 213.282 86.1922Z" fill="#00B0FF"/>
<g opacity="0.1">
<path opacity="0.1" d="M56.0694 8.67212V108.91L47.7361 109C45.9578 109.02 44.1869 108.767 42.4857 108.249V20.8669H42.4995C46.5923 15.8415 51.1813 11.648 56.0694 8.67212Z" fill="#00B0FF"/>
<path opacity="0.1" d="M228.327 23.0463H40.7847C41.3425 22.3067 41.9095 21.5855 42.4856 20.8827V20.8669H227.86C228.04 21.579 228.195 22.3054 228.327 23.0463Z" fill="#00B0FF"/>
<path opacity="0.1" d="M213.282 3.65846V87.6453H212.599C212.245 88.3888 211.895 89.1179 211.55 89.8325C211.396 90.1492 211.243 90.46 211.093 90.7708V2.86383C211.85 3.10773 212.58 3.3726 213.282 3.65846Z" fill="#00B0FF"/>
<path opacity="0.1" d="M161.19 2.68878V107.771L159.001 107.794V3.13724C159.727 2.98382 160.455 2.83237 161.19 2.68878Z" fill="#00B0FF"/>
<path opacity="0.1" d="M108.629 12.4387V108.341L106.441 108.365V12.3345C107.172 12.3817 107.902 12.4092 108.629 12.4387Z" fill="#00B0FF"/>
<path opacity="0.1" d="M212.599 87.6473C212.245 88.3908 211.895 89.1198 211.55 89.8345H26.8565C26.6032 89.1146 26.367 88.3855 26.1478 87.6473H212.599Z" fill="#00B0FF"/>
</g>
<path d="M69.3972 52.2863H65.6567V63.6274H69.3972V52.2863Z" fill="#3F3D56"/>
<path d="M170.06 51.6962H166.32V63.6943H170.06V51.6962Z" fill="#3F3D56"/>
<path d="M193.915 104.964V107.521L164.007 107.796L163.688 107.802L152.321 107.906L152.049 107.91L148.594 107.94H148.492L127.431 108.135L92.8596 108.455H92.8301L84.0401 108.538L83.9456 108.54L44.8875 108.898V105.947L54.0712 100.44L72.4978 100.287L72.8916 100.285L73.0215 100.283L73.4152 100.277L82.2624 100.204L82.6581 100.202L82.7841 100.2L83.1778 100.198L86.0146 100.174L86.0894 100.173L93.088 100.114H93.1451L147.756 99.6533L149.092 99.6434H149.226L150.246 99.6336L157.658 99.5726L158.052 99.5667L158.416 99.5628H158.605L160.91 99.5451L161.367 99.5392L161.979 99.5352L163.899 99.5175L166.944 99.492L167.338 99.488L168.023 99.4841H168.151L182.859 99.3582L193.915 104.964Z" fill="#65617D"/>
<path opacity="0.2" d="M193.915 104.964V107.521L164.007 107.796L163.688 107.802L152.321 107.906L152.049 107.91L148.594 107.94H148.492L127.431 108.135L92.8596 108.455H92.8301L84.0401 108.538L83.9456 108.54L44.8875 108.898V105.947L54.0712 100.44L72.4978 100.287L72.8916 100.285L73.0215 100.283L73.4152 100.277L82.2624 100.204L82.6581 100.202L82.7841 100.2L83.1778 100.198L86.0146 100.174L86.0894 100.173L93.088 100.114H93.1451L147.756 99.6533L149.092 99.6434H149.226L150.246 99.6336L157.658 99.5726L158.052 99.5667L158.416 99.5628H158.605L160.91 99.5451L161.367 99.5392L161.979 99.5352L163.899 99.5175L166.944 99.492L167.338 99.488L168.023 99.4841H168.151L182.859 99.3582L193.915 104.964Z" fill="black"/>
<path d="M82.2919 95.1313V99.9483C82.292 100.176 82.2273 100.4 82.1053 100.593C81.9834 100.786 81.8091 100.94 81.6029 101.038C81.4493 101.112 81.2814 101.153 81.1107 101.156L74.2401 101.302C74.0566 101.306 73.8746 101.268 73.7085 101.189C73.4986 101.093 73.3208 100.939 73.1962 100.745C73.0716 100.55 73.0055 100.325 73.0057 100.094V95.1313H82.2919Z" fill="#3F3D56"/>
<path opacity="0.1" d="M82.2919 95.1313V99.9483C82.292 100.176 82.2273 100.4 82.1053 100.593C81.9834 100.786 81.8091 100.94 81.6029 101.038C81.4493 101.112 81.2814 101.153 81.1107 101.156L74.2401 101.302C74.0566 101.306 73.8746 101.268 73.7085 101.189C73.4986 101.093 73.3208 100.939 73.1962 100.745C73.0716 100.55 73.0055 100.325 73.0057 100.094V95.1313H82.2919Z" fill="black"/>
<path d="M82.6856 95.1313V99.9483C82.6857 100.176 82.621 100.4 82.4991 100.593C82.3771 100.786 82.2029 100.94 81.9966 101.038C81.843 101.112 81.6751 101.153 81.5044 101.156L74.6338 101.302C74.4503 101.306 74.2683 101.268 74.1023 101.189C73.8924 101.093 73.7145 100.939 73.5899 100.745C73.4653 100.55 73.3992 100.325 73.3995 100.094V95.1313H82.6856Z" fill="#3F3D56"/>
<path d="M167.338 95.1313H158.052V101.327H167.338V95.1313Z" fill="#3F3D56"/>
<path opacity="0.1" d="M167.338 95.1313H158.052V101.327H167.338V95.1313Z" fill="black"/>
<path d="M166.944 95.1313H157.658V101.327H166.944V95.1313Z" fill="#3F3D56"/>
<path opacity="0.1" d="M69.3972 52.2843V53.4113L65.6567 53.315V52.2843H69.3972Z" fill="black"/>
<path d="M94.0172 20.5345L89.5227 52.7918C89.4942 52.9978 89.3907 53.1861 89.232 53.3208C89.0733 53.4554 88.8705 53.5268 88.6624 53.5215L52.6754 52.5892L51.9923 52.5715C51.8734 52.5687 51.7563 52.5408 51.6489 52.4898C51.5414 52.4388 51.446 52.3657 51.3687 52.2753C51.2914 52.1849 51.2341 52.0793 51.2004 51.9652C51.1668 51.8512 51.1575 51.7314 51.1733 51.6136L56.219 17.8457C56.2515 17.6366 56.3614 17.4472 56.5268 17.315C56.6923 17.1828 56.9014 17.1174 57.1128 17.1318L93.2297 19.5747C93.3462 19.5814 93.4601 19.6122 93.5641 19.6651C93.6681 19.7181 93.76 19.7919 93.834 19.8821C93.908 19.9723 93.9625 20.0769 93.994 20.1891C94.0255 20.3014 94.0334 20.419 94.0172 20.5345Z" fill="#65617D"/>
<path d="M58.6346 19.5038L54.8292 49.269L87.9026 50.3173L91.9698 21.6005L58.6346 19.5038Z" fill="#00B0FF"/>
<path d="M138.958 19.0436H100.764C100.184 19.0436 99.7145 19.5129 99.7145 20.0919V52.0876C99.7145 52.6666 100.184 53.1359 100.764 53.1359H138.958C139.537 53.1359 140.007 52.6666 140.007 52.0876V20.0919C140.007 19.5129 139.537 19.0436 138.958 19.0436Z" fill="#65617D"/>
<path d="M138.233 21.339H101.616V49.7273H138.233V21.339Z" fill="#00B0FF"/>
<path opacity="0.1" d="M170.06 51.6942V52.4397L166.32 52.5164V51.6942H170.06Z" fill="black"/>
<path d="M186.938 51.0648C186.943 51.1463 186.932 51.228 186.905 51.3051C186.878 51.3822 186.835 51.4529 186.78 51.5132C186.725 51.5735 186.658 51.622 186.584 51.6558C186.509 51.6896 186.429 51.708 186.347 51.71L149.494 52.4712C149.341 52.4743 149.192 52.4195 149.078 52.3177C148.964 52.2159 148.892 52.0747 148.878 51.9224L145.71 19.02C145.702 18.9384 145.711 18.856 145.736 18.7779C145.761 18.6998 145.802 18.6275 145.855 18.5656C145.909 18.5036 145.975 18.4532 146.049 18.4173C146.123 18.3815 146.203 18.361 146.285 18.3572L182.859 16.5397L183.252 16.5201C183.409 16.5118 183.563 16.5647 183.681 16.6674C183.799 16.7702 183.873 16.9148 183.886 17.0708L186.938 51.0648Z" fill="#65617D"/>
<path d="M147.815 20.2906L181.217 18.6502L184.038 48.5472L150.9 49.3339L147.815 20.2906Z" fill="#00B0FF"/>
<path opacity="0.1" d="M186.938 51.0648C186.943 51.1463 186.932 51.228 186.905 51.3051C186.878 51.3821 186.835 51.4529 186.78 51.5132C186.725 51.5734 186.658 51.6219 186.584 51.6558C186.509 51.6896 186.429 51.708 186.347 51.71L182.859 16.5397L183.252 16.5201C183.409 16.5118 183.562 16.5647 183.681 16.6674C183.799 16.7702 183.873 16.9148 183.886 17.0708L186.938 51.0648Z" fill="black"/>
<path opacity="0.1" d="M57.1187 17.1298L52.6754 52.5891L51.9923 52.5714C51.8734 52.5686 51.7563 52.5408 51.6489 52.4898C51.5414 52.4387 51.446 52.3656 51.3687 52.2752C51.2914 52.1849 51.2341 52.0792 51.2004 51.9652C51.1668 51.8512 51.1575 51.7314 51.1733 51.6136L56.219 17.8457C56.2511 17.6351 56.3617 17.4444 56.5285 17.3117C56.6952 17.1789 56.906 17.114 57.1187 17.1298Z" fill="black"/>
<path opacity="0.1" d="M69.3972 60.2679H65.6567V63.6274H69.3972V60.2679Z" fill="black"/>
<path opacity="0.1" d="M82.6856 95.1294V96.1069L73.3995 96.3548V95.1294H82.6856Z" fill="black"/>
<path d="M99.0747 61.4382V94.5216C99.0723 94.7235 98.9923 94.9168 98.8512 95.0615C98.7101 95.2061 98.5187 95.291 98.3167 95.2985L60.5874 96.3016H60.5776C60.3722 96.2991 60.1759 96.2164 60.0306 96.0713C59.8853 95.9261 59.8025 95.73 59.8 95.5247V61.4382C59.8025 61.233 59.8853 61.0368 60.0306 60.8917C60.1759 60.7465 60.3722 60.6639 60.5776 60.6613H98.297C98.5025 60.6639 98.6988 60.7465 98.8441 60.8917C98.9894 61.0368 99.0721 61.233 99.0747 61.4382Z" fill="#65617D"/>
<path opacity="0.1" d="M60.5875 60.6613V96.3016H60.5776C60.3722 96.2991 60.1759 96.2164 60.0306 96.0713C59.8853 95.9261 59.8025 95.73 59.8 95.5247V61.4382C59.8025 61.233 59.8853 61.0368 60.0306 60.8917C60.1759 60.7465 60.3722 60.6639 60.5776 60.6613H60.5875Z" fill="black"/>
<path d="M62.3101 62.7737H97.2537V91.9331L62.3101 92.7199V62.7737Z" fill="#D4DFEC"/>
<path opacity="0.1" d="M170.06 60.2679H166.32V63.6943H170.06V60.2679Z" fill="black"/>
<path opacity="0.1" d="M166.944 95.1294V96.3902L157.658 96.1423V95.1294H166.944Z" fill="black"/>
<path d="M179.199 61.4382V95.5247C179.196 95.7317 179.112 95.9293 178.965 96.0747C178.817 96.2201 178.619 96.3017 178.411 96.3016L140.674 95.2985C140.472 95.291 140.281 95.2061 140.14 95.0615C139.999 94.9168 139.919 94.7235 139.916 94.5216V61.4382C139.919 61.233 140.002 61.0368 140.147 60.8917C140.292 60.7465 140.489 60.6639 140.694 60.6613H178.413C178.62 60.6618 178.819 60.7436 178.966 60.889C179.113 61.0343 179.196 61.2316 179.199 61.4382Z" fill="#65617D"/>
<path opacity="0.1" d="M179.199 61.4382V95.5247C179.196 95.7317 179.112 95.9293 178.965 96.0747C178.817 96.2201 178.619 96.3017 178.411 96.3016V60.6613C178.619 60.6613 178.817 60.7428 178.965 60.8883C179.112 61.0337 179.196 61.2313 179.199 61.4382Z" fill="black"/>
<path d="M176.689 62.7737H141.745V91.9331L176.689 92.7199V62.7737Z" fill="#D4DFEC"/>
<path d="M138.94 61.4382V94.5216C138.938 94.7235 138.858 94.9168 138.716 95.0615C138.575 95.2061 138.384 95.291 138.182 95.2985L100.453 96.3016C100.246 96.3017 100.047 96.2201 99.8994 96.0747C99.752 95.9293 99.6679 95.7317 99.6653 95.5247V61.4382C99.6678 61.233 99.7506 61.0368 99.8959 60.8917C100.041 60.7465 100.237 60.6639 100.443 60.6613H138.162C138.368 60.6639 138.564 60.7465 138.709 60.8917C138.855 61.0368 138.937 61.233 138.94 61.4382Z" fill="#65617D"/>
<path d="M102.175 62.7737H137.119V91.9331L102.175 92.7199V62.7737Z" fill="#D4DFEC"/>
<path opacity="0.1" d="M193.915 104.964V107.521L164.007 107.796L163.688 107.802L152.321 107.906L152.049 107.91L148.594 107.94H148.492L127.431 108.135L92.8596 108.455H92.8301L84.0401 108.538L83.9456 108.54L44.8875 108.898V105.947L84.7547 105.686H84.8492L92.9187 105.631H92.9561L148.685 105.263H148.742L148.775 105.261H148.868L149.811 105.255H150.098L164.763 105.157L165.629 105.153L165.822 105.151L193.915 104.964Z" fill="black"/>
<path d="M119.925 63.6274C125.506 63.6274 130.03 59.1073 130.03 53.5313C130.03 47.9554 125.506 43.4352 119.925 43.4352C114.344 43.4352 109.82 47.9554 109.82 53.5313C109.82 59.1073 114.344 63.6274 119.925 63.6274Z" fill="#FBBEBE"/>
<path d="M130.032 74.1839C130.032 74.1839 110.444 76.5442 112.314 74.1839C112.991 73.3302 113.178 70.8008 113.141 67.9193C113.129 67.044 113.097 66.1372 113.052 65.2344C112.836 60.9072 112.314 56.6784 112.314 56.6784C112.314 56.6784 129.441 48.6141 127.472 55.0065C126.685 57.5891 126.943 61.216 127.541 64.6208C127.717 65.6141 127.919 66.5877 128.132 67.5121C128.651 69.767 129.285 71.9938 130.032 74.1839Z" fill="#FBBEBE"/>
<path opacity="0.1" d="M130.032 74.1839C130.032 74.1839 110.444 76.5441 112.314 74.1839C112.991 73.3302 113.178 70.8008 113.141 67.9193C116.127 66.6447 119.927 67.5947 119.927 67.5947C123.927 66.7981 126.492 66.9535 128.132 67.5121C128.651 69.767 129.285 71.9938 130.032 74.1839Z" fill="black"/>
<path d="M92.8517 108.677V108.512L127.425 108.137L148.49 107.94H148.549L148.527 108.231L148.557 107.94H148.594V107.906L148.864 105.261L148.966 104.26L148.998 103.947L149.025 103.685L150.242 99.6317L151.459 95.5838L152.482 92.1751L154.045 86.9668C154.045 86.9668 153.159 84.9015 152.667 84.3114C152.175 83.7214 151.683 79.6892 151.683 79.6892C151.683 79.6892 147.482 75.6905 145.645 75.2302C144.875 75.0336 143.356 74.772 141.741 74.4435C141.137 74.3215 140.517 74.1917 139.92 74.0501C139.584 73.9734 139.253 73.8927 138.936 73.8121C138.319 73.6582 137.711 73.4704 137.115 73.2496C136.802 73.1361 136.505 72.9848 136.229 72.7991C134.782 71.739 131.156 71.619 131.016 71.619C131.016 71.6144 131.016 71.6098 131.016 71.6052V71.5875C131.021 71.505 131.021 71.4222 131.016 71.3397C131.016 71.261 131.016 71.1686 130.998 71.0643C130.998 71.0329 130.998 70.9994 130.985 70.966C130.975 70.8952 130.963 70.8204 130.945 70.7418C130.939 70.7066 130.931 70.6718 130.922 70.6375C130.865 70.4005 130.782 70.1704 130.675 69.9511C130.662 69.9196 130.644 69.8862 130.628 69.8547C130.532 69.673 130.42 69.4999 130.294 69.3374C130.268 69.304 130.24 69.2685 130.211 69.2351C130.05 69.0451 129.87 68.8712 129.675 68.7159C129.622 68.6745 129.567 68.6313 129.51 68.5919C129.478 68.5661 129.445 68.5425 129.41 68.5211L129.234 68.407L129.071 68.3126C128.927 68.234 128.776 68.1572 128.61 68.0845C128.559 68.0609 128.504 68.0392 128.449 68.0176C128.394 67.996 128.307 67.9625 128.234 67.935H128.223L128.075 67.876C127.963 67.8386 127.848 67.8052 127.728 67.7717L127.545 67.7245L127.348 67.6793L127.152 67.638C126.955 67.5986 126.744 67.5632 126.524 67.5357L126.299 67.5082L126.069 67.4846L125.831 67.4649L125.492 67.4452L125.098 67.4315C123.362 67.4313 121.63 67.6153 119.933 67.9802C118.753 67.718 117.545 67.607 116.338 67.6498H116.166L115.97 67.6616H115.844L115.59 67.6852C115.505 67.6852 115.418 67.7029 115.334 67.7147C115.249 67.7265 115.161 67.7363 115.076 67.7501L114.946 67.7717C114.818 67.7934 114.688 67.817 114.552 67.8445C114.509 67.8524 114.466 67.8622 114.422 67.874C114.251 67.9114 114.08 67.9566 113.91 68.0078C113.826 68.0314 113.741 68.0589 113.656 68.0884C113.613 68.1002 113.572 68.1159 113.53 68.1317L113.404 68.1769L113.28 68.2261L113.133 68.2851C113.058 68.3166 112.985 68.35 112.912 68.3854C112.871 68.4031 112.83 68.4228 112.79 68.4444C112.751 68.4661 112.71 68.4838 112.672 68.5054C112.227 68.7352 111.816 69.0251 111.45 69.3669L111.349 69.4633L111.251 69.5636C111.217 69.597 111.186 69.6324 111.154 69.6678C111.026 69.808 110.906 69.9557 110.796 70.1104C110.765 70.1517 110.735 70.193 110.705 70.2363C110.581 70.4204 110.467 70.6122 110.367 70.8106C110.341 70.8578 110.318 70.907 110.294 70.9542C110.133 71.2865 110.002 71.632 109.9 71.9868C109.864 72.1179 109.83 72.2491 109.8 72.3802C109.8 72.3802 105.632 74.2173 102.175 75.5469C101.256 75.901 100.39 76.2216 99.6652 76.4635C99.4546 76.5343 99.2577 76.5992 99.0746 76.6602C98.6774 76.8036 98.2643 76.8987 97.8442 76.9434C97.6462 76.9467 97.4488 76.9651 97.2536 76.9985C95.6649 77.2562 92.9423 78.3753 92.645 79.4984C92.6209 79.5881 92.6142 79.6816 92.6253 79.7738C92.6253 79.7738 92.6253 79.7876 92.6253 79.7954C92.8222 81.1723 91.4441 80.9756 91.4441 80.9756C91.4441 80.9756 90.952 84.6143 90.2629 85.5978C89.7649 86.3059 89.4243 87.8853 89.381 89.0772C89.3562 89.4486 89.3854 89.8216 89.4676 90.1846C89.4676 90.1944 89.4676 90.2043 89.4676 90.2122C89.5464 90.4757 89.3574 91.1956 89.0365 92.1181C88.688 93.131 88.1801 94.3899 87.6919 95.5779C86.9556 97.3717 86.2626 99.0003 86.2193 99.3583C86.2016 99.5176 86.1504 99.8028 86.0795 100.171C85.7921 101.669 85.1543 104.523 84.8393 105.678C84.605 106.539 84.2644 107.72 84.0302 108.53C84.0302 108.554 84.0164 108.577 84.0105 108.599L92.836 108.512V108.677H92.8635H92.8517Z" fill="#00B0FF"/>
<path opacity="0.1" d="M96.0724 85.4935C96.0724 85.4935 107.294 91.2958 111.33 90.6074L96.0724 85.4935Z" fill="black"/>
<path opacity="0.1" d="M118.909 83.1332C118.909 83.1332 129.835 86.6736 133.477 87.1653C137.119 87.6571 118.909 83.1332 118.909 83.1332Z" fill="black"/>
<path opacity="0.1" d="M131.028 71.7409C125.319 72.7912 114.57 72.565 109.924 72.4057C111.627 66.3083 119.931 68.3814 119.931 68.3814C130.209 66.3319 130.996 70.5844 131.028 71.7409Z" fill="black"/>
<path d="M131.028 71.3475C125.319 72.3979 114.57 72.1717 109.924 72.0124C111.627 65.9149 119.931 67.9881 119.931 67.9881C130.209 65.9385 130.996 70.191 131.028 71.3475Z" fill="#00B0FF"/>
<path d="M161.333 98.2292C161.333 98.2292 168.058 97.1966 168.19 100.147C168.322 103.097 164.761 105.159 164.761 105.159L161.333 98.2292Z" fill="#FBBEBE"/>
<path opacity="0.1" d="M127.541 64.6208C127.252 64.7499 126.956 64.8642 126.656 64.963C124.533 65.6947 122.393 66.4323 120.159 66.6998C117.925 66.9673 115.58 66.7313 113.631 65.618C113.426 65.5025 113.229 65.3744 113.04 65.2344C112.824 60.9072 112.302 56.6784 112.302 56.6784C112.302 56.6784 129.429 48.6141 127.461 55.0065C126.677 57.5891 126.943 61.2161 127.541 64.6208Z" fill="black"/>
<path d="M117.153 37.7508C116.872 37.825 116.577 37.8325 116.293 37.7727C116.009 37.713 115.742 37.5876 115.515 37.4066L115.924 37.9751C115.683 38.0029 115.439 37.9777 115.208 37.9013C114.977 37.8248 114.766 37.699 114.59 37.5325C114.553 38.0414 114.574 38.5528 114.653 39.0569C113.975 39.0895 113.308 38.8804 112.771 38.4668C112.76 38.6442 112.804 38.8206 112.897 38.9722C112.99 39.1238 113.127 39.2433 113.29 39.3145C112.61 39.2333 111.923 39.4023 111.358 39.7899C110.793 40.1775 110.388 40.7573 110.219 41.4211L111.247 41.5155C110.439 41.6878 109.714 42.1297 109.192 42.7684C108.877 43.1618 108.636 43.6653 108.774 44.1453C108.912 44.6252 109.577 44.932 109.94 44.5898C109.424 45.2042 109.05 45.9239 108.842 46.6982C108.635 47.4726 108.6 48.2829 108.739 49.0724C108.832 49.4088 108.863 49.7595 108.829 50.107C108.764 50.4315 108.56 50.7128 108.457 51.0294C108.26 51.6038 108.447 52.2273 108.623 52.7996L109.546 55.8326C109.881 56.9282 110.213 58.0257 110.65 59.0859C110.96 59.7562 111.223 60.4468 111.438 61.1531C111.686 62.1051 111.696 63.1475 112.225 63.9795C112.588 64.5031 113.073 64.9305 113.639 65.2246C115.586 66.3379 117.938 66.5739 120.167 66.3064C122.395 66.0389 124.533 65.3013 126.654 64.5696C127.125 64.4279 127.577 64.2297 128 63.9795C129.467 63.0197 129.794 61.0567 130.067 59.3278C130.372 57.4002 130.78 55.4766 131.502 53.6631C131.932 52.5833 132.487 51.4877 132.392 50.3312C132.272 48.795 131.055 47.55 130.754 46.0394C130.653 45.5345 130.658 45.0141 130.768 44.5111C130.861 44.2114 130.914 43.9004 130.924 43.5867C130.89 42.9533 130.37 42.4655 129.882 42.0584C128.823 41.1746 127.73 40.3393 126.602 39.5525C126.545 39.1592 127.081 38.99 127.323 38.6792C127.665 38.2406 127.311 37.5443 126.791 37.3398C126.272 37.1352 125.689 37.269 125.148 37.4047C125.183 37.1278 125.128 36.847 124.99 36.6039C124.853 36.3609 124.641 36.1686 124.385 36.0556C124.13 35.9427 123.845 35.9152 123.573 35.9772C123.3 36.0391 123.055 36.1873 122.874 36.3996C122.73 36.0702 122.5 35.7854 122.209 35.5751C121.917 35.3647 121.574 35.2365 121.216 35.2037C119.911 35.1014 119.885 36.0987 119.051 36.6474C118.216 37.1962 117.527 36.4724 116.885 35.9452C116.767 36.2432 116.73 36.5669 116.777 36.8839C116.824 37.2008 116.954 37.4998 117.153 37.7508Z" fill="#3F3D56"/>
<path d="M166.32 104.13C166.32 104.13 166.145 104.547 165.822 105.151C165.334 106.08 164.739 106.949 164.05 107.741L163.997 107.798H163.678L152.311 107.902H152.039L152.006 107.863L149.801 105.249L148.97 104.264L148.937 104.222L148.866 104.14L148.827 104.093L148.775 104.032L147.159 102.116L147.75 99.6572L148.756 95.5149L148.781 95.4146L148.978 94.6278L149.118 94.0378L149.586 92.1141L151.193 85.4955L154.047 86.9707L157.057 92.2813L158.674 95.1333H159.56C159.727 95.1333 160.111 95.4559 160.497 95.8276C160.634 95.9594 160.772 96.0991 160.89 96.221C161.241 96.5829 161.518 96.8937 161.518 96.8937C161.518 96.8937 162.954 96.9252 163.339 98.0542C163.359 98.1088 163.376 98.1647 163.389 98.2214C163.517 98.6651 163.683 99.0969 163.887 99.5117C164.141 100.064 164.46 100.692 164.782 101.319C165.383 102.47 165.993 103.565 166.218 103.963L166.245 104.012L166.32 104.13Z" fill="#00B0FF"/>
<path opacity="0.1" d="M149.409 95.2494L149.39 95.5306V95.5503L149.356 96.0027L149.094 99.6434L148.777 104.03L148.687 105.265L148.49 107.908V107.942L127.425 108.138L92.8576 108.512V108.677H92.8301V108.512V108.457L92.9187 105.633L93.088 100.114L93.2337 95.4343L93.2474 94.9681C93.256 94.6867 93.322 94.4101 93.4412 94.155C93.5604 93.9 93.7304 93.6719 93.9408 93.4847C94.1512 93.2975 94.3976 93.1551 94.6649 93.0662C94.9323 92.9773 95.2149 92.9438 95.4956 92.9678C96.4248 93.0464 97.6316 93.1428 99.0747 93.2451L99.6653 93.2884C107.999 93.8666 123.399 94.6141 138.94 93.6817C139.267 93.664 139.596 93.6444 139.924 93.6208C142.334 93.4693 144.742 93.2746 147.126 93.0307C147.427 92.9992 147.732 93.034 148.018 93.1328C148.305 93.2316 148.566 93.3919 148.784 93.6025C149.001 93.8131 149.17 94.0688 149.278 94.3516C149.386 94.6345 149.431 94.9376 149.409 95.2395V95.2494Z" fill="black"/>
<path d="M92.8517 108.677V108.512L127.425 108.137L148.49 107.94H148.549V107.906L148.746 105.263L148.83 104.083L149.153 99.6356L149.407 96.1148V96.0283C149.419 95.8661 149.412 95.703 149.386 95.5425C149.387 95.536 149.387 95.5293 149.386 95.5228C149.332 95.1909 149.196 94.8774 148.992 94.6102C148.775 94.3324 148.491 94.1145 148.167 93.9768C147.842 93.8392 147.488 93.7864 147.137 93.8234C144.753 94.0673 142.346 94.262 139.936 94.4135C139.607 94.4371 139.279 94.4567 138.952 94.4744C123.411 95.3969 108.01 94.6495 99.6771 94.0811L99.0865 94.0378C97.6435 93.9355 96.4367 93.8411 95.5075 93.7605C94.9963 93.7174 94.4873 93.865 94.0786 94.1748C93.67 94.4847 93.3907 94.9348 93.2947 95.4382C93.2748 95.5447 93.263 95.6525 93.2593 95.7608L93.1254 100.119L92.9423 105.641L92.8557 108.465V108.52V108.685L92.8517 108.677Z" fill="#3F3D56"/>
<path opacity="0.1" d="M149.468 96.6281L149.226 99.6434L148.866 104.138L148.775 105.263L148.579 107.782L148.567 107.908V107.942L148.537 108.233L148.559 107.942H148.502L127.437 108.138L92.8577 108.512V108.457L92.9541 105.633L93.151 100.113L93.277 96.4452C93.2832 96.2365 93.3416 96.0327 93.4468 95.8524C93.552 95.672 93.7007 95.5208 93.8794 95.4126C94.1023 95.2761 94.363 95.2141 94.6236 95.2356C95.037 95.269 95.5449 95.3083 96.1374 95.3516C97.1001 95.4224 98.2872 95.505 99.6692 95.5916C102.228 95.7528 105.439 95.9259 109.119 96.0676C119.356 96.4609 133.176 96.5927 146.303 95.444C146.893 95.3929 147.504 95.3359 148.1 95.2788C148.336 95.2553 148.574 95.3004 148.785 95.4086C148.845 95.4384 148.902 95.474 148.955 95.5149C149.126 95.6389 149.262 95.8058 149.348 95.9987C149.368 96.0371 149.385 96.0773 149.397 96.1187C149.457 96.2817 149.481 96.4552 149.468 96.6281Z" fill="black"/>
<path opacity="0.1" d="M82.6856 99.3209V99.9484C82.6857 100.177 82.621 100.4 82.4991 100.593C82.3771 100.786 82.2029 100.94 81.9966 101.038L74.1023 101.189C73.8924 101.093 73.7145 100.939 73.5899 100.745C73.4653 100.551 73.3992 100.325 73.3995 100.094V99.5038L82.6856 99.3209Z" fill="black"/>
<path d="M82.784 101.408L72.4978 101.604V99.8991L82.784 99.7024V101.408Z" fill="#3F3D56"/>
<path opacity="0.1" d="M82.784 101.408L72.4978 101.604V99.8991L82.784 99.7024V101.408Z" fill="black"/>
<path d="M83.1778 101.408L72.8915 101.604V99.8991L83.1778 99.7024V101.408Z" fill="#3F3D56"/>
<g opacity="0.1">
<path opacity="0.1" d="M117.234 37.1057C117.041 36.856 116.913 36.5628 116.862 36.252C116.814 36.5558 116.842 36.8666 116.944 37.1568C117.042 37.1478 117.139 37.1307 117.234 37.1057Z" fill="black"/>
<path opacity="0.1" d="M114.733 38.4117C114.696 38.1706 114.672 37.9277 114.661 37.684C114.661 37.9259 114.661 38.1698 114.661 38.4137L114.733 38.4117Z" fill="black"/>
<path opacity="0.1" d="M130.778 44.9753C130.789 44.8 130.813 44.6258 130.849 44.454C130.942 44.1549 130.995 43.8447 131.006 43.5316C131.002 43.4613 130.991 43.3915 130.975 43.3231C130.941 43.504 130.888 43.685 130.849 43.864C130.77 44.2288 130.746 44.6034 130.778 44.9753Z" fill="black"/>
<path opacity="0.1" d="M126.683 38.8975L126.898 39.0529C127.079 38.9221 127.248 38.776 127.404 38.6162C127.478 38.5139 127.524 38.3939 127.537 38.2682C127.55 38.1426 127.53 38.0157 127.478 37.9003C127.459 37.9452 127.434 37.9875 127.404 38.0261C127.162 38.3369 126.626 38.508 126.683 38.8975Z" fill="black"/>
<path opacity="0.1" d="M110.507 40.7897C110.435 40.9331 110.377 41.0833 110.335 41.2381C110.643 41.0664 110.975 40.9411 111.32 40.8664L110.507 40.7897Z" fill="black"/>
<path opacity="0.1" d="M113.221 38.6496C113.092 38.5785 112.968 38.4976 112.851 38.4077C112.846 38.4855 112.852 38.5636 112.869 38.6398C112.987 38.6342 113.104 38.6375 113.221 38.6496Z" fill="black"/>
<path opacity="0.1" d="M132.469 50.2386C132.388 51.1926 131.943 52.1111 131.583 53.0159C130.861 54.8294 130.453 56.753 130.148 58.6826C129.874 60.4115 129.557 62.3745 128.081 63.3323C127.659 63.5842 127.207 63.7824 126.736 63.9224C124.614 64.6561 122.474 65.3917 120.24 65.6592C118.005 65.9267 115.661 65.6926 113.712 64.5794C113.147 64.2848 112.662 63.8575 112.298 63.3343C111.773 62.5023 111.763 61.4598 111.511 60.5079C111.296 59.801 111.033 59.1096 110.723 58.4387C110.288 57.3805 109.953 56.2751 109.621 55.1874C109.312 54.1764 109.005 53.1647 108.697 52.1524C108.596 51.8479 108.521 51.5354 108.473 51.2182C108.396 51.7217 108.546 52.2488 108.697 52.7425C109.005 53.7561 109.312 54.7678 109.621 55.7775C109.953 56.873 110.288 57.9706 110.723 59.0287C111.033 59.6997 111.296 60.391 111.511 61.0979C111.759 62.0499 111.769 63.0924 112.298 63.9244C112.662 64.4476 113.147 64.8748 113.712 65.1694C115.661 66.2827 118.011 66.5168 120.24 66.2493C122.468 65.9818 124.606 65.2461 126.736 64.5125C127.207 64.3724 127.659 64.1742 128.081 63.9224C129.548 62.9645 129.874 61.0016 130.148 59.2726C130.453 57.3431 130.861 55.4195 131.583 53.606C132.012 52.5281 132.567 51.4326 132.473 50.2741C132.473 50.2623 132.469 50.2504 132.469 50.2386Z" fill="black"/>
<path opacity="0.1" d="M108.906 49.4775C108.906 49.4775 108.906 49.4637 108.906 49.4558C108.942 49.109 108.911 48.7586 108.816 48.4232C108.776 48.2074 108.751 47.9893 108.739 47.7702C108.716 48.1861 108.742 48.6033 108.816 49.0133C108.847 49.1667 108.883 49.3221 108.906 49.4775Z" fill="black"/>
<path opacity="0.1" d="M109.507 44.6664C109.658 44.4123 109.83 44.1709 110.02 43.9446C109.66 44.2888 108.995 43.9819 108.855 43.504C108.803 43.6973 108.803 43.9007 108.855 44.094C108.903 44.2384 108.989 44.3673 109.104 44.4678C109.218 44.5684 109.357 44.6369 109.507 44.6664Z" fill="black"/>
</g>
<path opacity="0.1" d="M158.676 95.1313C158.676 95.1313 159.3 97.3933 158.676 99.3602C158.052 101.327 158.676 95.1313 158.676 95.1313Z" fill="black"/>
<path opacity="0.1" d="M161.333 97.4385C161.333 97.4385 161.595 100.31 161.005 100.82C160.414 101.329 161.333 97.4385 161.333 97.4385Z" fill="black"/>
<path d="M63.1743 67.4373L83.1778 67.2406" stroke="#00B0FF" stroke-width="2" stroke-miterlimit="10"/>
<path d="M63.1743 69.8901L83.1778 69.6954" stroke="#00B0FF" stroke-width="2" stroke-miterlimit="10"/>
<path d="M63.1743 72.3447L83.1778 72.148" stroke="#00B0FF" stroke-width="2" stroke-miterlimit="10"/>
</g>
<defs>
<clipPath id="clip0">
<rect width="205" height="109" fill="white" transform="translate(24)"/>
</clipPath>
</defs>
</svg>
