<svg width="251" height="140" viewBox="0 0 251 140" fill="none" xmlns="http://www.w3.org/2000/svg">
<path fill-rule="evenodd" clip-rule="evenodd" d="M0 99.4556C0 94.6486 3.42017 90.5217 8.14357 89.6294L10.4583 89.192C20.9167 87.2162 41.8333 83.1233 62.75 89.192C83.6667 95.2608 104.583 111.491 125.5 115.584C146.417 119.677 167.333 111.491 188.25 107.539C209.167 103.447 230.083 103.447 240.542 103.447H241C246.523 103.447 251 107.924 251 113.447V130C251 135.523 246.523 140 241 140H240.542C230.083 140 209.167 140 188.25 140C167.333 140 146.417 140 125.5 140C104.583 140 83.6667 140 62.75 140C41.8333 140 20.9167 140 10.4583 140H10C4.47715 140 0 135.523 0 130V99.4556Z" fill="#1F4F9E"/>
<path fill-rule="evenodd" clip-rule="evenodd" d="M0 107.855C0 102.933 3.58224 98.7426 8.44476 97.9771L10.4583 97.66C20.9167 96.0135 41.8333 92.6028 62.75 97.66C83.6667 102.717 104.583 116.243 125.5 119.653C146.417 123.064 167.333 116.243 188.25 112.949C209.167 109.539 230.083 109.539 240.542 109.539H241C246.523 109.539 251 114.016 251 119.539V130C251 135.523 246.523 140 241 140H240.542C230.083 140 209.167 140 188.25 140C167.333 140 146.417 140 125.5 140C104.583 140 83.6667 140 62.75 140C41.8333 140 20.9167 140 10.4583 140H10C4.47715 140 0 135.523 0 130V107.855Z" fill="#2979FF"/>
<g clip-path="url(#clip0)">
<path opacity="0.1" d="M232.827 115.651C232.03 117.606 231.051 119.482 229.902 121.254C229.362 122.099 228.77 122.91 228.13 123.682L228.11 123.705H29.9983L30.0339 123.68C30.2122 123.541 31.2586 122.697 32.8861 121.252C34.0537 120.214 35.5191 118.867 37.1644 117.245C50.6215 104.048 76.4713 72.8081 54.9425 44.1903C34.929 17.5865 56.4774 12.7571 70.692 12.1954C76.1538 11.984 81.6024 12.872 86.7125 14.8065C93.2779 17.295 105.28 21.1113 120.917 22.8586C121.431 22.9167 121.949 22.9724 122.472 23.0257C130.751 23.8656 139.085 24.016 147.389 23.4754C147.634 23.463 147.88 23.4452 148.127 23.4274C156.342 22.8507 164.494 21.5926 172.499 19.6662C173.018 19.54 173.53 19.4209 174.04 19.3107C200.713 13.157 225.303 34.1297 219.156 57.8326C216.881 66.5975 217.459 75.9436 225.039 83.5015C237.437 95.8444 235.927 107.995 232.827 115.651Z" fill="#00B0FF"/>
<path d="M190.689 49.2409C191.364 48.0371 191.164 46.6444 190.242 46.1304C189.32 45.6163 188.025 46.1755 187.35 47.3794C186.675 48.5833 186.875 49.9759 187.797 50.49C188.719 51.004 190.014 50.4448 190.689 49.2409Z" fill="#3F3D56"/>
<path d="M192.182 46.5765C192.857 45.3727 192.657 43.98 191.735 43.466C190.813 42.9519 189.518 43.5111 188.843 44.715C188.168 45.9189 188.368 47.3116 189.291 47.8256C190.213 48.3396 191.507 47.7804 192.182 46.5765Z" fill="#3F3D56"/>
<path d="M193.677 43.913C194.352 42.7091 194.152 41.3165 193.23 40.8024C192.308 40.2884 191.013 40.8476 190.338 42.0514C189.663 43.2553 189.863 44.648 190.785 45.162C191.707 45.6761 193.002 45.1168 193.677 43.913Z" fill="#3F3D56"/>
<path d="M195.17 41.2468C195.845 40.043 195.645 38.6503 194.723 38.1363C193.801 37.6222 192.506 38.1814 191.831 39.3853C191.156 40.5892 191.356 41.9818 192.278 42.4959C193.2 43.0099 194.495 42.4507 195.17 41.2468Z" fill="#3F3D56"/>
<path d="M196.662 38.5839C197.337 37.3801 197.137 35.9874 196.215 35.4734C195.293 34.9593 193.998 35.5185 193.323 36.7224C192.648 37.9263 192.848 39.3189 193.77 39.833C194.692 40.347 195.987 39.7878 196.662 38.5839Z" fill="#3F3D56"/>
<path d="M198.157 35.9195C198.832 34.7156 198.632 33.323 197.71 32.8089C196.788 32.2949 195.493 32.8541 194.818 34.058C194.143 35.2619 194.343 36.6545 195.265 37.1686C196.187 37.6826 197.482 37.1234 198.157 35.9195Z" fill="#3F3D56"/>
<path d="M199.652 33.256C200.327 32.0521 200.126 30.6595 199.204 30.1454C198.282 29.6314 196.988 30.1906 196.313 31.3945C195.638 32.5983 195.838 33.991 196.76 34.505C197.682 35.0191 198.977 34.4599 199.652 33.256Z" fill="#3F3D56"/>
<path d="M214.446 17.5741C214.837 17.4115 215.215 17.2227 215.58 17.0089L211.596 13.8432L216.318 16.5236C217.327 15.7897 218.175 14.8584 218.81 13.7865C219.445 12.7147 219.855 11.5249 220.013 10.2899L211.801 10.034L220.085 9.00482C220.075 7.74475 219.804 6.5003 219.289 5.34966C218.774 4.19902 218.026 3.16706 217.091 2.31862C216.157 1.47017 215.057 0.823585 213.86 0.419478C212.663 0.0153712 211.395 -0.13752 210.136 -0.0295883C208.877 0.0783431 207.653 0.444763 206.543 1.04665C205.433 1.64854 204.46 2.47288 203.684 3.46789C202.909 4.4629 202.348 5.60707 202.037 6.8285C201.727 8.04993 201.673 9.32223 201.879 10.5655C201.271 10.8182 200.692 11.1352 200.152 11.5111L204.196 17.6363L199.264 12.2185C198.132 13.2374 197.273 14.5216 196.765 15.9549C196.257 17.3882 196.115 18.9253 196.353 20.427C194.766 21.0864 193.397 22.1778 192.402 23.5763C191.408 24.9749 190.828 26.6243 190.729 28.3359C190.63 30.0475 191.017 31.7523 191.844 33.2553C192.671 34.7584 193.905 35.9991 195.406 36.8356C196.907 37.6721 198.614 38.0706 200.331 37.9857C202.048 37.9007 203.707 37.3357 205.117 36.3552C206.528 35.3747 207.633 34.0183 208.307 32.441C208.98 30.8637 209.196 29.1291 208.927 27.4357C210.824 26.648 212.4 25.2474 213.403 23.4588C214.405 21.6703 214.775 19.5977 214.453 17.5741H214.446Z" fill="#00B0FF"/>
<path opacity="0.1" d="M197.397 14.5417C196.396 16.3306 196.028 18.4039 196.353 20.427C194.766 21.0864 193.397 22.1777 192.402 23.5763C191.408 24.9749 190.828 26.6243 190.729 28.3359C190.63 30.0475 191.017 31.7522 191.844 33.2553C192.671 34.7584 193.905 35.9991 195.406 36.8356C196.907 37.6721 198.614 38.0706 200.331 37.9857C202.048 37.9007 203.707 37.3357 205.117 36.3552C206.528 35.3747 207.633 34.0182 208.307 32.4409C208.98 30.8636 209.196 29.1291 208.927 27.4357C210.751 26.6767 197.9 13.653 197.397 14.5417Z" fill="black"/>
<path d="M209.293 112.297H211.452C212.634 112.297 213.767 112.765 214.603 113.599C215.439 114.432 215.908 115.562 215.908 116.741V123.337H204.836V116.741C204.836 115.562 205.306 114.432 206.142 113.599C206.977 112.765 208.111 112.297 209.293 112.297Z" fill="#3F3D56"/>
<path opacity="0.1" d="M209.293 112.297H211.452C212.634 112.297 213.767 112.765 214.603 113.599C215.439 114.432 215.908 115.562 215.908 116.741V123.337H204.836V116.741C204.836 115.562 205.306 114.432 206.142 113.599C206.977 112.765 208.111 112.297 209.293 112.297Z" fill="black"/>
<path d="M209.931 114.727C210.42 114.727 210.817 114.331 210.817 113.843C210.817 113.355 210.42 112.96 209.931 112.96C209.442 112.96 209.045 113.355 209.045 113.843C209.045 114.331 209.442 114.727 209.931 114.727Z" fill="#3F3D56"/>
<path d="M209.931 113.623C210.42 113.623 210.817 113.227 210.817 112.74C210.817 112.252 210.42 111.856 209.931 111.856C209.442 111.856 209.045 112.252 209.045 112.74C209.045 113.227 209.442 113.623 209.931 113.623Z" fill="#3F3D56"/>
<path d="M209.931 112.517C210.42 112.517 210.817 112.122 210.817 111.634C210.817 111.146 210.42 110.751 209.931 110.751C209.442 110.751 209.045 111.146 209.045 111.634C209.045 112.122 209.442 112.517 209.931 112.517Z" fill="#3F3D56"/>
<path d="M209.931 111.414C210.42 111.414 210.817 111.018 210.817 110.53C210.817 110.042 210.42 109.647 209.931 109.647C209.442 109.647 209.045 110.042 209.045 110.53C209.045 111.018 209.442 111.414 209.931 111.414Z" fill="#3F3D56"/>
<path d="M209.931 110.31C210.42 110.31 210.817 109.914 210.817 109.426C210.817 108.938 210.42 108.543 209.931 108.543C209.442 108.543 209.045 108.938 209.045 109.426C209.045 109.914 209.442 110.31 209.931 110.31Z" fill="#3F3D56"/>
<path d="M209.931 109.206C210.42 109.206 210.817 108.81 210.817 108.322C210.817 107.835 210.42 107.439 209.931 107.439C209.442 107.439 209.045 107.835 209.045 108.322C209.045 108.81 209.442 109.206 209.931 109.206Z" fill="#3F3D56"/>
<path d="M209.931 108.102C210.42 108.102 210.817 107.707 210.817 107.219C210.817 106.731 210.42 106.335 209.931 106.335C209.442 106.335 209.045 106.731 209.045 107.219C209.045 107.707 209.442 108.102 209.931 108.102Z" fill="#3F3D56"/>
<path d="M211.259 108.543C211.748 108.543 212.145 108.147 212.145 107.659C212.145 107.172 211.748 106.776 211.259 106.776C210.77 106.776 210.373 107.172 210.373 107.659C210.373 108.147 210.77 108.543 211.259 108.543Z" fill="#3F3D56"/>
<path d="M212.145 108.102C212.634 108.102 213.031 107.707 213.031 107.219C213.031 106.731 212.634 106.335 212.145 106.335C211.656 106.335 211.259 106.731 211.259 107.219C211.259 107.707 211.656 108.102 212.145 108.102Z" fill="#3F3D56"/>
<path d="M213.031 107.659C213.52 107.659 213.917 107.264 213.917 106.776C213.917 106.288 213.52 105.893 213.031 105.893C212.542 105.893 212.145 106.288 212.145 106.776C212.145 107.264 212.542 107.659 213.031 107.659Z" fill="#3F3D56"/>
<path d="M209.931 106.998C210.42 106.998 210.817 106.603 210.817 106.115C210.817 105.627 210.42 105.231 209.931 105.231C209.442 105.231 209.045 105.627 209.045 106.115C209.045 106.603 209.442 106.998 209.931 106.998Z" fill="#3F3D56"/>
<path d="M209.931 105.894C210.42 105.894 210.817 105.499 210.817 105.011C210.817 104.523 210.42 104.128 209.931 104.128C209.442 104.128 209.045 104.523 209.045 105.011C209.045 105.499 209.442 105.894 209.931 105.894Z" fill="#3F3D56"/>
<path d="M209.931 104.789C210.42 104.789 210.817 104.393 210.817 103.905C210.817 103.417 210.42 103.022 209.931 103.022C209.442 103.022 209.045 103.417 209.045 103.905C209.045 104.393 209.442 104.789 209.931 104.789Z" fill="#3F3D56"/>
<path d="M209.931 103.685C210.42 103.685 210.817 103.289 210.817 102.802C210.817 102.314 210.42 101.918 209.931 101.918C209.442 101.918 209.045 102.314 209.045 102.802C209.045 103.289 209.442 103.685 209.931 103.685Z" fill="#3F3D56"/>
<path d="M213.603 99.954C213.383 99.986 213.162 100.009 212.94 100.023C213.146 99.8445 213.336 99.6496 213.51 99.4403C213.388 99.0691 213.207 98.7194 212.976 98.404C212.756 98.5271 212.513 98.6039 212.263 98.6298C212.043 98.6617 211.822 98.6849 211.601 98.6991C211.899 98.4177 212.181 98.121 212.448 97.8103C211.809 97.2328 210.99 96.8918 210.129 96.8444C209.268 96.7971 208.417 97.0463 207.718 97.5502C207.019 98.0542 206.515 98.7824 206.29 99.6127C206.066 100.443 206.134 101.325 206.484 102.111C206.834 102.897 207.444 103.539 208.213 103.93C208.981 104.321 209.861 104.437 210.704 104.258C211.548 104.079 212.304 103.616 212.847 102.948C213.389 102.279 213.684 101.445 213.683 100.585C213.683 100.369 213.664 100.153 213.626 99.9398L213.603 99.954Z" fill="#00B0FF"/>
<path d="M216.562 104.343C216.336 104.481 216.081 104.566 215.817 104.592C215.598 104.623 215.377 104.647 215.156 104.661C215.391 104.451 215.61 104.224 215.812 103.982C215.627 103.933 215.436 103.908 215.245 103.907C214.718 103.906 214.207 104.093 213.805 104.433C213.404 104.773 213.136 105.245 213.052 105.764C212.967 106.283 213.071 106.815 213.344 107.264C213.618 107.714 214.043 108.052 214.543 108.217C215.043 108.383 215.587 108.365 216.075 108.167C216.564 107.969 216.965 107.604 217.209 107.138C217.452 106.672 217.52 106.134 217.402 105.622C217.283 105.109 216.986 104.656 216.562 104.343Z" fill="#00B0FF"/>
<path d="M208.601 108.543C209.09 108.543 209.487 108.147 209.487 107.659C209.487 107.172 209.09 106.776 208.601 106.776C208.112 106.776 207.715 107.172 207.715 107.659C207.715 108.147 208.112 108.543 208.601 108.543Z" fill="#3F3D56"/>
<path d="M207.715 108.102C208.204 108.102 208.601 107.707 208.601 107.219C208.601 106.731 208.204 106.335 207.715 106.335C207.226 106.335 206.829 106.731 206.829 107.219C206.829 107.707 207.226 108.102 207.715 108.102Z" fill="#3F3D56"/>
<path d="M206.831 107.659C207.32 107.659 207.717 107.264 207.717 106.776C207.717 106.288 207.32 105.893 206.831 105.893C206.342 105.893 205.945 106.288 205.945 106.776C205.945 107.264 206.342 107.659 206.831 107.659Z" fill="#3F3D56"/>
<path d="M203.305 104.343C203.531 104.481 203.786 104.566 204.05 104.592C204.269 104.623 204.49 104.647 204.711 104.661C204.477 104.451 204.257 104.224 204.055 103.982C204.241 103.933 204.431 103.908 204.622 103.907C205.15 103.906 205.66 104.093 206.062 104.433C206.464 104.773 206.731 105.245 206.815 105.764C206.9 106.283 206.796 106.815 206.523 107.264C206.25 107.714 205.825 108.052 205.324 108.217C204.824 108.383 204.281 108.365 203.792 108.167C203.304 107.969 202.902 107.604 202.659 107.138C202.416 106.672 202.347 106.134 202.466 105.622C202.584 105.109 202.882 104.656 203.305 104.343Z" fill="#00B0FF"/>
<path d="M209.293 112.96H211.452C212.634 112.96 213.767 113.428 214.603 114.262C215.439 115.095 215.908 116.225 215.908 117.404V123.246C215.908 123.446 215.829 123.638 215.687 123.779C215.545 123.921 215.353 124 215.152 124H205.592C205.392 124 205.199 123.921 205.058 123.779C204.916 123.638 204.836 123.446 204.836 123.246V117.404C204.836 116.225 205.306 115.095 206.142 114.262C206.977 113.428 208.111 112.96 209.293 112.96Z" fill="#3F3D56"/>
<g opacity="0.1">
<path opacity="0.1" d="M213.671 100.196C213.582 100.292 213.486 100.383 213.384 100.466C213.486 100.466 213.587 100.45 213.687 100.439C213.683 100.358 213.68 100.276 213.671 100.196Z" fill="black"/>
<path opacity="0.1" d="M212.056 99.1399C212.277 99.1257 212.498 99.1026 212.717 99.0706C212.916 99.0464 213.11 98.9937 213.293 98.9142C213.202 98.7367 213.099 98.5662 212.983 98.4041C212.872 98.4714 212.752 98.5223 212.626 98.5551C212.452 98.7645 212.261 98.96 212.056 99.1399Z" fill="black"/>
<path opacity="0.1" d="M206.608 101.037C206.607 100.363 206.788 99.7009 207.132 99.1209C207.476 98.541 207.971 98.0643 208.564 97.7411C209.157 97.418 209.827 97.2603 210.502 97.2847C211.177 97.3091 211.834 97.5146 212.402 97.8797L212.459 97.8193C212.088 97.4904 211.656 97.2378 211.187 97.0763C210.718 96.9147 210.221 96.8473 209.726 96.8779C209.23 96.9085 208.746 97.0366 208.301 97.2547C207.855 97.4728 207.457 97.7766 207.13 98.1487C206.803 98.5208 206.553 98.9537 206.394 99.4226C206.236 99.8914 206.172 100.387 206.206 100.881C206.24 101.374 206.372 101.856 206.594 102.299C206.816 102.741 207.124 103.136 207.499 103.459C206.923 102.783 206.607 101.924 206.608 101.037Z" fill="black"/>
</g>
<g opacity="0.1">
<path opacity="0.1" d="M215.156 105.103C215.377 105.087 215.598 105.064 215.817 105.032C216.081 105.008 216.336 104.923 216.562 104.785C216.813 104.969 217.022 105.203 217.175 105.472C217.329 105.742 217.424 106.041 217.454 106.349C217.462 106.272 217.466 106.193 217.466 106.115C217.468 105.77 217.388 105.429 217.233 105.12C217.078 104.811 216.853 104.543 216.575 104.337C216.349 104.476 216.094 104.561 215.83 104.586L215.651 104.607C215.5 104.786 215.334 104.952 215.156 105.103Z" fill="black"/>
<path opacity="0.1" d="M215.249 104.348C215.323 104.348 215.396 104.348 215.47 104.364C215.585 104.241 215.7 104.11 215.815 103.982C215.63 103.933 215.44 103.908 215.249 103.907C214.661 103.907 214.098 104.14 213.683 104.554C213.268 104.968 213.034 105.529 213.034 106.115C213.034 106.189 213.034 106.264 213.045 106.335C213.1 105.791 213.356 105.286 213.763 104.919C214.17 104.552 214.7 104.348 215.249 104.348Z" fill="black"/>
</g>
<g opacity="0.1">
<path opacity="0.1" d="M204.704 105.103C204.483 105.087 204.262 105.064 204.043 105.032C203.779 105.008 203.524 104.923 203.298 104.785C203.047 104.969 202.838 105.203 202.685 105.472C202.531 105.742 202.436 106.041 202.407 106.349C202.398 106.272 202.394 106.193 202.394 106.115C202.392 105.77 202.472 105.429 202.627 105.12C202.782 104.811 203.007 104.543 203.285 104.337C203.511 104.476 203.766 104.561 204.03 104.586L204.209 104.607C204.361 104.785 204.527 104.951 204.704 105.103Z" fill="black"/>
<path opacity="0.1" d="M204.615 104.348C204.54 104.348 204.467 104.348 204.394 104.364C204.278 104.241 204.164 104.11 204.048 103.982C204.233 103.933 204.424 103.908 204.615 103.907C205.202 103.907 205.766 104.14 206.181 104.554C206.596 104.968 206.829 105.529 206.829 106.115C206.829 106.189 206.829 106.264 206.819 106.335C206.763 105.791 206.507 105.286 206.1 104.919C205.693 104.552 205.164 104.348 204.615 104.348Z" fill="black"/>
</g>
<path d="M39.161 95.8071H56.1921C57.3741 95.8071 58.5076 96.2753 59.3434 97.1087C60.1792 97.942 60.6487 99.0723 60.6487 100.251V121.668H34.7044V100.251C34.7044 99.0723 35.1739 97.942 36.0097 97.1087C36.8455 96.2753 37.979 95.8071 39.161 95.8071Z" fill="#3F3D56"/>
<path opacity="0.1" d="M39.161 95.8071H56.1921C57.3741 95.8071 58.5076 96.2753 59.3434 97.1087C60.1792 97.942 60.6487 99.0723 60.6487 100.251V121.668H34.7044V100.251C34.7044 99.0723 35.1739 97.942 36.0097 97.1087C36.8455 96.2753 37.979 95.8071 39.161 95.8071Z" fill="black"/>
<path d="M46.6426 101.49C47.7886 101.49 48.7176 100.563 48.7176 99.4208C48.7176 98.2781 47.7886 97.3517 46.6426 97.3517C45.4966 97.3517 44.5676 98.2781 44.5676 99.4208C44.5676 100.563 45.4966 101.49 46.6426 101.49Z" fill="#3F3D56"/>
<path d="M46.6426 98.9035C47.7886 98.9035 48.7176 97.9772 48.7176 96.8345C48.7176 95.6918 47.7886 94.7655 46.6426 94.7655C45.4966 94.7655 44.5676 95.6918 44.5676 96.8345C44.5676 97.9772 45.4966 98.9035 46.6426 98.9035Z" fill="#3F3D56"/>
<path d="M46.6426 96.3155C47.7886 96.3155 48.7176 95.3892 48.7176 94.2465C48.7176 93.1038 47.7886 92.1775 46.6426 92.1775C45.4966 92.1775 44.5676 93.1038 44.5676 94.2465C44.5676 95.3892 45.4966 96.3155 46.6426 96.3155Z" fill="#3F3D56"/>
<path d="M46.6426 93.7292C47.7886 93.7292 48.7176 92.8029 48.7176 91.6602C48.7176 90.5175 47.7886 89.5912 46.6426 89.5912C45.4966 89.5912 44.5676 90.5175 44.5676 91.6602C44.5676 92.8029 45.4966 93.7292 46.6426 93.7292Z" fill="#3F3D56"/>
<path d="M46.6426 91.1412C47.7886 91.1412 48.7176 90.2149 48.7176 89.0722C48.7176 87.9295 47.7886 87.0032 46.6426 87.0032C45.4966 87.0032 44.5676 87.9295 44.5676 89.0722C44.5676 90.2149 45.4966 91.1412 46.6426 91.1412Z" fill="#3F3D56"/>
<path d="M46.6426 88.5549C47.7886 88.5549 48.7176 87.6286 48.7176 86.4859C48.7176 85.3432 47.7886 84.4169 46.6426 84.4169C45.4966 84.4169 44.5676 85.3432 44.5676 86.4859C44.5676 87.6286 45.4966 88.5549 46.6426 88.5549Z" fill="#3F3D56"/>
<path d="M46.6426 85.9687C47.7886 85.9687 48.7176 85.0424 48.7176 83.8997C48.7176 82.757 47.7886 81.8307 46.6426 81.8307C45.4966 81.8307 44.5676 82.757 44.5676 83.8997C44.5676 85.0424 45.4966 85.9687 46.6426 85.9687Z" fill="#3F3D56"/>
<path d="M49.7551 87.0031C50.9011 87.0031 51.8301 86.0768 51.8301 84.9341C51.8301 83.7914 50.9011 82.8651 49.7551 82.8651C48.6091 82.8651 47.6801 83.7914 47.6801 84.9341C47.6801 86.0768 48.6091 87.0031 49.7551 87.0031Z" fill="#3F3D56"/>
<path d="M51.8301 85.9687C52.976 85.9687 53.905 85.0424 53.905 83.8997C53.905 82.757 52.976 81.8307 51.8301 81.8307C50.6841 81.8307 49.7551 82.757 49.7551 83.8997C49.7551 85.0424 50.6841 85.9687 51.8301 85.9687Z" fill="#3F3D56"/>
<path d="M53.9068 84.9324C55.0528 84.9324 55.9818 84.006 55.9818 82.8634C55.9818 81.7207 55.0528 80.7944 53.9068 80.7944C52.7608 80.7944 51.8318 81.7207 51.8318 82.8634C51.8318 84.006 52.7608 84.9324 53.9068 84.9324Z" fill="#3F3D56"/>
<path d="M46.6426 83.3806C47.7886 83.3806 48.7176 82.4543 48.7176 81.3116C48.7176 80.1689 47.7886 79.2426 46.6426 79.2426C45.4966 79.2426 44.5676 80.1689 44.5676 81.3116C44.5676 82.4543 45.4966 83.3806 46.6426 83.3806Z" fill="#3F3D56"/>
<path d="M46.6426 80.7944C47.7886 80.7944 48.7176 79.8681 48.7176 78.7254C48.7176 77.5827 47.7886 76.6564 46.6426 76.6564C45.4966 76.6564 44.5676 77.5827 44.5676 78.7254C44.5676 79.8681 45.4966 80.7944 46.6426 80.7944Z" fill="#3F3D56"/>
<path d="M46.6426 78.2063C47.7886 78.2063 48.7176 77.28 48.7176 76.1373C48.7176 74.9946 47.7886 74.0683 46.6426 74.0683C45.4966 74.0683 44.5676 74.9946 44.5676 76.1373C44.5676 77.28 45.4966 78.2063 46.6426 78.2063Z" fill="#3F3D56"/>
<path d="M46.6426 75.6201C47.7886 75.6201 48.7176 74.6937 48.7176 73.5511C48.7176 72.4084 47.7886 71.4821 46.6426 71.4821C45.4966 71.4821 44.5676 72.4084 44.5676 73.5511C44.5676 74.6937 45.4966 75.6201 46.6426 75.6201Z" fill="#3F3D56"/>
<path d="M55.2474 66.8766C54.7328 66.9512 54.2158 67.0057 53.6965 67.0401C54.1771 66.6204 54.6235 66.1633 55.0317 65.6732C54.7486 64.8046 54.3312 63.9854 53.7945 63.2452C53.2839 63.5361 52.7181 63.7177 52.1331 63.7784C51.6197 63.8531 51.101 63.9082 50.5822 63.9437C51.265 63.3927 51.8978 62.559 52.5663 61.8818C51.0165 60.4784 49.0175 59.6689 46.9253 59.5976C44.833 59.5262 42.7832 60.1976 41.1409 61.4921C39.4986 62.7867 38.3703 64.6204 37.957 66.6668C37.5437 68.7132 37.8722 70.8395 38.8839 72.667C39.8957 74.4945 41.5251 75.9047 43.482 76.6464C45.4388 77.3881 47.5962 77.4133 49.57 76.7174C51.5437 76.0215 53.2057 74.6498 54.2601 72.8464C55.3145 71.043 55.6927 68.925 55.3276 66.8695L55.2474 66.8766Z" fill="#00B0FF"/>
<path d="M62.1818 77.1612C61.6933 77.5042 61.0444 77.6518 60.4366 77.7406C59.9214 77.8171 59.4044 77.8704 58.8857 77.9059C59.4205 77.4776 59.9125 76.8803 60.4223 76.3169C59.1732 75.9863 57.8454 76.1321 56.6984 76.7257C55.5513 77.3192 54.6674 78.318 54.2195 79.5267C53.7715 80.7354 53.7917 82.0672 54.276 83.2619C54.7603 84.4566 55.674 85.4283 56.8385 85.9871C58.003 86.5459 59.3346 86.6517 60.5731 86.2837C61.8116 85.9158 62.868 85.1006 63.5359 83.9974C64.2038 82.8942 64.4351 81.5823 64.1847 80.3182C63.9343 79.054 63.2201 77.9283 62.1818 77.1612Z" fill="#00B0FF"/>
<path d="M43.5284 87.0031C44.6744 87.0031 45.6034 86.0768 45.6034 84.9341C45.6034 83.7914 44.6744 82.8651 43.5284 82.8651C42.3824 82.8651 41.4534 83.7914 41.4534 84.9341C41.4534 86.0768 42.3824 87.0031 43.5284 87.0031Z" fill="#3F3D56"/>
<path d="M41.4534 85.9687C42.5994 85.9687 43.5284 85.0424 43.5284 83.8997C43.5284 82.757 42.5994 81.8307 41.4534 81.8307C40.3074 81.8307 39.3784 82.757 39.3784 83.8997C39.3784 85.0424 40.3074 85.9687 41.4534 85.9687Z" fill="#3F3D56"/>
<path d="M39.3784 84.9324C40.5244 84.9324 41.4534 84.006 41.4534 82.8634C41.4534 81.7207 40.5244 80.7944 39.3784 80.7944C38.2324 80.7944 37.3035 81.7207 37.3035 82.8634C37.3035 84.006 38.2324 84.9324 39.3784 84.9324Z" fill="#3F3D56"/>
<path d="M31.1035 77.1612C31.5919 77.5042 32.2408 77.6518 32.8505 77.7406C33.3639 77.8171 33.8808 77.8704 34.3996 77.9059C33.8648 77.4776 33.3728 76.8803 32.8629 76.3169C34.112 75.9863 35.4398 76.1321 36.5869 76.7257C37.7339 77.3192 38.6178 78.318 39.0658 79.5267C39.5137 80.7354 39.4936 82.0672 39.0093 83.2619C38.5249 84.4566 37.6113 85.4283 36.4468 85.9871C35.2823 86.5459 33.9507 86.6517 32.7122 86.2837C31.4736 85.9158 30.4172 85.1006 29.7493 83.9974C29.0815 82.8942 28.8501 81.5823 29.1006 80.3182C29.351 79.054 30.0651 77.9283 31.1035 77.1612Z" fill="#00B0FF"/>
<path d="M39.161 97.3517H56.1921C57.3741 97.3517 58.5076 97.8199 59.3434 98.6533C60.1792 99.4867 60.6487 100.617 60.6487 101.795V122.47C60.6487 122.669 60.5691 122.861 60.4273 123.002C60.2856 123.144 60.0933 123.223 59.8929 123.223H35.4638C35.3642 123.224 35.2656 123.205 35.1734 123.167C35.0813 123.129 34.9976 123.074 34.927 123.004C34.8565 122.934 34.8005 122.85 34.7623 122.759C34.7241 122.667 34.7044 122.569 34.7044 122.47V101.795C34.7044 100.617 35.1739 99.4867 36.0097 98.6533C36.8455 97.8199 37.979 97.3517 39.161 97.3517Z" fill="#3F3D56"/>
<g opacity="0.1">
<path opacity="0.1" d="M55.4042 67.4418C55.1956 67.6679 54.9717 67.8793 54.7339 68.0746C54.971 68.0586 55.2099 68.0373 55.447 68.0142C55.4381 67.8222 55.4256 67.6302 55.4042 67.4418Z" fill="black"/>
<path opacity="0.1" d="M51.6215 64.9711C52.1402 64.9355 52.6572 64.8822 53.1706 64.8058C53.6356 64.7517 54.0906 64.632 54.5218 64.4503C54.311 64.0327 54.0678 63.6321 53.7945 63.2523C53.5368 63.4111 53.2568 63.5309 52.9638 63.6078C52.5525 64.0962 52.1037 64.552 51.6215 64.9711Z" fill="black"/>
<path opacity="0.1" d="M38.8579 69.4131C38.8548 67.8341 39.2788 66.2835 40.0853 64.9246C40.8918 63.5657 42.0509 62.4489 43.4405 61.6917C44.8302 60.9346 46.3989 60.5652 47.9814 60.6224C49.5639 60.6796 51.1016 61.1614 52.4326 62.0169C52.4772 61.9707 52.5217 61.9192 52.5663 61.8747C51.6992 61.0936 50.685 60.4923 49.5827 60.1056C48.4804 59.719 47.312 59.5548 46.1455 59.6225C44.979 59.6903 43.8376 59.9887 42.7878 60.5004C41.738 61.0121 40.8007 61.7268 40.0305 62.603C39.2602 63.4792 38.6724 64.4994 38.3013 65.6042C37.9301 66.709 37.783 67.8764 37.8684 69.0384C37.9539 70.2004 38.2703 71.3339 38.7991 72.3729C39.328 73.4119 40.0587 74.3356 40.9489 75.0904C39.5971 73.5061 38.8557 71.4932 38.8579 69.4131Z" fill="black"/>
</g>
<g opacity="0.1">
<path opacity="0.1" d="M58.8857 78.9404C59.4038 78.9072 59.9208 78.8521 60.4366 78.7751C61.0444 78.688 61.6844 78.5405 62.1818 78.1956C62.7667 78.6266 63.2541 79.1755 63.6122 79.8067C63.9703 80.4378 64.1912 81.1371 64.2603 81.859C64.2781 81.6813 64.2888 81.5036 64.2888 81.3134C64.2893 80.5054 64.0994 79.7087 63.7343 78.9874C63.3692 78.2662 62.8393 77.6406 62.1871 77.1611C61.6987 77.5042 61.0498 77.6517 60.4419 77.7406C60.3047 77.7601 60.1692 77.7762 60.0337 77.7922C59.6821 78.2046 59.2982 78.5885 58.8857 78.9404Z" fill="black"/>
<path opacity="0.1" d="M59.0907 77.1736C59.2647 77.1764 59.4384 77.1883 59.6112 77.2092C59.8822 76.9212 60.146 76.6155 60.4187 76.3204C59.6509 76.1139 58.8456 76.0869 58.0655 76.2414C57.2855 76.396 56.5517 76.7279 55.9212 77.2113C55.2908 77.6948 54.7808 78.3167 54.4308 79.0288C54.0807 79.7409 53.9002 80.5239 53.9033 81.3169C53.9033 81.4947 53.9122 81.6725 53.9282 81.8342C54.056 80.5574 54.655 79.3734 55.609 78.5122C56.5629 77.6509 57.8038 77.1739 59.0907 77.1736Z" fill="black"/>
</g>
<g opacity="0.1">
<path opacity="0.1" d="M34.3978 78.9404C33.8796 78.9072 33.3633 78.8521 32.8487 78.7751C32.239 78.688 31.5902 78.5405 31.1017 78.1956C30.5178 78.6271 30.0314 79.1762 29.6742 79.8074C29.317 80.4385 29.097 81.1376 29.0285 81.859C29.0107 81.6813 29 81.5036 29 81.3134C28.9997 80.5053 29.1899 79.7085 29.5553 78.9872C29.9207 78.2659 30.451 77.6404 31.1035 77.1611C31.5919 77.5042 32.2408 77.6517 32.8505 77.7406C32.9859 77.7601 33.1214 77.7762 33.2569 77.7922C33.6067 78.2039 33.9882 78.5878 34.3978 78.9404Z" fill="black"/>
<path opacity="0.1" d="M34.1892 77.1736C34.0152 77.1764 33.8415 77.1883 33.6687 77.2092C33.3977 76.9212 33.1339 76.6155 32.8612 76.3204C33.6291 76.1139 34.4344 76.0869 35.2144 76.2414C35.9945 76.396 36.7283 76.7279 37.3587 77.2113C37.9891 77.6948 38.4992 78.3167 38.8492 79.0288C39.1992 79.7409 39.3797 80.5239 39.3767 81.3169C39.3767 81.4947 39.3767 81.6725 39.3517 81.8342C39.2239 80.5574 38.6249 79.3734 37.671 78.5122C36.717 77.6509 35.4761 77.1739 34.1892 77.1736Z" fill="black"/>
</g>
<path d="M150.215 123.739L115.454 123.294L115.555 122.406L117.236 107.741H147.764L150.01 122.406L150.181 123.517L150.215 123.739Z" fill="#D0D2D5"/>
<path opacity="0.1" d="M150.181 123.517H132.834L115.454 123.294L115.555 122.406H150.01L150.181 123.517Z" fill="black"/>
<path d="M155.786 122.628H109.66V123.739H155.786V122.628Z" fill="#D0D2D5"/>
<path d="M199.793 19.6627C199.797 18.8955 199.495 18.1582 198.954 17.6129C198.413 17.0676 197.676 16.7589 196.907 16.7547H68.0929C67.7118 16.7566 67.3348 16.8333 66.9834 16.9804C66.6321 17.1276 66.3132 17.3423 66.045 17.6123C65.7768 17.8823 65.5647 18.2024 65.4205 18.5542C65.2764 18.906 65.2032 19.2827 65.2051 19.6627V97.5171H199.793V19.6627Z" fill="#444053"/>
<path d="M65.2051 96.7421V105.862C65.2039 106.241 65.2778 106.617 65.4224 106.967C65.567 107.317 65.7796 107.635 66.0479 107.904C66.3162 108.172 66.6349 108.385 66.9859 108.53C67.3368 108.675 67.713 108.749 68.0929 108.749H196.907C197.673 108.749 198.407 108.446 198.948 107.906C199.489 107.366 199.793 106.635 199.793 105.871V96.7421H65.2051Z" fill="#D0D2D5"/>
<path opacity="0.1" d="M194.891 21.6428H70.7758V91.6318H194.891V21.6428Z" fill="#00B0FF"/>
<path d="M133.168 105.281C133.623 105.281 134.073 105.179 134.483 104.98C134.893 104.782 135.253 104.493 135.535 104.136C135.62 104.027 135.698 103.913 135.768 103.793L134.118 103.523L135.9 103.536C136.072 103.164 136.166 102.762 136.176 102.353C136.186 101.945 136.111 101.538 135.957 101.159L133.563 102.403L135.772 100.786C135.569 100.423 135.293 100.106 134.961 99.8556C134.629 99.6048 134.249 99.4255 133.844 99.329C133.439 99.2325 133.018 99.221 132.608 99.2951C132.198 99.3693 131.809 99.5274 131.463 99.7597C131.118 99.9919 130.825 100.293 130.603 100.644C130.38 100.995 130.233 101.389 130.171 101.799C130.109 102.21 130.134 102.629 130.242 103.03C130.351 103.43 130.542 103.804 130.804 104.128C131.084 104.486 131.443 104.776 131.852 104.976C132.262 105.176 132.712 105.28 133.168 105.281Z" fill="#00B0FF"/>
<path opacity="0.1" d="M136.177 108.74L150.044 122.628L147.917 108.74H136.177Z" fill="black"/>
<path d="M170.047 31.1738H74.2305V81.9053H170.047V31.1738Z" fill="white"/>
<path opacity="0.1" d="M106.3 44.3983H79.5748V45.7794H106.3V44.3983Z" fill="#00B0FF"/>
<path opacity="0.1" d="M84.5252 37.0946H81.951V44.3983H84.5252V37.0946Z" fill="#00B0FF"/>
<path opacity="0.1" d="M88.2865 37.0946H85.7124V44.3983H88.2865V37.0946Z" fill="#00B0FF"/>
<path opacity="0.1" d="M92.0478 37.0946H89.4737V44.3983H92.0478V37.0946Z" fill="#00B0FF"/>
<path opacity="0.1" d="M95.8092 37.0946H93.2351V44.3983H95.8092V37.0946Z" fill="#00B0FF"/>
<path opacity="0.1" d="M99.5705 37.0946H96.9964V44.3983H99.5705V37.0946Z" fill="#00B0FF"/>
<path opacity="0.1" d="M103.332 37.0946H100.758V44.3983H103.332V37.0946Z" fill="#00B0FF"/>
<path opacity="0.1" d="M84.5252 38.4775H81.951V39.2667H84.5252V38.4775Z" fill="#00B0FF"/>
<path opacity="0.1" d="M88.2865 38.4775H85.7124V39.2667H88.2865V38.4775Z" fill="#00B0FF"/>
<path opacity="0.1" d="M92.0478 38.4775H89.4737V39.2667H92.0478V38.4775Z" fill="#00B0FF"/>
<path opacity="0.1" d="M95.8092 38.4775H93.2351V39.2667H95.8092V38.4775Z" fill="#00B0FF"/>
<path opacity="0.1" d="M99.5705 38.4775H96.9964V39.2667H99.5705V38.4775Z" fill="#00B0FF"/>
<path opacity="0.1" d="M103.332 38.4775H100.758V39.2667H103.332V38.4775Z" fill="#00B0FF"/>
<path opacity="0.1" d="M84.5252 42.0307H81.951V42.8199H84.5252V42.0307Z" fill="#00B0FF"/>
<path opacity="0.1" d="M88.2865 42.0307H85.7124V42.8199H88.2865V42.0307Z" fill="#00B0FF"/>
<path opacity="0.1" d="M92.0478 42.0307H89.4737V42.8199H92.0478V42.0307Z" fill="#00B0FF"/>
<path opacity="0.1" d="M95.8092 42.0307H93.2351V42.8199H95.8092V42.0307Z" fill="#00B0FF"/>
<path opacity="0.1" d="M99.5705 42.0307H96.9964V42.8199H99.5705V42.0307Z" fill="#00B0FF"/>
<path opacity="0.1" d="M103.332 42.0307H100.758V42.8199H103.332V42.0307Z" fill="#00B0FF"/>
<path opacity="0.1" d="M164.898 47.9515H138.173V49.3327H164.898V47.9515Z" fill="#00B0FF"/>
<path opacity="0.1" d="M143.124 40.6478H140.549V47.9516H143.124V40.6478Z" fill="#00B0FF"/>
<path opacity="0.1" d="M146.885 40.6478H144.311V47.9516H146.885V40.6478Z" fill="#00B0FF"/>
<path opacity="0.1" d="M150.646 40.6478H148.072V47.9516H150.646V40.6478Z" fill="#00B0FF"/>
<path opacity="0.1" d="M154.408 40.6478H151.833V47.9516H154.408V40.6478Z" fill="#00B0FF"/>
<path opacity="0.1" d="M158.169 40.6478H155.595V47.9516H158.169V40.6478Z" fill="#00B0FF"/>
<path opacity="0.1" d="M161.93 40.6478H159.356V47.9516H161.93V40.6478Z" fill="#00B0FF"/>
<path opacity="0.1" d="M143.124 42.0307H140.549V42.8199H143.124V42.0307Z" fill="#00B0FF"/>
<path opacity="0.1" d="M146.885 42.0307H144.311V42.8199H146.885V42.0307Z" fill="#00B0FF"/>
<path opacity="0.1" d="M150.646 42.0307H148.072V42.8199H150.646V42.0307Z" fill="#00B0FF"/>
<path opacity="0.1" d="M154.408 42.0307H151.833V42.8199H154.408V42.0307Z" fill="#00B0FF"/>
<path opacity="0.1" d="M158.169 42.0307H155.595V42.8199H158.169V42.0307Z" fill="#00B0FF"/>
<path opacity="0.1" d="M161.93 42.0307H159.356V42.8199H161.93V42.0307Z" fill="#00B0FF"/>
<path opacity="0.1" d="M143.124 45.5839H140.549V46.3731H143.124V45.5839Z" fill="#00B0FF"/>
<path opacity="0.1" d="M146.885 45.5839H144.311V46.3731H146.885V45.5839Z" fill="#00B0FF"/>
<path opacity="0.1" d="M150.646 45.5839H148.072V46.3731H150.646V45.5839Z" fill="#00B0FF"/>
<path opacity="0.1" d="M154.408 45.5839H151.833V46.3731H154.408V45.5839Z" fill="#00B0FF"/>
<path opacity="0.1" d="M158.169 45.5839H155.595V46.3731H158.169V45.5839Z" fill="#00B0FF"/>
<path opacity="0.1" d="M161.93 45.5839H159.356V46.3731H161.93V45.5839Z" fill="#00B0FF"/>
<path opacity="0.1" d="M164.898 58.0193H138.173V59.4004H164.898V58.0193Z" fill="#00B0FF"/>
<path opacity="0.1" d="M143.124 50.7156H140.549V58.0193H143.124V50.7156Z" fill="#00B0FF"/>
<path opacity="0.1" d="M146.885 50.7156H144.311V58.0193H146.885V50.7156Z" fill="#00B0FF"/>
<path opacity="0.1" d="M150.646 50.7156H148.072V58.0193H150.646V50.7156Z" fill="#00B0FF"/>
<path opacity="0.1" d="M154.408 50.7156H151.833V58.0193H154.408V50.7156Z" fill="#00B0FF"/>
<path opacity="0.1" d="M158.169 50.7156H155.595V58.0193H158.169V50.7156Z" fill="#00B0FF"/>
<path opacity="0.1" d="M161.93 50.7156H159.356V58.0193H161.93V50.7156Z" fill="#00B0FF"/>
<path opacity="0.1" d="M143.124 52.0967H140.549V52.8859H143.124V52.0967Z" fill="#00B0FF"/>
<path opacity="0.1" d="M146.885 52.0967H144.311V52.8859H146.885V52.0967Z" fill="#00B0FF"/>
<path opacity="0.1" d="M150.646 52.0967H148.072V52.8859H150.646V52.0967Z" fill="#00B0FF"/>
<path opacity="0.1" d="M154.408 52.0967H151.833V52.8859H154.408V52.0967Z" fill="#00B0FF"/>
<path opacity="0.1" d="M158.169 52.0967H155.595V52.8859H158.169V52.0967Z" fill="#00B0FF"/>
<path opacity="0.1" d="M161.93 52.0967H159.356V52.8859H161.93V52.0967Z" fill="#00B0FF"/>
<path opacity="0.1" d="M143.124 55.6499H140.549V56.4391H143.124V55.6499Z" fill="#00B0FF"/>
<path opacity="0.1" d="M146.885 55.6499H144.311V56.4391H146.885V55.6499Z" fill="#00B0FF"/>
<path opacity="0.1" d="M150.646 55.6499H148.072V56.4391H150.646V55.6499Z" fill="#00B0FF"/>
<path opacity="0.1" d="M154.408 55.6499H151.833V56.4391H154.408V55.6499Z" fill="#00B0FF"/>
<path opacity="0.1" d="M158.169 55.6499H155.595V56.4391H158.169V55.6499Z" fill="#00B0FF"/>
<path opacity="0.1" d="M161.93 55.6499H159.356V56.4391H161.93V55.6499Z" fill="#00B0FF"/>
<path opacity="0.1" d="M95.966 60.019C95.766 59.7652 95.5838 59.4979 95.4206 59.2191L99.2692 58.5899L95.0997 58.6237C94.7006 57.7575 94.4829 56.8192 94.4599 55.8663C94.4369 54.9133 94.6091 53.9657 94.966 53.0814L100.549 55.9699L95.401 52.1962C95.882 51.3631 96.5301 50.6378 97.3048 50.0655C98.0795 49.4933 98.9642 49.0865 99.9036 48.8704C100.843 48.6543 101.817 48.6337 102.765 48.8098C103.713 48.9859 104.614 49.3549 105.412 49.8937C106.211 50.4326 106.889 51.1299 107.405 51.9419C107.921 52.7539 108.264 53.6633 108.412 54.6132C108.56 55.5632 108.51 56.5333 108.265 57.4631C108.02 58.3929 107.585 59.2624 106.988 60.0172C107.301 60.4114 107.571 60.8381 107.792 61.2899L102.801 63.8762L108.125 62.0987C108.5 63.2005 108.592 64.378 108.395 65.5246C108.198 66.6711 107.717 67.7505 106.995 68.6647C107.809 69.6964 108.316 70.9357 108.457 72.2408C108.598 73.546 108.367 74.8644 107.792 76.0452C107.217 77.2261 106.321 78.2217 105.205 78.9183C104.089 79.6149 102.799 79.9843 101.482 79.9843C100.166 79.9843 98.876 79.6149 97.7601 78.9183C96.6442 78.2217 95.7475 77.2261 95.1724 76.0452C94.5973 74.8644 94.3671 73.546 94.5081 72.2408C94.6491 70.9357 95.1555 69.6964 95.9696 68.6647C94.9974 67.432 94.4688 65.9093 94.4688 64.341C94.4688 62.7727 94.9974 61.2499 95.9696 60.0172L95.966 60.019Z" fill="#00B0FF"/>
<path opacity="0.1" d="M108.493 64.3436C108.495 65.912 107.966 67.4352 106.992 68.6665C107.806 69.6982 108.312 70.9374 108.453 72.2426C108.594 73.5478 108.364 74.8661 107.789 76.047C107.214 77.2278 106.317 78.2235 105.201 78.9201C104.085 79.6166 102.795 79.9861 101.479 79.9861C100.162 79.9861 98.8724 79.6166 97.7565 78.9201C96.6407 78.2235 95.7439 77.2278 95.1688 76.047C94.5938 74.8661 94.3635 73.5478 94.5045 72.2426C94.6455 70.9374 95.152 69.6982 95.966 68.6665C95.0266 67.4774 108.493 63.558 108.493 64.3436Z" fill="#00B0FF"/>
<path opacity="0.2" d="M102.605 81.8466C102.617 81.8662 102.626 81.8857 102.638 81.9053H100.257C100.269 81.8857 100.278 81.8662 100.291 81.8466C100.086 81.4908 99.9804 81.0871 99.9841 80.677C99.9838 80.3964 100.033 80.1179 100.128 79.8541C100.26 79.8754 100.424 79.8985 100.613 79.9181C101.166 79.9731 101.722 79.9731 102.275 79.9181C102.432 79.9021 102.597 79.8789 102.765 79.8541C102.765 79.8582 102.765 79.8624 102.765 79.8665C102.859 80.1264 102.907 80.4007 102.906 80.677C102.911 81.0866 102.807 81.4903 102.605 81.8466Z" fill="#3F3D56"/>
<path opacity="0.1" d="M94.0462 81.9089H80.8013C80.771 81.8324 80.7442 81.7525 80.7211 81.6743C80.2541 80.1765 80.3087 78.5654 80.8762 77.1025C79.5818 76.211 78.6256 74.9114 78.1613 73.4127C77.697 71.9139 77.7516 70.303 78.3163 68.8389C78.0499 68.6546 77.7962 68.4527 77.5569 68.2346L81.0473 66.4998L77.081 67.7547C76.4426 67.0446 75.9565 66.2119 75.6525 65.3078C75.3484 64.4037 75.2327 63.4471 75.3126 62.4968L81.5019 63.6113L75.4659 61.521C75.6793 60.5835 76.0842 59.6999 76.6554 58.9254C77.2265 58.1509 77.9517 57.5021 78.7856 57.0195C79.6194 56.537 80.5441 56.231 81.5019 56.1207C82.4597 56.0104 83.43 56.0982 84.3522 56.3785C85.2744 56.6589 86.1288 57.1258 86.862 57.7501C87.5951 58.3745 88.1913 59.1428 88.6134 60.0072C89.0354 60.8715 89.2743 61.8133 89.3149 62.7739C89.3556 63.7344 89.1973 64.6929 88.8498 65.5897C89.2644 65.8762 89.6475 66.2057 89.9925 66.5726L85.9852 70.5151L90.5469 67.2445C91.2306 68.1877 91.6675 69.2859 91.8182 70.4399C91.9688 71.5938 91.8284 72.7671 91.4097 73.8533C92.6723 74.7236 93.6139 75.9828 94.0902 77.4378C94.5664 78.8928 94.5509 80.4634 94.0462 81.9089Z" fill="#00B0FF"/>
<path opacity="0.1" d="M94.0462 81.9089H80.8013C80.771 81.8325 80.7442 81.7525 80.721 81.6743C80.254 80.1765 80.3087 78.5654 80.8761 77.1025C79.6283 76.2405 91.333 68.5332 91.5719 69.2816C92.037 70.7801 91.9824 72.3912 91.4168 73.8551C92.6778 74.7263 93.6177 75.9856 94.0926 77.4402C94.5675 78.8947 94.5512 80.4644 94.0462 81.9089Z" fill="#00B0FF"/>
<path opacity="0.1" d="M154.023 72.433C153.218 73.7807 151.981 74.8179 150.511 75.3765C150.574 75.876 150.584 76.3806 150.541 76.8821L144.922 76.5461L150.409 77.7424C150.047 79.4141 149.083 80.8959 147.701 81.9088H140.054V82.1061H132.269C132.285 82.0386 132.301 81.9728 132.319 81.9088C132.605 80.8367 133.142 79.8473 133.886 79.0221C134.629 78.1968 135.559 77.559 136.597 77.1611C136.399 75.6049 136.73 74.0271 137.538 72.681C138.346 71.335 139.584 70.2986 141.054 69.7383C141.012 69.4183 140.992 69.0958 140.995 68.7731L144.623 70.1951L141.036 68.0941C141.139 67.1474 141.433 66.2313 141.903 65.4019C142.372 64.5725 143.006 63.8471 143.765 63.27L147.07 68.6025L144.594 62.7368C145.943 61.9887 147.502 61.7052 149.029 61.9303C150.556 62.1555 151.966 62.8767 153.04 63.9821C154.114 65.0874 154.792 66.5153 154.969 68.0442C155.147 69.5731 154.813 71.1176 154.021 72.4383L154.023 72.433Z" fill="#00B0FF"/>
<path opacity="0.1" d="M149.571 79.8558C149.094 80.6594 148.458 81.3578 147.701 81.9088H140.054V82.1061H132.269C132.285 82.0386 132.301 81.9728 132.319 81.9088C132.605 80.8366 133.142 79.8473 133.886 79.022C134.629 78.1968 135.559 77.559 136.597 77.1611C136.531 76.651 138.043 76.7203 140.056 77.058C143.99 77.7157 149.839 79.4097 149.571 79.8558Z" fill="#00B0FF"/>
<path d="M116.429 61.1939C116.429 61.1939 117.382 66.3789 115.243 68.0693C113.104 69.7597 117.051 79.9039 123.607 78.7218C130.164 77.5398 132.82 69.0273 132.82 69.0273C132.82 69.0273 126.264 67.6765 128.693 60.8011L116.429 61.1939Z" fill="#EFB7B9"/>
<path opacity="0.1" d="M116.429 61.1939C116.429 61.1939 117.382 66.3789 115.243 68.0693C113.104 69.7597 117.051 79.9039 123.607 78.7218C130.164 77.5398 132.82 69.0273 132.82 69.0273C132.82 69.0273 126.264 67.6765 128.693 60.8011L116.429 61.1939Z" fill="black"/>
<path d="M122.222 64.9978C128.215 64.9978 133.073 60.1537 133.073 54.1782C133.073 48.2026 128.215 43.3585 122.222 43.3585C116.23 43.3585 111.371 48.2026 111.371 54.1782C111.371 60.1537 116.23 64.9978 122.222 64.9978Z" fill="#EFB7B9"/>
<path d="M140.054 74.7473V82.1026H104.223V75.0833C104.223 74.1929 104.487 73.3223 104.98 72.5802C105.473 71.838 106.175 71.257 106.997 70.9097L108.025 70.4742C110.625 69.3704 113.782 68 114.814 67.4294C114.927 67.3732 115.033 67.3047 115.131 67.225C115.696 66.6615 115.584 67.3938 115.584 67.3938C115.584 67.3938 115.568 67.5325 115.557 67.7742C115.496 69.4291 115.735 75.9382 123.383 75.3961C130.845 74.8629 131.173 69.8432 131.105 68.3661C131.101 68.2293 131.089 68.0928 131.069 67.9573C131.069 67.9182 131.711 68.135 132.581 68.4479C134.145 69.022 136.442 69.9463 137.061 70.3818C137.253 70.5151 137.487 70.6573 137.74 70.7977C138.445 71.1899 139.031 71.763 139.439 72.4575C139.846 73.152 140.06 73.9427 140.057 74.7473H140.054Z" fill="#00B0FF"/>
<path opacity="0.1" d="M132.579 68.4479C131.948 71.3665 129.966 76.8341 122.816 76.9799C115.202 77.1292 114.764 69.5784 114.81 67.4365C114.924 67.3802 115.031 67.3111 115.129 67.2303C115.694 66.6668 115.582 67.3991 115.582 67.3991C115.582 67.3991 114.621 76.0218 123.381 75.3979C132.141 74.774 131.068 67.9591 131.068 67.9591C131.068 67.9182 131.709 68.1279 132.579 68.4479Z" fill="black"/>
<path d="M109.379 54.7131C110.092 54.4821 110.942 54.8731 111.339 55.4241C111.737 55.9752 111.792 56.6417 111.84 57.2798C112.313 57.3794 112.578 56.8461 112.621 56.4462C112.799 54.8091 112.808 53.1418 113.359 51.5634C113.91 49.985 115.113 48.4563 116.964 47.8484C117.593 47.6308 118.265 47.5668 118.924 47.6618C119.315 47.7276 119.684 47.8627 120.074 47.9267C121.424 48.1488 122.894 47.5107 124.162 47.9551C124.955 48.2342 125.467 48.8794 125.83 49.5264C125.992 49.8738 126.212 50.1916 126.479 50.4667C127.014 50.9466 127.863 51.0728 128.633 51.2239C129.403 51.375 130.248 51.6345 130.577 52.2282C130.875 52.7614 130.656 53.3836 130.556 53.9666C130.404 54.8852 130.558 55.8283 130.996 56.6506C131.139 56.9208 131.428 57.2265 131.768 57.1394C131.923 57.0873 132.054 56.9813 132.137 56.8408C133.029 55.5966 133 53.9826 134.111 52.8717C134.483 52.5002 134.963 52.2086 135.325 51.83C135.598 51.5543 135.799 51.215 135.909 50.8427C136.019 50.4704 136.034 50.0767 135.954 49.697C135.754 48.8421 135.063 48.1293 134.515 47.3863C133.796 46.4342 133.272 45.35 132.973 44.1957C132.921 44.062 132.921 43.9134 132.973 43.7797C133.078 43.6437 133.213 43.5336 133.367 43.458C133.67 43.258 133.889 42.9548 133.983 42.6052C134.077 42.2557 134.04 41.8839 133.879 41.5597C133.569 40.9144 132.872 40.4363 132.107 40.1483C131.342 39.8604 130.503 39.7377 129.672 39.6151C129.126 39.6951 128.486 39.384 128.317 38.9485C128.242 38.7548 128.242 38.545 128.166 38.3513C128.018 37.9798 127.592 37.7167 127.133 37.6261C126.667 37.5499 126.19 37.5834 125.739 37.7238C125.226 37.8678 124.631 38.0793 124.183 37.834C123.948 37.7007 123.816 37.459 123.563 37.3505C123.049 37.1319 122.508 37.5727 122.137 37.9371C121.777 38.3167 121.337 38.6113 120.848 38.7992C120.333 38.977 119.698 38.977 119.254 38.6943C118.898 38.4686 118.719 38.106 118.436 37.818C117.971 37.3434 117.235 37.0857 116.5 37.027C115.763 36.9884 115.025 37.0689 114.315 37.2652C112.957 37.593 111.661 38.133 110.473 38.865C109.879 39.2365 109.311 39.6702 109.001 40.2301C108.78 40.6667 108.667 41.1491 108.669 41.6379C108.614 43.1683 109.124 44.7823 110.452 45.8541C109.642 46.1918 109.368 47.0184 109.179 47.7525C108.876 48.9221 108.571 50.113 108.685 51.3075C108.742 51.9242 108.911 52.541 108.821 53.1543C108.778 53.4511 108.674 53.7426 108.699 54.043C108.732 54.2096 108.815 54.3625 108.936 54.4819C109.057 54.6014 109.211 54.6819 109.379 54.7131Z" fill="#454B69"/>
<g opacity="0.1">
<path opacity="0.1" d="M135.797 49.2349C135.68 49.4883 135.521 49.7207 135.328 49.9228C134.972 50.3014 134.487 50.5929 134.114 50.9662C133.004 52.0754 133.027 53.6947 132.141 54.9354C132.058 55.0754 131.927 55.1808 131.772 55.2322C131.431 55.3193 131.143 55.0136 131 54.7434C130.827 54.4148 130.697 54.0653 130.613 53.7036C130.594 53.7936 130.576 53.8843 130.56 53.9755C130.407 54.8941 130.562 55.8372 131 56.6595C131.143 56.9297 131.431 57.2354 131.772 57.1483C131.927 57.0962 132.058 56.9902 132.141 56.8497C133.032 55.6055 133.004 53.9915 134.114 52.8806C134.487 52.5091 134.966 52.2176 135.328 51.839C135.602 51.5632 135.803 51.2239 135.913 50.8516C136.023 50.4793 136.038 50.0856 135.957 49.706C135.919 49.5441 135.866 49.3864 135.797 49.2349Z" fill="black"/>
<path opacity="0.1" d="M133.374 41.5597C133.22 41.634 133.085 41.7436 132.98 41.8796C132.928 42.0133 132.928 42.1619 132.98 42.2956C133.083 42.6985 133.215 43.0935 133.374 43.4776C133.681 43.2759 133.901 42.9687 133.994 42.6148C134.087 42.2609 134.046 41.8852 133.879 41.5597C133.829 41.4538 133.769 41.3527 133.701 41.2575C133.608 41.374 133.498 41.4759 133.374 41.5597Z" fill="black"/>
<path opacity="0.1" d="M110.45 43.9558C109.531 43.1978 108.924 42.1281 108.747 40.9518C108.701 41.1862 108.675 41.424 108.669 41.6628C108.612 42.7922 108.911 43.9112 109.525 44.8623C109.711 44.4573 110.04 44.1347 110.45 43.9558Z" fill="black"/>
<path opacity="0.1" d="M130.56 52.0594C130.659 51.4763 130.879 50.856 130.581 50.321C130.251 49.7273 129.408 49.466 128.636 49.3167C127.864 49.1674 127.021 49.0394 126.483 48.5595C126.215 48.2844 125.996 47.9665 125.834 47.6192C125.477 46.9722 124.959 46.3269 124.165 46.0479C122.898 45.6035 121.427 46.2416 120.078 46.0194C119.687 45.9554 119.318 45.8203 118.928 45.7546C118.27 45.6567 117.597 45.7176 116.967 45.9323C115.117 46.5402 113.914 48.0653 113.363 49.6473C112.812 51.2293 112.799 52.893 112.625 54.5301C112.582 54.93 112.316 55.4633 111.844 55.3637C111.796 54.7256 111.737 54.059 111.343 53.508C110.949 52.957 110.108 52.5642 109.382 52.797C109.162 52.7475 108.968 52.6215 108.833 52.4415C108.858 52.6781 108.854 52.9168 108.822 53.1525C108.78 53.4494 108.676 53.7409 108.701 54.0413C108.734 54.2079 108.816 54.361 108.936 54.4808C109.057 54.6005 109.211 54.6815 109.379 54.7132C110.092 54.4821 110.942 54.8731 111.339 55.4242C111.737 55.9752 111.792 56.6417 111.84 57.2799C112.313 57.3794 112.578 56.8462 112.621 56.4462C112.799 54.8091 112.808 53.1418 113.359 51.5634C113.91 49.985 115.113 48.4564 116.964 47.8485C117.593 47.6308 118.265 47.5668 118.924 47.6618C119.315 47.7276 119.684 47.8627 120.074 47.9267C121.424 48.1489 122.894 47.5107 124.162 47.9551C124.955 48.2342 125.467 48.8794 125.83 49.5264C125.992 49.8738 126.212 50.1916 126.479 50.4667C127.014 50.9466 127.863 51.0728 128.633 51.2239C129.403 51.375 130.185 51.6168 130.538 52.1678C130.547 52.1376 130.553 52.0985 130.56 52.0594Z" fill="black"/>
<path opacity="0.1" d="M108.826 51.2524C108.868 50.7697 108.839 50.2835 108.74 49.8091C108.664 50.3096 108.647 50.8173 108.69 51.3217C108.701 51.4515 108.719 51.5795 108.737 51.7092C108.758 51.5564 108.797 51.4053 108.826 51.2524Z" fill="black"/>
</g>
<path d="M190.992 70.8671H174.949V81.9675H190.992V70.8671Z" fill="white"/>
<path opacity="0.1" d="M189.563 79.2426C189.334 79.6264 188.981 79.9215 188.563 80.0798C188.581 80.2219 188.584 80.3655 188.572 80.5082L186.967 80.4122L188.529 80.7535C188.425 81.2281 188.151 81.6489 187.759 81.9373H185.587V81.9942H183.373C183.373 81.9746 183.373 81.9568 183.388 81.9373C183.435 81.7566 183.508 81.5836 183.605 81.4236C183.834 81.0404 184.186 80.7454 184.603 80.5864C184.546 80.1436 184.64 79.6947 184.87 79.3116C185.1 78.9286 185.453 78.6338 185.871 78.4747C185.858 78.384 185.853 78.2925 185.855 78.201L186.887 78.6063L185.866 78.009C185.894 77.7391 185.978 77.4779 186.112 77.2416C186.246 77.0053 186.427 76.7988 186.645 76.635L187.584 78.153L186.88 76.4821C187.264 76.2739 187.705 76.1969 188.137 76.2629C188.569 76.3289 188.967 76.5343 189.27 76.8476C189.574 77.1609 189.766 77.5649 189.817 77.9975C189.868 78.4301 189.776 78.8675 189.554 79.2426H189.563Z" fill="#00B0FF"/>
<path opacity="0.1" d="M188.295 81.3596C188.159 81.5882 187.977 81.7866 187.76 81.9426H185.587V81.9995H183.373C183.373 81.98 183.373 81.9622 183.388 81.9426C183.435 81.7619 183.508 81.5889 183.605 81.4289C183.834 81.0457 184.186 80.7508 184.603 80.5917C184.586 80.4477 185.015 80.4673 185.587 80.5633C186.707 80.7517 188.372 81.2334 188.295 81.3596Z" fill="#00B0FF"/>
<path opacity="0.1" d="M175.558 79.2426C175.787 79.6264 176.14 79.9215 176.558 80.0798C176.54 80.2219 176.537 80.3655 176.55 80.5082L178.154 80.4122L176.592 80.7535C176.697 81.2281 176.97 81.6489 177.362 81.9373H179.539V81.9942H181.755C181.755 81.9746 181.744 81.9568 181.741 81.9373C181.691 81.7571 181.618 81.5843 181.523 81.4236C181.293 81.0406 180.941 80.7458 180.523 80.5864C180.58 80.1436 180.486 79.6947 180.256 79.3116C180.026 78.9286 179.674 78.6338 179.256 78.4747C179.268 78.384 179.274 78.2925 179.273 78.201L178.241 78.6063L179.261 78.009C179.232 77.7391 179.148 77.4779 179.014 77.2416C178.88 77.0053 178.699 76.7988 178.482 76.635L177.542 78.153L178.247 76.4821C177.863 76.2739 177.421 76.1969 176.989 76.2629C176.558 76.3289 176.159 76.5343 175.856 76.8476C175.552 77.1609 175.36 77.5649 175.309 77.9975C175.258 78.4301 175.351 78.8675 175.573 79.2426H175.558Z" fill="#00B0FF"/>
<path opacity="0.1" d="M176.826 81.3596C176.962 81.5882 177.144 81.7866 177.361 81.9426H179.537V81.9995H181.753C181.753 81.98 181.742 81.9622 181.739 81.9426C181.69 81.7625 181.617 81.5897 181.521 81.4289C181.291 81.046 180.939 80.7511 180.521 80.5917C180.539 80.4477 180.109 80.4673 179.537 80.5633C178.414 80.7517 176.744 81.2334 176.826 81.3596Z" fill="#00B0FF"/>
<path d="M184.555 73.3129H180.97V77.2945H184.555V73.3129Z" fill="#464353"/>
<path opacity="0.1" d="M184.555 73.3129H180.97V77.2945H184.555V73.3129Z" fill="black"/>
<path d="M179.443 80.9383L179.37 81.9728H180.393L180.457 80.606L179.443 80.9383Z" fill="#A1616A"/>
<path d="M184.833 80.9383L184.678 81.9728H185.616L185.675 80.606L184.833 80.9383Z" fill="#A1616A"/>
<path d="M181.865 75.3055C181.865 75.3055 181.83 75.8227 181.705 75.9578C181.58 76.0929 182.819 77.2891 183.794 76.1071C183.794 76.1071 183.375 75.7516 183.473 75.3535C183.571 74.9553 181.865 75.3055 181.865 75.3055Z" fill="#A1616A"/>
<path opacity="0.1" d="M181.865 75.3055C181.865 75.3055 181.83 75.8227 181.705 75.9578C181.58 76.0929 182.819 77.2891 183.794 76.1071C183.794 76.1071 183.375 75.7516 183.473 75.3535C183.571 74.9553 181.865 75.3055 181.865 75.3055Z" fill="black"/>
<path d="M182.762 75.7676C183.752 75.7676 184.555 74.967 184.555 73.9795C184.555 72.9919 183.752 72.1913 182.762 72.1913C181.772 72.1913 180.969 72.9919 180.969 73.9795C180.969 74.967 181.772 75.7676 182.762 75.7676Z" fill="#A1616A"/>
<path d="M182.669 76.4146C182.669 76.4146 181.917 76.4022 181.805 75.7178C181.656 75.8463 181.498 75.965 181.334 76.0733C181.261 76.0982 180.543 76.5035 180.407 76.5284C180.275 76.5552 180.152 76.6165 180.051 76.7061C179.873 76.8449 179.729 77.0205 179.626 77.2205C179.524 77.4206 179.466 77.6405 179.457 77.8651C179.432 78.6667 179.334 80.2327 179.334 80.2327L179.371 80.7997V81.1694C179.371 81.1694 180.038 81.3472 180.441 80.9917C180.441 80.9917 180.441 80.8566 180.516 80.8139C180.591 80.7713 180.601 80.5917 180.589 80.5171C180.583 80.4064 180.583 80.2954 180.589 80.1847C180.602 80.2449 180.638 80.2978 180.689 80.3322C180.718 80.4325 180.727 80.5378 180.714 80.6415C180.676 80.7144 180.639 80.8868 180.676 80.9241C180.695 80.9572 180.703 80.9953 180.698 81.0331C180.694 81.0708 180.677 81.1062 180.651 81.1339C180.583 81.2288 180.529 81.333 180.491 81.4432C180.491 81.4432 180.454 81.6636 180.416 81.6885C180.374 81.7786 180.345 81.8744 180.331 81.9728H184.787C184.708 81.7477 184.649 81.5164 184.609 81.2814C184.621 81.1712 184.498 80.7144 184.584 80.5917C184.71 80.4292 184.779 80.2301 184.782 80.0247L184.832 80.5046L184.696 81.5711C184.696 81.5711 185.523 81.8307 185.611 81.6689C185.703 81.3874 185.773 81.0992 185.821 80.8068C185.821 80.8068 186.019 79.9181 186.069 79.7954C186.119 79.6728 186.229 77.2074 185.561 76.8501C184.892 76.4928 183.632 75.8778 183.6 75.908C183.529 76.0876 183.396 76.2365 183.226 76.3291C183.056 76.4216 182.859 76.4519 182.669 76.4146Z" fill="#00B0FF"/>
<path opacity="0.1" d="M180.521 78.8249C180.394 79.0065 180.339 79.229 180.368 79.4488C180.398 79.6665 180.469 79.8764 180.578 80.0674" stroke="black" stroke-miterlimit="10"/>
<path opacity="0.1" d="M184.851 78.9938C184.883 79.0842 184.908 79.1769 184.926 79.2711C184.958 79.3888 184.964 79.512 184.944 79.6323C184.924 79.7526 184.877 79.8671 184.808 79.9678" stroke="black" stroke-miterlimit="10"/>
<path d="M181.96 72.7566C182.1 72.7193 182.249 72.7344 182.379 72.7992C182.506 72.8649 182.64 72.9178 182.778 72.9574C182.871 72.977 182.956 72.977 183.06 72.9912C183.232 73.0224 183.391 73.1042 183.516 73.2261C183.641 73.3481 183.727 73.5046 183.762 73.6755C183.842 74.1128 183.584 74.5429 183.584 74.9891C183.585 75.2444 183.675 75.4914 183.839 75.6876C183.976 75.8126 184.096 75.9555 184.195 76.1125C184.247 76.2262 184.258 76.356 184.308 76.468C184.417 76.6693 184.597 76.8227 184.814 76.8981C185.029 76.9701 185.236 77.063 185.432 77.1754C185.789 77.4118 185.999 77.8651 186.413 77.9628C186.433 77.9717 186.456 77.9763 186.478 77.9763C186.5 77.9763 186.522 77.9717 186.543 77.9628C186.562 77.9479 186.577 77.929 186.587 77.9075C186.598 77.886 186.603 77.8623 186.604 77.8384C186.614 77.7514 186.604 77.6632 186.576 77.5804C186.547 77.4976 186.5 77.4224 186.438 77.3603C186.336 77.2589 186.188 77.1825 186.156 77.0457C186.124 76.9088 186.21 76.7915 186.256 76.667C186.404 76.2636 186.158 75.8245 185.878 75.4975C185.598 75.1704 185.263 74.8469 185.195 74.431C185.179 74.2905 185.174 74.1491 185.179 74.0079C185.174 73.7169 185.124 73.4285 185.03 73.1529C184.984 73.004 184.912 72.8648 184.816 72.7423C184.726 72.6357 184.612 72.5539 184.52 72.4508C184.397 72.2812 184.286 72.103 184.188 71.9176C184.046 71.6978 183.853 71.5161 183.625 71.3881C183.396 71.2601 183.14 71.1899 182.878 71.1835C182.377 71.1835 181.903 71.4039 181.479 71.6687C181.322 71.7536 181.187 71.872 181.083 72.0153C180.905 72.298 180.958 72.6712 180.855 72.9912C180.751 73.3111 180.507 73.5475 180.421 73.8604C180.395 73.9523 180.391 74.0491 180.409 74.143C180.441 74.2421 180.483 74.3374 180.536 74.4274C180.63 74.6563 180.684 74.8999 180.694 75.1473C180.721 75.4459 180.733 75.7676 180.577 76.0218C180.455 76.1759 180.303 76.3041 180.131 76.3986C180.306 76.5401 180.529 76.6083 180.753 76.5888C181.092 76.6031 181.484 76.5888 181.694 76.3222C181.82 76.1308 181.871 75.8998 181.837 75.6734C181.82 75.426 181.77 75.182 181.687 74.9482C181.571 74.6194 181.393 74.3083 181.341 73.9635C181.321 73.8391 181.326 73.7119 181.357 73.5897C181.388 73.4674 181.443 73.3527 181.52 73.2525C181.584 73.1725 181.698 73.1316 181.751 73.0463C181.819 72.9325 181.799 72.8134 181.96 72.7566Z" fill="#464353"/>
<g opacity="0.1">
<path opacity="0.1" d="M180.535 74.4043C180.63 74.6331 180.684 74.8768 180.694 75.1241C180.694 75.2024 180.707 75.2823 180.708 75.3623C180.727 75.1886 180.727 75.0134 180.708 74.8397C180.697 74.5953 180.644 74.3547 180.55 74.1287C180.498 74.0388 180.456 73.9442 180.423 73.8461C180.397 73.9374 180.393 74.0337 180.411 74.127C180.442 74.2235 180.484 74.3165 180.535 74.4043Z" fill="black"/>
<path opacity="0.1" d="M181.71 76.0431C181.5 76.308 181.108 76.324 180.769 76.3115C180.626 76.312 180.483 76.2904 180.347 76.2475C180.279 76.3026 180.206 76.3542 180.134 76.4039C180.309 76.5454 180.532 76.6136 180.757 76.5941C181.095 76.6084 181.487 76.5941 181.698 76.3275C181.818 76.1497 181.87 75.9344 181.844 75.7214C181.828 75.8384 181.782 75.9492 181.71 76.0431Z" fill="black"/>
<path opacity="0.1" d="M186.169 76.7541C186.174 76.7744 186.181 76.794 186.19 76.8127C186.211 76.763 186.236 76.7114 186.256 76.6599C186.299 76.5428 186.311 76.4168 186.292 76.2937C186.286 76.322 186.278 76.3499 186.268 76.3773C186.222 76.5017 186.138 76.6261 186.169 76.7541Z" fill="black"/>
<path opacity="0.1" d="M183.773 73.7608C183.793 73.639 183.793 73.5146 183.773 73.3929C183.738 73.2218 183.652 73.0652 183.527 72.9432C183.402 72.8212 183.243 72.7395 183.07 72.7085C182.976 72.6925 182.881 72.6925 182.789 72.6747C182.651 72.6344 182.517 72.5814 182.389 72.5165C182.26 72.4512 182.111 72.4353 181.971 72.4721C181.81 72.529 181.83 72.6499 181.758 72.7672C181.707 72.8525 181.591 72.8952 181.527 72.9734C181.385 73.1613 181.322 73.3959 181.348 73.6293C181.371 73.4933 181.428 73.3653 181.514 73.2578C181.578 73.1778 181.692 73.1369 181.746 73.0516C181.817 72.9325 181.798 72.8134 181.958 72.7565C182.098 72.7192 182.247 72.7344 182.377 72.7992C182.505 72.8648 182.638 72.9178 182.776 72.9574C182.869 72.9769 182.955 72.9769 183.058 72.9911C183.23 73.0223 183.389 73.1041 183.514 73.2261C183.639 73.348 183.725 73.5046 183.76 73.6755C183.766 73.7036 183.77 73.7321 183.773 73.7608Z" fill="black"/>
<path opacity="0.1" d="M186.548 77.6731C186.506 77.6894 186.46 77.6894 186.418 77.6731C186.005 77.5753 185.791 77.122 185.438 76.8856C185.24 76.7746 185.033 76.6818 184.819 76.6084C184.603 76.5337 184.422 76.3809 184.313 76.18C184.263 76.0644 184.252 75.9365 184.201 75.8245C184.101 75.6676 183.981 75.5247 183.844 75.3997C183.696 75.2234 183.606 75.0053 183.587 74.7758C183.577 74.8446 183.571 74.9141 183.571 74.9837C183.575 75.2424 183.669 75.4917 183.839 75.6876C183.976 75.8126 184.096 75.9555 184.195 76.1124C184.247 76.2262 184.258 76.356 184.308 76.4679C184.417 76.6693 184.597 76.8227 184.814 76.8981C185.029 76.97 185.236 77.0629 185.432 77.1754C185.789 77.4118 185.999 77.865 186.413 77.9628C186.433 77.9717 186.455 77.9762 186.478 77.9762C186.5 77.9762 186.522 77.9717 186.543 77.9628C186.562 77.9478 186.577 77.9289 186.587 77.9074C186.598 77.8859 186.603 77.8623 186.604 77.8384C186.612 77.7713 186.608 77.7034 186.593 77.6375C186.581 77.6531 186.566 77.6654 186.548 77.6731Z" fill="black"/>
</g>
<path opacity="0.1" d="M178.878 71.6829H176.585V74.9482H178.878V71.6829Z" fill="#00B0FF"/>
<path opacity="0.1" d="M178.55 72.1504H176.913V74.4824H178.55V72.1504Z" fill="#00B0FF"/>
<path opacity="0.1" d="M190.172 72.1735H186.407V74.1323H190.172V72.1735Z" fill="#00B0FF"/>
<path opacity="0.1" d="M189.682 72.4294H186.899V73.8781H189.682V72.4294Z" fill="#00B0FF"/>
</g>
<defs>
<clipPath id="clip0">
<rect width="206" height="124" fill="white" transform="translate(29)"/>
</clipPath>
</defs>
</svg>
