<svg width="50" height="50" viewBox="0 0 50 50" fill="none" xmlns="http://www.w3.org/2000/svg">
<path d="M43.0556 11.1111H31.9445V13.8889H43.0556V43.0555H31.9445V45.8333H45.8333V13.8889C45.8333 13.1521 45.5407 12.4456 45.0198 11.9247C44.4988 11.4037 43.7923 11.1111 43.0556 11.1111Z" fill="#00B0FF"/>
<path d="M27.6111 4.16675H8.49999C7.71907 4.16675 6.97014 4.47697 6.41795 5.02916C5.86576 5.58135 5.55554 6.33028 5.55554 7.11119V45.8334H30.5555V7.11119C30.5555 6.33028 30.2453 5.58135 29.6931 5.02916C29.1409 4.47697 28.392 4.16675 27.6111 4.16675ZM27.7778 43.0556H23.6111V38.889H12.5V43.0556H8.33332V7.11119C8.33332 7.08931 8.33763 7.06763 8.34601 7.04741C8.35438 7.02719 8.36666 7.00882 8.38214 6.99334C8.39761 6.97786 8.41598 6.96559 8.43621 6.95721C8.45643 6.94884 8.4781 6.94453 8.49999 6.94453H27.6111C27.633 6.94453 27.6547 6.94884 27.6749 6.95721C27.6951 6.96559 27.7135 6.97786 27.7289 6.99334C27.7444 7.00882 27.7567 7.02719 27.7651 7.04741C27.7735 7.06763 27.7778 7.08931 27.7778 7.11119V43.0556Z" fill="#00B0FF"/>
<path d="M11.1111 11.1111H13.8889V13.8889H11.1111V11.1111Z" fill="#00B0FF"/>
<path d="M16.6667 11.1111H19.4445V13.8889H16.6667V11.1111Z" fill="#00B0FF"/>
<path d="M22.2222 11.1111H25V13.8889H22.2222V11.1111Z" fill="#00B0FF"/>
<path d="M11.1111 18.0557H13.8889V20.8334H11.1111V18.0557Z" fill="#00B0FF"/>
<path d="M16.6667 18.0557H19.4445V20.8334H16.6667V18.0557Z" fill="#00B0FF"/>
<path d="M22.2222 18.0557H25V20.8334H22.2222V18.0557Z" fill="#00B0FF"/>
<path d="M11.1111 25H13.8889V27.7778H11.1111V25Z" fill="#00B0FF"/>
<path d="M16.6667 25H19.4445V27.7778H16.6667V25Z" fill="#00B0FF"/>
<path d="M22.2222 25H25V27.7778H22.2222V25Z" fill="#00B0FF"/>
<path d="M11.1111 31.9443H13.8889V34.7221H11.1111V31.9443Z" fill="#00B0FF"/>
<path d="M16.6667 31.9443H19.4445V34.7221H16.6667V31.9443Z" fill="#00B0FF"/>
<path d="M22.2222 31.9443H25V34.7221H22.2222V31.9443Z" fill="#00B0FF"/>
<path d="M31.9445 18.0557H34.7222V20.8334H31.9445V18.0557Z" fill="#00B0FF"/>
<path d="M37.5 18.0557H40.2778V20.8334H37.5V18.0557Z" fill="#00B0FF"/>
<path d="M31.9445 25H34.7222V27.7778H31.9445V25Z" fill="#00B0FF"/>
<path d="M37.5 25H40.2778V27.7778H37.5V25Z" fill="#00B0FF"/>
<path d="M31.9445 31.9443H34.7222V34.7221H31.9445V31.9443Z" fill="#00B0FF"/>
<path d="M37.5 31.9443H40.2778V34.7221H37.5V31.9443Z" fill="#00B0FF"/>
</svg>
