<svg width="50" height="50" viewBox="0 0 50 50" fill="none" xmlns="http://www.w3.org/2000/svg">
<path d="M25 27.0835C28.4518 27.0835 31.25 24.2853 31.25 20.8335C31.25 17.3817 28.4518 14.5835 25 14.5835C21.5482 14.5835 18.75 17.3817 18.75 20.8335C18.75 24.2853 21.5482 27.0835 25 27.0835Z" stroke="#00B0FF" stroke-width="2" stroke-linecap="round" stroke-linejoin="round"/>
<path d="M25 4.16675C20.5797 4.16675 16.3405 5.9227 13.2149 9.0483C10.0893 12.1739 8.33331 16.4131 8.33331 20.8334C8.33331 24.7751 9.17081 27.3542 11.4583 30.2084L25 45.8334L38.5416 30.2084C40.8291 27.3542 41.6666 24.7751 41.6666 20.8334C41.6666 16.4131 39.9107 12.1739 36.7851 9.0483C33.6595 5.9227 29.4203 4.16675 25 4.16675V4.16675Z" stroke="#00B0FF" stroke-width="2" stroke-linecap="round" stroke-linejoin="round"/>
</svg>
