<svg width="50" height="50" viewBox="0 0 50 50" fill="none" xmlns="http://www.w3.org/2000/svg">
<path d="M21.9875 13L14.9396 4.86456C14.1271 3.92706 12.6375 3.93123 11.6938 4.87706L5.89793 10.6833C4.17293 12.4104 3.67918 14.975 4.6771 17.0312C10.6388 29.3749 20.5939 39.3439 32.9292 45.3229C34.9833 46.3208 37.5458 45.8271 39.2708 44.1L45.1209 38.2396C46.0688 37.2916 46.0708 35.7937 45.125 34.9812L36.9583 27.9708C36.1042 27.2375 34.7771 27.3333 33.9208 28.1916L31.0792 31.0375C30.9337 31.1899 30.7422 31.2905 30.5341 31.3236C30.326 31.3567 30.1127 31.3206 29.9271 31.2208C25.2822 28.546 21.4292 24.688 18.7604 20.0396C18.6605 19.8536 18.6243 19.64 18.6574 19.4316C18.6905 19.2231 18.7911 19.0312 18.9438 18.8854L21.7771 16.05C22.6354 15.1875 22.7292 13.8541 21.9875 12.9979V13Z" stroke="#00B0FF" stroke-width="2" stroke-linecap="round" stroke-linejoin="round"/>
</svg>
