<svg width="1440" height="516" viewBox="0 0 1440 516" fill="none" xmlns="http://www.w3.org/2000/svg">
<g clip-path="url(#clip0)">
<path fill-rule="evenodd" clip-rule="evenodd" d="M-34 397.934L27.4167 319.576C88.8333 242.755 211.667 87.5762 334.5 66.0662C457.333 43.0199 580.167 153.642 703 221.245C825.833 287.311 948.667 308.821 1071.5 264.265C1194.33 221.245 1317.17 110.623 1378.58 55.3113L1440 0V464H1378.58C1317.17 464 1194.33 464 1071.5 464C948.667 464 825.833 464 703 464C580.167 464 457.333 464 334.5 464C211.667 464 88.8333 464 27.4167 464H-34V397.934Z" fill="#F1F1F1"/>
<path fill-rule="evenodd" clip-rule="evenodd" d="M-53 448.652L9.20833 368.775C71.4167 290.464 195.833 132.275 320.25 110.348C444.667 86.8543 569.083 199.623 693.5 268.536C817.917 335.884 942.333 357.811 1066.75 312.391C1191.17 268.536 1315.58 155.768 1377.79 99.3841L1440 43V516H1377.79C1315.58 516 1191.17 516 1066.75 516C942.333 516 817.917 516 693.5 516C569.083 516 444.667 516 320.25 516C195.833 516 71.4167 516 9.20833 516H-53V448.652Z" fill="#DCF4FF"/>
</g>
<defs>
<clipPath id="clip0">
<rect width="1440" height="516" fill="white"/>
</clipPath>
</defs>
</svg>
