<svg width="1440" height="687" viewBox="0 0 1440 687" fill="none" xmlns="http://www.w3.org/2000/svg">
<path fill-rule="evenodd" clip-rule="evenodd" d="M4.96552 119.553L64.5517 137.049C124.138 155.794 243.31 190.785 362.483 173.289C481.655 155.794 600.828 102.057 720 74.5644C839.172 48.3212 958.345 47.0715 1077.52 74.5645C1196.69 100.808 1315.86 137.049 1375.45 155.794L1435.03 173.289V443.22H1375.45C1315.86 443.22 1196.69 443.22 1077.52 443.22C958.345 443.22 839.172 443.22 720 443.22C600.828 443.22 481.655 443.22 362.483 443.22C243.31 443.22 124.138 443.22 64.5517 443.22H4.96552V119.553Z" fill="#EFEFEF"/>
<path fill-rule="evenodd" clip-rule="evenodd" d="M1440 630.502L1380 609.556C1312.5 587.114 1198 566.167 1080 566.167C947 566.167 840 576.641 720 609.556C600 640.975 493 700.181 360 684.363C237.513 669.796 120 616.638 60.0001 594.195L0 566.167V243H60.0001C120 243 240 243 360 243C480 243 600 243 720 243C840 243 960 243 1080 243C1200 243 1320 243 1380 243H1440V630.502Z" fill="#EFEFEF"/>
<path fill-rule="evenodd" clip-rule="evenodd" d="M0 65.0631L60 82.5374C120 101.26 240 136.208 360 118.734C480 101.26 600 47.5889 720 20.1293C840 -6.08209 960 -7.33025 1080 20.1293C1200 46.3407 1320 82.5374 1380 101.26L1440 118.734V388.337H1380C1320 388.337 1200 388.337 1080 388.337C960 388.337 840 388.337 720 388.337C600 388.337 480 388.337 360 388.337C240 388.337 120 388.337 60 388.337H0V65.0631Z" fill="#DCF4FF"/>
<path fill-rule="evenodd" clip-rule="evenodd" d="M1440 575.708L1380 554.762C1312.5 532.319 1198 511.373 1080 511.373C947 511.373 840 521.846 720 554.762C600 586.181 493 645.388 360 629.57C237.513 615.003 120 561.844 60.0001 539.401L0 511.373V188.199H60.0001C120 188.199 240 188.199 360 188.199C480 188.199 600 188.199 720 188.199C840 188.199 960 188.199 1080 188.199C1200 188.199 1320 188.199 1380 188.199H1440V575.708Z" fill="#DCF4FF"/>
</svg>
