<svg width="1440" height="733" viewBox="0 0 1440 733" fill="none" xmlns="http://www.w3.org/2000/svg">
<path fill-rule="evenodd" clip-rule="evenodd" d="M-154 124L-106.81 145.845C-58.19 167.691 36.19 211.381 132 255.072C227.81 298.762 322.19 342.453 418 349.734C513.81 357.016 608.19 327.889 704 284.199C799.81 240.508 894.19 182.254 990 189.536C1085.81 196.818 1180.19 269.635 1276 291.48C1371.81 313.326 1466.19 284.199 1514.81 269.635L1562 255.072V429.834H1514.81C1466.19 429.834 1371.81 429.834 1276 429.834C1180.19 429.834 1085.81 429.834 990 429.834C894.19 429.834 799.81 429.834 704 429.834C608.19 429.834 513.81 429.834 418 429.834C322.19 429.834 227.81 429.834 132 429.834C36.19 429.834 -58.19 429.834 -106.81 429.834H-154V124Z" fill="#1F4F9E"/>
<path fill-rule="evenodd" clip-rule="evenodd" d="M1562 733L1514.81 711.345C1466.19 689.691 1371.81 646.381 1276 603.072C1180.19 559.762 1085.81 516.453 990 509.234C894.19 502.016 799.81 530.889 704 574.199C608.19 617.508 513.81 675.254 418 668.036C322.19 660.818 227.81 588.635 132 566.98C36.1901 545.326 -58.1899 574.199 -106.81 588.635L-154 603.072V429.834H-106.81C-58.1899 429.834 36.1901 429.834 132 429.834C227.81 429.834 322.19 429.834 418 429.834C513.81 429.834 608.19 429.834 704 429.834C799.81 429.834 894.19 429.834 990 429.834C1085.81 429.834 1180.19 429.834 1276 429.834C1371.81 429.834 1466.19 429.834 1514.81 429.834H1562V733Z" fill="#1F4F9E"/>
<path fill-rule="evenodd" clip-rule="evenodd" d="M0 14L39.6 38.5714C80.4 63.1429 159.6 112.286 240 161.429C320.4 210.571 399.6 259.714 480 267.905C560.4 276.095 639.6 243.333 720 194.19C800.4 145.048 879.6 79.5238 960 87.7143C1040.4 95.9048 1119.6 177.81 1200 202.381C1280.4 226.952 1359.6 194.19 1400.4 177.81L1440 161.429V358H1400.4C1359.6 358 1280.4 358 1200 358C1119.6 358 1040.4 358 960 358C879.6 358 800.4 358 720 358C639.6 358 560.4 358 480 358C399.6 358 320.4 358 240 358C159.6 358 80.4 358 39.6 358H0V14Z" fill="#2979FF"/>
<path fill-rule="evenodd" clip-rule="evenodd" d="M1440 685L1400.4 660.643C1359.6 636.286 1280.4 587.571 1200 538.857C1119.6 490.143 1040.4 441.429 960 433.31C879.6 425.19 800.4 457.667 720 506.381C639.6 555.095 560.4 620.048 480 611.929C399.6 603.81 320.4 522.619 240 498.262C159.6 473.905 80.3999 506.381 39.5999 522.619L-5.72205e-05 538.857V344H39.5999C80.3999 344 159.6 344 240 344C320.4 344 399.6 344 480 344C560.4 344 639.6 344 720 344C800.4 344 879.6 344 960 344C1040.4 344 1119.6 344 1200 344C1280.4 344 1359.6 344 1400.4 344H1440V685Z" fill="#2979FF"/>
</svg>
