<svg width="1440" height="290" viewBox="0 0 1440 290" fill="none" xmlns="http://www.w3.org/2000/svg">
<path fill-rule="evenodd" clip-rule="evenodd" d="M1526 108.069L1483.61 121.812C1441.22 134.931 1356.44 161.792 1271.67 157.419C1186.89 153.046 1102.11 116.815 1017.33 85.581C932.556 54.347 847.778 26.8612 763 36.2314C678.222 44.9769 593.444 89.9537 508.667 99.3239C423.889 108.069 339.111 81.2082 254.333 58.7198C169.556 36.2314 84.7778 18.1157 42.3889 9.37018L0 0V243H42.3889C84.7778 243 169.556 243 254.333 243C339.111 243 423.889 243 508.667 243C593.444 243 678.222 243 763 243C847.778 243 932.556 243 1017.33 243C1102.11 243 1186.89 243 1271.67 243C1356.44 243 1441.22 243 1483.61 243H1526V108.069Z" fill="#0091EA"/>
<path fill-rule="evenodd" clip-rule="evenodd" d="M1440 144.519L1400 159.337C1360 173.481 1280 202.442 1200 197.728C1120 193.013 1040 153.949 960 120.272C880 86.5964 800 56.9614 720 67.0643C640 76.4936 560 124.987 480 135.09C400 144.519 320 115.558 240 91.3111C160 67.0643 80 47.5321 40 38.1028L0 28V290H40C80 290 160 290 240 290C320 290 400 290 480 290C560 290 640 290 720 290C800 290 880 290 960 290C1040 290 1120 290 1200 290C1280 290 1360 290 1400 290H1440V144.519Z" fill="url(#paint0_linear)"/>
<defs>
<linearGradient id="paint0_linear" x1="720" y1="28" x2="720" y2="290" gradientUnits="userSpaceOnUse">
<stop stop-color="#00E5FF"/>
<stop offset="0.5" stop-color="#00B0FF"/>
<stop offset="1" stop-color="#2979FF"/>
</linearGradient>
</defs>
</svg>
