<svg width="887" height="320" viewBox="0 0 887 320" fill="none" xmlns="http://www.w3.org/2000/svg">
<g clip-path="url(#clip0_621_70)">
<path fill-rule="evenodd" clip-rule="evenodd" d="M0 0L36.9583 19.7792C73.9167 40.2649 147.833 81.2362 221.75 96.0706C295.667 111.611 369.583 101.722 443.5 81.2362C517.417 60.7506 591.333 30.3753 665.25 30.3753C739.167 30.3753 813.083 60.7506 850.042 76.2914L887 91.1258V213.333H850.042C813.083 213.333 739.167 213.333 665.25 213.333C591.333 213.333 517.417 213.333 443.5 213.333C369.583 213.333 295.667 213.333 221.75 213.333C147.833 213.333 73.9167 213.333 36.9583 213.333H0V0Z" fill="#F8F8F8"/>
<path fill-rule="evenodd" clip-rule="evenodd" d="M887 320L850.042 300.221C813.083 279.735 739.167 238.764 665.25 223.929C591.333 208.389 517.417 218.278 443.5 238.764C369.583 259.249 295.667 289.625 221.75 289.625C147.833 289.625 73.9167 259.249 36.9583 243.709L0 228.874V106.667H36.9583C73.9167 106.667 147.833 106.667 221.75 106.667C295.667 106.667 369.583 106.667 443.5 106.667C517.417 106.667 591.333 106.667 665.25 106.667C739.167 106.667 813.083 106.667 850.042 106.667H887V320Z" fill="#F8F8F8"/>
</g>
<defs>
<clipPath id="clip0_621_70">
<rect width="887" height="320" fill="white"/>
</clipPath>
</defs>
</svg>
