<svg width="1440" height="696" viewBox="0 0 1440 696" fill="none" xmlns="http://www.w3.org/2000/svg">
<path fill-rule="evenodd" clip-rule="evenodd" d="M1482 696L1440.83 646C1399.67 596 1317.33 495 1235 473C1152.67 452 1070.33 509 988 567C905.667 624 823.333 682 741 660C658.667 639 576.333 538 494 545C411.667 552 329.333 668 247 682C164.667 696 82.3333 610 41.1666 567L0 524V394H41.1666C82.3333 394 164.667 394 247 394C329.333 394 411.667 394 494 394C576.333 394 658.667 394 741 394C823.333 394 905.667 394 988 394C1070.33 394 1152.67 394 1235 394C1317.33 394 1399.67 394 1440.83 394H1482V696Z" fill="#F1F1F1"/>
<path fill-rule="evenodd" clip-rule="evenodd" d="M-37 9L4.02778 59C45.0556 109 127.111 210 209.167 232C291.222 253 373.278 196 455.333 138C537.389 81 619.444 23 701.5 45C783.556 66 865.611 167 947.667 160C1029.72 153 1111.78 37 1193.83 23C1275.89 9 1357.94 95 1398.97 138L1440 181V311H1398.97C1357.94 311 1275.89 311 1193.83 311C1111.78 311 1029.72 311 947.667 311C865.611 311 783.556 311 701.5 311C619.444 311 537.389 311 455.333 311C373.278 311 291.222 311 209.167 311C127.111 311 45.0556 311 4.02778 311H-37V9Z" fill="#F1F1F1"/>
<path fill-rule="evenodd" clip-rule="evenodd" d="M0 55L40 105C80 155 160 256 240 278C320 299 400 242 480 184C560 127 640 69 720 91C800 112 880 213 960 206C1040 199 1120 83 1200 69C1280 55 1360 141 1400 184L1440 227V357H1400C1360 357 1280 357 1200 357C1120 357 1040 357 960 357C880 357 800 357 720 357C640 357 560 357 480 357C400 357 320 357 240 357C160 357 80 357 40 357H0V55Z" fill="#DCF4FF"/>
<path fill-rule="evenodd" clip-rule="evenodd" d="M1440 656L1400 606C1360 556 1280 455 1200 433C1120 412 1040 469 960 527C880 584 800 642 720 620C640 599 560 498 480 505C400 512 320 628 240 642C160 656 80 570 40 527L0 484V354H40C80 354 160 354 240 354C320 354 400 354 480 354C560 354 640 354 720 354C800 354 880 354 960 354C1040 354 1120 354 1200 354C1280 354 1360 354 1400 354H1440V656Z" fill="#DCF4FF"/>
</svg>
